<svg width="120" height="29" viewBox="0 0 120 29" fill="none" xmlns="http://www.w3.org/2000/svg">
<path d="M90.158 27.823C91.739 26.3487 92.494 25.4491 92.994 24.4683C93.528 23.4187 93.875 22.0756 93.969 20.7199C94.269 16.2656 94.843 12.8671 95.617 10.9305C96.011 9.9497 96.358 9.4561 97.206 8.6565C98.154 7.76938 99.001 7.22587 100.577 6.50744C102.372 5.68281 103.694 5.23301 107.051 4.29592C108.787 3.81488 109.928 3.44629 113.425 2.24058C115.321 1.58462 118.725 0.366406 119.673 0.00406609C119.82 -0.0521639 120 0.485096 120 0.978626C120 1.40345 119.973 1.5034 119.74 1.94071C119.299 2.77784 118.612 3.3276 116.863 4.25844C114.6 5.45791 113.052 6.07638 108.486 7.56947C106.003 8.3879 104.982 8.7564 103.213 9.4874C100.343 10.6744 99.402 11.1804 98.421 12.0612C97.747 12.6672 97.339 13.2232 96.932 14.1166L96.619 14.7913L96.539 14.4602C96.438 14.0916 96.425 13.3919 96.498 13.1732C96.545 13.0483 96.532 13.0296 96.425 13.0483C96.358 13.0608 96.225 13.217 96.118 13.4231C95.944 13.7355 95.918 13.8917 95.838 14.835C95.784 15.416 95.698 16.1719 95.637 16.5093C95.577 16.8529 95.504 17.6088 95.471 18.1898C95.304 20.9198 95.057 22.188 94.369 23.7748C93.915 24.8431 93.395 25.649 92.774 26.2737C91.9 27.1421 90.004 28.5102 89.016 28.985C88.903 29.0412 89.397 28.5415 90.158 27.823Z" fill="white"/>
<path d="M100.31 28.6727C99.696 28.6477 98.848 28.5415 98.468 28.4353C97.967 28.2978 97.76 28.1729 97.486 27.823C97.339 27.6481 97.179 27.4607 97.113 27.4107C97.012 27.3357 97.039 27.292 97.386 26.9922C97.713 26.711 97.813 26.661 98.04 26.6548C98.281 26.6548 98.334 26.686 98.674 27.0421C99.522 27.9292 99.869 28.2104 100.43 28.4665C100.73 28.6039 100.93 28.7101 100.877 28.7039C100.824 28.6976 100.57 28.6852 100.31 28.6727Z" fill="white"/>
<path d="M90.738 28.5977C90.585 28.5602 90.591 28.5415 90.938 28.3416C91.559 27.9667 92.607 27.1546 93.275 26.5299C94.496 25.3741 95.277 23.9935 95.731 22.1568C95.804 21.8632 95.991 20.7137 96.138 19.5954C96.292 18.4772 96.445 17.3589 96.485 17.1028L96.559 16.6405L96.745 17.1215C96.846 17.3901 97.206 18.0711 97.546 18.6333C98.468 20.1827 98.681 20.8449 98.681 22.1693C98.674 23.6999 98.254 24.7306 97.099 26.0051C96.565 26.5923 96.258 26.8547 95.671 27.2233C94.423 28.0042 92.827 28.5227 91.366 28.6164C91.112 28.6289 90.825 28.6227 90.738 28.5977Z" fill="white"/>
<path d="M101.711 28.2791C100.737 27.9542 100.21 27.6606 99.549 27.0608C98.881 26.4611 98.594 26.2799 98.314 26.2799C98.154 26.2799 98.16 26.2612 98.521 25.7989C98.721 25.5303 98.941 25.2179 99.001 25.0992L99.108 24.8931L99.502 24.9368C100.049 24.993 100.203 25.0805 100.904 25.7427C101.371 26.1862 101.625 26.3674 102.012 26.5486C102.733 26.8859 103.44 27.0421 104.288 27.0484C105.082 27.0608 105.069 27.0484 104.742 27.5044C104.375 28.0042 103.634 28.3165 102.646 28.3728C102.212 28.404 102.038 28.3853 101.711 28.2791Z" fill="white"/>
<path d="M103.514 25.9988C102.653 25.8239 102.058 25.5366 101.398 24.993C100.79 24.4933 100.39 24.3308 99.816 24.3558L99.362 24.3746L99.442 24.1871C99.515 24.031 99.596 23.7124 99.776 22.8627C99.809 22.7128 100.109 22.5941 100.437 22.5941C100.804 22.5941 101.344 22.9564 102.312 23.856C102.826 24.3308 103.387 24.8119 103.56 24.9306C104.321 25.4366 105.256 25.6802 106.297 25.6428L106.951 25.624L106.597 25.7677C106.41 25.8489 106.07 25.9551 105.85 25.9988C105.349 26.1113 104.054 26.1113 103.514 25.9988Z" fill="white"/>
<path d="M105.349 24.437C104.682 24.2996 104.048 23.9622 103.28 23.3375C101.792 22.1381 100.877 21.7695 100.13 22.0818L99.829 22.2068L99.789 21.4758C99.762 21.076 99.729 20.6762 99.702 20.5887C99.662 20.4326 99.682 20.4201 100.103 20.3139C101.057 20.0702 102.065 20.4013 104.181 21.657C105.316 22.3255 107.125 23.1876 107.946 23.45C108.299 23.5562 108.653 23.6124 109.16 23.6374C109.881 23.6749 109.881 23.6749 109.721 23.7936C109.454 23.9872 108.747 24.2746 108.253 24.3746C107.578 24.5183 105.903 24.5557 105.349 24.437Z" fill="white"/>
<path d="M108.913 22.5316C108.186 22.3942 107.044 21.9381 104.915 20.9323C103.3 20.1639 102.766 19.964 101.945 19.8203C100.997 19.6516 100.477 19.7079 99.903 20.0515L99.622 20.2139L99.415 19.6704C99.302 19.3705 99.088 18.9457 98.948 18.7208C98.801 18.4959 98.694 18.3085 98.701 18.296C98.714 18.2897 99.015 18.2085 99.375 18.1273C101.177 17.6962 102.539 18.0586 105.783 19.8453C107.885 21.001 109.154 21.4633 110.789 21.6633C111.376 21.732 112.845 21.7132 113.125 21.6258C113.405 21.5383 112.851 21.9194 112.391 22.1318C111.236 22.6503 110.182 22.769 108.913 22.5316Z" fill="white"/>
<path d="M110.789 20.4638C110.222 20.3888 109.14 20.1202 108.626 19.9265C108.386 19.839 107.385 19.3892 106.404 18.9394C103.567 17.615 102.799 17.3839 101.311 17.3776C100.263 17.3776 99.976 17.4401 99.048 17.8399L98.501 18.0773L98.274 17.765L98.047 17.4526L98.341 17.2027C98.968 16.6842 99.876 16.3968 101.264 16.2719C102.279 16.1782 102.733 16.2219 105.783 16.6904C111.143 17.5088 111.83 17.5963 113.125 17.5963C114.547 17.5963 115.581 17.4151 116.536 17.0028C116.81 16.8903 117.03 16.8029 117.03 16.8154C117.03 16.9278 116.569 17.9024 116.349 18.2522C115.495 19.6079 114.734 20.1639 113.345 20.4325C112.785 20.5387 111.476 20.5575 110.789 20.4638Z" fill="white"/>
<path d="M97.773 17.0965C97.72 17.0403 97.673 16.9653 97.673 16.9278C97.673 16.7904 98.835 15.8408 99.522 15.4035C101.144 14.3915 103.02 13.723 105.115 13.4106C106.397 13.2232 107.498 13.1545 111.837 13.0046C115.681 12.8671 116.723 12.7109 117.984 12.08C118.431 11.8613 118.431 11.8613 118.598 12.3736C118.712 12.7297 118.725 13.4356 118.625 13.8479C118.512 14.3102 118.104 15.0099 117.737 15.366C117.13 15.9595 115.922 16.4593 114.76 16.5905C113.445 16.7467 112.438 16.6842 109.02 16.2219C104.101 15.5597 102.639 15.4472 101.351 15.6222C99.903 15.8221 98.875 16.2281 98.247 16.8466C97.907 17.1777 97.873 17.1965 97.773 17.0965Z" fill="white"/>
<path d="M97.373 16.5093C97.259 16.3156 97.259 16.2719 97.339 16.1157C97.473 15.8658 99.335 14.1416 100.009 13.6356C101.464 12.5548 102.98 11.9425 105.863 11.2866C107.578 10.893 108.399 10.7493 110.642 10.437C114.533 9.9059 117.25 9.3125 118.498 8.7252C118.999 8.4878 119.052 8.5128 119.086 9.0563C119.119 9.5186 118.925 10.0559 118.618 10.387C118.278 10.7493 117.317 11.1242 116.162 11.3428C115.214 11.5302 114.62 11.5865 112.024 11.7239C106.824 12.005 105.095 12.2362 103.08 12.9046C100.964 13.6168 98.835 15.0162 97.78 16.3968C97.64 16.5718 97.52 16.7217 97.513 16.7217C97.5 16.7217 97.44 16.6217 97.373 16.5093Z" fill="white"/>
<path d="M96.952 15.6721C96.872 15.4722 96.806 15.2598 96.806 15.1973C96.806 15.1349 96.926 14.86 97.066 14.5914C97.893 13.0545 98.808 12.2174 100.55 11.4303C102.005 10.768 105.136 9.6873 108.373 8.7252C113.566 7.18838 115.154 6.59489 117.644 5.27048L118.291 4.92688L118.678 5.1018C119.346 5.40792 119.633 5.72653 119.633 6.15134C119.633 6.63238 119.339 7.06968 118.732 7.50699C118.004 8.0255 117.17 8.3066 114.714 8.8814C113.118 9.25 112.378 9.3937 109.821 9.8185C108.213 10.0809 107.331 10.2745 105.549 10.7556C102.112 11.6801 100.777 12.3736 98.741 14.2915C98.281 14.7226 97.74 15.2911 97.54 15.5534C97.339 15.8158 97.159 16.0282 97.139 16.0282C97.119 16.0345 97.039 15.872 96.952 15.6721Z" fill="white"/>
<path d="M85.8 2V6L87.2 6.1C87.3 6.4 87.4 6.6 87.4 6.8C87.5 7 87.6 7.1 87.6 7.2C87.6 7.3 87.5 7.4 87.4 7.6C87.3 7.7 87 7.8 86.8 7.8C86.7 7.8 86.5 7.8 86.4 7.7H86L85.3 8.9L84.1 8.4H74.1L73.6 9L73 8.6H65.8L65.7 9.2H54.4L53.1 9.9C52.8 10.1 52.5 10.3 52.1 10.4C51.8 10.5 51.5 10.5 51.4 10.5C51.2 10.5 50.9 10.5 50.7 10.4C50.5 10.4 50.4 10.3 50.4 10.2L49.9 9.9H44.8C44.8 11.2 45.1 12.5 45.7 13.8C46.2 15 47 16.3 48 17.7C49.1 19.1 50.7 20.6 52.7 22C52.7 22 52.4 22.3 52 22.9C51.7 23.5 51.3 24.1 50.8 24.8C50.4 25.6 49.8 26.5 49.1 27.5C47.6 26.5 46.2 25.3 44.8 23.8C43.6 22.6 42.4 21.1 41.2 19.2C40 17.4 38.9 15.3 38.1 12.8C38 12.7 37.9 12.7 37.7 12.8C37.6 12.9 37.5 13 37.4 13.1L36.3 13C35.7 13.3 35.1 13.5 34.5 13.7C34 13.9 33.4 13.9 32.7 13.8C32 13.7 31.3 13.4 30.7 12.9C30.7 12.9 30.4 13.1 30 13.5C29.6 13.9 29.1 14.4 28.6 15C28.1 15.6 27.6 16.3 27.1 17.1C26.6 17.8 26.3 18.6 26.1 19.3C26.1 19.3 25.9 19.4 25.4 19.6C25 19.8 24.5 19.9 23.9 19.9C23.4 19.9 22.8 19.8 22.3 19.5C21.8 19.2 21.5 18.6 21.4 17.7C21.4 17.6 21.6 17.2 22 16.5C22.3 15.9 22.7 15.2 23.1 14.4C23.5 13.7 23.9 13 24.2 12.3C24.6 11.7 24.8 11.4 24.9 11.4C24.8 11.4 24.6 11.3 24.3 11C24 10.7 23.7 10.6 23.3 10.7C23.2 10.7 23 10.8 22.6 11C22.2 11.1 21.6 11.3 20.9 11.6C20.2 11.8 19.5 12.1 18.7 12.4C17.9 12.7 17 13 16.2 13.3C14.2 14 12 14.8 9.5 15.8L0.7 18.6L0 8.1C0.4 7.8 0.8 7.6 1.3 7.4C1.8 7.2 2.3 7.1 2.9 7C3.5 6.9 4.1 6.9 4.8 7C4.8 7.1 5.3 7 6.4 7C7.5 6.9 8.7 6.8 10.1 6.7L15.5 6.4C15.8 6.5 16.2 6.6 16.5 6.7C17.1 6.9 17.6 7 18.1 7C18.2 7 18.6 6.9 19 6.8C19.5 6.7 20.1 6.6 20.6 6.4C21.2 6.3 21.9 6 22.7 5.8L26.1 2.9L26.4 3.2H47.3C47.3 3.2 47.4 3.1 47.5 3C47.6 2.9 47.7 2.9 47.9 2.8C48.1 2.8 48.4 2.7 48.8 2.7L64.8 2.8C65.1 2.9 65.4 3 65.7 3.1C65.9 3.2 66.2 3.2 66.4 3.3C66.7 3.5 66.9 3.6 67.1 3.6H73.8C74.1 4 74.5 4.5 74.8 4.8C75.1 5.1 75.4 5.4 75.7 5.7C76 6 76.2 6.1 76.4 6.1H82.3L82.7 6C83 5.5 83.2 5 83.3 4.6C83.5 4.3 83.6 3.9 83.8 3.5C83.9 3.1 84 2.9 84.1 2.8C84.2 2.5 84.2 2.3 84.2 2.2V2H85.8ZM34.8 10.4H32.8C32.4 10.4 32.1 10.5 31.8 10.7C31.6 11 31.4 11.3 31.4 11.7C31.4 12 31.5 12.3 31.8 12.6C32.1 12.8 32.4 13 32.8 13H34.8C35.2 13 35.5 12.9 35.7 12.6C35.9 12.4 36 12.1 36 11.7C36 11.3 35.9 11 35.7 10.7C35.4 10.5 35.1 10.4 34.8 10.4Z" fill="white"/>
</svg>
