<svg width="106" height="32" viewBox="0 0 106 32" fill="none" xmlns="http://www.w3.org/2000/svg">
<path d="M76.158 30.823C77.739 29.3487 78.494 28.4491 78.994 27.4683C79.528 26.4187 79.875 25.0756 79.969 23.7199C80.269 19.2656 80.843 15.8671 81.617 13.9305C82.011 12.9497 82.358 12.4561 83.206 11.6565C84.154 10.7694 85.001 10.2259 86.577 9.50744C88.372 8.68281 89.694 8.23301 93.051 7.29592C94.787 6.81488 95.928 6.44629 99.425 5.24058C101.321 4.58462 104.725 3.36641 105.673 3.00407C105.82 2.94784 106 3.4851 106 3.97863C106 4.40345 105.973 4.5034 105.74 4.94071C105.299 5.77784 104.612 6.3276 102.863 7.25844C100.6 8.45791 99.052 9.07638 94.486 10.5695C92.003 11.3879 90.982 11.7564 89.213 12.4874C86.343 13.6744 85.402 14.1804 84.421 15.0612C83.747 15.6672 83.339 16.2232 82.932 17.1166L82.619 17.7913L82.539 17.4602C82.438 17.0916 82.425 16.3919 82.498 16.1732C82.545 16.0483 82.532 16.0296 82.425 16.0483C82.358 16.0608 82.225 16.217 82.118 16.4231C81.944 16.7355 81.918 16.8917 81.838 17.835C81.784 18.416 81.698 19.1719 81.637 19.5093C81.577 19.8529 81.504 20.6088 81.471 21.1898C81.304 23.9198 81.057 25.188 80.369 26.7748C79.915 27.8431 79.395 28.649 78.774 29.2737C77.9 30.1421 76.004 31.5102 75.016 31.985C74.903 32.0412 75.397 31.5415 76.158 30.823Z" fill="white"/>
<path d="M86.31 31.6727C85.696 31.6477 84.848 31.5415 84.468 31.4353C83.967 31.2978 83.76 31.1729 83.486 30.823C83.339 30.6481 83.179 30.4607 83.113 30.4107C83.012 30.3357 83.039 30.292 83.386 29.9922C83.713 29.711 83.813 29.661 84.04 29.6548C84.281 29.6548 84.334 29.686 84.674 30.0421C85.522 30.9292 85.869 31.2104 86.43 31.4665C86.73 31.6039 86.93 31.7101 86.877 31.7039C86.824 31.6976 86.57 31.6852 86.31 31.6727Z" fill="white"/>
<path d="M76.738 31.5977C76.585 31.5602 76.591 31.5415 76.938 31.3416C77.559 30.9667 78.607 30.1546 79.275 29.5299C80.496 28.3741 81.277 26.9935 81.731 25.1568C81.804 24.8632 81.991 23.7137 82.138 22.5954C82.292 21.4772 82.445 20.3589 82.485 20.1028L82.559 19.6405L82.745 20.1215C82.846 20.3901 83.206 21.0711 83.546 21.6333C84.468 23.1827 84.681 23.8449 84.681 25.1693C84.674 26.6999 84.254 27.7306 83.099 29.0051C82.565 29.5923 82.258 29.8547 81.671 30.2233C80.423 31.0042 78.827 31.5227 77.366 31.6164C77.112 31.6289 76.825 31.6227 76.738 31.5977Z" fill="white"/>
<path d="M87.711 31.2791C86.737 30.9542 86.21 30.6606 85.549 30.0608C84.881 29.4611 84.594 29.2799 84.314 29.2799C84.154 29.2799 84.16 29.2612 84.521 28.7989C84.721 28.5303 84.941 28.2179 85.001 28.0992L85.108 27.8931L85.502 27.9368C86.049 27.993 86.203 28.0805 86.904 28.7427C87.371 29.1862 87.625 29.3674 88.012 29.5486C88.733 29.8859 89.44 30.0421 90.288 30.0484C91.082 30.0608 91.069 30.0484 90.742 30.5044C90.375 31.0042 89.634 31.3165 88.646 31.3728C88.212 31.404 88.038 31.3853 87.711 31.2791Z" fill="white"/>
<path d="M89.514 28.9988C88.653 28.8239 88.058 28.5366 87.398 27.993C86.79 27.4933 86.39 27.3308 85.816 27.3558L85.362 27.3746L85.442 27.1871C85.515 27.031 85.596 26.7124 85.776 25.8627C85.809 25.7128 86.109 25.5941 86.437 25.5941C86.804 25.5941 87.344 25.9564 88.312 26.856C88.826 27.3308 89.387 27.8119 89.56 27.9306C90.321 28.4366 91.256 28.6802 92.297 28.6428L92.951 28.624L92.597 28.7677C92.41 28.8489 92.07 28.9551 91.85 28.9988C91.349 29.1113 90.054 29.1113 89.514 28.9988Z" fill="white"/>
<path d="M91.349 27.437C90.682 27.2996 90.048 26.9622 89.28 26.3375C87.792 25.1381 86.877 24.7695 86.13 25.0818L85.829 25.2068L85.789 24.4758C85.762 24.076 85.729 23.6762 85.702 23.5887C85.662 23.4326 85.682 23.4201 86.103 23.3139C87.057 23.0702 88.065 23.4013 90.181 24.657C91.316 25.3255 93.125 26.1876 93.946 26.45C94.299 26.5562 94.653 26.6124 95.16 26.6374C95.881 26.6749 95.881 26.6749 95.721 26.7936C95.454 26.9872 94.747 27.2746 94.253 27.3746C93.578 27.5183 91.903 27.5557 91.349 27.437Z" fill="white"/>
<path d="M94.913 25.5316C94.186 25.3942 93.044 24.9381 90.915 23.9323C89.3 23.1639 88.766 22.964 87.945 22.8203C86.997 22.6516 86.477 22.7079 85.903 23.0515L85.622 23.2139L85.415 22.6704C85.302 22.3705 85.088 21.9457 84.948 21.7208C84.801 21.4959 84.694 21.3085 84.701 21.296C84.714 21.2897 85.015 21.2085 85.375 21.1273C87.177 20.6962 88.539 21.0586 91.783 22.8453C93.885 24.001 95.154 24.4633 96.789 24.6633C97.376 24.732 98.845 24.7132 99.125 24.6258C99.405 24.5383 98.851 24.9194 98.391 25.1318C97.236 25.6503 96.182 25.769 94.913 25.5316Z" fill="white"/>
<path d="M96.789 23.4638C96.222 23.3888 95.14 23.1202 94.626 22.9265C94.386 22.839 93.385 22.3892 92.404 21.9394C89.567 20.615 88.799 20.3839 87.311 20.3776C86.263 20.3776 85.976 20.4401 85.048 20.8399L84.501 21.0773L84.274 20.765L84.047 20.4526L84.341 20.2027C84.968 19.6842 85.876 19.3968 87.264 19.2719C88.279 19.1782 88.733 19.2219 91.783 19.6904C97.143 20.5088 97.83 20.5963 99.125 20.5963C100.547 20.5963 101.581 20.4151 102.536 20.0028C102.81 19.8903 103.03 19.8029 103.03 19.8154C103.03 19.9278 102.569 20.9024 102.349 21.2522C101.495 22.6079 100.734 23.1639 99.345 23.4325C98.785 23.5387 97.476 23.5575 96.789 23.4638Z" fill="white"/>
<path d="M83.773 20.0965C83.72 20.0403 83.673 19.9653 83.673 19.9278C83.673 19.7904 84.835 18.8408 85.522 18.4035C87.144 17.3915 89.02 16.723 91.115 16.4106C92.397 16.2232 93.498 16.1545 97.837 16.0046C101.681 15.8671 102.723 15.7109 103.984 15.08C104.431 14.8613 104.431 14.8613 104.598 15.3736C104.712 15.7297 104.725 16.4356 104.625 16.8479C104.512 17.3102 104.104 18.0099 103.737 18.366C103.13 18.9595 101.922 19.4593 100.76 19.5905C99.445 19.7467 98.438 19.6842 95.02 19.2219C90.101 18.5597 88.639 18.4472 87.351 18.6222C85.903 18.8221 84.875 19.2281 84.247 19.8466C83.907 20.1777 83.873 20.1965 83.773 20.0965Z" fill="white"/>
<path d="M83.373 19.5093C83.259 19.3156 83.259 19.2719 83.339 19.1157C83.473 18.8658 85.335 17.1416 86.009 16.6356C87.464 15.5548 88.98 14.9425 91.863 14.2866C93.578 13.893 94.399 13.7493 96.642 13.437C100.533 12.9059 103.25 12.3125 104.498 11.7252C104.999 11.4878 105.052 11.5128 105.086 12.0563C105.119 12.5186 104.925 13.0559 104.618 13.387C104.278 13.7493 103.317 14.1242 102.162 14.3428C101.214 14.5302 100.62 14.5865 98.024 14.7239C92.824 15.005 91.095 15.2362 89.08 15.9046C86.964 16.6168 84.835 18.0162 83.78 19.3968C83.64 19.5718 83.52 19.7217 83.513 19.7217C83.5 19.7217 83.44 19.6217 83.373 19.5093Z" fill="white"/>
<path d="M82.952 18.6721C82.872 18.4722 82.806 18.2598 82.806 18.1973C82.806 18.1349 82.926 17.86 83.066 17.5914C83.893 16.0545 84.808 15.2174 86.55 14.4303C88.005 13.768 91.136 12.6873 94.373 11.7252C99.566 10.1884 101.154 9.59489 103.644 8.27048L104.291 7.92688L104.678 8.1018C105.346 8.40792 105.633 8.72653 105.633 9.15134C105.633 9.63238 105.339 10.0697 104.732 10.507C104.004 11.0255 103.17 11.3066 100.714 11.8814C99.118 12.25 98.378 12.3937 95.821 12.8185C94.213 13.0809 93.331 13.2745 91.549 13.7556C88.112 14.6801 86.777 15.3736 84.741 17.2915C84.281 17.7226 83.74 18.2911 83.54 18.5534C83.339 18.8158 83.159 19.0282 83.139 19.0282C83.119 19.0345 83.039 18.872 82.952 18.6721Z" fill="white"/>
<path d="M36.5 13.6C36.4 13.7 36.3 13.7 36.3 13.8C36.1 14 36 14.2 36 14.6C36 14.7 36 15 36.1 15.4C36.1 15.5 36.1 15.6 36 15.6C35.9 15.7 35.6 15.7 35.2 15.6H34.7C34.7 15.9 34.6 16 34.5 16H33.6C33.5 16 33.4 16 33.3 16.1C33.2 16.2 33.1 16.3 33.1 16.3C32.9 16.5 32.3 17.6 31.3 19.7C31 20.2 31 20.6 31.2 20.9C31.3 21.2 31.5 21.3 31.8 21.4C32.3 21.5 33.1 21.5 34.3 21.4C35.2 21.3 35.9 21.1 36.4 20.7C36.7 20.4 38 18.5 40.1 15.1C40.2 14.9 40.1 14.4 39.6 13.6H36.5ZM71.7 7.6C71.8 7.6 71.9 7.6 72.1 7.6C72.2 7.6 72.4 7.5 72.6 7.4H74.4L74.6 7.7C74.7 8 74.8 8.3 74.8 8.6C74.8 8.9 74.8 9.2 74.6 9.5C74.5 9.7 74.4 9.8 74.3 9.8H72.6C72.6 9.8 72.4 9.7 72.3 9.7C72.2 9.7 72.1 9.7 72 9.7C71.8 9.7 71.7 9.7 71.6 9.8H71.4H70.4L70.2 9.7H68.5L68.4 9.5H67.6C67.5 9.7 67.4 9.8 67.3 9.8H65.8C65.7 9.8 65.6 9.8 65.5 9.7L65.4 9.6L54.6 9.9L54 10.5H53.7L53.5 10.3H53.2L53 10.5H50.8L50.5 12.8C50.5 13.1 50.3 13.2 50 13.3L50.3 13.6L50.9 13.7C51.3 13.8 51.5 13.9 51.5 14.2C51.3 15 51.3 15.6 51.4 16C51.5 16.2 51.5 16.8 51.4 17.7C51.4 18.7 51.4 19.4 51.4 19.6C51.4 20.4 51.7 21.2 52.3 22.1C52.4 22.3 52.2 22.5 51.8 22.6C51.3 22.8 50.9 22.9 50.4 22.9C50 22.9 49.4 22.8 48.8 22.6L47.7 22.3C47.7 21.2 47.7 20.2 47.9 19.3C48 19 48.1 18.3 48.4 17.5C48.6 16.9 48.7 16.5 48.6 16.2C48.6 15.9 48.5 15.6 48.3 15.3C48.1 15 48 14.7 48 14.6C47.9 14.4 48.1 14.2 48.6 13.9C48.8 13.8 49 13.7 49.3 13.6C48.4 13.5 47.4 13.4 46.4 13.4C44.5 13.3 43.4 13.4 43.1 13.5C42.4 14 41.4 15 40.3 16.7C40 17.1 39.2 18.2 37.9 20.3C37.4 21.1 36.8 21.6 36.3 21.9C35.9 22.1 35.2 22.2 34.2 22.3C33.4 22.3 32.1 22.4 30.5 22.5C29.1 22.5 28.2 22.5 27.9 22.5C27.7 22.5 27.5 22.4 27.4 22.3C27.3 22.2 27.3 21.9 27.3 21.5C27.3 20.4 27.5 19.7 27.7 19.2C27.8 19 28 18.5 28.4 17.9C28.8 17.2 29 16.8 29.2 16.7C29.3 16.6 29.5 16.4 30 16C30.4 15.5 30.6 15 30.6 14.4C30.6 13.7 30.3 13.3 29.7 13.1C29.4 13.1 28.7 13.1 27.6 13.2C26.5 13.3 25.8 13.3 25.3 13.3C24.5 13.4 24.1 13.5 24 13.7C23.8 14 23.5 14.2 22.9 14.4L22.8 15.8C22.9 17.2 23.3 19 24 21.2C25 24.7 25.9 27.1 26.7 28.1C27 28.6 27 28.9 26.6 29.1C26.3 29.2 25.4 29.5 23.9 30.1C22.3 30.7 21.4 31 21.1 31.1C20.8 31.2 20.7 30.7 20.7 29.7C20.5 29.3 20.2 28.7 19.8 27.9C19.2 26.3 18.6 24.5 18.2 22.5C17.7 20.6 17.4 18.7 17.2 17L17.1 14.9C16.6 14.7 16.2 14.7 16 14.9L14.3 16.3C14.2 16.4 14.1 16.3 13.9 16.1C13.7 15.9 13.6 15.8 13.6 15.8C13 16 12.1 16.5 10.9 17.3C9.5 18.3 8.8 19 8.6 19.5L8.3 20.4L8.7 20.9C9 21.2 9.1 21.4 9.1 21.5C9.1 21.8 9 22.1 8.8 22.3C8.6 22.5 8.4 22.6 8.1 22.6H3.7C3.4 22.6 3.2 22.5 2.9 22.3C2.6 22 2.3 21.6 2.1 21.1C1.9 20.5 1.5 18.8 0.9 16.3C0.3 13.6 0 12 0 11.4C0 10.8 -3.72529e-08 10.3 0.1 10.1C0.2 9.9 0.3 9.7 0.6 9.4C0.9 9.1 1.2 8.8 1.8 8.4C2.4 8 2.9 7.8 3.2 7.8L26.8 7.3V6.8L27.4 6.3C27.8 6 28.1 5.8 28.3 5.7C28.6 5.6 28.9 5.5 29.3 5.5H30.7V3.7H30.1C30.1 4 29.9 4.1 29.5 4.1C29.3 4.1 29.1 4 29 3.9L28.9 3.7H27.6L27.4 3.9H27C26.8 3.6 26.7 3 26.7 2.3C26.7 1.5 26.8 1.1 27 1.1H27.3L27.5 1.2H28.8L28.9 0.9C29 0.8 29.2 0.7 29.4 0.7C29.7 0.7 29.9 0.8 29.9 1.2H30.3V0.4L31 0.3C31.2 0.3 31.5 0.3 31.8 0.4V0.8L34.8 0.4C36.8 0.1 38 0 38.4 0H39.6L40.1 0.4H40.6V0.1H41V0.3H41.8V4H41V4.2H40.6V3.9H38.7L39 4.3H39.5C39.8 4.4 40 4.4 40.1 4.6L40.4 5.3H41.6V5.2H42.2V5.3H43.4V5.2H44V5.3H45.3V5.2H45.8V5.3H47.1V5.2H47.6V5.3H48.9V5.2H49.4V5.3H50.4L53.1 6.6V7.5L53.8 7.9H65.4L65.6 7.8C65.7 7.7 65.8 7.6 65.9 7.6H67.3L67.6 7.9H68.3L68.6 7.7C68.9 7.7 69.4 7.7 70.1 7.8V7.7C70.2 7.6 70.3 7.5 70.4 7.5H71.4C71.5 7.5 71.6 7.5 71.7 7.6Z" fill="white"/>
</svg>
