<svg width="148" height="32" viewBox="0 0 148 32" fill="none" xmlns="http://www.w3.org/2000/svg">
<path d="M109.5 11.8C109.6 11.9 109.6 12.1 109.7 12.2C109.8 12.4 109.8 12.5 109.8 12.7C109.8 13 109.6 13.3 109.3 13.8L109.2 14H68.2V14.7H71.2V17.3L71.6 17.7C71.8 17.9 71.9 18.2 71.9 18.6C71.9 18.8 71.9 18.9 71.8 18.9C71.7 18.9 71.7 18.9 71.7 19V19.1C71.7 19.4 71.6 19.6 71.5 19.6C71.4 19.6 71.3 19.6 71.2 19.6C71 19.6 70.4 19.6 69.4 19.6C68.4 19.6 66.9 19.6 64.8 19.6C62.7 19.6 59.7 19.6 55.8 19.6C55.7 19.7 55.6 19.8 55.6 20C55.7 20 55.7 20 55.8 20.1L56.1 20.4L55.8 21H54.3L54.1 20.8C54 20.7 53.9 20.3 53.6 19.6C53.3 19 53.3 18.5 53.5 18.1C53.5 17.8 53.7 17.6 54 17.6H54.1C54.7 17.6 55.1 17.7 55.3 17.9C55.7 17.9 56.1 17.8 56.6 17.6L49.1 17.5C49 17.5 48.7 17.6 48.1 17.8C47.6 17.9 47 18.1 46.3 18.3C45.7 18.5 45 18.6 44.4 18.8C43.9 18.9 43.6 19 43.5 19.1V21.8L34.7 22.7V19.9C34.2 19.9 34 20 33.9 20.1C33.8 20.2 33.6 20.4 33.3 20.6C33 20.9 32.6 21.1 32.1 21.2C31.6 21.4 31 21.4 30.3 21.4C29.6 21.3 28.9 21.1 28 20.6C27.9 20.6 27.9 20.6 27.8 20.7C27.7 20.7 27.6 20.7 27.5 20.7C27.5 21 27.5 21.4 27.5 21.9C27.4 22.4 27.4 22.9 27.2 23.4C27.1 23.9 27 24.4 26.7 24.9C26.5 25.3 26.4 25.6 26.2 25.7C25.8 25.9 25.2 26 24.4 25.9C23.6 25.8 22.7 25.7 21.7 25.6C20.7 25.5 19.9 25.3 19.1 25.2C18.3 25 17.8 24.8 17.6 24.7C17.4 24.6 17.1 24.2 16.5 23.5C16.1 23.2 15.7 22.8 15.3 22.5C14.9 22.2 14.7 22 14.6 22H9.7C9.5 23.4 9.4 24.2 9.3 24.5C9.3 24.7 9.2 24.8 9.1 24.8C9 24.9 8.8 25 8.6 25C8.4 25 8 24.9 7.3 24.7C6.8 24.7 6.3 24.7 5.8 24.7C5.3 24.7 4.9 24.7 4.8 24.7C4.6 24.7 4.3 24.7 4 24.8C3.6 24.9 3.3 25 2.8 25C2.4 25.1 2 25.2 1.6 25.3C1.1 25.4 0.799997 25.4 0.699997 25.5H0.399997C0.299997 25.5 0.299997 25.5 0.299997 25.4C0.199997 25.3 0.199997 25.1 0.199997 24.7C0.199997 24.4 0.199997 23.9 0.199997 23.2C0.199997 22.5 0.199997 21.5 0.199997 20.2C0.299997 19 0.399997 17.9 0.399997 16.8C0.399997 15.6 0.399997 14.8 0.399997 14.3C0.399997 14.1 0.699997 13.9 1.2 13.6C1.7 13.4 2.8 13.3 4.6 13.4H5.6L5.7 13.3L5.8 13.2C5.9 13.2 5.9 13.2 6 13.1C6 13.1 6.1 13 6.3 12.9H15.5C15.7 12.9 15.9 13 16.1 13.2C16.6 13.5 16.9 13.9 17.1 14.2H27.5C27.6 14 27.7 13.7 27.8 13.2C27.9 12.8 28 12.5 28 12.2V12H28.1C28.4 11.9 28.9 11.8 29.6 11.7C30.3 11.7 30.7 11.6 30.8 11.5C30.9 11.5 31.1 11.5 31.2 11.4C31.2 11.3 31.3 11.3 31.4 11.2H34.6V10.2H33.4C33.3 10.2 32.9 10.3 32.4 10.4C31.9 10.5 31.3 10.6 30.5 10.6C29.8 10.7 29.1 10.7 28.3 10.8C27.6 10.8 26.9 10.8 26.4 10.7L26.3 10.5V10.4C26.2 9.69999 26.2 9.09999 26.2 8.69999C26.2 8.29999 26.2 7.89999 26.2 7.69999C26.2 7.49999 26.2 7.39999 26.3 7.29999L26.4 7.19999H26.6L27.4 7.09999C28 7.09999 28.6 6.99999 29.3 6.99999C30.2 7.09999 30.9 6.99999 31.7 6.99999C32.4 6.99999 32.9 6.99999 33.2 7.09999C33.7 7.09999 34.2 7.09999 34.7 7.09999C35.3 7.09999 35.9 7.09999 36.6 7.09999C37.2 7.09999 37.7 7.09999 38.3 7.09999C38.7 6.99999 39 6.99999 39.3 6.99999V6.39999C39.2 6.39999 39.2 6.29999 39.2 6.19999V5.59999L42.4 5.39999L42.8 6.49999C42.8 6.59999 42.8 6.59999 42.7 6.59999C42.6 6.69999 42.6 6.79999 42.4 6.79999V6.99999H48C48.4 6.89999 49.1 6.79999 49.9 6.69999C50.7 6.59999 51.6 6.49999 52.4 6.39999C53.2 6.29999 54 6.29999 54.8 6.19999C55.5 6.19999 55.9 6.19999 56.1 6.39999L56.3 6.49999L56.4 10.9H56C51.3 10.9 48.8 10.7 48.5 10.4V10.6C48.3 10.5 48 10.4 47.4 10.4C46.9 10.3 46.2 10.4 45.5 10.4V11.3H109.2V11.5C109.3 11.5 109.4 11.7 109.5 11.8ZM32 18.2H29.8C29.2 18.2 28.9 18.5 28.9 19C28.9 19.6 29.2 20 29.8 20H32C32.6 20 32.9 19.7 32.9 19C32.9 18.5 32.6 18.2 32 18.2ZM19.4 22C19.8 22.7 20.3 23.2 21.1 23.2C21.7 23.4 22.5 23.3 23.4 22.9C23.8 22.7 24.3 22.3 24.8 21.7C25 21.4 25.1 21 25.2 20.5C25.3 20 25.2 19.6 25 19.3C24.9 18.8 24.4 18.5 23.6 18.3C22.5 18.1 21.7 18.1 21.1 18.4C20.7 18.6 20.4 18.8 20.2 19C20 19.2 19.8 19.4 19.6 19.8C19.2 20.5 19.1 21.2 19.4 22Z" fill="white"/>
<path d="M117.158 29.823C118.739 28.3487 119.494 27.4491 119.994 26.4683C120.528 25.4187 120.875 24.0756 120.969 22.7199C121.269 18.2656 121.843 14.8671 122.617 12.9305C123.011 11.9497 123.358 11.4561 124.206 10.6565C125.154 9.76938 126.001 9.22587 127.577 8.50744C129.372 7.68281 130.694 7.23301 134.051 6.29592C135.787 5.81488 136.928 5.44629 140.425 4.24058C142.321 3.58462 145.725 2.36641 146.673 2.00407C146.82 1.94784 147 2.4851 147 2.97863C147 3.40345 146.973 3.5034 146.74 3.94071C146.299 4.77784 145.612 5.3276 143.863 6.25844C141.6 7.45791 140.052 8.07638 135.486 9.56947C133.003 10.3879 131.982 10.7564 130.213 11.4874C127.343 12.6744 126.402 13.1804 125.421 14.0612C124.747 14.6672 124.339 15.2232 123.932 16.1166L123.619 16.7913L123.539 16.4602C123.438 16.0916 123.425 15.3919 123.498 15.1732C123.545 15.0483 123.532 15.0296 123.425 15.0483C123.358 15.0608 123.225 15.217 123.118 15.4231C122.944 15.7355 122.918 15.8917 122.838 16.835C122.784 17.416 122.698 18.1719 122.637 18.5093C122.577 18.8529 122.504 19.6088 122.471 20.1898C122.304 22.9198 122.057 24.188 121.369 25.7748C120.915 26.8431 120.395 27.649 119.774 28.2737C118.9 29.1421 117.004 30.5102 116.016 30.985C115.903 31.0412 116.397 30.5415 117.158 29.823V29.823Z" fill="white"/>
<path d="M127.31 30.6727C126.696 30.6477 125.848 30.5415 125.468 30.4353C124.967 30.2978 124.76 30.1729 124.486 29.823C124.339 29.6481 124.179 29.4607 124.113 29.4107C124.012 29.3357 124.039 29.292 124.386 28.9922C124.713 28.711 124.813 28.661 125.04 28.6548C125.281 28.6548 125.334 28.686 125.674 29.0421C126.522 29.9292 126.869 30.2104 127.43 30.4665C127.73 30.6039 127.93 30.7101 127.877 30.7039C127.824 30.6976 127.57 30.6852 127.31 30.6727V30.6727Z" fill="white"/>
<path d="M117.738 30.5977C117.585 30.5602 117.591 30.5415 117.938 30.3416C118.559 29.9667 119.607 29.1546 120.275 28.5299C121.496 27.3741 122.277 25.9935 122.731 24.1568C122.804 23.8632 122.991 22.7137 123.138 21.5954C123.292 20.4772 123.445 19.3589 123.485 19.1028L123.559 18.6405L123.745 19.1215C123.846 19.3901 124.206 20.0711 124.546 20.6333C125.468 22.1827 125.681 22.8449 125.681 24.1693C125.674 25.6999 125.254 26.7306 124.099 28.0051C123.565 28.5923 123.258 28.8547 122.671 29.2233C121.423 30.0042 119.827 30.5227 118.366 30.6164C118.112 30.6289 117.825 30.6227 117.738 30.5977Z" fill="white"/>
<path d="M128.711 30.2791C127.737 29.9542 127.21 29.6606 126.549 29.0608C125.881 28.4611 125.594 28.2799 125.314 28.2799C125.154 28.2799 125.16 28.2612 125.521 27.7989C125.721 27.5303 125.941 27.2179 126.001 27.0992L126.108 26.8931L126.502 26.9368C127.049 26.993 127.203 27.0805 127.904 27.7427C128.371 28.1862 128.625 28.3674 129.012 28.5486C129.733 28.8859 130.44 29.0421 131.288 29.0484C132.082 29.0608 132.069 29.0484 131.742 29.5044C131.375 30.0042 130.634 30.3165 129.646 30.3728C129.212 30.404 129.038 30.3853 128.711 30.2791V30.2791Z" fill="white"/>
<path d="M130.514 27.9988C129.653 27.8239 129.058 27.5366 128.398 26.993C127.79 26.4933 127.39 26.3308 126.816 26.3558L126.362 26.3746L126.442 26.1871C126.515 26.031 126.596 25.7124 126.776 24.8627C126.809 24.7128 127.109 24.5941 127.437 24.5941C127.804 24.5941 128.344 24.9564 129.312 25.856C129.826 26.3308 130.387 26.8119 130.56 26.9306C131.321 27.4366 132.256 27.6802 133.297 27.6428L133.951 27.624L133.597 27.7677C133.41 27.8489 133.07 27.9551 132.85 27.9988C132.349 28.1113 131.054 28.1113 130.514 27.9988V27.9988Z" fill="white"/>
<path d="M132.349 26.437C131.682 26.2996 131.048 25.9622 130.28 25.3375C128.792 24.1381 127.877 23.7695 127.13 24.0818L126.829 24.2068L126.789 23.4758C126.762 23.076 126.729 22.6762 126.702 22.5887C126.662 22.4326 126.682 22.4201 127.103 22.3139C128.057 22.0702 129.065 22.4013 131.181 23.657C132.316 24.3255 134.125 25.1876 134.946 25.45C135.299 25.5562 135.653 25.6124 136.16 25.6374C136.881 25.6749 136.881 25.6749 136.721 25.7936C136.454 25.9872 135.747 26.2746 135.253 26.3746C134.578 26.5183 132.903 26.5557 132.349 26.437V26.437Z" fill="white"/>
<path d="M135.913 24.5316C135.186 24.3942 134.044 23.9381 131.915 22.9323C130.3 22.1639 129.766 21.964 128.945 21.8203C127.997 21.6516 127.477 21.7079 126.903 22.0515L126.622 22.2139L126.415 21.6704C126.302 21.3705 126.088 20.9457 125.948 20.7208C125.801 20.4959 125.694 20.3085 125.701 20.296C125.714 20.2897 126.015 20.2085 126.375 20.1273C128.177 19.6962 129.539 20.0586 132.783 21.8453C134.885 23.001 136.154 23.4633 137.789 23.6633C138.376 23.732 139.845 23.7132 140.125 23.6258C140.405 23.5383 139.851 23.9194 139.391 24.1318C138.236 24.6503 137.182 24.769 135.913 24.5316Z" fill="white"/>
<path d="M137.789 22.4638C137.222 22.3888 136.14 22.1202 135.626 21.9265C135.386 21.839 134.385 21.3892 133.404 20.9394C130.567 19.615 129.799 19.3839 128.311 19.3776C127.263 19.3776 126.976 19.4401 126.048 19.8399L125.501 20.0773L125.274 19.765L125.047 19.4526L125.341 19.2027C125.968 18.6842 126.876 18.3968 128.264 18.2719C129.279 18.1782 129.733 18.2219 132.783 18.6904C138.143 19.5088 138.83 19.5963 140.125 19.5963C141.547 19.5963 142.581 19.4151 143.536 19.0028C143.81 18.8903 144.03 18.8029 144.03 18.8154C144.03 18.9278 143.569 19.9024 143.349 20.2522C142.495 21.6079 141.734 22.1639 140.345 22.4325C139.785 22.5387 138.476 22.5575 137.789 22.4638V22.4638Z" fill="white"/>
<path d="M124.773 19.0965C124.72 19.0403 124.673 18.9653 124.673 18.9278C124.673 18.7904 125.835 17.8408 126.522 17.4035C128.144 16.3915 130.02 15.723 132.115 15.4106C133.397 15.2232 134.498 15.1545 138.837 15.0046C142.681 14.8671 143.723 14.7109 144.984 14.08C145.431 13.8613 145.431 13.8613 145.598 14.3736C145.712 14.7297 145.725 15.4356 145.625 15.8479C145.512 16.3102 145.104 17.0099 144.737 17.366C144.13 17.9595 142.922 18.4593 141.76 18.5905C140.445 18.7467 139.438 18.6842 136.02 18.2219C131.101 17.5597 129.639 17.4472 128.351 17.6222C126.903 17.8221 125.875 18.2281 125.247 18.8466C124.907 19.1777 124.873 19.1965 124.773 19.0965V19.0965Z" fill="white"/>
<path d="M124.373 18.5093C124.259 18.3156 124.259 18.2719 124.339 18.1157C124.473 17.8658 126.335 16.1416 127.009 15.6356C128.464 14.5548 129.98 13.9425 132.863 13.2866C134.578 12.893 135.399 12.7493 137.642 12.437C141.533 11.9059 144.25 11.3125 145.498 10.7252C145.999 10.4878 146.052 10.5128 146.086 11.0563C146.119 11.5186 145.925 12.0559 145.618 12.387C145.278 12.7493 144.317 13.1242 143.162 13.3428C142.214 13.5302 141.62 13.5865 139.024 13.7239C133.824 14.005 132.095 14.2362 130.08 14.9046C127.964 15.6168 125.835 17.0162 124.78 18.3968C124.64 18.5718 124.52 18.7217 124.513 18.7217C124.5 18.7217 124.44 18.6217 124.373 18.5093V18.5093Z" fill="white"/>
<path d="M123.952 17.6721C123.872 17.4722 123.806 17.2598 123.806 17.1973C123.806 17.1349 123.926 16.86 124.066 16.5914C124.893 15.0545 125.808 14.2174 127.55 13.4303C129.005 12.768 132.136 11.6873 135.373 10.7252C140.566 9.18838 142.154 8.59489 144.644 7.27048L145.291 6.92688L145.678 7.1018C146.346 7.40792 146.633 7.72653 146.633 8.15134C146.633 8.63238 146.339 9.06968 145.732 9.50699C145.004 10.0255 144.17 10.3066 141.714 10.8814C140.118 11.25 139.378 11.3937 136.821 11.8185C135.213 12.0809 134.331 12.2745 132.549 12.7556C129.112 13.6801 127.777 14.3736 125.741 16.2915C125.281 16.7226 124.74 17.2911 124.54 17.5534C124.339 17.8158 124.159 18.0282 124.139 18.0282C124.119 18.0345 124.039 17.872 123.952 17.6721V17.6721Z" fill="white"/>
</svg>
