<svg width="123" height="30" viewBox="0 0 123 30" fill="none" xmlns="http://www.w3.org/2000/svg">
<path d="M93.158 27.823C94.739 26.3487 95.494 25.4491 95.994 24.4683C96.528 23.4187 96.875 22.0756 96.969 20.7199C97.269 16.2656 97.843 12.8671 98.617 10.9305C99.011 9.9497 99.358 9.4561 100.206 8.6565C101.154 7.76938 102.001 7.22587 103.577 6.50744C105.372 5.68281 106.694 5.23301 110.051 4.29592C111.787 3.81488 112.928 3.44629 116.425 2.24058C118.321 1.58462 121.725 0.366406 122.673 0.00406609C122.82 -0.0521639 123 0.485096 123 0.978626C123 1.40345 122.973 1.5034 122.74 1.94071C122.299 2.77784 121.612 3.3276 119.863 4.25844C117.6 5.45791 116.052 6.07638 111.486 7.56947C109.003 8.3879 107.982 8.7564 106.213 9.4874C103.343 10.6744 102.402 11.1804 101.421 12.0612C100.747 12.6672 100.339 13.2232 99.932 14.1166L99.619 14.7913L99.539 14.4602C99.438 14.0916 99.425 13.3919 99.498 13.1732C99.545 13.0483 99.532 13.0296 99.425 13.0483C99.358 13.0608 99.225 13.217 99.118 13.4231C98.944 13.7355 98.918 13.8917 98.838 14.835C98.784 15.416 98.698 16.1719 98.637 16.5093C98.577 16.8529 98.504 17.6088 98.471 18.1898C98.304 20.9198 98.057 22.188 97.369 23.7748C96.915 24.8431 96.395 25.649 95.774 26.2737C94.9 27.1421 93.004 28.5102 92.016 28.985C91.903 29.0412 92.397 28.5415 93.158 27.823Z" fill="white"/>
<path d="M103.31 28.6727C102.696 28.6477 101.848 28.5415 101.468 28.4353C100.967 28.2978 100.76 28.1729 100.486 27.823C100.339 27.6481 100.179 27.4607 100.113 27.4107C100.012 27.3357 100.039 27.292 100.386 26.9922C100.713 26.711 100.813 26.661 101.04 26.6548C101.281 26.6548 101.334 26.686 101.674 27.0421C102.522 27.9292 102.869 28.2104 103.43 28.4665C103.73 28.6039 103.93 28.7101 103.877 28.7039C103.824 28.6976 103.57 28.6852 103.31 28.6727Z" fill="white"/>
<path d="M93.738 28.5977C93.585 28.5602 93.591 28.5415 93.938 28.3416C94.559 27.9667 95.607 27.1546 96.275 26.5299C97.496 25.3741 98.277 23.9935 98.731 22.1568C98.804 21.8632 98.991 20.7137 99.138 19.5954C99.292 18.4772 99.445 17.3589 99.485 17.1028L99.559 16.6405L99.745 17.1215C99.846 17.3901 100.206 18.0711 100.546 18.6333C101.468 20.1827 101.681 20.8449 101.681 22.1693C101.674 23.6999 101.254 24.7306 100.099 26.0051C99.565 26.5923 99.258 26.8547 98.671 27.2233C97.423 28.0042 95.827 28.5227 94.366 28.6164C94.112 28.6289 93.825 28.6227 93.738 28.5977Z" fill="white"/>
<path d="M104.711 28.2791C103.737 27.9542 103.21 27.6606 102.549 27.0608C101.881 26.4611 101.594 26.2799 101.314 26.2799C101.154 26.2799 101.16 26.2612 101.521 25.7989C101.721 25.5303 101.941 25.2179 102.001 25.0992L102.108 24.8931L102.502 24.9368C103.049 24.993 103.203 25.0805 103.904 25.7427C104.371 26.1862 104.625 26.3674 105.012 26.5486C105.733 26.8859 106.44 27.0421 107.288 27.0484C108.082 27.0608 108.069 27.0484 107.742 27.5044C107.375 28.0042 106.634 28.3165 105.646 28.3728C105.212 28.404 105.038 28.3853 104.711 28.2791Z" fill="white"/>
<path d="M106.514 25.9988C105.653 25.8239 105.058 25.5366 104.398 24.993C103.79 24.4933 103.39 24.3308 102.816 24.3558L102.362 24.3746L102.442 24.1871C102.515 24.031 102.596 23.7124 102.776 22.8627C102.809 22.7128 103.109 22.5941 103.437 22.5941C103.804 22.5941 104.344 22.9564 105.312 23.856C105.826 24.3308 106.387 24.8119 106.56 24.9306C107.321 25.4366 108.256 25.6802 109.297 25.6428L109.951 25.624L109.597 25.7677C109.41 25.8489 109.07 25.9551 108.85 25.9988C108.349 26.1113 107.054 26.1113 106.514 25.9988Z" fill="white"/>
<path d="M108.349 24.437C107.682 24.2996 107.048 23.9622 106.28 23.3375C104.792 22.1381 103.877 21.7695 103.13 22.0818L102.829 22.2068L102.789 21.4758C102.762 21.076 102.729 20.6762 102.702 20.5887C102.662 20.4326 102.682 20.4201 103.103 20.3139C104.057 20.0702 105.065 20.4013 107.181 21.657C108.316 22.3255 110.125 23.1876 110.946 23.45C111.299 23.5562 111.653 23.6124 112.16 23.6374C112.881 23.6749 112.881 23.6749 112.721 23.7936C112.454 23.9872 111.747 24.2746 111.253 24.3746C110.578 24.5183 108.903 24.5557 108.349 24.437Z" fill="white"/>
<path d="M111.913 22.5316C111.186 22.3942 110.044 21.9381 107.915 20.9323C106.3 20.1639 105.766 19.964 104.945 19.8203C103.997 19.6516 103.477 19.7079 102.903 20.0515L102.622 20.2139L102.415 19.6704C102.302 19.3705 102.088 18.9457 101.948 18.7208C101.801 18.4959 101.694 18.3085 101.701 18.296C101.714 18.2897 102.015 18.2085 102.375 18.1273C104.177 17.6962 105.539 18.0586 108.783 19.8453C110.885 21.001 112.154 21.4633 113.789 21.6633C114.376 21.732 115.845 21.7132 116.125 21.6258C116.405 21.5383 115.851 21.9194 115.391 22.1318C114.236 22.6503 113.182 22.769 111.913 22.5316Z" fill="white"/>
<path d="M113.789 20.4638C113.222 20.3888 112.14 20.1202 111.626 19.9265C111.386 19.839 110.385 19.3892 109.404 18.9394C106.567 17.615 105.799 17.3839 104.311 17.3776C103.263 17.3776 102.976 17.4401 102.048 17.8399L101.501 18.0773L101.274 17.765L101.047 17.4526L101.341 17.2027C101.968 16.6842 102.876 16.3968 104.264 16.2719C105.279 16.1782 105.733 16.2219 108.783 16.6904C114.143 17.5088 114.83 17.5963 116.125 17.5963C117.547 17.5963 118.581 17.4151 119.536 17.0028C119.81 16.8903 120.03 16.8029 120.03 16.8154C120.03 16.9278 119.569 17.9024 119.349 18.2522C118.495 19.6079 117.734 20.1639 116.345 20.4325C115.785 20.5387 114.476 20.5575 113.789 20.4638Z" fill="white"/>
<path d="M100.773 17.0965C100.72 17.0403 100.673 16.9653 100.673 16.9278C100.673 16.7904 101.835 15.8408 102.522 15.4035C104.144 14.3915 106.02 13.723 108.115 13.4106C109.397 13.2232 110.498 13.1545 114.837 13.0046C118.681 12.8671 119.723 12.7109 120.984 12.08C121.431 11.8613 121.431 11.8613 121.598 12.3736C121.712 12.7297 121.725 13.4356 121.625 13.8479C121.512 14.3102 121.104 15.0099 120.737 15.366C120.13 15.9595 118.922 16.4593 117.76 16.5905C116.445 16.7467 115.438 16.6842 112.02 16.2219C107.101 15.5597 105.639 15.4472 104.351 15.6222C102.903 15.8221 101.875 16.2281 101.247 16.8466C100.907 17.1777 100.873 17.1965 100.773 17.0965Z" fill="white"/>
<path d="M100.373 16.5093C100.259 16.3156 100.259 16.2719 100.339 16.1157C100.473 15.8658 102.335 14.1416 103.009 13.6356C104.464 12.5548 105.98 11.9425 108.863 11.2866C110.578 10.893 111.399 10.7493 113.642 10.437C117.533 9.90589 120.25 9.31249 121.498 8.72519C121.999 8.48779 122.052 8.51279 122.086 9.05629C122.119 9.51859 121.925 10.0559 121.618 10.387C121.278 10.7493 120.317 11.1242 119.162 11.3428C118.214 11.5302 117.62 11.5865 115.024 11.7239C109.824 12.005 108.095 12.2362 106.08 12.9046C103.964 13.6168 101.835 15.0162 100.78 16.3968C100.64 16.5718 100.52 16.7217 100.513 16.7217C100.5 16.7217 100.44 16.6217 100.373 16.5093Z" fill="white"/>
<path d="M99.952 15.6721C99.872 15.4722 99.806 15.2598 99.806 15.1973C99.806 15.1349 99.926 14.86 100.066 14.5914C100.893 13.0545 101.808 12.2174 103.55 11.4303C105.005 10.768 108.136 9.6873 111.373 8.7252C116.566 7.18838 118.154 6.59489 120.644 5.27048L121.291 4.92688L121.678 5.1018C122.346 5.40792 122.633 5.72653 122.633 6.15134C122.633 6.63238 122.339 7.06968 121.732 7.50699C121.004 8.0255 120.17 8.3066 117.714 8.8814C116.118 9.25 115.378 9.3937 112.821 9.8185C111.213 10.0809 110.331 10.2745 108.549 10.7556C105.112 11.6801 103.777 12.3736 101.741 14.2915C101.281 14.7226 100.74 15.2911 100.54 15.5534C100.339 15.8158 100.159 16.0282 100.139 16.0282C100.119 16.0345 100.039 15.872 99.952 15.6721Z" fill="white"/>
<path d="M81.8 0.0999999C82.1 0.0999999 82.4 0.0999999 82.8 0.0999999V0C82.9 0 82.9 0 82.9 0C83.1 0 83.3 0 83.5 0H83.6H83.7H83.8L83.9 0.0999999V0.2V0.3V0.4V0.5V0.6V0.7V0.8V0.9V1V1.1V1.2V1.3V1.4V1.5V1.6V1.7V1.8V1.9V2V2.1V2.2V2.3H83.8V2.4V2.5V2.6V2.7V2.8V2.9V3V3.1V3.2V3.3V3.4V3.5L83.9 3.6V3.7V3.8V3.9V4V4.1V4.2V4.3V4.4V4.5V4.6V4.7V4.8V4.9V5V5.1V5.2V5.3V5.4V5.5V5.6V5.7V5.8V5.9V6V6.1V6.2V6.3V6.4V6.5V6.6V6.7V6.8V6.9V7C85.5 7 87 7 88.6 7C88.7 7 88.7 7.1 88.8 7.1H88.9C89 7.1 89 7.2 89.1 7.2L89.2 7.3V7.4V7.5V7.6V7.7V7.8V7.9V8V8.1V8.2V8.3V8.4V8.5V8.6V8.7V8.8V8.9V9V9.1V9.2V9.3V9.4V9.5V9.6V9.7V9.8V9.9V10V10.1V10.2V10.3V10.4V10.5V10.6V10.7V10.8V10.9V11V11.1H89.1C89 11.1 89 11.1 89 11.1C87.6 11.1 86.3 11.1 84.9 11.1C84.8 11.1 84.8 11.1 84.8 11.1C84.7 11.1 84.7 11.1 84.6 11.1H84.5C84.5 11.1 84.5 11.1 84.6 11.1C84.7 11.1 84.7 11.2 84.8 11.2H84.9V11.3V11.4V11.5V11.6V11.7V11.8V11.9V12V12.1V12.2V12.3V12.4V12.5V12.6H85L85.1 12.7V12.8V12.9V13H85.2L85.3 13.1V13.2V13.3V13.4V13.5V13.6V13.7V13.8V13.9V14V14.1V14.2V14.3V14.4V14.5V14.6V14.7V14.8V14.9V15V15.1V15.2V15.3V15.4V15.5V15.6V15.7V15.8V15.9V16V16.1V16.2V16.3V16.4V16.5V16.6V16.7V16.8V16.9V17V17.1V17.2V17.3V17.4V17.5V17.6V17.7V17.8V17.9V18V18.1V18.2V18.3V18.4V18.5V18.6V18.7V18.8V18.9V19V19.1V19.2L85.2 19.3C85.1 19.3 85.1 19.3 85.1 19.3H85C84.9 19.3 84.9 19.3 84.9 19.3C84.3 19.3 83.6 19.3 83 19.3C82.9 19.3 82.9 19.3 82.9 19.3C82.8 19.3 82.7 19.3 82.7 19.3C82.6 19.3 82.6 19.3 82.5 19.3V19.2L82.4 19.1V19L82.3 18.9V18.8V18.7V18.6V18.5C73.3 18.5 64.3 18.5 55.2 18.5L55.1 18.6V18.7V18.8V18.9V19V19.1V19.2L55 19.3V19.4H54.9C54.8 19.4 54.8 19.4 54.8 19.4C54.5 19.4 54.1 19.4 53.8 19.4C53.7 19.4 53.7 19.4 53.6 19.4V19.3L53.5 19.2V19.1C53.4 19.1 53.4 19.1 53.4 19.1C53.3 19.1 53.3 19.1 53.2 19.1L53.1 19L53 18.9H52.9V18.8V18.7V18.6V18.5V18.4V18.3V18.2V18.1V18V17.9V17.8V17.7V17.6V17.5V17.4V17.3V17.2V17.1V17V16.9H52.8V16.8V16.7V16.6V16.5V16.4V16.3V16.2V16.1C52.7 16.1 52.7 16 52.7 16C52.6 16 52.6 15.9 52.6 15.9H52.5V16V16.1V16.2V16.3V16.4V16.5V16.6V16.7V16.8V16.9V17V17.1V17.2V17.3V17.4V17.5V17.6V17.7V17.8V17.9V18V18.1V18.2V18.3V18.4V18.5V18.6V18.7V18.8V18.9V19L52.4 19.1V19.2V19.3V19.4V19.5V19.6V19.7V19.8V19.9L52.3 20C52.2 20 52.2 20.1 52.2 20.1V20.2C52.1 20.2 52.1 20.2 52.1 20.2C52 20.2 51.8 20.2 51.7 20.2C51.6 20.2 51.6 20.2 51.6 20.2H51.5C51.4 20.2 51.4 20.2 51.3 20.2V20.1L51.2 20H51.1V19.9L51 19.8V19.7V19.6V19.5V19.4V19.3V19.2V19.1V19H51.1V18.9V18.8V18.7C51.1 18.7 51.1 18.7 51.1 18.6H51C50.9 18.6 50.9 18.6 50.8 18.6C50.7 18.6 50.7 18.6 50.6 18.6H50.5H50.4C50.3 18.6 50.3 18.7 50.2 18.7L50.1 18.8H50C49.9 18.8 49.9 18.9 49.8 18.9L49.7 19C49.6 19 49.6 19.1 49.6 19.1C49.5 19.1 49.4 19.2 49.4 19.2H49.3C49.2 19.2 49.2 19.2 49.2 19.2C49.1 19.2 49 19.2 48.9 19.2C48.8 19.2 48.8 19.2 48.8 19.2C48.7 19.2 48.6 19.3 48.5 19.3H48.4C48.3 19.3 48.3 19.3 48.3 19.3H48.2C48.1 19.3 48.1 19.3 48 19.3H47.9C47.7 19.3 47.5 19.3 47.3 19.3C47.2 19.3 47.2 19.3 47.2 19.3C45.7 19.3 44.2 19.3 42.8 19.3C42.7 19.3 42.7 19.3 42.6 19.3L42.5 19.2L42.4 19.1V19V18.9L42.3 18.8V18.7V18.6V18.5L42.2 18.4H42.1C42 18.4 42 18.4 42 18.4C41.9 18.4 41.8 18.5 41.7 18.5V18.6L41.6 18.7L41.5 18.8V18.9V19V19.1V19.2V19.3L41.4 19.4V19.5V19.6V19.7V19.8V19.9V20L41.3 20.1V20.2V20.3V20.4L41.2 20.5V20.6V20.7V20.8V20.9V21V21.1L41.1 21.2V21.3V21.4V21.5V21.6V21.7L41 21.8V21.9V22V22.1V22.2V22.3V22.4V22.5L40.9 22.6V22.7V22.8V22.9V23V23.1V23.2L40.8 23.3V23.4V23.5V23.6V23.7V23.8L40.7 23.9V24V24.1V24.2V24.3V24.4V24.5L40.6 24.6V24.7V24.8L40.5 24.9V25V25.1V25.2L40.4 25.3V25.4V25.5L40.3 25.6V25.7V25.8V25.9V26L40.2 26.1V26.2V26.3L40.1 26.4V26.5V26.6V26.7L40 26.8V26.9V27V27.1V27.2V27.3L39.9 27.4V27.5H40H40.1V27.6V27.7V27.8L40.2 27.9V28V28.1V28.2H40.3V28.3V28.4V28.5V28.6V28.7V28.8V28.9V29L40.2 29.1V29.2V29.3C40.1 29.3 40.1 29.4 40.1 29.4V29.5V29.6L40 29.7H39.9L39.8 29.8H39.7C39.6 29.8 39.6 29.8 39.6 29.8C39.4 29.8 39.2 29.8 38.9 29.8C38.8 29.8 38.8 29.8 38.8 29.8C38.4 29.8 38 29.8 37.7 29.8C37.6 29.8 37.6 29.8 37.6 29.8C37.4 29.8 37.2 29.8 37 29.8C36.9 29.8 36.9 29.8 36.8 29.8C36.7 29.8 36.6 29.8 36.5 29.8C36.4 29.8 36.4 29.8 36.4 29.8C36.3 29.8 36.3 29.8 36.2 29.8C36.1 29.8 36.1 29.8 36 29.8L35.9 29.7C35.8 29.7 35.8 29.7 35.7 29.7C35.6 29.7 35.5 29.6 35.5 29.6L35.4 29.5C35.3 29.5 35.3 29.4 35.2 29.4H35.1L35 29.3V29.2C34.9 29.2 34.9 29.1 34.9 29.1C34.8 29.1 34.8 29 34.7 29V28.9L34.6 28.8L34.5 28.7H34.4V28.6V28.5L34.3 28.4V28.3V28.2V28.1H34.2V28V27.9V27.8V27.7V27.6L34.1 27.5V27.4V27.3V27.2V27.1V27V26.9V26.8V26.7V26.6V26.5V26.4V26.3V26.2V26.1V26V25.9V25.8V25.7V25.6V25.5V25.4V25.3V25.2V25.1V25V24.9V24.8V24.7V24.6H34.2V24.5V24.4V24.3V24.2V24.1L34.3 24V23.9V23.8V23.7V23.6V23.5V23.4V23.3L34.4 23.2V23.1V23V22.9V22.8L34.5 22.7V22.6L34.6 22.5V22.4V22.3V22.2V22.1V22V21.9V21.8H34.7V21.7V21.6V21.5V21.4V21.3V21.2V21.1V21V20.9V20.8V20.7V20.6V20.5V20.4V20.3V20.2V20.1V20V19.9V19.8L34.8 19.7V19.6V19.5V19.4V19.3V19.2V19.1V19V18.9V18.8V18.7V18.6V18.5V18.4V18.3V18.2V18.1V18V17.9V17.8V17.7L34.9 17.6V17.5V17.4V17.3V17.2V17.1V17V16.9V16.6V16.5V16.4H34.8H34.7H34.6H34.5H34.4H34.3H34.2H34.1H34H33.9H33.8H33.7H33.6H33.5H33.4H33.3H33.2C33.1 16.4 32.9 16.4 32.7 16.4H32.6H32.2H32.1H32C31.9 16.4 31.8 16.4 31.7 16.4H31.6H31.5H31.4H31.3H31.2H31.1H31H30.9H30.8H30.7H30.6H30.5H30.4H30.3H30.2H30.1H30H29.9H29.8H29.7H29.6H29.5H29.4H29.3H29.2H29.1H29H28.9H28.8H28.7H28.6H28.5H28.4H28.3H28.2H28.1H28H27.9H27.8H27.7H27.6H27.5H27.4H27.3H27.2H27.1H27H26.9H26.8H26.7H26.6H26.5H26.4H26.3H26.2H26.1H26H25.9H25.8H25.7H25.6H25.5H25.4H25.3H25.2H25.1H25H24.9H24.8H24.7H24.6H24.5H24.4H24.3H24.2C24.1 16.4 24.1 16.4 24.1 16.4H24H23.9H23.8H23.7H23.6H23.5H23.4H23.3H23.2H23.1H23H22.9H22.8H22.7H22.6H22.5H22.4H22.3H22.2H22.1H22H21.9H21.8H21.7H21.6H21.5H21.4H21.3H21.2H21.1H21H20.9H20.8H17H16.9H16.8H16.7H16.6H16.5H16.4H16.3H16.2H16H15.9H15.8H15.7H15.6L15.5 18C15.5 18 15.5 18 15.4 18H15.3H15.2H15.1H15H14.9H14.8H14.7H14.6H14.5H14.4H14.3H14.2H14.1H14H13.9H13.8C13.7 18 13.7 18 13.7 18H13.6H13.5H13.4H13.3H13.2H13.1H13H12.9H12.8H12.7H12.6H12.5H12.4H12.3H12.2H12.1H12H11.9H11.8H11.7H11.6H11.5H11.4H11.3H11.2H11.1H11H10.9H10.8H10.7H10.6H10.5H10.4C10.3 18 10.3 18 10.3 18H10.2H10.1H10H9.9C9.8 18 9.8 18 9.8 18H9.7H9.6H9.5H9.4H8.1H8H7.9H7.8V18H7.7H7.6H7.5H7.4H7.3H7.2H7.1H7H6.9H6.8H6.7H6.6H6.5H6.4H6.3H6.2H6H5.9H5.8H5.7H5.6H5.5H5.4H5.3H5H4.9H4.8H4.7H4.6H4.5H4.4H4.3H4.2H4H3.9H3.8H3.7H3.6H3.5H3.3H3.2V18H3.1H3H2.9H2.8H2.7H2.6H2.5H2.1H2H1.9H1.8H1.7H1.6H1.5H1.4H1.2H1.1H1H0.9H0.8H0.7H0.6L0.5 17.9L0.4 17.8V17.7C0.3 17.7 0.3 17.7 0.2 17.7V17.6V13.5H0.3C0.4 13.5 0.4 13.5 0.5 13.5V13.4V13.3V13.2V13.1V13V12.9V12.8V12.7V12.6V12.5V12.4V12.3V12.2V12.1V12V11.9V11.8V11.7V11.6V11.5V11.4V11.3V11.2V11.1V11V10.9V10.8V10.7V10.6V10.5V10.4V10.3V10.2V10.1V10V9.9V9.8V9.7V9.6V9.5V9.4V9.3V9.2V9.1V9V8.9V8.8V8.7V8.6V8.5V8.4V8.3V8.2V8.1V8C0.5 8 0.5 8 0.5 7.9H0.4C0.3 7.9 0.3 7.9 0.2 7.9L0.1 7.8L0 7.7V7.6V7.5V7.4L0 12V11.9V11.8V11.7V11.6V11.5V11.4V11.3V11.2V11.1V11V10.9V10.8V10.7V10.6V10.5V10.4V10.3V10.2V10.1V10V9.9V9.8V9.7V9.6V9.5V9.4V9.3V9.2V9.1V9V8.9L0.1 8.8V8.7V8.6V8.5C0.2 8.5 0.2 8.4 0.2 8.4L0.3 8.3H0.4H0.5L0.6 8.2L0.7 8.1H0.8H0.9C1 8.1 1 8.1 1 8.1C1.1 8.1 1.1 8.1 1.1 8.1C1.2 8.1 1.2 8.2 1.3 8.2C1.8 8.2 2.4 8.2 2.9 8.2C4.9 8.2 6.9 8.2 9 8.2C9.1 8.2 9.1 8.2 9.2 8.2C9.4 8.2 9.6 8.2 9.8 8.2H9.9C11 8.2 12.1 8.2 13.2 8.2H13.3C13.4 8.2 13.4 8.2 13.5 8.2C13.6 8.2 13.6 8.2 13.7 8.2H13.8C13.9 8.2 13.9 8.1 13.9 8.1L14 8L14.1 7.9C14.2 7.9 14.2 7.8 14.3 7.8V7.7H14.4C14.5 7.7 14.5 7.7 14.6 7.7C14.7 7.7 14.7 7.7 14.8 7.7H14.9C15 7.7 15 7.7 15 7.7V7.8V7.9V8V8.1C14.9 8.1 14.9 8.2 14.8 8.2H14.9C14.9 8.2 14.9 8.2 15 8.2H15.1H15.2H15.3H15.4C15.5 8.2 15.6 8.2 15.7 8.2C15.9 8.2 16 8.2 16.2 8.2H16.3C16.4 8.2 16.6 8.2 16.7 8.2H16.8C16.9 8.2 17.1 8.2 17.2 8.2H17.3C18.2 8.2 19.2 8.2 20.1 8.2H20.2C20.3 8.2 20.4 8.2 20.5 8.2H20.6C21.6 8.2 22.6 8.2 23.6 8.2H23.7C24.1 8.2 24.4 8.2 24.7 8.2H24.8C25.5 8.2 26.1 8.2 26.8 8.2H26.9H27C27.4 8.2 27.8 8.2 28.2 8.2H28.3H28.4C28.6 8.2 28.8 8.2 29 8.2V8.1L29.1 8L29.2 7.9L29.3 7.8L29.4 7.7L29.5 7.6H29.6C29.7 7.6 29.7 7.5 29.8 7.5V7.4L29.9 7.3L30 7.2L30.1 7.1V7L30.2 6.9C30.3 6.9 30.3 6.8 30.4 6.8L30.5 6.7H30.6H30.7C30.9 6.7 31.2 6.7 31.4 6.7L31.5 6.6L31.6 6.5L31.7 6.4H31.8V6.3L31.9 6.2L32 6.1L32.1 6L32.2 5.9H32.3H32.4V5.8V5.7L32.5 5.6L32.6 5.5L32.7 5.4L32.8 5.3V5.2V5.1H32.9H33V5L33.1 4.9L33.2 4.8L33.3 4.7L33.4 4.6L33.5 4.5L33.6 4.4L33.7 4.3L33.8 4.2L33.9 4.1L34 4L34.1 3.9L34.2 3.8C34.3 3.8 34.3 3.7 34.4 3.7C34.5 3.7 34.5 3.7 34.6 3.7H34.7H34.8C40.2 3.7 45.7 3.7 51.1 3.7V3.6V3.5L51.2 3.4V3.3V3.2L51.3 3.1H51.4H51.5H51.6H51.7C51.8 3.1 52 3.1 52.1 3.1V3L52.2 2.9L52.3 2.8H52.4L52.5 2.7H52.6V2.6H52.7L52.8 2.5H52.9L53 2.4L53.1 2.3V2.2L53.2 2.1L53.3 2L53.4 1.9V1.8V1.7V1.6C53.5 1.6 53.5 1.6 53.5 1.6V0.6H53.6H53.7L53.8 0.7C53.9 0.7 53.9 0.7 54 0.7H54.1V0.6C54.2 0.6 54.2 0.6 54.2 0.6C54.3 0.6 54.4 0.6 54.5 0.6H54.6L54.7 0.7L54.8 0.8L54.9 0.9V1H55L55.1 1.1L55.2 1.2L55.3 1.3L55.4 1.4L55.5 1.5L55.6 1.6H55.7L55.8 1.7V1.8L55.9 1.9V2C56 2 56 2 56 2L56.1 2.1V2.2V2.3C56.6 2.3 57.1 2.3 57.6 2.3V2.2V2.1H57.7C57.8 2.1 57.8 2.1 57.9 2.1C58 2.1 58 2.1 58.1 2.1C58.2 2.1 58.2 2.1 58.3 2.1V2C58.4 2 58.4 2 58.5 2V1.9H58.6C58.7 1.9 58.7 1.9 58.8 1.9C58.9 1.9 58.9 1.8 59 1.8L59.1 1.7H59.2C59.3 1.7 59.3 1.6 59.4 1.6C59.5 1.6 59.5 1.6 59.6 1.6V1.5H59.7C59.8 1.5 59.8 1.5 59.8 1.5H59.9V1.6V1.7V1.8V1.9V2V2.1V2.2V2.3V2.4V2.5V2.6L60 2.7V2.8V2.9C60.6 2.9 61.2 2.9 61.8 2.9H61.9C62 2.9 62 2.9 62.1 2.9C62.2 2.9 62.2 3 62.3 3L62.4 3.1V3.2H62.5H62.6V3.3V3.4L62.7 3.5L62.8 3.6V3.7V3.8H62.9C68.1 3.8 73.4 3.8 78.6 3.8L78.7 3.7H78.8L78.9 3.6V3.5V3.4V3.3V3.2V3.1L79 3V2.9V2.8V2.7V2.6V2.5V2.4V2.3V2.2V2.1V2V1.9V1.8V1.7V1.6V1.5V1.4V1.3V1.2V1.1V1V0.9V0.8V0.7V0.6L79.1 0.5H79.2C79.3 0.5 79.4 0.5 79.5 0.5C81.7 0.1 81.7 0.0999999 81.8 0.0999999ZM82.8 0.6C82.9 0.5 82.9 0.5 82.8 0.6C82.9 0.5 82.8 0.5 82.8 0.6C82.8 0.5 82.8 0.5 82.8 0.6ZM80.3 9C80.2 9 80.2 9.1 80.1 9.1C80.2 9.1 80.3 9.1 80.3 9H80.4C80.4 9 80.3 9 80.3 9ZM55.6 1.1H55.7H55.6ZM41.9 14C41.9 14 41.8 14.1 41.9 14C41.8 14.1 41.8 14.1 41.8 14.2V14.3V14.4V14.5V14.6V14.7V14.8V14.9V15V15.1V15.2V15.3V15.4V15.5V15.6V15.9V16V16.1V16.2V16.3V16.4V16.5V16.6V16.7V16.8V16.9V17V17.1V17.2L41.9 17.3V17.4V17.5C43.3 17.5 44.7 17.5 46.1 17.5H46.2C46.5 17.5 46.7 17.5 47 17.5C47.1 17.5 47.1 17.5 47.2 17.5C47.3 17.5 47.4 17.5 47.5 17.5H47.6H47.7H47.8H47.9H48C48.1 17.5 48.1 17.5 48.2 17.5L48.3 17.4L48.4 17.3C48.5 17.3 48.5 17.2 48.6 17.2H48.7V17.1V17V16.9V16.8V16.7V16.6V16.5V16.4V16.3V16.2V16.1V16V15.9V15.8V15.7V15.6V15.5V15.4V15.3V15.2V15.1V15V14.9V14.8V14.7V14.6V14.5V14.4V14.3V14.2V13.9V13.8C47.2 13.8 45.7 13.8 44.2 13.8V13.9V14V14.1V14.2V14.3V14.4V14.5V14.6V14.7V14.8V14.9L44.3 15V15.1V15.2L44.4 15.3V15.4V15.5V15.6L44.5 15.7V15.8V15.9L44.6 16L44.7 16.1V16.2H44.8H44.9H45V16.3V16.4V16.5V16.6V16.7V16.8V16.9H44.9C44.8 16.9 44.7 16.9 44.6 16.9C44.5 16.9 44.5 16.9 44.5 16.9V16.8C44.4 16.8 44.4 16.8 44.3 16.8C44.2 16.8 44.2 16.7 44.1 16.7V16.6C44 16.6 44 16.6 44 16.6C43.9 16.6 43.9 16.5 43.9 16.5L43.8 16.4C43.7 16.4 43.7 16.4 43.7 16.4L43.6 16.3L43.5 16.2L43.4 16.1L43.3 16L43.2 15.9L43.1 15.8V15.7V15.6L43 15.5V15.4V15.3V15.2V15.1V15V14.9V14.8V14.7V14.6V14.5V14.4V14.3V14.2V14.1V14V13.9V13.8V13.7C42.9 13.7 42.9 13.7 42.8 13.7H42.7C42.6 13.7 42.6 13.8 42.5 13.8C42.4 13.8 42.4 13.8 42.3 13.8C42 13.9 42 13.9 41.9 14ZM23.1 12.9C23.2 12.9 23.3 12.9 23.4 12.9C23.5 12.9 23.5 12.9 23.6 12.9H23.7C23.8 12.9 23.8 12.9 23.9 12.9C24 12.9 24.2 12.8 24.3 12.8C24.4 12.8 24.5 12.7 24.6 12.7C24.7 12.7 24.7 12.6 24.8 12.6C24.9 12.6 24.9 12.6 25 12.6C25.1 12.6 25.2 12.5 25.3 12.5C25.3 12.5 25.3 12.5 25.4 12.5C25.4 12.5 25.4 12.4 25.5 12.4C25.6 12.4 25.6 12.3 25.7 12.3C25.8 12.3 25.8 12.2 25.9 12.2C18.4 12.2 10.9 12.2 3.4 12.2V12.3H3.3L3.2 12.4V13.1V16.1V16.7V18.1V18.2V18.3V18.4H3.3H3.4H3.5C3.5 18.5 3.5 18.5 3.5 18.5C3 19 3 19 3 19C3 19 3 19 3.1 19V19.1V19.2V19.3H3H2.9C2.9 19.3 2.9 19.3 2.9 19.4H3H3.1C3.2 19.4 3.2 19.4 3.3 19.4C3.4 19.4 3.5 19.4 3.6 19.4C3.7 19.4 3.7 19.4 3.8 19.4H3.9C4 19.4 4 19.4 4.1 19.4C4.2 19.4 4.3 19.3 4.4 19.3C4.5 19.3 4.6 19.2 4.7 19.2C4.4 19 4.5 19 4.5 19C4.6 19 4.6 19 4.7 19C4.8 19 4.9 19 5 19C5.1 19 5.1 19 5.2 19H5.3C5.4 19 5.4 19 5.5 19C5.6 19 5.7 18.9 5.8 18.9C5.9 18.9 6 18.8 6.1 18.8C6.2 18.8 6.3 18.7 6.4 18.7C6.5 18.7 6.5 18.7 6.6 18.7C6.7 18.7 6.8 18.6 6.9 18.6C7 18.6 7.1 18.5 7.2 18.5C7.3 18.5 7.4 18.4 7.5 18.4C7.6 18.4 7.7 18.3 7.8 18.3C7.4 18 7.5 18 7.6 18C7.7 18 7.8 17.9 7.9 17.9C8 17.9 8.1 17.8 8.2 17.8C8.3 17.8 8.4 17.7 8.5 17.7C8.6 17.7 8.7 17.6 8.8 17.6C8.9 17.6 9 17.5 9.1 17.5C9.2 17.5 9.3 17.5 9.4 17.5C9.5 17.5 9.6 17.5 9.7 17.5H9.8C9.9 17.5 9.9 17.5 10 17.5C10.1 17.5 10.2 17.5 10.3 17.5C10.4 17.5 10.5 17.4 10.5 17.4C10.6 17.4 10.7 17.3 10.8 17.3C10.9 17.3 11 17.2 11.1 17.2C11.2 17.2 11.3 17.1 11.4 17.1C11.5 17.1 11.6 17 11.7 17C11.8 17 11.8 16.9 11.9 16.9C12 16.9 12.1 16.8 12.1 16.8C12.2 16.8 12.3 16.7 12.3 16.7C12.4 16.7 12.4 16.6 12.5 16.6H12.6C12.7 16.6 12.7 16.6 12.8 16.6C12.9 16.6 13 16.6 13.1 16.6C13.3 16.6 13.5 16.5 13.7 16.5C13.8 16.5 13.9 16.4 14 16.4C14.1 16.4 14.2 16.3 14.2 16.3C14.3 16.3 14.4 16.2 14.5 16.2C14.6 16.2 14.7 16.1 14.8 16.1C14.9 16.1 15 16.1 15 16.1C15.1 16.1 15.1 16.1 15.2 16.1H15.3C15.4 16.1 15.4 16.1 15.5 16.1C15.6 16.1 15.7 16 15.8 16C15.9 16 16 15.9 16.1 15.9C16.2 15.9 16.3 15.8 16.4 15.8C16.5 15.8 16.6 15.7 16.7 15.7C16.8 15.7 16.9 15.7 17 15.7C17.1 15.7 17.2 15.6 17.3 15.6C17.4 15.6 17.5 15.5 17.6 15.5C17.7 15.5 17.8 15.4 17.9 15.4C18 15.4 18.1 15.4 18.2 15.4C18.3 15.4 18.5 15.3 18.6 15.3C18.7 15.3 18.8 15.2 18.9 15.2C19 15.2 19.1 15.1 19.2 15.1C19.3 15.1 19.4 15 19.5 15C19.6 15 19.7 14.9 19.8 14.9C19.9 14.9 20 14.8 20.1 14.8C20.2 14.8 20.3 14.7 20.4 14.7C20.5 14.7 20.6 14.6 20.7 14.6C20.8 14.6 20.8 14.5 20.9 14.5C21 14.5 21 14.4 21.1 14.4H21.2H21.3H21.4C21.5 14.4 21.5 14.4 21.6 14.4C21.6 14.4 21.6 14.4 21.7 14.4C21.8 14.4 21.8 14.4 21.9 14.4C22 14.4 22.1 14.4 22.2 14.4H22.3C22.4 14.4 22.4 14.4 22.5 14.4C22.6 14.4 22.7 14.3 22.8 14.3C22.9 14.3 23 14.2 23.1 14.2C23.2 14.2 23.3 14.1 23.4 14.1C23.5 14.1 23.5 14 23.6 14H23.7C23.7 14 23.7 14 23.8 14L24.7 13.7C22.9 13 23 12.9 23.1 12.9ZM31.6 12.9C31.5 12.9 31.4 12.9 31.2 13C31.1 13 31.1 13 31 13.1C30.9 13.1 30.8 13.2 30.7 13.2H30.8C31 13.2 31.2 13.2 31.4 13.2H31.5H31.6H31.7C31.6 13.1 31.6 13.1 31.5 13C31.6 13 31.6 13 31.6 12.9Z" fill="white"/>
</svg>
