<svg width="83" height="33" viewBox="0 0 83 33" fill="none" xmlns="http://www.w3.org/2000/svg">
<path d="M53.158 27.823C54.739 26.3487 55.494 25.4491 55.994 24.4683C56.528 23.4187 56.875 22.0756 56.969 20.7199C57.269 16.2656 57.843 12.8671 58.617 10.9305C59.011 9.9497 59.358 9.4561 60.206 8.6565C61.154 7.76938 62.001 7.22587 63.577 6.50744C65.372 5.68281 66.694 5.23301 70.051 4.29592C71.787 3.81488 72.928 3.44629 76.425 2.24058C78.321 1.58462 81.725 0.366406 82.673 0.00406609C82.82 -0.0521639 83 0.485096 83 0.978626C83 1.40345 82.973 1.5034 82.74 1.94071C82.299 2.77784 81.612 3.3276 79.863 4.25844C77.6 5.45791 76.052 6.07638 71.486 7.56947C69.003 8.3879 67.982 8.7564 66.213 9.4874C63.343 10.6744 62.402 11.1804 61.421 12.0612C60.747 12.6672 60.339 13.2232 59.932 14.1166L59.619 14.7913L59.539 14.4602C59.438 14.0916 59.425 13.3919 59.498 13.1732C59.545 13.0483 59.532 13.0296 59.425 13.0483C59.358 13.0608 59.225 13.217 59.118 13.4231C58.944 13.7355 58.918 13.8917 58.838 14.835C58.784 15.416 58.698 16.1719 58.637 16.5093C58.577 16.8529 58.504 17.6088 58.471 18.1898C58.304 20.9198 58.057 22.188 57.369 23.7748C56.915 24.8431 56.395 25.649 55.774 26.2737C54.9 27.1421 53.004 28.5102 52.016 28.985C51.903 29.0412 52.397 28.5415 53.158 27.823Z" fill="white"/>
<path d="M63.31 28.6727C62.696 28.6477 61.848 28.5415 61.468 28.4353C60.967 28.2978 60.76 28.1729 60.486 27.823C60.339 27.6481 60.179 27.4607 60.113 27.4107C60.012 27.3357 60.039 27.292 60.386 26.9922C60.713 26.711 60.813 26.661 61.04 26.6548C61.281 26.6548 61.334 26.686 61.674 27.0421C62.522 27.9292 62.869 28.2104 63.43 28.4665C63.73 28.6039 63.93 28.7101 63.877 28.7039C63.824 28.6976 63.57 28.6852 63.31 28.6727Z" fill="white"/>
<path d="M53.738 28.5977C53.585 28.5602 53.591 28.5415 53.938 28.3416C54.559 27.9667 55.607 27.1546 56.275 26.5299C57.496 25.3741 58.277 23.9935 58.731 22.1568C58.804 21.8632 58.991 20.7137 59.138 19.5954C59.292 18.4772 59.445 17.3589 59.485 17.1028L59.559 16.6405L59.745 17.1215C59.846 17.3901 60.206 18.0711 60.546 18.6333C61.468 20.1827 61.681 20.8449 61.681 22.1693C61.674 23.6999 61.254 24.7306 60.099 26.0051C59.565 26.5923 59.258 26.8547 58.671 27.2233C57.423 28.0042 55.827 28.5227 54.366 28.6164C54.112 28.6289 53.825 28.6227 53.738 28.5977Z" fill="white"/>
<path d="M64.711 28.2791C63.737 27.9542 63.21 27.6606 62.549 27.0608C61.881 26.4611 61.594 26.2799 61.314 26.2799C61.154 26.2799 61.16 26.2612 61.521 25.7989C61.721 25.5303 61.941 25.2179 62.001 25.0992L62.108 24.8931L62.502 24.9368C63.049 24.993 63.203 25.0805 63.904 25.7427C64.371 26.1862 64.625 26.3674 65.012 26.5486C65.733 26.8859 66.44 27.0421 67.288 27.0484C68.082 27.0608 68.069 27.0484 67.742 27.5044C67.375 28.0042 66.634 28.3165 65.646 28.3728C65.212 28.404 65.038 28.3853 64.711 28.2791Z" fill="white"/>
<path d="M66.514 25.9988C65.653 25.8239 65.058 25.5366 64.398 24.993C63.79 24.4933 63.39 24.3308 62.816 24.3558L62.362 24.3746L62.442 24.1871C62.515 24.031 62.596 23.7124 62.776 22.8627C62.809 22.7128 63.109 22.5941 63.437 22.5941C63.804 22.5941 64.344 22.9564 65.312 23.856C65.826 24.3308 66.387 24.8119 66.56 24.9306C67.321 25.4366 68.256 25.6802 69.297 25.6428L69.951 25.624L69.597 25.7677C69.41 25.8489 69.07 25.9551 68.85 25.9988C68.349 26.1113 67.054 26.1113 66.514 25.9988Z" fill="white"/>
<path d="M68.349 24.437C67.682 24.2996 67.048 23.9622 66.28 23.3375C64.792 22.1381 63.877 21.7695 63.13 22.0818L62.829 22.2068L62.789 21.4758C62.762 21.076 62.729 20.6762 62.702 20.5887C62.662 20.4326 62.682 20.4201 63.103 20.3139C64.057 20.0702 65.065 20.4013 67.181 21.657C68.316 22.3255 70.125 23.1876 70.946 23.45C71.299 23.5562 71.653 23.6124 72.16 23.6374C72.881 23.6749 72.881 23.6749 72.721 23.7936C72.454 23.9872 71.747 24.2746 71.253 24.3746C70.578 24.5183 68.903 24.5557 68.349 24.437Z" fill="white"/>
<path d="M71.913 22.5316C71.186 22.3942 70.044 21.9381 67.915 20.9323C66.3 20.1639 65.766 19.964 64.945 19.8203C63.997 19.6516 63.477 19.7079 62.903 20.0515L62.622 20.2139L62.415 19.6704C62.302 19.3705 62.088 18.9457 61.948 18.7208C61.801 18.4959 61.694 18.3085 61.701 18.296C61.714 18.2897 62.015 18.2085 62.375 18.1273C64.177 17.6962 65.539 18.0586 68.783 19.8453C70.885 21.001 72.154 21.4633 73.789 21.6633C74.376 21.732 75.845 21.7132 76.125 21.6258C76.405 21.5383 75.851 21.9194 75.391 22.1318C74.236 22.6503 73.182 22.769 71.913 22.5316Z" fill="white"/>
<path d="M73.789 20.4638C73.222 20.3888 72.14 20.1202 71.626 19.9265C71.386 19.839 70.385 19.3892 69.404 18.9394C66.567 17.615 65.799 17.3839 64.311 17.3776C63.263 17.3776 62.976 17.4401 62.048 17.8399L61.501 18.0773L61.274 17.765L61.047 17.4526L61.341 17.2027C61.968 16.6842 62.876 16.3968 64.264 16.2719C65.279 16.1782 65.733 16.2219 68.783 16.6904C74.143 17.5088 74.83 17.5963 76.125 17.5963C77.547 17.5963 78.581 17.4151 79.536 17.0028C79.81 16.8903 80.03 16.8029 80.03 16.8154C80.03 16.9278 79.569 17.9024 79.349 18.2522C78.495 19.6079 77.734 20.1639 76.345 20.4325C75.785 20.5387 74.476 20.5575 73.789 20.4638Z" fill="white"/>
<path d="M60.773 17.0965C60.72 17.0403 60.673 16.9653 60.673 16.9278C60.673 16.7904 61.835 15.8408 62.522 15.4035C64.144 14.3915 66.02 13.723 68.115 13.4106C69.397 13.2232 70.498 13.1545 74.837 13.0046C78.681 12.8671 79.723 12.7109 80.984 12.08C81.431 11.8613 81.431 11.8613 81.598 12.3736C81.712 12.7297 81.725 13.4356 81.625 13.8479C81.512 14.3102 81.104 15.0099 80.737 15.366C80.13 15.9595 78.922 16.4593 77.76 16.5905C76.445 16.7467 75.438 16.6842 72.02 16.2219C67.101 15.5597 65.639 15.4472 64.351 15.6222C62.903 15.8221 61.875 16.2281 61.247 16.8466C60.907 17.1777 60.873 17.1965 60.773 17.0965Z" fill="white"/>
<path d="M60.373 16.5093C60.259 16.3156 60.259 16.2719 60.339 16.1157C60.473 15.8658 62.335 14.1416 63.009 13.6356C64.464 12.5548 65.98 11.9425 68.863 11.2866C70.578 10.893 71.399 10.7493 73.642 10.437C77.533 9.90589 80.25 9.31249 81.498 8.72519C81.999 8.48779 82.052 8.51279 82.086 9.05629C82.119 9.51859 81.925 10.0559 81.618 10.387C81.278 10.7493 80.317 11.1242 79.162 11.3428C78.214 11.5302 77.62 11.5865 75.024 11.7239C69.824 12.005 68.095 12.2362 66.08 12.9046C63.964 13.6168 61.835 15.0162 60.78 16.3968C60.64 16.5718 60.52 16.7217 60.513 16.7217C60.5 16.7217 60.44 16.6217 60.373 16.5093Z" fill="white"/>
<path d="M59.952 15.6721C59.872 15.4722 59.806 15.2598 59.806 15.1973C59.806 15.1349 59.926 14.86 60.066 14.5914C60.893 13.0545 61.808 12.2174 63.55 11.4303C65.005 10.768 68.136 9.6873 71.373 8.7252C76.566 7.18838 78.154 6.59489 80.644 5.27048L81.291 4.92688L81.678 5.1018C82.346 5.40792 82.633 5.72653 82.633 6.15134C82.633 6.63238 82.339 7.06968 81.732 7.50699C81.004 8.0255 80.17 8.3066 77.714 8.8814C76.118 9.25 75.378 9.3937 72.821 9.8185C71.213 10.0809 70.331 10.2745 68.549 10.7556C65.112 11.6801 63.777 12.3736 61.741 14.2915C61.281 14.7226 60.74 15.2911 60.54 15.5534C60.339 15.8158 60.159 16.0282 60.139 16.0282C60.119 16.0345 60.039 15.872 59.952 15.6721Z" fill="white"/>
<path d="M8 3V3.2H8.4V3.6H35.6V3.3L35.8 3.1H36.6L37.1 3.4V3.6H37.3V4L37.6 4.3H38.1L38.2 4.4C38.3 4.5 38.3 4.5 38.4 4.6C38.4 4.7 38.4 4.7 38.4 4.8V4.9H46.9L47 5C47 5 47.1 5.1 47.1 5.2C47.2 5.5 47.3 5.8 47.3 6.1C47.3 6.5 47.3 6.8 47.2 7.1C47.1 7.3 47.1 7.4 47 7.5H38.3L38.1 7.8H37.3V9.3C37.2 9.5 37.2 9.6 37.1 9.6C37 9.7 37 9.7 36.9 9.8H36.8H31L30.8 10.2H31.6C32 10.3 32.4 10.4 32.8 10.5C33.1 10.7 33.4 10.9 33.6 11.1C33.7 11.2 33.8 11.3 33.9 11.3L33.7 11.5H30.4L35.9 30.4L35.6 30.5H35.7C35.8 30.5 35.9 30.5 35.9 30.6C36 30.7 36.1 30.7 36.2 30.8V31.3L36.1 31.4C36 31.5 35.8 31.6 35.6 31.6C35.4 31.7 35.2 31.8 35.1 31.8H34.9H34.4L34.3 32H33V32.4H30.1V32L24.3 11.6L24 11.4L23.5 12.4V13.3H23.6V13.5H23.8V16H23.6V16.2L22.1 16.7C21.7 16.9 21.2 17 20.6 17.2C19.4 17.5 18.5 17.6 17.8 17.5C17.1 17.4 16.5 17.3 15.8 17C15.6 16.9 15.4 16.9 15.2 16.8L15 16.7L14.6 17L13.9 17.2L13.6 17.4L12.2 20.7C11.2 23.1 10.6 24.7 10.2 25.6C10.1 25.7 10.1 25.8 10.1 25.9C10.1 26.1 10.1 26.2 10.1 26.4C10.1 26.7 10.2 27.2 10.3 27.7H11C11.1 27.7 11.2 27.7 11.3 27.8C11.4 27.8 11.5 27.9 11.5 28C11.5 28.1 11.5 28.1 11.6 28.1V28.2L11.2 28.6C10.8 28.9 10.5 29.1 10.2 29.2C9.8 29.3 9.4 29.4 8.8 29.5L8 29.7L1.3 29.8L1.1 29.5L1 28.7L0.5 28.6C0.3 28.6 0.2 28.6 0.2 28.5C0.1 28.5 0.1 28.5 0.1 28.4V28.3C0.1 28.2 0.1 28 0.1 27.8C-7.45058e-09 27.7 0 27.6 0 27.5C0 27.3 0 27.1 0 26.7C0 26.3 -7.45058e-09 26 0.1 25.7L3.5 16.5C3.7 16.3 3.9 16 4 15.7C4.4 15.1 4.6 14.8 4.7 14.6C4.8 14.3 4.8 14.1 4.9 14C5 13.8 4.9 13.5 4.9 13.3C4.8 13 4.7 12.7 4.5 12.4C4.3 12.1 4.2 11.8 3.9 11.6C3.5 11.6 3.2 11.3 2.8 11L2.3 10.6V9.9C2.4 9.9 2.6 9.8 2.8 9.7C3.2 9.5 3.5 9.3 3.8 8.9C4.1 8.6 4.3 8.2 4.4 7.7C4.4 7.6 4.5 7.4 4.5 7.3V7.2L4.4 7.1C4.3 7 4.2 6.9 4.1 6.8C4 6.7 3.9 6.7 3.8 6.7L3.6 6.6C3.5 6.6 3.4 6.6 3.3 6.6C3 6.6 2.9 6.5 2.7 6.4C2.5 6.3 2.4 6.2 2.3 6C2.2 5.8 2.2 5.5 2.3 5.2C2.4 4.9 2.6 4.7 2.9 4.7C3.1 4.6 3.3 4.6 3.5 4.7C3.6 4.7 3.7 4.8 4 5.1C4.1 5.2 4.2 5.4 4.3 5.5V5.9L4.5 6.1V5.6C4.6 5.5 4.6 5.4 4.6 5.2C4.7 5 4.8 4.7 5 4.6C5.1 4.4 5.3 4.2 5.6 4.1C5.8 4 5.9 4 6 3.9V3.6H7.2V3H8ZM17.8 11.7C17.6 11.7 17.4 11.8 17.1 11.9C16.6 12.1 16.1 12.5 15.8 12.9C15.4 13.3 15.2 13.8 15.1 14.4C15 14.7 15 14.9 15 15.1V15.3C15.1 15.4 15.1 15.6 15.2 15.7C15.4 16.1 15.8 16.5 16.4 16.7C16.7 16.9 17.2 17 17.8 17C18.4 17.1 19 17.1 19.5 17C20.6 16.7 21.5 16.3 22.2 15.8C22.4 15.6 22.5 15.5 22.7 15.3C22.8 15.2 22.8 15 22.9 14.8C22.9 14.7 22.9 14.4 22.9 13.8C22.9 13.2 22.9 12.8 22.8 12.6C22.8 12.4 22.6 12.2 22.3 11.8C22 11.4 21.8 11.2 21.6 11.1C21.4 11 21.2 10.9 20.9 10.9C20.7 10.9 20.6 10.9 20.3 11C20.1 11.1 20 11.2 19.9 11.3L19.8 11.5H20V11.9L19.9 12C19.8 12.1 19.8 12.2 19.7 12.3C19.5 12.7 19.4 13 19.4 13.4C19.4 13.8 19.4 14.1 19.5 14.3C19.5 14.5 19.7 14.7 19.8 15C19.9 15.2 20.1 15.4 20.5 15.6C20.7 15.7 20.9 15.8 21 15.8V16C20.8 16 20.5 16 20.2 15.9C19.6 15.7 19.2 15.4 18.8 14.9C18.8 14.7 18.7 14.3 18.6 13.7C18.6 13.5 18.5 13.3 18.5 13.1V12.9C18.5 12.8 18.5 12.7 18.4 12.5C18.3 12.2 18.3 12.1 18.2 12.1C18.2 12 18 12 17.9 11.8L17.8 11.7Z" fill="white"/>
</svg>
