<svg width="85" height="29" viewBox="0 0 85 29" fill="none" xmlns="http://www.w3.org/2000/svg">
<path d="M55.158 27.823C56.739 26.3487 57.494 25.4491 57.994 24.4683C58.528 23.4187 58.875 22.0756 58.969 20.7199C59.269 16.2656 59.843 12.8671 60.617 10.9305C61.011 9.9497 61.358 9.4561 62.206 8.6565C63.154 7.76938 64.001 7.22587 65.577 6.50744C67.372 5.68281 68.694 5.23301 72.051 4.29592C73.787 3.81488 74.928 3.44629 78.425 2.24058C80.321 1.58462 83.725 0.366406 84.673 0.00406609C84.82 -0.0521639 85 0.485096 85 0.978626C85 1.40345 84.973 1.5034 84.74 1.94071C84.299 2.77784 83.612 3.3276 81.863 4.25844C79.6 5.45791 78.052 6.07638 73.486 7.56947C71.003 8.3879 69.982 8.7564 68.213 9.4874C65.343 10.6744 64.402 11.1804 63.421 12.0612C62.747 12.6672 62.339 13.2232 61.932 14.1166L61.619 14.7913L61.539 14.4602C61.438 14.0916 61.425 13.3919 61.498 13.1732C61.545 13.0483 61.532 13.0296 61.425 13.0483C61.358 13.0608 61.225 13.217 61.118 13.4231C60.944 13.7355 60.918 13.8917 60.838 14.835C60.784 15.416 60.698 16.1719 60.637 16.5093C60.577 16.8529 60.504 17.6088 60.471 18.1898C60.304 20.9198 60.057 22.188 59.369 23.7748C58.915 24.8431 58.395 25.649 57.774 26.2737C56.9 27.1421 55.004 28.5102 54.016 28.985C53.903 29.0412 54.397 28.5415 55.158 27.823Z" fill="white"/>
<path d="M65.31 28.6727C64.696 28.6477 63.848 28.5415 63.468 28.4353C62.967 28.2978 62.76 28.1729 62.486 27.823C62.339 27.6481 62.179 27.4607 62.113 27.4107C62.012 27.3357 62.039 27.292 62.386 26.9922C62.713 26.711 62.813 26.661 63.04 26.6548C63.281 26.6548 63.334 26.686 63.674 27.0421C64.522 27.9292 64.869 28.2104 65.43 28.4665C65.73 28.6039 65.93 28.7101 65.877 28.7039C65.824 28.6976 65.57 28.6852 65.31 28.6727Z" fill="white"/>
<path d="M55.738 28.5977C55.585 28.5602 55.591 28.5415 55.938 28.3416C56.559 27.9667 57.607 27.1546 58.275 26.5299C59.496 25.3741 60.277 23.9935 60.731 22.1568C60.804 21.8632 60.991 20.7137 61.138 19.5954C61.292 18.4772 61.445 17.3589 61.485 17.1028L61.559 16.6405L61.745 17.1215C61.846 17.3901 62.206 18.0711 62.546 18.6333C63.468 20.1827 63.681 20.8449 63.681 22.1693C63.674 23.6999 63.254 24.7306 62.099 26.0051C61.565 26.5923 61.258 26.8547 60.671 27.2233C59.423 28.0042 57.827 28.5227 56.366 28.6164C56.112 28.6289 55.825 28.6227 55.738 28.5977Z" fill="white"/>
<path d="M66.711 28.2791C65.737 27.9542 65.21 27.6606 64.549 27.0608C63.881 26.4611 63.594 26.2799 63.314 26.2799C63.154 26.2799 63.16 26.2612 63.521 25.7989C63.721 25.5303 63.941 25.2179 64.001 25.0992L64.108 24.8931L64.502 24.9368C65.049 24.993 65.203 25.0805 65.904 25.7427C66.371 26.1862 66.625 26.3674 67.012 26.5486C67.733 26.8859 68.44 27.0421 69.288 27.0484C70.082 27.0608 70.069 27.0484 69.742 27.5044C69.375 28.0042 68.634 28.3165 67.646 28.3728C67.212 28.404 67.038 28.3853 66.711 28.2791Z" fill="white"/>
<path d="M68.514 25.9988C67.653 25.8239 67.058 25.5366 66.398 24.993C65.79 24.4933 65.39 24.3308 64.816 24.3558L64.362 24.3746L64.442 24.1871C64.515 24.031 64.596 23.7124 64.776 22.8627C64.809 22.7128 65.109 22.5941 65.437 22.5941C65.804 22.5941 66.344 22.9564 67.312 23.856C67.826 24.3308 68.387 24.8119 68.56 24.9306C69.321 25.4366 70.256 25.6802 71.297 25.6428L71.951 25.624L71.597 25.7677C71.41 25.8489 71.07 25.9551 70.85 25.9988C70.349 26.1113 69.054 26.1113 68.514 25.9988Z" fill="white"/>
<path d="M70.349 24.437C69.682 24.2996 69.048 23.9622 68.28 23.3375C66.792 22.1381 65.877 21.7695 65.13 22.0818L64.829 22.2068L64.789 21.4758C64.762 21.076 64.729 20.6762 64.702 20.5887C64.662 20.4326 64.682 20.4201 65.103 20.3139C66.057 20.0702 67.065 20.4013 69.181 21.657C70.316 22.3255 72.125 23.1876 72.946 23.45C73.299 23.5562 73.653 23.6124 74.16 23.6374C74.881 23.6749 74.881 23.6749 74.721 23.7936C74.454 23.9872 73.747 24.2746 73.253 24.3746C72.578 24.5183 70.903 24.5557 70.349 24.437Z" fill="white"/>
<path d="M73.913 22.5316C73.186 22.3942 72.044 21.9381 69.915 20.9323C68.3 20.1639 67.766 19.964 66.945 19.8203C65.997 19.6516 65.477 19.7079 64.903 20.0515L64.622 20.2139L64.415 19.6704C64.302 19.3705 64.088 18.9457 63.948 18.7208C63.801 18.4959 63.694 18.3085 63.701 18.296C63.714 18.2897 64.015 18.2085 64.375 18.1273C66.177 17.6962 67.539 18.0586 70.783 19.8453C72.885 21.001 74.154 21.4633 75.789 21.6633C76.376 21.732 77.845 21.7132 78.125 21.6258C78.405 21.5383 77.851 21.9194 77.391 22.1318C76.236 22.6503 75.182 22.769 73.913 22.5316Z" fill="white"/>
<path d="M75.789 20.4638C75.222 20.3888 74.14 20.1202 73.626 19.9265C73.386 19.839 72.385 19.3892 71.404 18.9394C68.567 17.615 67.799 17.3839 66.311 17.3776C65.263 17.3776 64.976 17.4401 64.048 17.8399L63.501 18.0773L63.274 17.765L63.047 17.4526L63.341 17.2027C63.968 16.6842 64.876 16.3968 66.264 16.2719C67.279 16.1782 67.733 16.2219 70.783 16.6904C76.143 17.5088 76.83 17.5963 78.125 17.5963C79.547 17.5963 80.581 17.4151 81.536 17.0028C81.81 16.8903 82.03 16.8029 82.03 16.8154C82.03 16.9278 81.569 17.9024 81.349 18.2522C80.495 19.6079 79.734 20.1639 78.345 20.4325C77.785 20.5387 76.476 20.5575 75.789 20.4638Z" fill="white"/>
<path d="M62.773 17.0965C62.72 17.0403 62.673 16.9653 62.673 16.9278C62.673 16.7904 63.835 15.8408 64.522 15.4035C66.144 14.3915 68.02 13.723 70.115 13.4106C71.397 13.2232 72.498 13.1545 76.837 13.0046C80.681 12.8671 81.723 12.7109 82.984 12.08C83.431 11.8613 83.431 11.8613 83.598 12.3736C83.712 12.7297 83.725 13.4356 83.625 13.8479C83.512 14.3102 83.104 15.0099 82.737 15.366C82.13 15.9595 80.922 16.4593 79.76 16.5905C78.445 16.7467 77.438 16.6842 74.02 16.2219C69.101 15.5597 67.639 15.4472 66.351 15.6222C64.903 15.8221 63.875 16.2281 63.247 16.8466C62.907 17.1777 62.873 17.1965 62.773 17.0965Z" fill="white"/>
<path d="M62.373 16.5093C62.259 16.3156 62.259 16.2719 62.339 16.1157C62.473 15.8658 64.335 14.1416 65.009 13.6356C66.464 12.5548 67.98 11.9425 70.863 11.2866C72.578 10.893 73.399 10.7493 75.642 10.437C79.533 9.90589 82.25 9.31249 83.498 8.72519C83.999 8.48779 84.052 8.51279 84.086 9.05629C84.119 9.51859 83.925 10.0559 83.618 10.387C83.278 10.7493 82.317 11.1242 81.162 11.3428C80.214 11.5302 79.62 11.5865 77.024 11.7239C71.824 12.005 70.095 12.2362 68.08 12.9046C65.964 13.6168 63.835 15.0162 62.78 16.3968C62.64 16.5718 62.52 16.7217 62.513 16.7217C62.5 16.7217 62.44 16.6217 62.373 16.5093Z" fill="white"/>
<path d="M61.952 15.6721C61.872 15.4722 61.806 15.2598 61.806 15.1973C61.806 15.1349 61.926 14.86 62.066 14.5914C62.893 13.0545 63.808 12.2174 65.55 11.4303C67.005 10.768 70.136 9.6873 73.373 8.7252C78.566 7.18838 80.154 6.59489 82.644 5.27048L83.291 4.92688L83.678 5.1018C84.346 5.40792 84.633 5.72653 84.633 6.15134C84.633 6.63238 84.339 7.06968 83.732 7.50699C83.004 8.0255 82.17 8.3066 79.714 8.8814C78.118 9.25 77.378 9.3937 74.821 9.8185C73.213 10.0809 72.331 10.2745 70.549 10.7556C67.112 11.6801 65.777 12.3736 63.741 14.2915C63.281 14.7226 62.74 15.2911 62.54 15.5534C62.339 15.8158 62.159 16.0282 62.139 16.0282C62.119 16.0345 62.039 15.872 61.952 15.6721Z" fill="white"/>
<path d="M50.2 1.4C50.3 1.4 50.3 1.4 50.5 1.4V2.4L50.7 3.8C50.6 4.1 50.6 4.4 50.4 4.7C50.3 5 50.3 5.2 50.1 5.5C50 5.9 49.9 6.2 49.8 6.4C49.6 7.1 49.5 7.6 49.3 8C49.2 8.4 49.1 8.6 49 8.8C48.9 9 48.9 9.1 48.8 9.1C48.8 9.2 48.7 9.2 48.7 9.2H29.2C29.2 9.2 29 9.2 28.6 9.3C28.2 9.5 27.8 9.8 27.3 10.2C26.9 10.6 26.5 11.2 26.1 12.1C25.7 12.9 25.5 14 25.5 15.4V15.9H25.4C25.4 15.9 25.1 16 24.6 16.1C24.1 16.2 23.5 16.3 22.7 16.4C22 16.5 21.2 16.5 20.4 16.5C19.6 16.5 18.8 16.3 18.2 16.1C18 16.2 17.7 16.3 17.4 16.7C17.1 17.1 16.9 17.5 16.9 17.9C16.9 18.2 16.8 18.7 16.6 19.5C16.5 20.3 16.3 21.2 16.1 22.1C15.9 23 15.8 23.8 15.7 24.6C15.5 25.3 15.4 25.8 15.4 25.9L16.1 27.8H15.9C14.6 28 13.2 28.1 11.8 28.3C10.6 28.4 9.3 28.5 8 28.5C6.6 28.5 5.3 28.5 4 28.3C3.9 28.3 3.8 28.3 3.7 28.3C3.5 28.2 3.3 28.1 3.2 27.9C3 27.3 2.9 26.8 2.9 26.1C2.9 25.6 2.9 25.1 3 24.4C3.1 23.7 3.3 22.9 3.6 22C3.9 21.1 4.2 20 4.7 18.7C5.3 17.5 5.9 16.1 6.6 14.5V14.3C6.6 14.2 6.6 14.1 6.6 14C6.6 13.8 6.6 13.6 6.6 13.4C6.6 12.8 6.5 12.3 6.2 11.7C6 11.1 5.4 10.8 4.5 10.6C4.4 10.6 4.2 10.6 3.8 10.6C3.3 10.6 2.9 10.6 2.3 10.5C1.8 10.5 1.3 10.5 0.799999 10.5C0.399999 10.5 0.0999985 10.5 0.0999985 10.5L0 10.4V10.3C0 10.2 -1.52737e-06 10.1 0.0999985 10C0.199998 9.7 0.5 9.4 1 9.1C1.5 8.8 2.4 8.5 3.6 8.2C3.6 8.2 3.7 8 3.9 7.7C4.1 7.4 4.2 7 4.2 6.6C4.2 6.4 4.2 6.3 4.2 6.2C4.2 6.1 4.1 5.9 4 5.7C3.9 5.4 3.8 5.3 3.7 5.1C3.6 4.9 3.3 4.5 3.1 3.9V3.1L3.9 2.9C4 3 4.1 3 4.1 3C4.2 3.1 4.3 3.2 4.3 3.2H5.7C5.8 3.1 5.8 3 5.9 2.8C5.9 2.7 6 2.6 6.1 2.5L7.4 1.4C7.5 1.4 7.5 1.3 7.7 1.3C7.7 1.3 7.8 1.2 7.9 1.1V0.5C7.9 0.4 7.9 0.2 7.9 0H9.5L10.6 1.1H12.5L13.1 0.8H20.8C20.9 0.8 20.9 0.8 21 0.9C21.1 1.1 21.2 1.1 21.3 1.1L31.2 1.3L31.3 1.4C31.3 1.5 31.4 1.5 31.5 1.5H32C32 1.4 32 1.4 32 1.4C32 1.3 32 1.3 32 1.3C32.2 1.2 32.3 1.1 32.3 1.1H43.5C43.5 1.2 43.5 1.3 43.5 1.3C43.5 1.4 43.5 1.5 43.5 1.5C43.5 1.6 43.5 1.6 43.5 1.6H44.1C44.1 1.6 44.1 1.5 44.2 1.3C44.2 1.2 44.3 1.2 44.4 1.1H46.6C46.7 1.1 46.8 1 47 0.9C47.2 0.8 47.4 0.6 47.6 0.5C47.8 0.4 48 0.3 48.2 0.2C48.4 0.1 48.6 0.0999999 48.7 0.0999999C48.9 0.0999999 49 0.2 49 0.4C49.1 0.7 49.1 0.8 49.1 0.9C49.2 1 49.4 1 49.6 1.1C49.7 1.1 49.8 1.2 49.9 1.2C49.9 1.2 49.9 1.2 50 1.2C50 1.4 50.2 1.4 50.2 1.4ZM19.9 9.8C19.6 9.8 19.4 9.9 19.2 10.1C19 10.3 18.9 10.5 18.9 10.8V13.9C18.9 14.2 19 14.4 19.2 14.6C19.4 14.8 19.6 14.9 19.9 14.9H23.2C23.5 14.9 23.7 14.8 23.9 14.6C24.1 14.4 24.2 14.1 24.2 13.9V10.8C24.2 10.5 24.1 10.3 23.9 10.1C23.7 9.9 23.5 9.8 23.2 9.8H19.9Z" fill="white"/>
</svg>
