<svg width="104" height="29" viewBox="0 0 104 29" fill="none" xmlns="http://www.w3.org/2000/svg">
<path d="M74.158 27.823C75.739 26.3487 76.494 25.4491 76.994 24.4683C77.528 23.4187 77.875 22.0756 77.969 20.7199C78.269 16.2656 78.843 12.8671 79.617 10.9305C80.011 9.9497 80.358 9.4561 81.206 8.6565C82.154 7.76938 83.001 7.22587 84.577 6.50744C86.372 5.68281 87.694 5.23301 91.051 4.29592C92.787 3.81488 93.928 3.44629 97.425 2.24058C99.321 1.58462 102.725 0.366406 103.673 0.00406609C103.82 -0.0521639 104 0.485096 104 0.978626C104 1.40345 103.973 1.5034 103.74 1.94071C103.299 2.77784 102.612 3.3276 100.863 4.25844C98.6 5.45791 97.052 6.07638 92.486 7.56947C90.003 8.3879 88.982 8.7564 87.213 9.4874C84.343 10.6744 83.402 11.1804 82.421 12.0612C81.747 12.6672 81.339 13.2232 80.932 14.1166L80.619 14.7913L80.539 14.4602C80.438 14.0916 80.425 13.3919 80.498 13.1732C80.545 13.0483 80.532 13.0296 80.425 13.0483C80.358 13.0608 80.225 13.217 80.118 13.4231C79.944 13.7355 79.918 13.8917 79.838 14.835C79.784 15.416 79.698 16.1719 79.637 16.5093C79.577 16.8529 79.504 17.6088 79.471 18.1898C79.304 20.9198 79.057 22.188 78.369 23.7748C77.915 24.8431 77.395 25.649 76.774 26.2737C75.9 27.1421 74.004 28.5102 73.016 28.985C72.903 29.0412 73.397 28.5415 74.158 27.823Z" fill="white"/>
<path d="M84.31 28.6727C83.696 28.6477 82.848 28.5415 82.468 28.4353C81.967 28.2978 81.76 28.1729 81.486 27.823C81.339 27.6481 81.179 27.4607 81.113 27.4107C81.012 27.3357 81.039 27.292 81.386 26.9922C81.713 26.711 81.813 26.661 82.04 26.6548C82.281 26.6548 82.334 26.686 82.674 27.0421C83.522 27.9292 83.869 28.2104 84.43 28.4665C84.73 28.6039 84.93 28.7101 84.877 28.7039C84.824 28.6976 84.57 28.6852 84.31 28.6727Z" fill="white"/>
<path d="M74.738 28.5977C74.585 28.5602 74.591 28.5415 74.938 28.3416C75.559 27.9667 76.607 27.1546 77.275 26.5299C78.496 25.3741 79.277 23.9935 79.731 22.1568C79.804 21.8632 79.991 20.7137 80.138 19.5954C80.292 18.4772 80.445 17.3589 80.485 17.1028L80.559 16.6405L80.745 17.1215C80.846 17.3901 81.206 18.0711 81.546 18.6333C82.468 20.1827 82.681 20.8449 82.681 22.1693C82.674 23.6999 82.254 24.7306 81.099 26.0051C80.565 26.5923 80.258 26.8547 79.671 27.2233C78.423 28.0042 76.827 28.5227 75.366 28.6164C75.112 28.6289 74.825 28.6227 74.738 28.5977Z" fill="white"/>
<path d="M85.711 28.2791C84.737 27.9542 84.21 27.6606 83.549 27.0608C82.881 26.4611 82.594 26.2799 82.314 26.2799C82.154 26.2799 82.16 26.2612 82.521 25.7989C82.721 25.5303 82.941 25.2179 83.001 25.0992L83.108 24.8931L83.502 24.9368C84.049 24.993 84.203 25.0805 84.904 25.7427C85.371 26.1862 85.625 26.3674 86.012 26.5486C86.733 26.8859 87.44 27.0421 88.288 27.0484C89.082 27.0608 89.069 27.0484 88.742 27.5044C88.375 28.0042 87.634 28.3165 86.646 28.3728C86.212 28.404 86.038 28.3853 85.711 28.2791Z" fill="white"/>
<path d="M87.514 25.9988C86.653 25.8239 86.058 25.5366 85.398 24.993C84.79 24.4933 84.39 24.3308 83.816 24.3558L83.362 24.3746L83.442 24.1871C83.515 24.031 83.596 23.7124 83.776 22.8627C83.809 22.7128 84.109 22.5941 84.437 22.5941C84.804 22.5941 85.344 22.9564 86.312 23.856C86.826 24.3308 87.387 24.8119 87.56 24.9306C88.321 25.4366 89.256 25.6802 90.297 25.6428L90.951 25.624L90.597 25.7677C90.41 25.8489 90.07 25.9551 89.85 25.9988C89.349 26.1113 88.054 26.1113 87.514 25.9988Z" fill="white"/>
<path d="M89.349 24.437C88.682 24.2996 88.048 23.9622 87.28 23.3375C85.792 22.1381 84.877 21.7695 84.13 22.0818L83.829 22.2068L83.789 21.4758C83.762 21.076 83.729 20.6762 83.702 20.5887C83.662 20.4326 83.682 20.4201 84.103 20.3139C85.057 20.0702 86.065 20.4013 88.181 21.657C89.316 22.3255 91.125 23.1876 91.946 23.45C92.299 23.5562 92.653 23.6124 93.16 23.6374C93.881 23.6749 93.881 23.6749 93.721 23.7936C93.454 23.9872 92.747 24.2746 92.253 24.3746C91.578 24.5183 89.903 24.5557 89.349 24.437Z" fill="white"/>
<path d="M92.913 22.5316C92.186 22.3942 91.044 21.9381 88.915 20.9323C87.3 20.1639 86.766 19.964 85.945 19.8203C84.997 19.6516 84.477 19.7079 83.903 20.0515L83.622 20.2139L83.415 19.6704C83.302 19.3705 83.088 18.9457 82.948 18.7208C82.801 18.4959 82.694 18.3085 82.701 18.296C82.714 18.2897 83.015 18.2085 83.375 18.1273C85.177 17.6962 86.539 18.0586 89.783 19.8453C91.885 21.001 93.154 21.4633 94.789 21.6633C95.376 21.732 96.845 21.7132 97.125 21.6258C97.405 21.5383 96.851 21.9194 96.391 22.1318C95.236 22.6503 94.182 22.769 92.913 22.5316Z" fill="white"/>
<path d="M94.789 20.4638C94.222 20.3888 93.14 20.1202 92.626 19.9265C92.386 19.839 91.385 19.3892 90.404 18.9394C87.567 17.615 86.799 17.3839 85.311 17.3776C84.263 17.3776 83.976 17.4401 83.048 17.8399L82.501 18.0773L82.274 17.765L82.047 17.4526L82.341 17.2027C82.968 16.6842 83.876 16.3968 85.264 16.2719C86.279 16.1782 86.733 16.2219 89.783 16.6904C95.143 17.5088 95.83 17.5963 97.125 17.5963C98.547 17.5963 99.581 17.4151 100.536 17.0028C100.81 16.8903 101.03 16.8029 101.03 16.8154C101.03 16.9278 100.569 17.9024 100.349 18.2522C99.495 19.6079 98.734 20.1639 97.345 20.4325C96.785 20.5387 95.476 20.5575 94.789 20.4638Z" fill="white"/>
<path d="M81.773 17.0965C81.72 17.0403 81.673 16.9653 81.673 16.9278C81.673 16.7904 82.835 15.8408 83.522 15.4035C85.144 14.3915 87.02 13.723 89.115 13.4106C90.397 13.2232 91.498 13.1545 95.837 13.0046C99.681 12.8671 100.723 12.7109 101.984 12.08C102.431 11.8613 102.431 11.8613 102.598 12.3736C102.712 12.7297 102.725 13.4356 102.625 13.8479C102.512 14.3102 102.104 15.0099 101.737 15.366C101.13 15.9595 99.922 16.4593 98.76 16.5905C97.445 16.7467 96.438 16.6842 93.02 16.2219C88.101 15.5597 86.639 15.4472 85.351 15.6222C83.903 15.8221 82.875 16.2281 82.247 16.8466C81.907 17.1777 81.873 17.1965 81.773 17.0965Z" fill="white"/>
<path d="M81.373 16.5093C81.259 16.3156 81.259 16.2719 81.339 16.1157C81.473 15.8658 83.335 14.1416 84.009 13.6356C85.464 12.5548 86.98 11.9425 89.863 11.2866C91.578 10.893 92.399 10.7493 94.642 10.437C98.533 9.90589 101.25 9.31249 102.498 8.72519C102.999 8.48779 103.052 8.51279 103.086 9.05629C103.119 9.51859 102.925 10.0559 102.618 10.387C102.278 10.7493 101.317 11.1242 100.162 11.3428C99.214 11.5302 98.62 11.5865 96.024 11.7239C90.824 12.005 89.095 12.2362 87.08 12.9046C84.964 13.6168 82.835 15.0162 81.78 16.3968C81.64 16.5718 81.52 16.7217 81.513 16.7217C81.5 16.7217 81.44 16.6217 81.373 16.5093Z" fill="white"/>
<path d="M80.952 15.6721C80.872 15.4722 80.806 15.2598 80.806 15.1973C80.806 15.1349 80.926 14.86 81.066 14.5914C81.893 13.0545 82.808 12.2174 84.55 11.4303C86.005 10.768 89.136 9.6873 92.373 8.7252C97.566 7.18838 99.154 6.59489 101.644 5.27048L102.291 4.92688L102.678 5.1018C103.346 5.40792 103.633 5.72653 103.633 6.15134C103.633 6.63238 103.339 7.06968 102.732 7.50699C102.004 8.0255 101.17 8.3066 98.714 8.8814C97.118 9.25 96.378 9.3937 93.821 9.8185C92.213 10.0809 91.331 10.2745 89.549 10.7556C86.112 11.6801 84.777 12.3736 82.741 14.2915C82.281 14.7226 81.74 15.2911 81.54 15.5534C81.339 15.8158 81.159 16.0282 81.139 16.0282C81.119 16.0345 81.039 15.872 80.952 15.6721Z" fill="white"/>
<path d="M67.6 4.8C67.7 5.1 67.7 5.4 67.7 5.7C67.7 5.9 67.7 6.1 67.7 6.2C67.7 6.3 67.7 6.5 67.7 6.6C67.7 6.6 67.7 6.6 67.7 6.7C67.6 6.7 67.6 6.7 67.6 6.8C67.6 6.8 67.6 7 67.6 7.3C67.6 7.6 67.6 7.9 67.6 8.3C67.6 8.7 67.6 9 67.6 9.3C67.6 9.6 67.6 9.8 67.6 9.9V10.2H65.2C65.2 10.2 65.2 10.3 65.1 10.5H65C64.9 10.5 64.8 10.5 64.5 10.5C64.3 10.5 63.9 10.5 63.4 10.5C62.9 10.5 62.2 10.5 61.4 10.5C60.9 10.5 60.5 10.5 60.1 10.5C59.7 10.5 59.4 10.5 59 10.5H58C57.8 10.5 57.6 10.5 57.4 10.6C57 10.7 56.7 10.8 56.3 11.1C55.9 11.4 55.6 11.7 55.3 12C55 12.3 54.9 12.6 54.9 12.8C54.8 13.1 54.8 13.3 54.8 13.6C54.8 13.8 54.8 14 54.8 14.1C55 14.4 55 14.6 54.9 14.7C54.8 14.8 54.7 14.9 54.6 15V15.1C54.5 15.2 54.3 15.3 54 15.3C53.7 15.4 53.4 15.4 53 15.6C52.6 15.7 52.2 15.9 51.6 16C51.3 16.1 50.8 16.1 50.2 16.1C49.6 16.1 48.8 16 47.8 15.8C47.3 15.7 46.9 15.7 46.6 15.8C46.3 15.9 46.1 16 45.9 16.1C45.7 16.2 45.6 16.4 45.6 16.5L44.1 21.8C44.1 21.8 44.1 21.8 44.1 21.9V22C44.1 22.2 44.1 22.4 44.1 22.6C44.2 22.9 44.2 23.3 44.3 23.9V24.5C44.3 25.1 44.2 25.6 43.9 26C43.8 26.1 43.6 26.2 43.5 26.2C43.4 26.2 43.3 26.2 43.3 26.2H38V26.1C38 26.1 37.9 26.1 37.8 26.1C37.7 26.1 37.7 26.1 37.6 26.1C37.5 26.1 37.4 26.1 37.3 26C37 25.8 36.8 25.4 36.8 24.9C36.8 24.8 36.8 24.7 36.9 24.6C36.9 24.5 36.9 24.4 36.9 24.4C36.1 24.4 35.6 24.3 35.4 24.2C35.1 24.1 35 24 34.9 23.9V23.7C34.8 23.7 34.8 23.6 34.8 23.5C34.8 23.4 34.8 23.4 34.8 23.3C34.8 23.2 34.8 23.2 34.8 23.1C34.7 22.9 34.7 22.7 34.7 22.5V22.1C34.7 21.6 34.8 21.1 34.9 20.5C35.1 20 35.1 19.7 35.1 19.7C35.2 19.6 35.3 19.2 35.6 18.5C35.9 17.8 36.2 17.1 36.6 16.2C37 15.4 37.3 14.6 37.6 13.9C37.9 13.2 38.1 12.8 38.2 12.6C38.3 12.4 38.3 12.2 38.3 12.1C38.3 11.8 38.2 11.5 38 11.1C37.8 10.8 37.6 10.6 37.2 10.5C36.8 10.4 36.5 10.4 36.2 10.3C35.9 10.3 35.7 10.3 35.6 10.2C35.4 10.1 35.3 9.9 35.3 9.6V9.5C35.3 9.3 35.4 9.1 35.5 9C35.7 8.9 35.8 8.8 36 8.8C36.1 8.7 36.2 8.6 36.2 8.6C36.3 8.6 36.3 8.6 36.4 8.6C36.6 8.5 36.8 8.3 37 8L37.2 7.8C37.4 7.7 37.6 7.4 37.7 7C37.8 6.6 37.9 6.3 37.9 6.2C37.9 6.2 37.9 6 37.8 5.6C37.7 5.2 37.7 5 37.7 4.8V4.7C37.7 4.4 37.8 4.3 38 4.3C38.1 4.2 38.3 4.1 38.5 4.2C38.6 4.3 38.8 4.3 39 4.4C39.2 4.4 39.4 4.4 39.4 4.4C39.5 4.4 39.6 4.3 39.7 4.3C39.8 4.3 39.9 4.2 40 4.1C40.2 4.1 40.3 4 40.4 4C40.5 4 40.6 3.9 40.7 3.9C40.8 3.8 40.9 3.8 41 3.8H41.1V3.2H41.3C41.9 3.2 42.3 3.3 42.4 3.3C42.6 3.3 42.7 3.4 42.7 3.5C42.8 3.6 42.8 3.7 42.8 3.7C42.8 3.8 42.8 3.9 42.8 4.1H44.6C45 4.1 45.5 4.1 46.1 4.1C47 4.1 47.7 4.1 48.2 4.1C48.7 4.1 49.1 4.1 49.3 4.1C49.5 4.1 49.7 4.1 49.8 4.1H49.9C50.1 4.2 50.2 4.3 50.2 4.4H64.9C64.9 4.3 64.9 4.3 65 4.2C65.1 4.1 65.1 4.1 65.2 4.1C65.3 4.1 65.3 4.1 65.3 4C65.3 4 65.4 3.9 65.5 3.8C65.7 3.6 66 3.6 66.3 3.6C66.6 3.6 66.8 3.7 66.9 3.7L67.1 3.8L67.2 3.9C67.4 4 67.5 4.1 67.5 4.3C67.5 4.5 67.5 4.7 67.6 4.8ZM48.5 10.9C48.2 10.9 48.1 10.9 48 10.9H47.9H47.8C47.6 11 47.4 11.1 47.1 11.2C46.8 11.4 46.7 11.6 46.6 11.8C46.5 12.1 46.5 12.3 46.5 12.4C46.5 12.8 46.5 13 46.7 13.1H46.8C46.8 13.2 47 13.4 47.4 13.7H47.5C47.8 13.9 48.2 14 48.8 14.2C49.4 14.4 50 14.4 50.8 14.3C52.6 14.1 53.5 13.6 53.6 13C53.7 12.8 53.7 12.7 53.7 12.5C53.7 12.2 53.6 11.9 53.4 11.6C53.2 11.3 52.9 11 52.4 10.8C51.9 10.8 51.4 10.8 50.9 10.8C50.4 10.8 50 10.8 49.6 10.8C49.2 10.9 48.9 10.9 48.5 10.9ZM32.3 3.8C32.5 3.8 32.6 3.9 32.7 4.1C32.7 4.3 32.8 4.5 32.8 4.6C33 4.9 33.1 5.2 33.1 5.5C33.1 5.7 33.1 5.8 33 6C33 6.1 32.9 6.3 32.9 6.4V6.6C32.9 6.6 32.9 6.8 32.9 7.1C32.9 7.4 32.9 7.8 32.8 8.1C32.8 8.5 32.8 8.8 32.7 9.1C32.7 9.4 32.7 9.6 32.7 9.7V10H30.4C30.3 10 30.3 10.1 30.3 10.2C30.3 10.2 30.3 10.3 30.2 10.4H30.1C30 10.4 29.9 10.4 29.6 10.4C29.4 10.4 29 10.4 28.5 10.4C28 10.4 27.4 10.4 26.5 10.4C26.1 10.4 25.6 10.4 25.2 10.4C24.8 10.4 24.4 10.4 24.1 10.4H23C22.8 10.4 22.7 10.4 22.5 10.5C22.1 10.6 21.7 10.7 21.4 11C21 11.3 20.7 11.6 20.4 11.9C20.1 12.2 20 12.5 20 12.7C20 13 19.9 13.2 19.9 13.5C19.9 13.7 19.9 13.9 20 14C20.1 14.3 20.1 14.5 20 14.6C19.9 14.7 19.8 14.8 19.7 14.9V15C19.6 15.1 19.4 15.2 19.1 15.2C18.8 15.3 18.5 15.4 18.1 15.5C17.7 15.6 17.4 15.7 17.1 15.8L16.7 15.9C16.4 16 15.9 16 15.3 16C14.7 15.9 13.9 15.8 12.8 15.7C12.3 15.6 11.9 15.6 11.6 15.7C11.3 15.8 11.1 15.9 11 16C10.9 16.1 10.8 16.3 10.7 16.4L9.3 21.4V21.6C9.3 21.8 9.3 22 9.3 22.2C9.3 22.5 9.3 22.9 9.4 23.5C9.5 23.7 9.5 23.9 9.5 24.1C9.5 24.8 9.4 25.2 9.1 25.5C8.9 25.7 8.8 25.7 8.7 25.7C8.6 25.7 8.6 25.7 8.5 25.7H3.1C3.1 25.7 2.9 25.6 2.5 25.4C2.3 25.3 2.2 25.2 2.2 25C2.1 24.8 2.1 24.5 2.1 24.3V23.8C1.4 23.8 1 23.7 0.7 23.6H0.6C0.3 23.5 0.2 23.4 0.1 23.3C0.1 23.3 0.1 23.2 0.1 23.1C-7.45058e-09 23.1 0 23 0 22.9V22.6C0 22.4 0 22.3 0 22.1C0 22 0 22 0 21.9C0 21.8 0 21.7 0 21.7C0 21.2 0.1 20.7 0.2 20.2C0.3 19.7 0.4 19.4 0.4 19.3V19.2C0.5 19.2 0.6 18.9 0.8 18.4C0.8 18.3 0.9 18.2 0.9 18.1C1.2 17.4 1.5 16.6 1.9 15.8C2.3 15 2.6 14.2 2.9 13.4C3.2 12.7 3.4 12.3 3.5 12.2C3.5 11.9 3.6 11.7 3.6 11.7C3.6 11.4 3.5 11 3.3 10.7C3.1 10.4 2.9 10.2 2.5 10.1C2.1 10 1.8 10 1.4 9.9C1.1 9.9 0.9 9.9 0.8 9.8C0.6 9.6 0.6 9.4 0.6 9.3C0.6 9 0.7 8.9 0.8 8.8L0.9 8.7C1.1 8.6 1.2 8.5 1.4 8.5C1.5 8.5 1.5 8.4 1.6 8.4C1.7 8.4 1.7 8.4 1.8 8.4C2 8.3 2.2 8.1 2.4 7.8L2.5 7.6C2.7 7.4 2.9 7.1 3 6.7C3.1 6.3 3.2 6.1 3.2 5.9C3.2 5.8 3.2 5.6 3.1 5.3C3.1 4.9 3 4.7 3 4.5V4.6C3.1 4.4 3.1 4.2 3.3 4.2C3.5 4.1 3.7 4.1 3.8 4.2C3.9 4.2 4.1 4.3 4.3 4.4C4.5 4.3 4.7 4.3 4.7 4.3L5.2 4.1C5.3 4.1 5.5 4 5.6 3.9C5.7 3.8 5.8 3.8 5.9 3.8C6 3.8 6.1 3.8 6.2 3.8V3H6.5C7.1 3 7.4 3.1 7.6 3.1C7.7 3.1 7.8 3.2 7.8 3.3C7.9 3.5 7.9 3.8 7.9 4C8 4 8.2 4 8.6 4C9 4 9.3 4 9.7 4C10.1 4 10.6 4 11.2 3.9C12.1 3.9 12.8 3.9 13.3 3.9C13.8 3.9 14.2 3.9 14.4 3.9C14.6 3.9 14.8 3.9 14.8 3.9C14.9 3.9 14.9 3.9 15 3.9C15.1 4 15.1 4.1 15.2 4.2H30V4.3C30 4.2 30.1 4.1 30.1 4C30.1 3.9 30.2 3.9 30.2 3.9C30.3 3.9 30.3 3.8 30.4 3.7C30.6 3.5 30.8 3.4 31.2 3.5C31.6 3.6 31.8 3.6 31.8 3.7H31.9L32.3 3.8ZM16.2 10.8C15.7 10.8 15.3 10.8 14.9 10.8C14.5 10.8 14.1 10.8 13.8 10.8C13.5 10.8 13.4 10.8 13.3 10.8L13.1 10.9C12.9 11 12.7 11.1 12.4 11.2C12.1 11.4 12 11.6 11.9 11.8C11.8 12 11.8 12.2 11.8 12.4C11.8 12.8 11.9 13 12 13.1L12.1 13.2C12.2 13.3 12.2 13.3 12.3 13.4C12.4 13.5 12.5 13.6 12.7 13.8H12.9C13.1 14 13.5 14.1 14.2 14.3C14.8 14.5 15.5 14.5 16.1 14.4C17.9 14.1 18.8 13.7 19 13.1C19.1 13 19.1 12.8 19.1 12.5C19.1 12.2 19 11.9 18.8 11.6C18.6 11.3 18.3 11 17.8 10.7C17.2 10.8 16.7 10.8 16.2 10.8Z" fill="white"/>
</svg>
