<svg width="108" height="30" viewBox="0 0 108 30" fill="none" xmlns="http://www.w3.org/2000/svg">
<path d="M78.158 28.823C79.739 27.3487 80.494 26.4491 80.994 25.4683C81.528 24.4187 81.875 23.0756 81.969 21.7199C82.269 17.2656 82.843 13.8671 83.617 11.9305C84.011 10.9497 84.358 10.4561 85.206 9.6565C86.154 8.76938 87.001 8.22587 88.577 7.50744C90.372 6.68281 91.694 6.23301 95.051 5.29592C96.787 4.81488 97.928 4.44629 101.425 3.24058C103.321 2.58462 106.725 1.36641 107.673 1.00407C107.82 0.947836 108 1.4851 108 1.97863C108 2.40345 107.973 2.5034 107.74 2.94071C107.299 3.77784 106.612 4.3276 104.863 5.25844C102.6 6.45791 101.052 7.07638 96.486 8.56947C94.003 9.3879 92.982 9.7564 91.213 10.4874C88.343 11.6744 87.402 12.1804 86.421 13.0612C85.747 13.6672 85.339 14.2232 84.932 15.1166L84.619 15.7913L84.539 15.4602C84.438 15.0916 84.425 14.3919 84.498 14.1732C84.545 14.0483 84.532 14.0296 84.425 14.0483C84.358 14.0608 84.225 14.217 84.118 14.4231C83.944 14.7355 83.918 14.8917 83.838 15.835C83.784 16.416 83.698 17.1719 83.637 17.5093C83.577 17.8529 83.504 18.6088 83.471 19.1898C83.304 21.9198 83.057 23.188 82.369 24.7748C81.915 25.8431 81.395 26.649 80.774 27.2737C79.9 28.1421 78.004 29.5102 77.016 29.985C76.903 30.0412 77.397 29.5415 78.158 28.823Z" fill="white"/>
<path d="M88.31 29.6727C87.696 29.6477 86.848 29.5415 86.468 29.4353C85.967 29.2978 85.76 29.1729 85.486 28.823C85.339 28.6481 85.179 28.4607 85.113 28.4107C85.012 28.3357 85.039 28.292 85.386 27.9922C85.713 27.711 85.813 27.661 86.04 27.6548C86.281 27.6548 86.334 27.686 86.674 28.0421C87.522 28.9292 87.869 29.2104 88.43 29.4665C88.73 29.6039 88.93 29.7101 88.877 29.7039C88.824 29.6976 88.57 29.6852 88.31 29.6727Z" fill="white"/>
<path d="M78.738 29.5977C78.585 29.5602 78.591 29.5415 78.938 29.3416C79.559 28.9667 80.607 28.1546 81.275 27.5299C82.496 26.3741 83.277 24.9935 83.731 23.1568C83.804 22.8632 83.991 21.7137 84.138 20.5954C84.292 19.4772 84.445 18.3589 84.485 18.1028L84.559 17.6405L84.745 18.1215C84.846 18.3901 85.206 19.0711 85.546 19.6333C86.468 21.1827 86.681 21.8449 86.681 23.1693C86.674 24.6999 86.254 25.7306 85.099 27.0051C84.565 27.5923 84.258 27.8547 83.671 28.2233C82.423 29.0042 80.827 29.5227 79.366 29.6164C79.112 29.6289 78.825 29.6227 78.738 29.5977Z" fill="white"/>
<path d="M89.711 29.2791C88.737 28.9542 88.21 28.6606 87.549 28.0608C86.881 27.4611 86.594 27.2799 86.314 27.2799C86.154 27.2799 86.16 27.2612 86.521 26.7989C86.721 26.5303 86.941 26.2179 87.001 26.0992L87.108 25.8931L87.502 25.9368C88.049 25.993 88.203 26.0805 88.904 26.7427C89.371 27.1862 89.625 27.3674 90.012 27.5486C90.733 27.8859 91.44 28.0421 92.288 28.0484C93.082 28.0608 93.069 28.0484 92.742 28.5044C92.375 29.0042 91.634 29.3165 90.646 29.3728C90.212 29.404 90.038 29.3853 89.711 29.2791Z" fill="white"/>
<path d="M91.514 26.9988C90.653 26.8239 90.058 26.5366 89.398 25.993C88.79 25.4933 88.39 25.3308 87.816 25.3558L87.362 25.3746L87.442 25.1871C87.515 25.031 87.596 24.7124 87.776 23.8627C87.809 23.7128 88.109 23.5941 88.437 23.5941C88.804 23.5941 89.344 23.9564 90.312 24.856C90.826 25.3308 91.387 25.8119 91.56 25.9306C92.321 26.4366 93.256 26.6802 94.297 26.6428L94.951 26.624L94.597 26.7677C94.41 26.8489 94.07 26.9551 93.85 26.9988C93.349 27.1113 92.054 27.1113 91.514 26.9988Z" fill="white"/>
<path d="M93.349 25.437C92.682 25.2996 92.048 24.9622 91.28 24.3375C89.792 23.1381 88.877 22.7695 88.13 23.0818L87.829 23.2068L87.789 22.4758C87.762 22.076 87.729 21.6762 87.702 21.5887C87.662 21.4326 87.682 21.4201 88.103 21.3139C89.057 21.0702 90.065 21.4013 92.181 22.657C93.316 23.3255 95.125 24.1876 95.946 24.45C96.299 24.5562 96.653 24.6124 97.16 24.6374C97.881 24.6749 97.881 24.6749 97.721 24.7936C97.454 24.9872 96.747 25.2746 96.253 25.3746C95.578 25.5183 93.903 25.5557 93.349 25.437Z" fill="white"/>
<path d="M96.913 23.5316C96.186 23.3942 95.044 22.9381 92.915 21.9323C91.3 21.1639 90.766 20.964 89.945 20.8203C88.997 20.6516 88.477 20.7079 87.903 21.0515L87.622 21.2139L87.415 20.6704C87.302 20.3705 87.088 19.9457 86.948 19.7208C86.801 19.4959 86.694 19.3085 86.701 19.296C86.714 19.2897 87.015 19.2085 87.375 19.1273C89.177 18.6962 90.539 19.0586 93.783 20.8453C95.885 22.001 97.154 22.4633 98.789 22.6633C99.376 22.732 100.845 22.7132 101.125 22.6258C101.405 22.5383 100.851 22.9194 100.391 23.1318C99.236 23.6503 98.182 23.769 96.913 23.5316Z" fill="white"/>
<path d="M98.789 21.4638C98.222 21.3888 97.14 21.1202 96.626 20.9265C96.386 20.839 95.385 20.3892 94.404 19.9394C91.567 18.615 90.799 18.3839 89.311 18.3776C88.263 18.3776 87.976 18.4401 87.048 18.8399L86.501 19.0773L86.274 18.765L86.047 18.4526L86.341 18.2027C86.968 17.6842 87.876 17.3968 89.264 17.2719C90.279 17.1782 90.733 17.2219 93.783 17.6904C99.143 18.5088 99.83 18.5963 101.125 18.5963C102.547 18.5963 103.581 18.4151 104.536 18.0028C104.81 17.8903 105.03 17.8029 105.03 17.8154C105.03 17.9278 104.569 18.9024 104.349 19.2522C103.495 20.6079 102.734 21.1639 101.345 21.4325C100.785 21.5387 99.476 21.5575 98.789 21.4638Z" fill="white"/>
<path d="M85.773 18.0965C85.72 18.0403 85.673 17.9653 85.673 17.9278C85.673 17.7904 86.835 16.8408 87.522 16.4035C89.144 15.3915 91.02 14.723 93.115 14.4106C94.397 14.2232 95.498 14.1545 99.837 14.0046C103.681 13.8671 104.723 13.7109 105.984 13.08C106.431 12.8613 106.431 12.8613 106.598 13.3736C106.712 13.7297 106.725 14.4356 106.625 14.8479C106.512 15.3102 106.104 16.0099 105.737 16.366C105.13 16.9595 103.922 17.4593 102.76 17.5905C101.445 17.7467 100.438 17.6842 97.02 17.2219C92.101 16.5597 90.639 16.4472 89.351 16.6222C87.903 16.8221 86.875 17.2281 86.247 17.8466C85.907 18.1777 85.873 18.1965 85.773 18.0965Z" fill="white"/>
<path d="M85.373 17.5093C85.259 17.3156 85.259 17.2719 85.339 17.1157C85.473 16.8658 87.335 15.1416 88.009 14.6356C89.464 13.5548 90.98 12.9425 93.863 12.2866C95.578 11.893 96.399 11.7493 98.642 11.437C102.533 10.9059 105.25 10.3125 106.498 9.7252C106.999 9.4878 107.052 9.5128 107.086 10.0563C107.119 10.5186 106.925 11.0559 106.618 11.387C106.278 11.7493 105.317 12.1242 104.162 12.3428C103.214 12.5302 102.62 12.5865 100.024 12.7239C94.824 13.005 93.095 13.2362 91.08 13.9046C88.964 14.6168 86.835 16.0162 85.78 17.3968C85.64 17.5718 85.52 17.7217 85.513 17.7217C85.5 17.7217 85.44 17.6217 85.373 17.5093Z" fill="white"/>
<path d="M84.952 16.6721C84.872 16.4722 84.806 16.2598 84.806 16.1973C84.806 16.1349 84.926 15.86 85.066 15.5914C85.893 14.0545 86.808 13.2174 88.55 12.4303C90.005 11.768 93.136 10.6873 96.373 9.7252C101.566 8.18838 103.154 7.59489 105.644 6.27048L106.291 5.92688L106.678 6.1018C107.346 6.40792 107.633 6.72653 107.633 7.15134C107.633 7.63238 107.339 8.06968 106.732 8.50699C106.004 9.0255 105.17 9.3066 102.714 9.8814C101.118 10.25 100.378 10.3937 97.821 10.8185C96.213 11.0809 95.331 11.2745 93.549 11.7556C90.112 12.6801 88.777 13.3736 86.741 15.2915C86.281 15.7226 85.74 16.2911 85.54 16.5534C85.339 16.8158 85.159 17.0282 85.139 17.0282C85.119 17.0345 85.039 16.872 84.952 16.6721Z" fill="white"/>
<path d="M77 9.675C77.1 10.075 77 10.475 76.8 11.075V11.175H76.7C76.6 11.175 76.4 11.175 75.9 11.275C75.4 11.275 74.9 11.375 74.3 11.375C73.7 11.375 73.2 11.375 72.7 11.375C72.2 11.375 71.8 11.275 71.7 11.175C71.6 11.175 71.6 11.175 71.5 11.075C71.4 11.075 71.4 11.075 71.4 11.075H64.8C64.6 11.175 64.4 11.175 64.2 11.275C63.9 11.275 63.7 11.375 63.6 11.475C63.5 11.575 63.3 11.675 63 11.675C62.6 11.675 62.4 11.675 62.3 11.675C62.2 11.675 62.1 11.575 61.9 11.375H61.8C61.8 11.375 61.8 11.475 61.8 11.575C61.7 11.675 61.7 11.775 61.7 11.975C61.7 12.175 61.6 12.375 61.6 12.575C61.5 12.875 61.4 13.075 61.2 13.375C61.1 13.575 60.9 13.875 60.7 14.075C60.4 14.275 60.2 14.375 59.9 14.375H44C43.8 14.375 43.6 14.475 43.4 14.575V15.675C43.4 15.975 43.4 16.375 43.4 16.775C43.4 17.075 43.2 17.475 43 17.775C42.7 17.975 42.3 18.075 41.8 18.075C41.3 17.975 40.9 17.975 40.4 17.975C39.9 17.875 39.4 17.875 38.9 17.775C38.4 17.675 38 17.575 37.6 17.575C37.3 17.475 37 17.475 36.9 17.375C36.7 17.475 36.5 17.675 36.2 17.875C35.9 18.075 35.7 18.575 35.7 19.075V19.975L35.5 20.075C35.4 20.175 35.3 20.375 35.1 20.575C34.9 20.875 34.8 21.075 34.8 21.275C34.8 21.475 34.8 21.575 34.8 21.675C34.8 21.775 34.8 21.875 34.8 21.875L35 22.175H34.8C34.7 22.175 34.6 22.375 34.4 22.775C34.1 23.075 34 23.575 34 24.175V24.575L34.2 24.775H33.8C33.6 24.675 33.3 24.675 32.9 24.575C32.4 24.575 31.9 24.475 31.5 24.275C31 24.175 30.5 23.975 30.1 23.775C29.7 23.575 29.5 23.375 29.4 23.075L29.2 22.975C29.3 21.575 29.5 20.175 29.8 18.775C30.1 17.375 30.8 16.275 31.9 15.275C31.9 15.175 32 15.075 32 14.875C32 14.675 32 14.575 32 14.475C32 14.275 31.8 13.975 31.4 13.775C31.2 13.675 30.8 13.575 30.2 13.575C29.6 13.575 28.9 13.675 28.2 13.975C26.5 14.575 25.3 15.875 24.7 17.775H24.6C24.1 18.175 23.7 18.375 23.4 18.375V18.475C23.4 18.775 23.4 19.175 23.4 19.775C23.5 20.375 23.5 20.975 23.5 21.675C23.5 22.375 23.5 23.075 23.6 23.775C23.7 24.575 23.7 25.275 23.8 25.875V26.075C23.7 26.075 23.6 26.175 23.4 26.375C23.1 26.575 22.7 26.775 22.2 26.975C21.7 27.175 21 27.375 20.3 27.675C19.6 27.875 18.7 27.875 17.7 27.875H17.6C17.4 25.675 17.3 23.675 17.3 21.975C17.2 20.475 17.1 19.075 17.1 17.775C17.1 16.475 17.1 15.775 17.1 15.675C16.1 15.875 15.1 15.975 14.3 16.175C13.5 16.375 12.9 16.475 12.7 16.575C12.7 16.575 12.7 16.675 12.7 16.775C12.6 16.875 12.6 16.975 12.6 17.075C12.6 17.575 12.5 17.875 12.2 17.875C12.1 17.875 11.8 17.975 11.4 18.075C10.9 18.175 10.6 18.175 10.4 18.375H10.3C10.2 18.275 10.1 18.075 10.1 17.975C10 17.875 9.9 17.775 9.8 17.675C9.8 17.575 9.7 17.375 9.7 17.275C9.5 17.475 9.1 17.675 8.6 17.875C8 18.075 7.4 18.175 6.7 18.475C6 18.675 5.2 18.775 4.4 18.875C3.6 18.875 2.8 18.975 2 18.875L1.8 18.775L1.6 18.675C1 16.775 0.6 15.075 0.3 13.775C0.1 12.375 0 11.275 0 10.275C0 8.575 0.2 7.375 0.6 6.775C1 6.175 1.3 5.875 1.5 5.775C1.5 5.775 1.7 5.575 1.9 5.175C2.3 4.675 2.6 4.275 2.8 3.975V3.775H10.3V3.975C10.5 4.275 10.7 4.675 11.1 5.075C11.4 5.475 11.7 5.675 11.8 5.775C11.9 5.775 12.3 5.575 12.8 5.275C13.3 4.975 13.8 4.575 14.3 4.075H14.5C15.7 4.175 17 4.275 18.3 4.275C19.6 4.375 20.8 4.375 21.8 4.375C22.9 4.375 23.8 4.375 24.5 4.375C25.3 4.375 25.8 4.275 25.9 4.175C26 4.075 26 3.775 26.1 3.475C26.2 3.175 26.3 2.775 26.4 2.475C26.5 2.175 26.5 1.875 26.6 1.575C26.8 1.375 26.8 1.175 26.9 1.075V0.975C26.9 0.875 27 0.875 27.1 0.775C27.2 0.675 27.4 0.575 27.7 0.475C27.8 0.475 28.2 0.375 28.8 0.275C29.3 0.175 30 0.175 30.9 0.075C34.7 -0.125 40.9 0.0750001 49.5 0.675C52 0.775 54.1 0.775 55.6 0.875C57.1 0.875 58.3 0.875 59.1 0.875C59.9 0.875 60.4 0.975 60.6 0.975C60.8 0.975 61 0.975 61 0.975C61 0.975 61.2 0.975 61.4 0.975C61.6 0.875 61.8 1.075 62 1.375C62.6 1.975 62.9 2.975 62.9 4.275C62.9 4.775 62.9 5.175 62.9 5.675C62.9 6.175 62.8 6.775 62.7 7.375C62.6 7.575 62.6 7.675 62.6 7.775C62.5 7.975 62.5 8.175 62.5 8.475C62.6 8.475 62.8 8.475 62.9 8.475C63 8.475 63.1 8.475 63.2 8.475C63.4 8.475 63.5 8.475 63.6 8.475L64.7 8.675V8.775C64.7 8.875 64.7 8.875 64.7 8.975V9.075H70.3C70.4 8.975 70.5 8.975 70.7 8.975C70.9 8.875 71 8.875 71.1 8.775L71.4 8.675C71.5 8.575 71.8 8.575 72.4 8.475C72.9 8.475 73.4 8.475 73.9 8.475C74.5 8.475 75 8.475 75.5 8.475C76 8.475 76.3 8.475 76.4 8.475L76.7 8.675V8.975C76.8 9.075 76.9 9.375 77 9.675ZM57.5 3.475H32C31.1 3.475 30.7 3.975 30.7 4.875V6.175C30.7 7.075 31.1 7.575 32 7.575H57.6C58 7.575 58.3 7.475 58.6 7.175C58.9 6.975 59 6.675 59 6.175V4.875C59 4.475 58.9 4.075 58.6 3.875C58.3 3.575 58 3.475 57.5 3.475Z" fill="white"/>
</svg>
