<svg width="75" height="30" viewBox="0 0 75 30" fill="none" xmlns="http://www.w3.org/2000/svg">
<path d="M45.158 27.823C46.739 26.3487 47.494 25.4491 47.994 24.4683C48.528 23.4187 48.875 22.0756 48.969 20.7199C49.269 16.2656 49.843 12.8671 50.617 10.9305C51.011 9.9497 51.358 9.4561 52.206 8.6565C53.154 7.76938 54.001 7.22587 55.577 6.50744C57.372 5.68281 58.694 5.23301 62.051 4.29592C63.787 3.81488 64.928 3.44629 68.425 2.24058C70.321 1.58462 73.725 0.366406 74.673 0.00406609C74.82 -0.0521639 75 0.485096 75 0.978626C75 1.40345 74.973 1.5034 74.74 1.94071C74.299 2.77784 73.612 3.3276 71.863 4.25844C69.6 5.45791 68.052 6.07638 63.486 7.56947C61.003 8.3879 59.982 8.7564 58.213 9.4874C55.343 10.6744 54.402 11.1804 53.421 12.0612C52.747 12.6672 52.339 13.2232 51.932 14.1166L51.619 14.7913L51.539 14.4602C51.438 14.0916 51.425 13.3919 51.498 13.1732C51.545 13.0483 51.532 13.0296 51.425 13.0483C51.358 13.0608 51.225 13.217 51.118 13.4231C50.944 13.7355 50.918 13.8917 50.838 14.835C50.784 15.416 50.698 16.1719 50.637 16.5093C50.577 16.8529 50.504 17.6088 50.471 18.1898C50.304 20.9198 50.057 22.188 49.369 23.7748C48.915 24.8431 48.395 25.649 47.774 26.2737C46.9 27.1421 45.004 28.5102 44.016 28.985C43.903 29.0412 44.397 28.5415 45.158 27.823Z" fill="white"/>
<path d="M55.31 28.6727C54.696 28.6477 53.848 28.5415 53.468 28.4353C52.967 28.2978 52.76 28.1729 52.486 27.823C52.339 27.6481 52.179 27.4607 52.113 27.4107C52.012 27.3357 52.039 27.292 52.386 26.9922C52.713 26.711 52.813 26.661 53.04 26.6548C53.281 26.6548 53.334 26.686 53.674 27.0421C54.522 27.9292 54.869 28.2104 55.43 28.4665C55.73 28.6039 55.93 28.7101 55.877 28.7039C55.824 28.6976 55.57 28.6852 55.31 28.6727Z" fill="white"/>
<path d="M45.738 28.5977C45.585 28.5602 45.591 28.5415 45.938 28.3416C46.559 27.9667 47.607 27.1546 48.275 26.5299C49.496 25.3741 50.277 23.9935 50.731 22.1568C50.804 21.8632 50.991 20.7137 51.138 19.5954C51.292 18.4772 51.445 17.3589 51.485 17.1028L51.559 16.6405L51.745 17.1215C51.846 17.3901 52.206 18.0711 52.546 18.6333C53.468 20.1827 53.681 20.8449 53.681 22.1693C53.674 23.6999 53.254 24.7306 52.099 26.0051C51.565 26.5923 51.258 26.8547 50.671 27.2233C49.423 28.0042 47.827 28.5227 46.366 28.6164C46.112 28.6289 45.825 28.6227 45.738 28.5977Z" fill="white"/>
<path d="M56.711 28.2791C55.737 27.9542 55.21 27.6606 54.549 27.0608C53.881 26.4611 53.594 26.2799 53.314 26.2799C53.154 26.2799 53.16 26.2612 53.521 25.7989C53.721 25.5303 53.941 25.2179 54.001 25.0992L54.108 24.8931L54.502 24.9368C55.049 24.993 55.203 25.0805 55.904 25.7427C56.371 26.1862 56.625 26.3674 57.012 26.5486C57.733 26.8859 58.44 27.0421 59.288 27.0484C60.082 27.0608 60.069 27.0484 59.742 27.5044C59.375 28.0042 58.634 28.3165 57.646 28.3728C57.212 28.404 57.038 28.3853 56.711 28.2791Z" fill="white"/>
<path d="M58.514 25.9988C57.653 25.8239 57.058 25.5366 56.398 24.993C55.79 24.4933 55.39 24.3308 54.816 24.3558L54.362 24.3746L54.442 24.1871C54.515 24.031 54.596 23.7124 54.776 22.8627C54.809 22.7128 55.109 22.5941 55.437 22.5941C55.804 22.5941 56.344 22.9564 57.312 23.856C57.826 24.3308 58.387 24.8119 58.56 24.9306C59.321 25.4366 60.256 25.6802 61.297 25.6428L61.951 25.624L61.597 25.7677C61.41 25.8489 61.07 25.9551 60.85 25.9988C60.349 26.1113 59.054 26.1113 58.514 25.9988Z" fill="white"/>
<path d="M60.349 24.437C59.682 24.2996 59.048 23.9622 58.28 23.3375C56.792 22.1381 55.877 21.7695 55.13 22.0818L54.829 22.2068L54.789 21.4758C54.762 21.076 54.729 20.6762 54.702 20.5887C54.662 20.4326 54.682 20.4201 55.103 20.3139C56.057 20.0702 57.065 20.4013 59.181 21.657C60.316 22.3255 62.125 23.1876 62.946 23.45C63.299 23.5562 63.653 23.6124 64.16 23.6374C64.881 23.6749 64.881 23.6749 64.721 23.7936C64.454 23.9872 63.747 24.2746 63.253 24.3746C62.578 24.5183 60.903 24.5557 60.349 24.437Z" fill="white"/>
<path d="M63.913 22.5316C63.186 22.3942 62.044 21.9381 59.915 20.9323C58.3 20.1639 57.766 19.964 56.945 19.8203C55.997 19.6516 55.477 19.7079 54.903 20.0515L54.622 20.2139L54.415 19.6704C54.302 19.3705 54.088 18.9457 53.948 18.7208C53.801 18.4959 53.694 18.3085 53.701 18.296C53.714 18.2897 54.015 18.2085 54.375 18.1273C56.177 17.6962 57.539 18.0586 60.783 19.8453C62.885 21.001 64.154 21.4633 65.789 21.6633C66.376 21.732 67.845 21.7132 68.125 21.6258C68.405 21.5383 67.851 21.9194 67.391 22.1318C66.236 22.6503 65.182 22.769 63.913 22.5316Z" fill="white"/>
<path d="M65.789 20.4638C65.222 20.3888 64.14 20.1202 63.626 19.9265C63.386 19.839 62.385 19.3892 61.404 18.9394C58.567 17.615 57.799 17.3839 56.311 17.3776C55.263 17.3776 54.976 17.4401 54.048 17.8399L53.501 18.0773L53.274 17.765L53.047 17.4526L53.341 17.2027C53.968 16.6842 54.876 16.3968 56.264 16.2719C57.279 16.1782 57.733 16.2219 60.783 16.6904C66.143 17.5088 66.83 17.5963 68.125 17.5963C69.547 17.5963 70.581 17.4151 71.536 17.0028C71.81 16.8903 72.03 16.8029 72.03 16.8154C72.03 16.9278 71.569 17.9024 71.349 18.2522C70.495 19.6079 69.734 20.1639 68.345 20.4325C67.785 20.5387 66.476 20.5575 65.789 20.4638Z" fill="white"/>
<path d="M52.773 17.0965C52.72 17.0403 52.673 16.9653 52.673 16.9278C52.673 16.7904 53.835 15.8408 54.522 15.4035C56.144 14.3915 58.02 13.723 60.115 13.4106C61.397 13.2232 62.498 13.1545 66.837 13.0046C70.681 12.8671 71.723 12.7109 72.984 12.08C73.431 11.8613 73.431 11.8613 73.598 12.3736C73.712 12.7297 73.725 13.4356 73.625 13.8479C73.512 14.3102 73.104 15.0099 72.737 15.366C72.13 15.9595 70.922 16.4593 69.76 16.5905C68.445 16.7467 67.438 16.6842 64.02 16.2219C59.101 15.5597 57.639 15.4472 56.351 15.6222C54.903 15.8221 53.875 16.2281 53.247 16.8466C52.907 17.1777 52.873 17.1965 52.773 17.0965Z" fill="white"/>
<path d="M52.373 16.5093C52.259 16.3156 52.259 16.2719 52.339 16.1157C52.473 15.8658 54.335 14.1416 55.009 13.6356C56.464 12.5548 57.98 11.9425 60.863 11.2866C62.578 10.893 63.399 10.7493 65.642 10.437C69.533 9.90589 72.25 9.31249 73.498 8.72519C73.999 8.48779 74.052 8.51279 74.086 9.05629C74.119 9.51859 73.925 10.0559 73.618 10.387C73.278 10.7493 72.317 11.1242 71.162 11.3428C70.214 11.5302 69.62 11.5865 67.024 11.7239C61.824 12.005 60.095 12.2362 58.08 12.9046C55.964 13.6168 53.835 15.0162 52.78 16.3968C52.64 16.5718 52.52 16.7217 52.513 16.7217C52.5 16.7217 52.44 16.6217 52.373 16.5093Z" fill="white"/>
<path d="M51.952 15.6721C51.872 15.4722 51.806 15.2598 51.806 15.1973C51.806 15.1349 51.926 14.86 52.066 14.5914C52.893 13.0545 53.808 12.2174 55.55 11.4303C57.005 10.768 60.136 9.6873 63.373 8.7252C68.566 7.18838 70.154 6.59489 72.644 5.27048L73.291 4.92688L73.678 5.1018C74.346 5.40792 74.633 5.72653 74.633 6.15134C74.633 6.63238 74.339 7.06968 73.732 7.50699C73.004 8.0255 72.17 8.3066 69.714 8.8814C68.118 9.25 67.378 9.3937 64.821 9.8185C63.213 10.0809 62.331 10.2745 60.549 10.7556C57.112 11.6801 55.777 12.3736 53.741 14.2915C53.281 14.7226 52.74 15.2911 52.54 15.5534C52.339 15.8158 52.159 16.0282 52.139 16.0282C52.119 16.0345 52.039 15.872 51.952 15.6721Z" fill="white"/>
<path d="M38.4 3.50405C38.5 3.70405 38.6 4.00405 38.6 4.30405C38.6 4.60405 38.6 4.90405 38.6 5.30405C38.6 5.90405 38.6 6.50405 38.6 7.20405C38.5 7.80405 38.5 8.2041 38.5 8.4041L38.4 8.6041L38.2 8.8041C38.2 8.9041 38.2 9.0041 38.2 9.3041V9.5041L38 9.8041L37.7 9.7041C37.6 9.7041 37.5 9.7041 37.3 9.7041C37.1 9.7041 36.6 9.7041 35.8 9.7041C35.8 10.0041 35.7 10.4041 35.5 10.7041C35.4 10.9041 35.3 11.1041 35.2 11.1041V11.3041H26.2L25.8 11.5041C25.6 11.6041 25.4 11.7041 25.1 11.9041C24.8 12.0041 24.5 12.2041 24.3 12.3041C24.1 12.5041 23.9 12.6041 23.8 12.6041C23.9 12.9041 23.9 13.2041 23.9 13.7041C23.9 13.9041 23.9 14.2041 23.9 14.6041C23.9 15.0041 23.9 15.4041 23.8 15.8041C23.7 16.4041 23.4 16.9041 23 17.2041C22.6 17.5041 22.1 17.7041 21.6 17.8041C21.1 17.9041 20.5 17.9041 19.8 17.9041C19.1 17.9041 18.5 17.8041 17.9 17.8041C17.4 17.8041 17 17.7041 16.6 17.7041C16.2 17.6041 15.9 17.7041 15.6 17.7041H15.5C14.6 17.6041 14.1 17.6041 13.8 17.7041C13.5 17.8041 13.4 17.9041 13.3 18.1041L13.1 18.2041C12.9 18.4041 12.8 18.9041 12.8 19.7041V20.0041C12.8 20.4041 12.8 20.8041 12.7 21.1041C12.6 21.4041 12.5 21.8041 12.3 22.1041V22.3041C12.2 22.5041 12.1 22.9041 12 23.5041C11.9 24.0041 11.7 24.6041 11.6 25.2041C11.4 25.9041 11.3 26.5041 11.2 26.8041C11.1 27.2041 11 27.4041 11 27.6041L11.2 27.8041C11.3 27.9041 11.4 28.0041 11.4 28.1041C11.5 28.2041 11.5 28.3041 11.5 28.5041L11.4 28.6041C11.4 28.8041 11.2 29.0041 11 29.2041C10.8 29.3041 10.6 29.4041 10.4 29.5041H10.3C10.2 29.5041 9.8 29.5041 9.1 29.5041C8.3 29.5041 7.5 29.5041 6.7 29.6041C4.1 29.7041 2.7 29.8041 2.4 29.8041C1.9 29.8041 1.4 29.3041 0.799999 28.2041V27.6041C0.799999 26.7041 0.900001 25.7041 1.2 24.4041C1.4 23.2041 1.7 21.9041 2 20.7041C2.4 19.4041 2.7 18.3041 3.1 17.2041C3.5 16.1041 3.8 15.2041 4.1 14.4041V14.2041C4 13.8041 4 13.6041 4 13.5041C4 13.4041 4 13.3041 4 13.3041C4 13.3041 4 13.3041 4 13.2041V13.1041H3.8V13.0041C3.8 12.8041 3.7 12.7041 3.5 12.6041C3.4 12.5041 3.4 12.5041 3.3 12.5041C3.1 12.5041 3 12.4041 2.8 12.3041C2.4 12.2041 1.9 11.9041 1.2 11.4041C0.700001 11.1041 0.499999 10.8041 0.299999 10.5041C0.0999992 10.3041 0 9.9041 0 9.6041C0 9.3041 0 9.0041 0 8.9041C0.1 8.8041 0.200002 8.3041 0.400002 7.50405C0.600002 6.70405 0.8 5.80405 1 5.00405C1.2 4.30405 1.5 3.80405 1.8 3.50405C2.1 3.20405 2.4 3.00405 2.6 2.90405V2.20405L2.8 2.10405C3.6 1.90405 4.4 2.00405 5.2 2.30405C5.9 2.70405 6.3 2.90405 6.5 3.00405H25.7C25.8 3.00405 25.8 3.00405 25.9 3.10405L26 3.30405H36.1L36.2 3.20405C36.4 3.10405 36.5 2.80405 36.8 2.30405V2.10405H36.9C36.9 2.10405 37 2.10405 37.1 2.10405C37.2 2.10405 37.4 2.10405 37.5 2.10405C37.9 2.20405 38.2 2.60405 38.4 3.50405ZM21.7 12.1041H14.7C14.3 12.1041 14.1 12.3041 14.1 12.7041V15.2041C14.1 15.6041 14.3 15.8041 14.7 15.8041H21.7C22 15.8041 22.2 15.6041 22.2 15.2041V12.7041C22.3 12.3041 22.1 12.1041 21.7 12.1041Z" fill="white"/>
</svg>
