<svg width="120" height="29" viewBox="0 0 120 29" fill="none" xmlns="http://www.w3.org/2000/svg">
<path d="M90.158 27.823C91.739 26.3487 92.494 25.4491 92.994 24.4683C93.528 23.4187 93.875 22.0756 93.969 20.7199C94.269 16.2656 94.843 12.8671 95.617 10.9305C96.011 9.9497 96.358 9.4561 97.206 8.6565C98.154 7.76938 99.001 7.22587 100.577 6.50744C102.372 5.68281 103.694 5.23301 107.051 4.29592C108.787 3.81488 109.928 3.44629 113.425 2.24058C115.321 1.58462 118.725 0.366406 119.673 0.00406609C119.82 -0.0521639 120 0.485096 120 0.978626C120 1.40345 119.973 1.5034 119.74 1.94071C119.299 2.77784 118.612 3.3276 116.863 4.25844C114.6 5.45791 113.052 6.07638 108.486 7.56947C106.003 8.3879 104.982 8.7564 103.213 9.4874C100.343 10.6744 99.402 11.1804 98.421 12.0612C97.747 12.6672 97.339 13.2232 96.932 14.1166L96.619 14.7913L96.539 14.4602C96.438 14.0916 96.425 13.3919 96.498 13.1732C96.545 13.0483 96.532 13.0296 96.425 13.0483C96.358 13.0608 96.225 13.217 96.118 13.4231C95.944 13.7355 95.918 13.8917 95.838 14.835C95.784 15.416 95.698 16.1719 95.637 16.5093C95.577 16.8529 95.504 17.6088 95.471 18.1898C95.304 20.9198 95.057 22.188 94.369 23.7748C93.915 24.8431 93.395 25.649 92.774 26.2737C91.9 27.1421 90.004 28.5102 89.016 28.985C88.903 29.0412 89.397 28.5415 90.158 27.823Z" fill="white"/>
<path d="M100.31 28.6727C99.696 28.6477 98.848 28.5415 98.468 28.4353C97.967 28.2978 97.76 28.1729 97.486 27.823C97.339 27.6481 97.179 27.4607 97.113 27.4107C97.012 27.3357 97.039 27.292 97.386 26.9922C97.713 26.711 97.813 26.661 98.04 26.6548C98.281 26.6548 98.334 26.686 98.674 27.0421C99.522 27.9292 99.869 28.2104 100.43 28.4665C100.73 28.6039 100.93 28.7101 100.877 28.7039C100.824 28.6976 100.57 28.6852 100.31 28.6727Z" fill="white"/>
<path d="M90.738 28.5977C90.585 28.5602 90.591 28.5415 90.938 28.3416C91.559 27.9667 92.607 27.1546 93.275 26.5299C94.496 25.3741 95.277 23.9935 95.731 22.1568C95.804 21.8632 95.991 20.7137 96.138 19.5954C96.292 18.4772 96.445 17.3589 96.485 17.1028L96.559 16.6405L96.745 17.1215C96.846 17.3901 97.206 18.0711 97.546 18.6333C98.468 20.1827 98.681 20.8449 98.681 22.1693C98.674 23.6999 98.254 24.7306 97.099 26.0051C96.565 26.5923 96.258 26.8547 95.671 27.2233C94.423 28.0042 92.827 28.5227 91.366 28.6164C91.112 28.6289 90.825 28.6227 90.738 28.5977Z" fill="white"/>
<path d="M101.711 28.2791C100.737 27.9542 100.21 27.6606 99.549 27.0608C98.881 26.4611 98.594 26.2799 98.314 26.2799C98.154 26.2799 98.16 26.2612 98.521 25.7989C98.721 25.5303 98.941 25.2179 99.001 25.0992L99.108 24.8931L99.502 24.9368C100.049 24.993 100.203 25.0805 100.904 25.7427C101.371 26.1862 101.625 26.3674 102.012 26.5486C102.733 26.8859 103.44 27.0421 104.288 27.0484C105.082 27.0608 105.069 27.0484 104.742 27.5044C104.375 28.0042 103.634 28.3165 102.646 28.3728C102.212 28.404 102.038 28.3853 101.711 28.2791Z" fill="white"/>
<path d="M103.514 25.9988C102.653 25.8239 102.058 25.5366 101.398 24.993C100.79 24.4933 100.39 24.3308 99.816 24.3558L99.362 24.3746L99.442 24.1871C99.515 24.031 99.596 23.7124 99.776 22.8627C99.809 22.7128 100.109 22.5941 100.437 22.5941C100.804 22.5941 101.344 22.9564 102.312 23.856C102.826 24.3308 103.387 24.8119 103.56 24.9306C104.321 25.4366 105.256 25.6802 106.297 25.6428L106.951 25.624L106.597 25.7677C106.41 25.8489 106.07 25.9551 105.85 25.9988C105.349 26.1113 104.054 26.1113 103.514 25.9988Z" fill="white"/>
<path d="M105.349 24.437C104.682 24.2996 104.048 23.9622 103.28 23.3375C101.792 22.1381 100.877 21.7695 100.13 22.0818L99.829 22.2068L99.789 21.4758C99.762 21.076 99.729 20.6762 99.702 20.5887C99.662 20.4326 99.682 20.4201 100.103 20.3139C101.057 20.0702 102.065 20.4013 104.181 21.657C105.316 22.3255 107.125 23.1876 107.946 23.45C108.299 23.5562 108.653 23.6124 109.16 23.6374C109.881 23.6749 109.881 23.6749 109.721 23.7936C109.454 23.9872 108.747 24.2746 108.253 24.3746C107.578 24.5183 105.903 24.5557 105.349 24.437Z" fill="white"/>
<path d="M108.913 22.5316C108.186 22.3942 107.044 21.9381 104.915 20.9323C103.3 20.1639 102.766 19.964 101.945 19.8203C100.997 19.6516 100.477 19.7079 99.903 20.0515L99.622 20.2139L99.415 19.6704C99.302 19.3705 99.088 18.9457 98.948 18.7208C98.801 18.4959 98.694 18.3085 98.701 18.296C98.714 18.2897 99.015 18.2085 99.375 18.1273C101.177 17.6962 102.539 18.0586 105.783 19.8453C107.885 21.001 109.154 21.4633 110.789 21.6633C111.376 21.732 112.845 21.7132 113.125 21.6258C113.405 21.5383 112.851 21.9194 112.391 22.1318C111.236 22.6503 110.182 22.769 108.913 22.5316Z" fill="white"/>
<path d="M110.789 20.4638C110.222 20.3888 109.14 20.1202 108.626 19.9265C108.386 19.839 107.385 19.3892 106.404 18.9394C103.567 17.615 102.799 17.3839 101.311 17.3776C100.263 17.3776 99.976 17.4401 99.048 17.8399L98.501 18.0773L98.274 17.765L98.047 17.4526L98.341 17.2027C98.968 16.6842 99.876 16.3968 101.264 16.2719C102.279 16.1782 102.733 16.2219 105.783 16.6904C111.143 17.5088 111.83 17.5963 113.125 17.5963C114.547 17.5963 115.581 17.4151 116.536 17.0028C116.81 16.8903 117.03 16.8029 117.03 16.8154C117.03 16.9278 116.569 17.9024 116.349 18.2522C115.495 19.6079 114.734 20.1639 113.345 20.4325C112.785 20.5387 111.476 20.5575 110.789 20.4638Z" fill="white"/>
<path d="M97.773 17.0965C97.72 17.0403 97.673 16.9653 97.673 16.9278C97.673 16.7904 98.835 15.8408 99.522 15.4035C101.144 14.3915 103.02 13.723 105.115 13.4106C106.397 13.2232 107.498 13.1545 111.837 13.0046C115.681 12.8671 116.723 12.7109 117.984 12.08C118.431 11.8613 118.431 11.8613 118.598 12.3736C118.712 12.7297 118.725 13.4356 118.625 13.8479C118.512 14.3102 118.104 15.0099 117.737 15.366C117.13 15.9595 115.922 16.4593 114.76 16.5905C113.445 16.7467 112.438 16.6842 109.02 16.2219C104.101 15.5597 102.639 15.4472 101.351 15.6222C99.903 15.8221 98.875 16.2281 98.247 16.8466C97.907 17.1777 97.873 17.1965 97.773 17.0965Z" fill="white"/>
<path d="M97.373 16.5093C97.259 16.3156 97.259 16.2719 97.339 16.1157C97.473 15.8658 99.335 14.1416 100.009 13.6356C101.464 12.5548 102.98 11.9425 105.863 11.2866C107.578 10.893 108.399 10.7493 110.642 10.437C114.533 9.9059 117.25 9.3125 118.498 8.7252C118.999 8.4878 119.052 8.5128 119.086 9.0563C119.119 9.5186 118.925 10.0559 118.618 10.387C118.278 10.7493 117.317 11.1242 116.162 11.3428C115.214 11.5302 114.62 11.5865 112.024 11.7239C106.824 12.005 105.095 12.2362 103.08 12.9046C100.964 13.6168 98.835 15.0162 97.78 16.3968C97.64 16.5718 97.52 16.7217 97.513 16.7217C97.5 16.7217 97.44 16.6217 97.373 16.5093Z" fill="white"/>
<path d="M96.952 15.6721C96.872 15.4722 96.806 15.2598 96.806 15.1973C96.806 15.1349 96.926 14.86 97.066 14.5914C97.893 13.0545 98.808 12.2174 100.55 11.4303C102.005 10.768 105.136 9.6873 108.373 8.7252C113.566 7.18838 115.154 6.59489 117.644 5.27048L118.291 4.92688L118.678 5.1018C119.346 5.40792 119.633 5.72653 119.633 6.15134C119.633 6.63238 119.339 7.06968 118.732 7.50699C118.004 8.0255 117.17 8.3066 114.714 8.8814C113.118 9.25 112.378 9.3937 109.821 9.8185C108.213 10.0809 107.331 10.2745 105.549 10.7556C102.112 11.6801 100.777 12.3736 98.741 14.2915C98.281 14.7226 97.74 15.2911 97.54 15.5534C97.339 15.8158 97.159 16.0282 97.139 16.0282C97.119 16.0345 97.039 15.872 96.952 15.6721Z" fill="white"/>
<path d="M88.1744 6.1C88.3744 6.1 88.5744 6.2 88.5744 6.4V8.8H84.6744C84.5744 8.8 83.8744 8.8 82.7744 8.8C81.6744 8.8 80.3744 8.9 78.9744 8.9C77.5744 8.9 76.1744 8.9 74.7744 8.9C73.4744 8.9 72.5744 8.9 72.1744 8.9C72.1744 9.2 72.0744 9.5 71.8744 9.7C71.3744 10.2 70.8744 10.5 70.4744 10.5C70.2744 10.5 69.9744 10.4 69.6744 10.1C69.3744 9.8 69.0744 9.6 68.9744 9.4C68.8744 9.4 68.7744 9.4 68.5744 9.3C68.4744 9.3 68.2744 9.2 68.0744 9.1H67.2744C67.1744 9.1 66.9744 9 66.5744 9C66.1744 9 65.7744 8.9 65.1744 8.9C64.6744 8.9 64.0744 8.9 63.2744 9C62.6744 9 61.9744 9 61.2744 9.1C61.2744 9.2 61.2744 9.3 61.1744 9.5C61.0744 9.7 61.0744 9.8 61.0744 9.9L60.7744 10C60.6744 10 60.5744 10 60.3744 10C60.3744 10.1 60.3744 10.2 60.3744 10.4C60.3744 10.5 60.3744 10.6 60.3744 10.8C60.3744 11 60.2744 11.2 60.2744 11.5H59.9744C58.9744 11.5 57.8744 11.5 56.6744 11.5C55.4744 11.5 54.3744 11.5 53.2744 11.5C52.1744 11.6 51.2744 11.6 50.5744 11.6C49.8744 11.6 49.3744 11.6 49.2744 11.6C49.1744 11.6 48.9744 11.6 48.7744 11.7C48.5744 11.7 48.2744 11.7 47.9744 11.8C47.6744 11.9 47.3744 11.9 46.9744 11.9C46.6744 12 46.4744 12 46.2744 12H46.1744L45.9744 11.6C45.9744 11.3 45.8744 11 45.8744 10.7C45.8744 10.5 45.7744 10.2 45.7744 10C45.7744 9.8 45.7744 9.6 45.7744 9.5C45.6744 9.6 45.3744 9.6 44.9744 9.7C44.5744 9.7 44.0744 9.8 43.6744 9.9C43.2744 10 42.7744 10.1 42.3744 10.2C41.9744 10.2 41.6744 10.3 41.5744 10.3C41.5744 10.4 41.5744 10.6 41.5744 10.7C41.4744 10.8 41.4744 11 41.4744 11C41.4744 12.3 41.6744 13.7 42.0744 15.3C42.4744 16.8 42.8744 18.2 43.3744 19.6C43.8744 20.9 44.2744 22 44.6744 22.9C45.0744 23.8 45.2744 24.2 45.2744 24.2L45.3744 24.5L45.0744 24.6C44.9744 24.7 44.6744 24.8 44.2744 25C43.8744 25.2 43.3744 25.4 42.7744 25.7C42.0744 26 41.1744 26.4 40.0744 27H39.7744C39.3744 26.5 38.8744 25.5 38.4744 24.2C37.9744 22.9 37.5744 21.5 37.1744 20C36.7744 18.6 36.3744 17.2 36.1744 15.9C35.8744 14.6 35.6744 13.7 35.4744 13.3C35.2744 13.4 34.9744 13.6 34.4744 13.7C34.3744 13.7 34.2744 13.7 34.2744 13.8C34.2744 13.8 34.2744 13.8 34.1744 13.8C34.0744 14 33.8744 14.1 33.5744 14.1C32.3744 14.4 31.3744 14.4 30.6744 14.1C29.9744 13.8 29.5744 13.6 29.2744 13.4C29.2744 13.5 29.1744 13.5 29.0744 13.5L28.3744 13.8C27.5744 15.5 27.1744 17 26.9744 18.1C26.8744 19.2 26.7744 20 26.7744 20.5V21.1C26.7744 21.2 26.7744 21.3 26.6744 21.3C26.6744 21.3 26.5744 21.3 26.5744 21.4C26.1744 21.4 24.7744 20.8 22.3744 19.5L22.1744 19.4V19.3C22.4744 18.6 22.7744 17.9 23.0744 17.2C23.3744 16.4 23.5744 15.7 23.8744 15.1C24.0744 14.5 24.2744 13.9 24.4744 13.4C24.5744 13 24.6744 12.7 24.7744 12.6C24.7744 12.5 24.7744 12.4 24.6744 12.3C24.6744 12.2 24.5744 12.1 24.5744 12C24.4744 12 24.3744 11.9 24.2744 11.7C24.1744 11.6 24.0744 11.5 23.9744 11.4C23.8744 11.3 23.7744 11.2 23.6744 11.1C23.5744 11 23.1744 11 22.6744 11C22.0744 11 21.3744 11 20.5744 11C19.7744 11 18.8744 11.1 17.9744 11.1C17.0744 11.2 16.1744 11.2 15.3744 11.2L12.2744 11.3C10.2744 11.3 7.37443 13.1 3.37443 16.6V17.5C3.17443 17.7 2.97443 18 2.67443 18.1C2.37443 18.5 2.07443 18.8 1.97443 18.9C1.87443 19 1.77443 19 1.67443 19C1.47443 19 1.27443 18.9 1.07443 18.6C0.974433 18.2 0.874433 17.9 0.874433 17.7C0.874433 17.6 0.874433 17.2 0.874433 16.6C0.874433 16 0.774433 15.3 0.674433 14.4C0.574433 13.6 0.574433 12.7 0.474433 11.9C0.374433 11.1 0.274433 10.4 0.174433 9.8C-0.125567 9.2 -0.0255667 8.6 0.374433 8.1C0.574433 7.8 0.974433 7.7 1.37443 7.7C1.77443 7.7 2.07443 7.7 2.17443 7.7H19.3744C19.4744 7.7 19.6744 7.7 19.7744 7.7C19.8744 7.7 20.0744 7.7 20.0744 7.6V7.4C20.1744 7.3 20.2744 7.3 20.2744 7.2C20.2744 7.1 20.3744 7 20.3744 6.9C20.5744 6.8 20.7744 6.7 21.1744 6.7C21.5744 6.7 21.7744 6.6 21.9744 6.6C22.0744 6.5 22.2744 6.5 22.3744 6.5C22.5744 6.5 22.6744 6.4 22.7744 6.4C23.1744 6.3 23.4744 6.2 23.6744 6.1C23.9744 6 24.1744 5.8 24.2744 5.6C24.4744 5.5 24.5744 5.3 24.5744 5C24.5744 4.8 24.6744 4.4 24.6744 3.9V3.4C24.6744 3 24.7744 2.6 24.9744 2.5C25.1744 2.4 25.4744 2.4 25.7744 2.4H26.3744L26.4744 2.5L27.2744 3.3C27.2744 3.5 27.5744 3.4 28.1744 3.2H28.6744C28.7744 3.3 28.9744 3.5 29.0744 3.8C29.1744 4.1 29.1744 4.5 29.2744 4.8C29.9744 4.7 30.7744 4.7 31.6744 4.7C32.4744 4.7 32.9744 4.8 33.1744 4.8C33.2744 4.8 33.3744 4.8 33.4744 4.8C33.5744 4.9 33.6744 4.9 33.8744 4.9H43.3744C43.3744 4.7 43.3744 4.4 43.2744 4.3L43.1744 4H44.8744V4.3C44.8744 4.4 44.8744 4.5 44.9744 4.5C44.9744 4.5 44.9744 4.5 45.0744 4.5H67.9744C67.9744 4.5 67.9744 4.4 67.9744 4.2C67.9744 4.1 67.9744 3.9 67.9744 3.7C67.8744 3.6 67.8744 3.4 67.8744 3.1L68.3744 2.1L69.9744 2H70.0744V4.7H69.9744C69.9744 4.8 69.8744 4.8 69.8744 4.8L69.7744 4.9C69.9744 5.1 70.3744 5.4 70.9744 5.8C71.5744 6.1 72.1744 6.3 72.9744 6.3C73.2744 6.3 73.7744 6.4 74.4744 6.4C75.1744 6.5 75.9744 6.5 76.8744 6.5C77.7744 6.5 78.5744 6.5 79.4744 6.4C80.4744 6.4 81.2744 6.4 82.0744 6.4C82.8744 6.4 83.5744 6.4 84.0744 6.4C84.5744 6.4 84.8744 6.4 84.9744 6.4C85.0744 6.4 85.2744 6.4 85.6744 6.3C85.9744 6.3 86.2744 6.2 86.6744 6.1C87.0744 6.1 87.4744 6 87.7744 6C87.8744 5.9 88.0744 5.9 88.1744 6.1ZM30.7744 11.1C30.5744 11.1 30.3744 11.2 30.1744 11.4C29.9744 11.6 29.8744 11.9 29.8744 12.2C29.8744 12.5 29.9744 12.8 30.1744 13C30.3744 13.2 30.5744 13.3 30.7744 13.3H33.4744C33.6744 13.3 33.8744 13.2 34.1744 13C34.3744 12.8 34.4744 12.5 34.4744 12.2C34.4744 11.9 34.3744 11.6 34.1744 11.4C33.9744 11.2 33.7744 11.1 33.4744 11.1H30.7744ZM2.07443 11.1C2.17443 11.6 2.17443 12.1 2.27443 12.6C2.37443 13.2 2.37443 13.8 2.37443 14.3C2.47443 14.8 2.47443 15.2 2.57443 15.6C2.77443 15.4 3.07443 15.1 3.47443 14.8C3.87443 14.5 4.37443 14.1 4.77443 13.7C5.77443 13 6.67443 12.3 7.67443 11.5C8.57443 10.8 9.47443 10.2 10.1744 9.7H1.87443C1.97443 10 1.97443 10.5 2.07443 11.1Z" fill="white"/>
</svg>
