<svg width="77" height="29" viewBox="0 0 77 29" fill="none" xmlns="http://www.w3.org/2000/svg">
<path d="M47.158 27.823C48.739 26.3487 49.494 25.4491 49.994 24.4683C50.528 23.4187 50.875 22.0756 50.969 20.7199C51.269 16.2656 51.843 12.8671 52.617 10.9305C53.011 9.9497 53.358 9.4561 54.206 8.6565C55.154 7.76938 56.001 7.22587 57.577 6.50744C59.372 5.68281 60.694 5.23301 64.051 4.29592C65.787 3.81488 66.928 3.44629 70.425 2.24058C72.321 1.58462 75.725 0.36641 76.673 0.0040699C76.82 -0.0521601 77 0.4851 77 0.97863C77 1.40345 76.973 1.5034 76.74 1.94071C76.299 2.77784 75.612 3.3276 73.863 4.25844C71.6 5.45791 70.052 6.07638 65.486 7.56947C63.003 8.3879 61.982 8.7564 60.213 9.4874C57.343 10.6744 56.402 11.1804 55.421 12.0612C54.747 12.6672 54.339 13.2232 53.932 14.1166L53.619 14.7913L53.539 14.4602C53.438 14.0916 53.425 13.3919 53.498 13.1732C53.545 13.0483 53.532 13.0296 53.425 13.0483C53.358 13.0608 53.225 13.217 53.118 13.4231C52.944 13.7355 52.918 13.8917 52.838 14.835C52.784 15.416 52.698 16.1719 52.637 16.5093C52.577 16.8529 52.504 17.6088 52.471 18.1898C52.304 20.9198 52.057 22.188 51.369 23.7748C50.915 24.8431 50.395 25.649 49.774 26.2737C48.9 27.1421 47.004 28.5102 46.016 28.985C45.903 29.0412 46.397 28.5415 47.158 27.823Z" fill="white"/>
<path d="M57.31 28.6727C56.696 28.6477 55.848 28.5415 55.468 28.4353C54.967 28.2978 54.76 28.1729 54.486 27.823C54.339 27.6481 54.179 27.4607 54.113 27.4107C54.012 27.3357 54.039 27.292 54.386 26.9922C54.713 26.711 54.813 26.661 55.04 26.6548C55.281 26.6548 55.334 26.686 55.674 27.0421C56.522 27.9292 56.869 28.2104 57.43 28.4665C57.73 28.6039 57.93 28.7101 57.877 28.7039C57.824 28.6976 57.57 28.6852 57.31 28.6727Z" fill="white"/>
<path d="M47.738 28.5977C47.585 28.5602 47.591 28.5415 47.938 28.3416C48.559 27.9667 49.607 27.1546 50.275 26.5299C51.496 25.3741 52.277 23.9935 52.731 22.1568C52.804 21.8632 52.991 20.7137 53.138 19.5954C53.292 18.4772 53.445 17.3589 53.485 17.1028L53.559 16.6405L53.745 17.1215C53.846 17.3901 54.206 18.0711 54.546 18.6333C55.468 20.1827 55.681 20.8449 55.681 22.1693C55.674 23.6999 55.254 24.7306 54.099 26.0051C53.565 26.5923 53.258 26.8547 52.671 27.2233C51.423 28.0042 49.827 28.5227 48.366 28.6164C48.112 28.6289 47.825 28.6227 47.738 28.5977Z" fill="white"/>
<path d="M58.711 28.2791C57.737 27.9542 57.21 27.6606 56.549 27.0608C55.881 26.4611 55.594 26.2799 55.314 26.2799C55.154 26.2799 55.16 26.2612 55.521 25.7989C55.721 25.5303 55.941 25.2179 56.001 25.0992L56.108 24.8931L56.502 24.9368C57.049 24.993 57.203 25.0805 57.904 25.7427C58.371 26.1862 58.625 26.3674 59.012 26.5486C59.733 26.8859 60.44 27.0421 61.288 27.0484C62.082 27.0608 62.069 27.0484 61.742 27.5044C61.375 28.0042 60.634 28.3165 59.646 28.3728C59.212 28.404 59.038 28.3853 58.711 28.2791Z" fill="white"/>
<path d="M60.514 25.9988C59.653 25.8239 59.058 25.5366 58.398 24.993C57.79 24.4933 57.39 24.3308 56.816 24.3558L56.362 24.3746L56.442 24.1871C56.515 24.031 56.596 23.7124 56.776 22.8627C56.809 22.7128 57.109 22.5941 57.437 22.5941C57.804 22.5941 58.344 22.9564 59.312 23.856C59.826 24.3308 60.387 24.8119 60.56 24.9306C61.321 25.4366 62.256 25.6802 63.297 25.6428L63.951 25.624L63.597 25.7677C63.41 25.8489 63.07 25.9551 62.85 25.9988C62.349 26.1113 61.054 26.1113 60.514 25.9988Z" fill="white"/>
<path d="M62.349 24.437C61.682 24.2996 61.048 23.9622 60.28 23.3375C58.792 22.1381 57.877 21.7695 57.13 22.0818L56.829 22.2068L56.789 21.4758C56.762 21.076 56.729 20.6762 56.702 20.5887C56.662 20.4326 56.682 20.4201 57.103 20.3139C58.057 20.0702 59.065 20.4013 61.181 21.657C62.316 22.3255 64.125 23.1876 64.946 23.45C65.299 23.5562 65.653 23.6124 66.16 23.6374C66.881 23.6749 66.881 23.6749 66.721 23.7936C66.454 23.9872 65.747 24.2746 65.253 24.3746C64.578 24.5183 62.903 24.5557 62.349 24.437Z" fill="white"/>
<path d="M65.913 22.5316C65.186 22.3942 64.044 21.9381 61.915 20.9323C60.3 20.1639 59.766 19.964 58.945 19.8203C57.997 19.6516 57.477 19.7079 56.903 20.0515L56.622 20.2139L56.415 19.6704C56.302 19.3705 56.088 18.9457 55.948 18.7208C55.801 18.4959 55.694 18.3085 55.701 18.296C55.714 18.2897 56.015 18.2085 56.375 18.1273C58.177 17.6962 59.539 18.0586 62.783 19.8453C64.885 21.001 66.154 21.4633 67.789 21.6633C68.376 21.732 69.845 21.7132 70.125 21.6258C70.405 21.5383 69.851 21.9194 69.391 22.1318C68.236 22.6503 67.182 22.769 65.913 22.5316Z" fill="white"/>
<path d="M67.789 20.4638C67.222 20.3888 66.14 20.1202 65.626 19.9265C65.386 19.839 64.385 19.3892 63.404 18.9394C60.567 17.615 59.799 17.3839 58.311 17.3776C57.263 17.3776 56.976 17.4401 56.048 17.8399L55.501 18.0773L55.274 17.765L55.047 17.4526L55.341 17.2027C55.968 16.6842 56.876 16.3968 58.264 16.2719C59.279 16.1782 59.733 16.2219 62.783 16.6904C68.143 17.5088 68.83 17.5963 70.125 17.5963C71.547 17.5963 72.581 17.4151 73.536 17.0028C73.81 16.8903 74.03 16.8029 74.03 16.8154C74.03 16.9278 73.569 17.9024 73.349 18.2522C72.495 19.6079 71.734 20.1639 70.345 20.4325C69.785 20.5387 68.476 20.5575 67.789 20.4638Z" fill="white"/>
<path d="M54.773 17.0965C54.72 17.0403 54.673 16.9653 54.673 16.9278C54.673 16.7904 55.835 15.8408 56.522 15.4035C58.144 14.3915 60.02 13.723 62.115 13.4106C63.397 13.2232 64.498 13.1545 68.837 13.0046C72.681 12.8671 73.723 12.7109 74.984 12.08C75.431 11.8613 75.431 11.8613 75.598 12.3736C75.712 12.7297 75.725 13.4356 75.625 13.8479C75.512 14.3102 75.104 15.0099 74.737 15.366C74.13 15.9595 72.922 16.4593 71.76 16.5905C70.445 16.7467 69.438 16.6842 66.02 16.2219C61.101 15.5597 59.639 15.4472 58.351 15.6222C56.903 15.8221 55.875 16.2281 55.247 16.8466C54.907 17.1777 54.873 17.1965 54.773 17.0965Z" fill="white"/>
<path d="M54.373 16.5093C54.259 16.3156 54.259 16.2719 54.339 16.1157C54.473 15.8658 56.335 14.1416 57.009 13.6356C58.464 12.5548 59.98 11.9425 62.863 11.2866C64.578 10.893 65.399 10.7493 67.642 10.437C71.533 9.9059 74.25 9.3125 75.498 8.7252C75.999 8.4878 76.052 8.5128 76.086 9.0563C76.119 9.5186 75.925 10.0559 75.618 10.387C75.278 10.7493 74.317 11.1242 73.162 11.3428C72.214 11.5302 71.62 11.5865 69.024 11.7239C63.824 12.005 62.095 12.2362 60.08 12.9046C57.964 13.6168 55.835 15.0162 54.78 16.3968C54.64 16.5718 54.52 16.7217 54.513 16.7217C54.5 16.7217 54.44 16.6217 54.373 16.5093Z" fill="white"/>
<path d="M53.952 15.6721C53.872 15.4722 53.806 15.2598 53.806 15.1973C53.806 15.1349 53.926 14.86 54.066 14.5914C54.893 13.0545 55.808 12.2174 57.55 11.4303C59.005 10.768 62.136 9.6873 65.373 8.7252C70.566 7.18838 72.154 6.59489 74.644 5.27048L75.291 4.92688L75.678 5.1018C76.346 5.40792 76.633 5.72653 76.633 6.15134C76.633 6.63238 76.339 7.06968 75.732 7.50699C75.004 8.0255 74.17 8.3066 71.714 8.8814C70.118 9.25 69.378 9.3937 66.821 9.8185C65.213 10.0809 64.331 10.2745 62.549 10.7556C59.112 11.6801 57.777 12.3736 55.741 14.2915C55.281 14.7226 54.74 15.2911 54.54 15.5534C54.339 15.8158 54.159 16.0282 54.139 16.0282C54.119 16.0345 54.039 15.872 53.952 15.6721Z" fill="white"/>
<path d="M43.4 9.6C43.3 9.7 43.2 9.7 43 9.7C42.6 9.8 42 9.8 41.2 9.9C40.3 9.9 39.4 10 38.4 10C37.4 10.1 36.4 10.1 35.4 10.1C34.4 10.1 33.6 10.1 33 10.1C32.3 10.1 31.7 10.1 31.3 10.2C30.9 10.3 30.5 10.3 30.3 10.4C30.1 10.5 29.9 10.7 29.9 10.8C29.8 10.9 29.8 11.1 29.8 11.3V11.6C29.8 11.8 29.8 12.1 29.8 12.5C29.8 12.8 29.9 13.1 29.9 13.4C30 13.8 30.1 14.2 30.1 14.5V14.6L29.5 15.3V15.4C29.3 15.5 28.8 15.6 28 15.6C26.4 15.7 25.1 15.7 24 15.7C23 15.7 22.1 15.7 21.3 15.6C20.6 15.5 20.1 15.4 19.7 15.4C19.4 15.3 19.1 15.2 19 15.1C18.8 15.1 18.6 15.1 18.3 15.2C18.1 15.4 17.8 15.6 17.5 16C17.1 16.4 16.7 17 16.3 17.9C15.9 18.8 15.4 20 14.8 21.5C14.2 23 13.5 24.8 12.8 27.1V27.3C12.8 28 12.6 28.4 12.3 28.5C12.1 28.7 12 28.7 11.8 28.6H2.6C2.6 28.5 2.6 28.3 2.6 28.2C2.7 28 2.8 27.7 2.8 27.6H2.1C2 27.6 1.9 27.6 1.8 27.6C1.2 27.5 0.699999 27.3 0.299999 26.7C0.0999992 26.4 0 26 0 25.6C0 25 0.100001 24.5 0.200001 24.1C0.300001 23.6 0.400002 23.4 0.400002 23.3V23.4C0.400002 23.4 0.600002 23.1 0.900002 22.7C1.2 22.3 1.5 21.7 2 21.1C2.5 20.4 2.9 19.7 3.4 18.9C4 18.1 4.5 17.4 5 16.6C5.5 15.6 6 14.6 6.3 13.8C6.7 13 6.8 12.3 6.8 11.6C6.8 11.2 6.7 10.8 6.6 10.4C6.4 9.9 6 9.5 5.6 9.2C5.2 9 4.8 8.7 4.3 8.5C3.9 8.4 3.7 8.2 3.5 7.9C3.4 7.6 3.3 7.3 3.3 6.9C3.3 6.8 3.3 6.6 3.3 6.5C3.3 6.4 3.3 6.3 3.3 6.2V6.1V4C3.3 3.6 3.3 3.3 3.3 3.1C3.3 2.9 3.3 2.7 3.2 2.6C3.2 2.6 3.2 2.6 3.2 2.5V2.4V2.3C3.2 2.2 3.4 2.2 3.6 2.1C3.8 1.9 4.4 1.9 5.4 1.8C5.5 1.7 5.5 1.6 5.5 1.6C5.5 1.5 5.5 1.5 5.6 1.4C5.6 1.3 5.7 1.2 5.8 1.1L5.9 1H7.1L7.2 1.3C7.3 1.4 7.3 1.4 7.3 1.5C7.3 1.6 7.3 1.7 7.3 1.7H41.2L41.3 1.5C41.4 1.4 41.4 1.4 41.4 1.4L42.2 1.2C42.2 1.3 42.3 1.3 42.4 1.4L42.6 1.6H44.1L44.4 6.1C44.3 8.1 44 9.2 43.4 9.6ZM27.2 10.4H21.4C21.3 10.4 21.2 10.5 21.1 10.6C21 10.7 20.9 10.9 20.9 11.2V13.2C20.9 13.5 21 13.7 21.1 13.8C21.2 13.9 21.3 14 21.4 14H27.2C27.3 14 27.4 13.9 27.5 13.8C27.6 13.7 27.7 13.5 27.7 13.2V11.2C27.7 11 27.6 10.8 27.5 10.6C27.4 10.5 27.3 10.4 27.2 10.4Z" fill="white"/>
</svg>
