<svg width="65" height="29" viewBox="0 0 65 29" fill="none" xmlns="http://www.w3.org/2000/svg">
<path d="M35.158 27.823C36.739 26.3487 37.494 25.4491 37.994 24.4683C38.528 23.4187 38.875 22.0756 38.969 20.7199C39.269 16.2656 39.843 12.8671 40.617 10.9305C41.011 9.9497 41.358 9.4561 42.206 8.6565C43.154 7.76938 44.001 7.22587 45.577 6.50744C47.372 5.68281 48.694 5.23301 52.051 4.29592C53.787 3.81488 54.928 3.44629 58.425 2.24058C60.321 1.58462 63.725 0.36641 64.673 0.0040699C64.82 -0.0521601 65 0.4851 65 0.97863C65 1.40345 64.973 1.5034 64.74 1.94071C64.299 2.77784 63.612 3.3276 61.863 4.25844C59.6 5.45791 58.052 6.07638 53.486 7.56947C51.003 8.3879 49.982 8.7564 48.213 9.4874C45.343 10.6744 44.402 11.1804 43.421 12.0612C42.747 12.6672 42.339 13.2232 41.932 14.1166L41.619 14.7913L41.539 14.4602C41.438 14.0916 41.425 13.3919 41.498 13.1732C41.545 13.0483 41.532 13.0296 41.425 13.0483C41.358 13.0608 41.225 13.217 41.118 13.4231C40.944 13.7355 40.918 13.8917 40.838 14.835C40.784 15.416 40.698 16.1719 40.637 16.5093C40.577 16.8529 40.504 17.6088 40.471 18.1898C40.304 20.9198 40.057 22.188 39.369 23.7748C38.915 24.8431 38.395 25.649 37.774 26.2737C36.9 27.1421 35.004 28.5102 34.016 28.985C33.903 29.0412 34.397 28.5415 35.158 27.823Z" fill="white"/>
<path d="M45.31 28.6727C44.696 28.6477 43.848 28.5415 43.468 28.4353C42.967 28.2978 42.76 28.1729 42.486 27.823C42.339 27.6481 42.179 27.4607 42.113 27.4107C42.012 27.3357 42.039 27.292 42.386 26.9922C42.713 26.711 42.813 26.661 43.04 26.6548C43.281 26.6548 43.334 26.686 43.674 27.0421C44.522 27.9292 44.869 28.2104 45.43 28.4665C45.73 28.6039 45.93 28.7101 45.877 28.7039C45.824 28.6976 45.57 28.6852 45.31 28.6727Z" fill="white"/>
<path d="M35.738 28.5977C35.585 28.5602 35.591 28.5415 35.938 28.3416C36.559 27.9667 37.607 27.1546 38.275 26.5299C39.496 25.3741 40.277 23.9935 40.731 22.1568C40.804 21.8632 40.991 20.7137 41.138 19.5954C41.292 18.4772 41.445 17.3589 41.485 17.1028L41.559 16.6405L41.745 17.1215C41.846 17.3901 42.206 18.0711 42.546 18.6333C43.468 20.1827 43.681 20.8449 43.681 22.1693C43.674 23.6999 43.254 24.7306 42.099 26.0051C41.565 26.5923 41.258 26.8547 40.671 27.2233C39.423 28.0042 37.827 28.5227 36.366 28.6164C36.112 28.6289 35.825 28.6227 35.738 28.5977Z" fill="white"/>
<path d="M46.711 28.2791C45.737 27.9542 45.21 27.6606 44.549 27.0608C43.881 26.4611 43.594 26.2799 43.314 26.2799C43.154 26.2799 43.16 26.2612 43.521 25.7989C43.721 25.5303 43.941 25.2179 44.001 25.0992L44.108 24.8931L44.502 24.9368C45.049 24.993 45.203 25.0805 45.904 25.7427C46.371 26.1862 46.625 26.3674 47.012 26.5486C47.733 26.8859 48.44 27.0421 49.288 27.0484C50.082 27.0608 50.069 27.0484 49.742 27.5044C49.375 28.0042 48.634 28.3165 47.646 28.3728C47.212 28.404 47.038 28.3853 46.711 28.2791Z" fill="white"/>
<path d="M48.514 25.9988C47.653 25.8239 47.058 25.5366 46.398 24.993C45.79 24.4933 45.39 24.3308 44.816 24.3558L44.362 24.3746L44.442 24.1871C44.515 24.031 44.596 23.7124 44.776 22.8627C44.809 22.7128 45.109 22.5941 45.437 22.5941C45.804 22.5941 46.344 22.9564 47.312 23.856C47.826 24.3308 48.387 24.8119 48.56 24.9306C49.321 25.4366 50.256 25.6802 51.297 25.6428L51.951 25.624L51.597 25.7677C51.41 25.8489 51.07 25.9551 50.85 25.9988C50.349 26.1113 49.054 26.1113 48.514 25.9988Z" fill="white"/>
<path d="M50.349 24.437C49.682 24.2996 49.048 23.9622 48.28 23.3375C46.792 22.1381 45.877 21.7695 45.13 22.0818L44.829 22.2068L44.789 21.4758C44.762 21.076 44.729 20.6762 44.702 20.5887C44.662 20.4326 44.682 20.4201 45.103 20.3139C46.057 20.0702 47.065 20.4013 49.181 21.657C50.316 22.3255 52.125 23.1876 52.946 23.45C53.299 23.5562 53.653 23.6124 54.16 23.6374C54.881 23.6749 54.881 23.6749 54.721 23.7936C54.454 23.9872 53.747 24.2746 53.253 24.3746C52.578 24.5183 50.903 24.5557 50.349 24.437Z" fill="white"/>
<path d="M53.913 22.5316C53.186 22.3942 52.044 21.9381 49.915 20.9323C48.3 20.1639 47.766 19.964 46.945 19.8203C45.997 19.6516 45.477 19.7079 44.903 20.0515L44.622 20.2139L44.415 19.6704C44.302 19.3705 44.088 18.9457 43.948 18.7208C43.801 18.4959 43.694 18.3085 43.701 18.296C43.714 18.2897 44.015 18.2085 44.375 18.1273C46.177 17.6962 47.539 18.0586 50.783 19.8453C52.885 21.001 54.154 21.4633 55.789 21.6633C56.376 21.732 57.845 21.7132 58.125 21.6258C58.405 21.5383 57.851 21.9194 57.391 22.1318C56.236 22.6503 55.182 22.769 53.913 22.5316Z" fill="white"/>
<path d="M55.789 20.4638C55.222 20.3888 54.14 20.1202 53.626 19.9265C53.386 19.839 52.385 19.3892 51.404 18.9394C48.567 17.615 47.799 17.3839 46.311 17.3776C45.263 17.3776 44.976 17.4401 44.048 17.8399L43.501 18.0773L43.274 17.765L43.047 17.4526L43.341 17.2027C43.968 16.6842 44.876 16.3968 46.264 16.2719C47.279 16.1782 47.733 16.2219 50.783 16.6904C56.143 17.5088 56.83 17.5963 58.125 17.5963C59.547 17.5963 60.581 17.4151 61.536 17.0028C61.81 16.8903 62.03 16.8029 62.03 16.8154C62.03 16.9278 61.569 17.9024 61.349 18.2522C60.495 19.6079 59.734 20.1639 58.345 20.4325C57.785 20.5387 56.476 20.5575 55.789 20.4638Z" fill="white"/>
<path d="M42.773 17.0965C42.72 17.0403 42.673 16.9653 42.673 16.9278C42.673 16.7904 43.835 15.8408 44.522 15.4035C46.144 14.3915 48.02 13.723 50.115 13.4106C51.397 13.2232 52.498 13.1545 56.837 13.0046C60.681 12.8671 61.723 12.7109 62.984 12.08C63.431 11.8613 63.431 11.8613 63.598 12.3736C63.712 12.7297 63.725 13.4356 63.625 13.8479C63.512 14.3102 63.104 15.0099 62.737 15.366C62.13 15.9595 60.922 16.4593 59.76 16.5905C58.445 16.7467 57.438 16.6842 54.02 16.2219C49.101 15.5597 47.639 15.4472 46.351 15.6222C44.903 15.8221 43.875 16.2281 43.247 16.8466C42.907 17.1777 42.873 17.1965 42.773 17.0965Z" fill="white"/>
<path d="M42.373 16.5093C42.259 16.3156 42.259 16.2719 42.339 16.1157C42.473 15.8658 44.335 14.1416 45.009 13.6356C46.464 12.5548 47.98 11.9425 50.863 11.2866C52.578 10.893 53.399 10.7493 55.642 10.437C59.533 9.9059 62.25 9.3125 63.498 8.7252C63.999 8.4878 64.052 8.5128 64.086 9.0563C64.119 9.5186 63.925 10.0559 63.618 10.387C63.278 10.7493 62.317 11.1242 61.162 11.3428C60.214 11.5302 59.62 11.5865 57.024 11.7239C51.824 12.005 50.095 12.2362 48.08 12.9046C45.964 13.6168 43.835 15.0162 42.78 16.3968C42.64 16.5718 42.52 16.7217 42.513 16.7217C42.5 16.7217 42.44 16.6217 42.373 16.5093Z" fill="white"/>
<path d="M41.952 15.6721C41.872 15.4722 41.806 15.2598 41.806 15.1973C41.806 15.1349 41.926 14.86 42.066 14.5914C42.893 13.0545 43.808 12.2174 45.55 11.4303C47.005 10.768 50.136 9.6873 53.373 8.7252C58.566 7.18838 60.154 6.59489 62.644 5.27048L63.291 4.92688L63.678 5.1018C64.346 5.40792 64.633 5.72653 64.633 6.15134C64.633 6.63238 64.339 7.06968 63.732 7.50699C63.004 8.0255 62.17 8.3066 59.714 8.8814C58.118 9.25 57.378 9.3937 54.821 9.8185C53.213 10.0809 52.331 10.2745 50.549 10.7556C47.112 11.6801 45.777 12.3736 43.741 14.2915C43.281 14.7226 42.74 15.2911 42.54 15.5534C42.339 15.8158 42.159 16.0282 42.139 16.0282C42.119 16.0345 42.039 15.872 41.952 15.6721Z" fill="white"/>
<path d="M31.725 8.5155C31.625 8.7155 31.425 8.8155 31.225 8.8155C30.825 8.8155 28.225 8.9155 23.325 8.9155C23.125 8.9155 23.025 8.9155 22.825 9.0155C22.525 9.1155 22.325 9.3155 22.225 9.5155C22.125 9.7155 22.125 10.1155 22.225 10.7155C22.225 11.0155 22.325 11.5155 22.425 12.1155C22.425 12.4155 22.525 12.7155 22.625 13.1155C22.625 13.3155 22.525 13.4155 22.225 13.4155C21.625 13.5155 21.125 13.6155 20.625 13.7155C19.725 13.8155 18.825 13.9155 17.825 13.9155C16.225 13.9155 14.525 13.9155 12.625 13.7155C10.925 18.2155 10.125 20.5155 10.125 20.8155C10.125 21.1155 10.225 22.1155 10.325 23.8155C10.725 24.1155 11.025 24.3155 11.225 24.4155C11.425 24.5155 11.525 24.6155 11.425 24.7155C11.425 24.8155 11.425 24.8155 11.325 24.9155L10.925 25.1155C10.625 25.2155 10.325 25.2155 10.025 25.1155C9.525 25.0155 6.225 24.4155 0.225 23.1155C-0.075 23.0155 -0.075 22.2155 0.225 20.6155C0.325 19.9155 0.625002 18.9155 1.125 17.6155C1.625 16.3155 2.025 15.2155 2.525 14.4155C2.925 13.6155 3.325 12.7155 3.525 11.8155C3.825 10.9155 3.925 10.2155 3.925 9.8155C3.825 9.5155 3.525 9.2155 2.825 8.8155C2.325 8.5155 1.825 8.4155 1.325 8.2155C1.025 8.2155 0.825 8.0155 0.725 7.81547C0.625 7.71547 0.525005 7.61547 0.425005 7.41547C0.325005 7.31547 0.324998 7.01547 0.324998 6.61547C0.324998 6.41547 0.324998 6.11547 0.324998 5.61547C0.324998 4.91547 0.425003 4.51547 0.525003 4.41547C1.025 3.61547 1.425 2.91547 1.625 2.51547C1.725 2.31547 1.925 2.11547 2.125 1.91547C2.325 1.71547 2.525 1.61547 2.725 1.61547C2.925 1.61547 3.125 1.61547 3.325 1.61547H3.725C3.825 1.41547 3.925 1.21547 4.025 1.11547C4.225 0.91547 4.625 1.01547 5.225 1.11547L5.425 1.51547H16.025V1.91547H20.625V1.61547H31.225L31.525 1.81547C31.725 1.91547 31.825 2.11547 31.825 2.31547C31.925 3.31547 31.925 4.21547 32.025 5.11547C32.125 6.81547 32.025 7.81547 32.025 8.0155C31.825 8.3155 31.725 8.5155 31.725 8.5155ZM20.725 9.5155C20.625 9.4155 20.525 9.4155 20.425 9.4155V9.5155H17.025C16.925 10.0155 16.925 10.4155 17.225 10.7155C17.525 11.2155 17.825 11.5155 18.025 11.7155C18.225 11.9155 18.525 12.0155 18.725 12.0155C19.025 12.0155 19.125 12.1155 19.025 12.2155C19.025 12.3155 18.925 12.4155 18.725 12.4155C18.625 12.4155 18.425 12.4155 18.225 12.4155C17.925 12.3155 17.625 12.2155 17.325 11.9155C16.825 11.4155 16.425 11.0155 16.325 10.7155C16.225 10.4155 16.125 9.9155 16.125 9.4155H15.425C15.025 9.4155 14.625 9.6155 14.325 9.9155C14.025 10.2155 13.925 10.6155 13.925 11.0155C13.925 11.3155 13.925 11.6155 13.925 12.0155C14.025 12.3155 14.225 12.6155 14.725 12.7155C15.425 13.0155 16.025 13.1155 16.625 13.0155C17.325 12.9155 17.925 12.8155 18.325 12.8155C18.525 12.8155 18.925 12.8155 19.425 12.8155C19.925 12.9155 20.325 12.9155 20.525 12.9155C20.825 12.9155 21.125 12.9155 21.225 12.8155C21.325 12.7155 21.425 12.6155 21.525 12.5155C21.625 12.3155 21.625 11.9155 21.625 11.3155C21.625 10.7155 21.525 10.2155 21.325 9.9155C21.125 9.7155 20.925 9.6155 20.725 9.5155Z" fill="white"/>
</svg>
