<svg width="133" height="29" viewBox="0 0 133 29" fill="none" xmlns="http://www.w3.org/2000/svg">
<path d="M103.158 27.823C104.739 26.3487 105.494 25.4491 105.994 24.4683C106.528 23.4187 106.875 22.0756 106.969 20.7199C107.269 16.2656 107.843 12.8671 108.617 10.9305C109.011 9.9497 109.358 9.4561 110.206 8.6565C111.154 7.76938 112.001 7.22587 113.577 6.50744C115.372 5.68281 116.694 5.23301 120.051 4.29592C121.787 3.81488 122.928 3.44629 126.425 2.24058C128.321 1.58462 131.725 0.366406 132.673 0.00406609C132.82 -0.0521639 133 0.485096 133 0.978626C133 1.40345 132.973 1.5034 132.74 1.94071C132.299 2.77784 131.612 3.3276 129.863 4.25844C127.6 5.45791 126.052 6.07638 121.486 7.56947C119.003 8.3879 117.982 8.7564 116.213 9.4874C113.343 10.6744 112.402 11.1804 111.421 12.0612C110.747 12.6672 110.339 13.2232 109.932 14.1166L109.619 14.7913L109.539 14.4602C109.438 14.0916 109.425 13.3919 109.498 13.1732C109.545 13.0483 109.532 13.0296 109.425 13.0483C109.358 13.0608 109.225 13.217 109.118 13.4231C108.944 13.7355 108.918 13.8917 108.838 14.835C108.784 15.416 108.698 16.1719 108.637 16.5093C108.577 16.8529 108.504 17.6088 108.471 18.1898C108.304 20.9198 108.057 22.188 107.369 23.7748C106.915 24.8431 106.395 25.649 105.774 26.2737C104.9 27.1421 103.004 28.5102 102.016 28.985C101.903 29.0412 102.397 28.5415 103.158 27.823Z" fill="white"/>
<path d="M113.31 28.6727C112.696 28.6477 111.848 28.5415 111.468 28.4353C110.967 28.2978 110.76 28.1729 110.486 27.823C110.339 27.6481 110.179 27.4607 110.113 27.4107C110.012 27.3357 110.039 27.292 110.386 26.9922C110.713 26.711 110.813 26.661 111.04 26.6548C111.281 26.6548 111.334 26.686 111.674 27.0421C112.522 27.9292 112.869 28.2104 113.43 28.4665C113.73 28.6039 113.93 28.7101 113.877 28.7039C113.824 28.6976 113.57 28.6852 113.31 28.6727Z" fill="white"/>
<path d="M103.738 28.5977C103.585 28.5602 103.591 28.5415 103.938 28.3416C104.559 27.9667 105.607 27.1546 106.275 26.5299C107.496 25.3741 108.277 23.9935 108.731 22.1568C108.804 21.8632 108.991 20.7137 109.138 19.5954C109.292 18.4772 109.445 17.3589 109.485 17.1028L109.559 16.6405L109.745 17.1215C109.846 17.3901 110.206 18.0711 110.546 18.6333C111.468 20.1827 111.681 20.8449 111.681 22.1693C111.674 23.6999 111.254 24.7306 110.099 26.0051C109.565 26.5923 109.258 26.8547 108.671 27.2233C107.423 28.0042 105.827 28.5227 104.366 28.6164C104.112 28.6289 103.825 28.6227 103.738 28.5977Z" fill="white"/>
<path d="M114.711 28.2791C113.737 27.9542 113.21 27.6606 112.549 27.0608C111.881 26.4611 111.594 26.2799 111.314 26.2799C111.154 26.2799 111.16 26.2612 111.521 25.7989C111.721 25.5303 111.941 25.2179 112.001 25.0992L112.108 24.8931L112.502 24.9368C113.049 24.993 113.203 25.0805 113.904 25.7427C114.371 26.1862 114.625 26.3674 115.012 26.5486C115.733 26.8859 116.44 27.0421 117.288 27.0484C118.082 27.0608 118.069 27.0484 117.742 27.5044C117.375 28.0042 116.634 28.3165 115.646 28.3728C115.212 28.404 115.038 28.3853 114.711 28.2791Z" fill="white"/>
<path d="M116.514 25.9988C115.653 25.8239 115.058 25.5366 114.398 24.993C113.79 24.4933 113.39 24.3308 112.816 24.3558L112.362 24.3746L112.442 24.1871C112.515 24.031 112.596 23.7124 112.776 22.8627C112.809 22.7128 113.109 22.5941 113.437 22.5941C113.804 22.5941 114.344 22.9564 115.312 23.856C115.826 24.3308 116.387 24.8119 116.56 24.9306C117.321 25.4366 118.256 25.6802 119.297 25.6428L119.951 25.624L119.597 25.7677C119.41 25.8489 119.07 25.9551 118.85 25.9988C118.349 26.1113 117.054 26.1113 116.514 25.9988Z" fill="white"/>
<path d="M118.349 24.437C117.682 24.2996 117.048 23.9622 116.28 23.3375C114.792 22.1381 113.877 21.7695 113.13 22.0818L112.829 22.2068L112.789 21.4758C112.762 21.076 112.729 20.6762 112.702 20.5887C112.662 20.4326 112.682 20.4201 113.103 20.3139C114.057 20.0702 115.065 20.4013 117.181 21.657C118.316 22.3255 120.125 23.1876 120.946 23.45C121.299 23.5562 121.653 23.6124 122.16 23.6374C122.881 23.6749 122.881 23.6749 122.721 23.7936C122.454 23.9872 121.747 24.2746 121.253 24.3746C120.578 24.5183 118.903 24.5557 118.349 24.437Z" fill="white"/>
<path d="M121.913 22.5316C121.186 22.3942 120.044 21.9381 117.915 20.9323C116.3 20.1639 115.766 19.964 114.945 19.8203C113.997 19.6516 113.477 19.7079 112.903 20.0515L112.622 20.2139L112.415 19.6704C112.302 19.3705 112.088 18.9457 111.948 18.7208C111.801 18.4959 111.694 18.3085 111.701 18.296C111.714 18.2897 112.015 18.2085 112.375 18.1273C114.177 17.6962 115.539 18.0586 118.783 19.8453C120.885 21.001 122.154 21.4633 123.789 21.6633C124.376 21.732 125.845 21.7132 126.125 21.6258C126.405 21.5383 125.851 21.9194 125.391 22.1318C124.236 22.6503 123.182 22.769 121.913 22.5316Z" fill="white"/>
<path d="M123.789 20.4638C123.222 20.3888 122.14 20.1202 121.626 19.9265C121.386 19.839 120.385 19.3892 119.404 18.9394C116.567 17.615 115.799 17.3839 114.311 17.3776C113.263 17.3776 112.976 17.4401 112.048 17.8399L111.501 18.0773L111.274 17.765L111.047 17.4526L111.341 17.2027C111.968 16.6842 112.876 16.3968 114.264 16.2719C115.279 16.1782 115.733 16.2219 118.783 16.6904C124.143 17.5088 124.83 17.5963 126.125 17.5963C127.547 17.5963 128.581 17.4151 129.536 17.0028C129.81 16.8903 130.03 16.8029 130.03 16.8154C130.03 16.9278 129.569 17.9024 129.349 18.2522C128.495 19.6079 127.734 20.1639 126.345 20.4325C125.785 20.5387 124.476 20.5575 123.789 20.4638Z" fill="white"/>
<path d="M110.773 17.0965C110.72 17.0403 110.673 16.9653 110.673 16.9278C110.673 16.7904 111.835 15.8408 112.522 15.4035C114.144 14.3915 116.02 13.723 118.115 13.4106C119.397 13.2232 120.498 13.1545 124.837 13.0046C128.681 12.8671 129.723 12.7109 130.984 12.08C131.431 11.8613 131.431 11.8613 131.598 12.3736C131.712 12.7297 131.725 13.4356 131.625 13.8479C131.512 14.3102 131.104 15.0099 130.737 15.366C130.13 15.9595 128.922 16.4593 127.76 16.5905C126.445 16.7467 125.438 16.6842 122.02 16.2219C117.101 15.5597 115.639 15.4472 114.351 15.6222C112.903 15.8221 111.875 16.2281 111.247 16.8466C110.907 17.1777 110.873 17.1965 110.773 17.0965Z" fill="white"/>
<path d="M110.373 16.5093C110.259 16.3156 110.259 16.2719 110.339 16.1157C110.473 15.8658 112.335 14.1416 113.009 13.6356C114.464 12.5548 115.98 11.9425 118.863 11.2866C120.578 10.893 121.399 10.7493 123.642 10.437C127.533 9.90589 130.25 9.31249 131.498 8.72519C131.999 8.48779 132.052 8.51279 132.086 9.05629C132.119 9.51859 131.925 10.0559 131.618 10.387C131.278 10.7493 130.317 11.1242 129.162 11.3428C128.214 11.5302 127.62 11.5865 125.024 11.7239C119.824 12.005 118.095 12.2362 116.08 12.9046C113.964 13.6168 111.835 15.0162 110.78 16.3968C110.64 16.5718 110.52 16.7217 110.513 16.7217C110.5 16.7217 110.44 16.6217 110.373 16.5093Z" fill="white"/>
<path d="M109.952 15.6721C109.872 15.4722 109.806 15.2598 109.806 15.1973C109.806 15.1349 109.926 14.86 110.066 14.5914C110.893 13.0545 111.808 12.2174 113.55 11.4303C115.005 10.768 118.136 9.6873 121.373 8.7252C126.566 7.18838 128.154 6.59489 130.644 5.27048L131.291 4.92688L131.678 5.1018C132.346 5.40792 132.633 5.72653 132.633 6.15134C132.633 6.63238 132.339 7.06968 131.732 7.50699C131.004 8.0255 130.17 8.3066 127.714 8.8814C126.118 9.25 125.378 9.3937 122.821 9.8185C121.213 10.0809 120.331 10.2745 118.549 10.7556C115.112 11.6801 113.777 12.3736 111.741 14.2915C111.281 14.7226 110.74 15.2911 110.54 15.5534C110.339 15.8158 110.159 16.0282 110.139 16.0282C110.119 16.0345 110.039 15.872 109.952 15.6721Z" fill="white"/>
<path d="M55 0.8H55.9L56.3 0.9C56.4 1 56.5 1.1 56.6 1.2C56.7 1.2 56.8 1.2 56.9 1.2L57 1.3C57.1 1.3 57.2 1.3 57.3 1.3C57.4 1.3 57.5 1.3 57.6 1.3C57.7 1.3 57.8 1.3 58 1.3C58.2 1.3 58.3 1.4 58.5 1.5C58.7 1.6 58.9 1.7 59 1.8C59.1 1.9 59.2 1.9 59.3 1.9C59.4 1.9 59.4 1.9 59.5 1.9C59.6 2 59.7 2 59.8 2H60.1C60.1 2 60.2 2 60.4 2C60.5 2 60.7 2.1 60.8 2.2C61 2.2 61.1 2.3 61.2 2.3L61.4 2.4H61.5C61.6 2.6 61.6 2.8 61.7 2.9C61.8 3.1 61.8 3.3 61.9 3.5C61.9 3.7 62 3.9 62 4.1C62 4.3 62 4.4 62 4.6C62 4.8 62 4.9 61.9 5.1C61.7 5.7 61.5 6.1 61.3 6.3C61 6.8 60.9 7 60.9 7.1C60.8 7.1 60.8 7.2 60.8 7.2C60.7 7.2 60.7 7.2 60.6 7.2H70.3C70.3 7.3 70.4 7.4 70.4 7.5C70.5 7.7 70.5 7.8 70.6 7.8C71.1 7.9 71.6 8 72.1 8.1C72.6 8.2 73.2 8.4 73.7 8.5C74.2 8.6 74.7 8.7 75 8.8C75.4 8.9 75.7 8.9 75.8 8.9C76 8.9 76.2 8.7 76.2 8.3C76.2 8.2 76.3 8 76.3 7.8L77 6.3C77 6.3 77 6.2 77 6C77 5.8 77 5.6 77 5.4C77 5.1 77.1 4.9 77.1 4.6H78.3V8.6V8.9V9C78.3 9.1 78.4 9.1 78.6 9.1C78.7 9.2 79.1 9.2 79.9 9.2C80.7 9.2 81.7 9.2 82.9 9.2C84.1 9.2 85.4 9.2 86.7 9.2C88 9.2 89.3 9.2 90.5 9.2C90.9 9.2 91.3 9.2 91.7 9.2C92 9.2 92.3 9.2 92.6 9.2C92.9 9.2 93.1 9.2 93.3 9.2C93.6 9.2 93.8 9.2 94.1 9.2C94.4 9.2 94.7 9.2 94.9 9.1C95.4 9.1 95.8 9.1 96 9.1C96.2 9.1 96.3 9.1 96.3 9.2C96.5 10.1 96.7 10.7 96.6 10.9C96.6 11.1 96.4 11.2 96.3 11.2C96.2 11.1 95.9 11.1 95.3 11.1C94.7 11.1 94.1 11.1 93.5 11C92.9 11 92.3 11 91.8 10.9C91.2 10.9 90.9 10.9 90.9 10.8H78.8C78.8 10.9 78.7 10.9 78.4 10.9V11.4H80L80.6 12V13.7H79.8C79.7 13.7 79.6 13.6 79.5 13.6C79.4 13.6 79.4 13.5 79.4 13.5C79.3 13.5 79.3 13.5 79.3 13.5C79.2 13.5 79.1 13.5 79 13.5C78.9 13.5 78.8 13.5 78.6 13.5C78.4 13.5 78.2 13.6 78 13.6L72.4 13.8C71.6 13.9 70.9 13.9 70.3 14C69.6 14 69.3 14 69.3 14C69.2 14.2 69 14.4 68.8 14.7C68.6 15 68.3 15.2 67.8 15.2C67.4 15.2 67 14.9 66.5 14.3C66.3 14.3 66.2 14.3 66.1 14.2C65.8 14.1 65.7 14.1 65.6 14.1C65.7 14.5 65.7 14.8 65.7 15C65.7 15.2 65.7 15.4 65.7 15.7C65.7 16 65.7 16.3 65.7 16.5C65.7 16.6 65.6 16.8 65.5 16.9C65.3 16.9 65.1 16.9 64.9 16.9C64.7 16.9 64.5 16.8 64.3 16.7C64.2 16.7 63.8 16.7 63 16.7C62.2 16.7 61.3 16.7 60.2 16.7C59.1 16.7 58 16.7 56.7 16.7C55.8 16.7 55 16.7 54.3 16.7C54.3 16.8 54.4 17 54.4 17.1C54.7 18.2 54.8 19.1 54.8 19.8V26.6C54.8 27.2 54.7 27.5 54.6 27.5C54.4 27.5 54.3 27.4 54.1 27.4H46.2C45.8 27.4 45.6 27.4 45.5 27.3C45.4 27.2 45.3 27 45.3 26.7L45.2 15C45.2 14.9 45.3 14.8 45.3 14.7C45.3 14.5 45.1 14.4 44.8 14.4H44.7C44.6 14.4 44.5 14.5 44.4 14.7C44.3 14.7 44.3 14.8 44.3 15C44.3 15.2 44.3 15.3 44.3 15.5C44.3 15.6 44.3 15.7 44.4 15.8C44.4 15.9 44.3 16 44.3 16.1C44.2 16.2 44.1 16.2 44 16.2C44.1 16.4 44.1 16.5 44.1 16.7C44.1 16.8 44.1 17 44.1 17.2C44.1 17.6 44.1 17.9 44 18.3C43.9 18.6 43.6 18.8 43.2 18.9C42.9 19.1 42.5 19.2 42 19.2C41.6 19.2 41.2 19.2 40.8 19.2C40.4 19.2 40 19.1 39.8 19.1C39.5 19.1 39.4 19 39.4 18.9C39.3 18.9 39.2 18.9 39.1 18.8C38.9 18.8 38.8 18.7 38.7 18.6C38.7 18.7 38.6 19 38.4 19.5C38.2 20 38 20.5 37.7 21.1C37.5 21.7 37.3 22.2 37.1 22.7C36.9 23.2 36.8 23.4 36.8 23.5C36.8 23.6 36.9 23.7 37 23.9C37 24.1 37 24.2 37 24.3C37 24.4 36.9 24.5 36.8 24.6C36.8 24.8 36.6 25 36.4 25.2C36.1 25.4 35.6 25.4 34.9 25.2C34.5 25.1 34.1 25 33.7 24.8C33.3 24.6 32.9 24.5 32.5 24.3C32.1 24.2 31.7 24 31.2 23.8H30.9L31 23.6C31.3 23.1 31.6 22.5 32 21.9C32.4 21.2 32.8 20.6 33.1 20C33.5 19.4 33.8 18.9 34 18.5C34.2 18.1 34.4 17.8 34.4 17.8C34.5 17.6 34.5 17.4 34.4 17.1C34.3 16.8 34.1 16.5 33.9 16.4L33.4 16.1C33.3 16 33.1 16 33 15.9L25.8 15.4H20C18.7 15.4 17.3 15.5 16 15.8C14.4 16.1 13.6 16.4 13.5 16.9C13.4 17.1 13.4 17.4 13.4 17.9C13.5 18.4 13.7 18.9 13.9 19.3C14.2 19.7 14.3 19.9 14.2 20.1C14.2 20.2 14.1 20.2 13.9 20.2L1.2 20.6C0.9 20.6 0.6 20.4 0.4 20.1C0.1 19.8 0 19.4 0 18.9V8.3C0.1 8.1 0.3 8 0.6 7.9C1.2 7.7 1.8 7.7 2.5 8C3 8.2 5.4 8.5 9.6 9C10 9 10.5 9.4 11 10C11.5 10.6 12.1 10.9 12.6 11C13.1 11 13.8 11 14.8 10.9C15.6 10.8 16.4 10.7 17.1 10.6C18.7 10.3 20 9.9 21.2 9.5C21.9 9.2 22.9 8.8 24.1 8.2C25.7 7.5 27.4 7.2 29.2 7.1C29.4 7.1 29.5 7.1 29.7 7C30.4 6.9 31.1 6.8 31.7 6.7C32.4 6.6 32.9 6.6 33.2 6.6V6.5C33.3 6.2 33.5 5.8 33.6 5.5C33.7 5.2 33.8 5 33.9 4.8C34.1 4.6 34.3 4.5 34.6 4.4C34.8 4.3 35.2 4.3 35.6 4.3C36 4.4 36.4 4.5 36.8 4.6C37.2 4.7 37.6 4.8 37.9 4.9L39 5.3C39.1 5.3 39.1 5.4 39.2 5.6C39.3 5.6 39.3 5.7 39.4 5.9C39.4 6 39.5 6.2 39.5 6.4V6.9H45.4V6.3H48.5V6.8C48.7 6.8 49 6.8 49.4 6.8C49.8 6.8 50.2 6.8 50.6 6.8C51 6.8 51.4 6.8 51.7 6.8C52 6.8 52.2 6.9 52.2 6.9C52.3 6.9 52.6 6.9 53.1 6.8C53.6 6.8 54.3 6.7 55 6.7C55.8 6.7 56.5 6.6 57.3 6.5C58.1 6.5 58.9 6.4 59.6 6.2C59.7 6.2 59.8 6.1 59.9 5.9C60 5.8 60.1 5.7 60.3 5.5C60.4 5.3 60.5 5 60.6 4.7C60.3 4.5 60.1 4.3 59.9 4.3C59.8 4.3 59.7 4.2 59.5 4.1C59.3 4.1 59.1 4 59.1 3.9C58.9 3.8 58.6 3.7 58.3 3.6C58 3.5 57.7 3.5 57.4 3.4H57.3C57.1 3.3 56.8 3.2 56.4 3.2L55.7 3.1C55.5 3.1 55.3 3.1 55.2 3C55.1 3 55 2.8 54.8 2.6H54C53.7 2.6 53.5 2.6 53.4 2.6C53.3 2.6 53.2 2.6 53 2.6C52.8 2.3 52.6 2 52.6 1.7C52.5 1.4 52.7 0.9 53.2 0.0999999V0H53.3C53.9 0.2 54.3 0.3 54.5 0.4C54.8 0.6 54.9 0.7 55 0.8ZM43.1 16.2C42.7 16.3 41.8 16.3 40.6 16.2C40.5 16.4 40.4 16.6 40.4 16.8C40.4 17.1 40.5 17.4 40.7 17.6C40.9 17.8 41.2 17.9 41.5 17.9H42.4C42.6 17.9 42.8 17.8 43 17.6C43.2 17.4 43.3 17.2 43.3 16.8C43.3 16.6 43.2 16.4 43.1 16.2Z" fill="white"/>
</svg>
