<svg width="111" height="29" viewBox="0 0 111 29" fill="none" xmlns="http://www.w3.org/2000/svg">
<path d="M81.158 27.823C82.739 26.3487 83.494 25.4491 83.994 24.4683C84.528 23.4187 84.875 22.0756 84.969 20.7199C85.269 16.2656 85.843 12.8671 86.617 10.9305C87.011 9.9497 87.358 9.4561 88.206 8.6565C89.154 7.76938 90.001 7.22587 91.577 6.50744C93.372 5.68281 94.694 5.23301 98.051 4.29592C99.787 3.81488 100.928 3.44629 104.425 2.24058C106.321 1.58462 109.725 0.366406 110.673 0.00406609C110.82 -0.0521639 111 0.485096 111 0.978626C111 1.40345 110.973 1.5034 110.74 1.94071C110.299 2.77784 109.612 3.3276 107.863 4.25844C105.6 5.45791 104.052 6.07638 99.486 7.56947C97.003 8.3879 95.982 8.7564 94.213 9.4874C91.343 10.6744 90.402 11.1804 89.421 12.0612C88.747 12.6672 88.339 13.2232 87.932 14.1166L87.619 14.7913L87.539 14.4602C87.438 14.0916 87.425 13.3919 87.498 13.1732C87.545 13.0483 87.532 13.0296 87.425 13.0483C87.358 13.0608 87.225 13.217 87.118 13.4231C86.944 13.7355 86.918 13.8917 86.838 14.835C86.784 15.416 86.698 16.1719 86.637 16.5093C86.577 16.8529 86.504 17.6088 86.471 18.1898C86.304 20.9198 86.057 22.188 85.369 23.7748C84.915 24.8431 84.395 25.649 83.774 26.2737C82.9 27.1421 81.004 28.5102 80.016 28.985C79.903 29.0412 80.397 28.5415 81.158 27.823Z" fill="white"/>
<path d="M91.31 28.6727C90.696 28.6477 89.848 28.5415 89.468 28.4353C88.967 28.2978 88.76 28.1729 88.486 27.823C88.339 27.6481 88.179 27.4607 88.113 27.4107C88.012 27.3357 88.039 27.292 88.386 26.9922C88.713 26.711 88.813 26.661 89.04 26.6548C89.281 26.6548 89.334 26.686 89.674 27.0421C90.522 27.9292 90.869 28.2104 91.43 28.4665C91.73 28.6039 91.93 28.7101 91.877 28.7039C91.824 28.6976 91.57 28.6852 91.31 28.6727Z" fill="white"/>
<path d="M81.738 28.5977C81.585 28.5602 81.591 28.5415 81.938 28.3416C82.559 27.9667 83.607 27.1546 84.275 26.5299C85.496 25.3741 86.277 23.9935 86.731 22.1568C86.804 21.8632 86.991 20.7137 87.138 19.5954C87.292 18.4772 87.445 17.3589 87.485 17.1028L87.559 16.6405L87.745 17.1215C87.846 17.3901 88.206 18.0711 88.546 18.6333C89.468 20.1827 89.681 20.8449 89.681 22.1693C89.674 23.6999 89.254 24.7306 88.099 26.0051C87.565 26.5923 87.258 26.8547 86.671 27.2233C85.423 28.0042 83.827 28.5227 82.366 28.6164C82.112 28.6289 81.825 28.6227 81.738 28.5977Z" fill="white"/>
<path d="M92.711 28.2791C91.737 27.9542 91.21 27.6606 90.549 27.0608C89.881 26.4611 89.594 26.2799 89.314 26.2799C89.154 26.2799 89.16 26.2612 89.521 25.7989C89.721 25.5303 89.941 25.2179 90.001 25.0992L90.108 24.8931L90.502 24.9368C91.049 24.993 91.203 25.0805 91.904 25.7427C92.371 26.1862 92.625 26.3674 93.012 26.5486C93.733 26.8859 94.44 27.0421 95.288 27.0484C96.082 27.0608 96.069 27.0484 95.742 27.5044C95.375 28.0042 94.634 28.3165 93.646 28.3728C93.212 28.404 93.038 28.3853 92.711 28.2791Z" fill="white"/>
<path d="M94.514 25.9988C93.653 25.8239 93.058 25.5366 92.398 24.993C91.79 24.4933 91.39 24.3308 90.816 24.3558L90.362 24.3746L90.442 24.1871C90.515 24.031 90.596 23.7124 90.776 22.8627C90.809 22.7128 91.109 22.5941 91.437 22.5941C91.804 22.5941 92.344 22.9564 93.312 23.856C93.826 24.3308 94.387 24.8119 94.56 24.9306C95.321 25.4366 96.256 25.6802 97.297 25.6428L97.951 25.624L97.597 25.7677C97.41 25.8489 97.07 25.9551 96.85 25.9988C96.349 26.1113 95.054 26.1113 94.514 25.9988Z" fill="white"/>
<path d="M96.349 24.437C95.682 24.2996 95.048 23.9622 94.28 23.3375C92.792 22.1381 91.877 21.7695 91.13 22.0818L90.829 22.2068L90.789 21.4758C90.762 21.076 90.729 20.6762 90.702 20.5887C90.662 20.4326 90.682 20.4201 91.103 20.3139C92.057 20.0702 93.065 20.4013 95.181 21.657C96.316 22.3255 98.125 23.1876 98.946 23.45C99.299 23.5562 99.653 23.6124 100.16 23.6374C100.881 23.6749 100.881 23.6749 100.721 23.7936C100.454 23.9872 99.747 24.2746 99.253 24.3746C98.578 24.5183 96.903 24.5557 96.349 24.437Z" fill="white"/>
<path d="M99.913 22.5316C99.186 22.3942 98.044 21.9381 95.915 20.9323C94.3 20.1639 93.766 19.964 92.945 19.8203C91.997 19.6516 91.477 19.7079 90.903 20.0515L90.622 20.2139L90.415 19.6704C90.302 19.3705 90.088 18.9457 89.948 18.7208C89.801 18.4959 89.694 18.3085 89.701 18.296C89.714 18.2897 90.015 18.2085 90.375 18.1273C92.177 17.6962 93.539 18.0586 96.783 19.8453C98.885 21.001 100.154 21.4633 101.789 21.6633C102.376 21.732 103.845 21.7132 104.125 21.6258C104.405 21.5383 103.851 21.9194 103.391 22.1318C102.236 22.6503 101.182 22.769 99.913 22.5316Z" fill="white"/>
<path d="M101.789 20.4638C101.222 20.3888 100.14 20.1202 99.626 19.9265C99.386 19.839 98.385 19.3892 97.404 18.9394C94.567 17.615 93.799 17.3839 92.311 17.3776C91.263 17.3776 90.976 17.4401 90.048 17.8399L89.501 18.0773L89.274 17.765L89.047 17.4526L89.341 17.2027C89.968 16.6842 90.876 16.3968 92.264 16.2719C93.279 16.1782 93.733 16.2219 96.783 16.6904C102.143 17.5088 102.83 17.5963 104.125 17.5963C105.547 17.5963 106.581 17.4151 107.536 17.0028C107.81 16.8903 108.03 16.8029 108.03 16.8154C108.03 16.9278 107.569 17.9024 107.349 18.2522C106.495 19.6079 105.734 20.1639 104.345 20.4325C103.785 20.5387 102.476 20.5575 101.789 20.4638Z" fill="white"/>
<path d="M88.773 17.0965C88.72 17.0403 88.673 16.9653 88.673 16.9278C88.673 16.7904 89.835 15.8408 90.522 15.4035C92.144 14.3915 94.02 13.723 96.115 13.4106C97.397 13.2232 98.498 13.1545 102.837 13.0046C106.681 12.8671 107.723 12.7109 108.984 12.08C109.431 11.8613 109.431 11.8613 109.598 12.3736C109.712 12.7297 109.725 13.4356 109.625 13.8479C109.512 14.3102 109.104 15.0099 108.737 15.366C108.13 15.9595 106.922 16.4593 105.76 16.5905C104.445 16.7467 103.438 16.6842 100.02 16.2219C95.101 15.5597 93.639 15.4472 92.351 15.6222C90.903 15.8221 89.875 16.2281 89.247 16.8466C88.907 17.1777 88.873 17.1965 88.773 17.0965Z" fill="white"/>
<path d="M88.373 16.5093C88.259 16.3156 88.259 16.2719 88.339 16.1157C88.473 15.8658 90.335 14.1416 91.009 13.6356C92.464 12.5548 93.98 11.9425 96.863 11.2866C98.578 10.893 99.399 10.7493 101.642 10.437C105.533 9.9059 108.25 9.3125 109.498 8.7252C109.999 8.4878 110.052 8.5128 110.086 9.0563C110.119 9.5186 109.925 10.0559 109.618 10.387C109.278 10.7493 108.317 11.1242 107.162 11.3428C106.214 11.5302 105.62 11.5865 103.024 11.7239C97.824 12.005 96.095 12.2362 94.08 12.9046C91.964 13.6168 89.835 15.0162 88.78 16.3968C88.64 16.5718 88.52 16.7217 88.513 16.7217C88.5 16.7217 88.44 16.6217 88.373 16.5093Z" fill="white"/>
<path d="M87.952 15.6721C87.872 15.4722 87.806 15.2598 87.806 15.1973C87.806 15.1349 87.926 14.86 88.066 14.5914C88.893 13.0545 89.808 12.2174 91.55 11.4303C93.005 10.768 96.136 9.6873 99.373 8.7252C104.566 7.18838 106.154 6.59489 108.644 5.27048L109.291 4.92688L109.678 5.1018C110.346 5.40792 110.633 5.72653 110.633 6.15134C110.633 6.63238 110.339 7.06968 109.732 7.50699C109.004 8.0255 108.17 8.3066 105.714 8.8814C104.118 9.25 103.378 9.3937 100.821 9.8185C99.213 10.0809 98.331 10.2745 96.549 10.7556C93.112 11.6801 91.777 12.3736 89.741 14.2915C89.281 14.7226 88.74 15.2911 88.54 15.5534C88.339 15.8158 88.159 16.0282 88.139 16.0282C88.119 16.0345 88.039 15.872 87.952 15.6721Z" fill="white"/>
<path d="M39.1 14.8C39.1 14.5 39 14.2 38.8 14C38.6 13.8 38.4 13.7 38.1 13.7H36.2C36.1 13.8 36.1 13.9 36 14.2C36 14.4 36.1 14.7 36.2 15.1C36.3 15.4 36.4 15.6 36.3 15.6C36.1 15.7 35.8 15.5 35.4 14.9C35.3 14.7 35.2 14.5 35.1 14.2V13.7C34.9 13.8 34.8 13.9 34.6 14C34.3 14.3 34.2 14.5 34.2 14.8C34.2 15.2 34.3 15.5 34.5 15.8C34.7 16.1 35 16.3 35.4 16.3H37.8C38.3 16.3 38.6 16.1 38.8 15.8C39 15.5 39.1 15.2 39.1 14.8ZM68.9 4.4C68.8 4.7 68.7 4.8 68.7 4.9C68.7 5 68.7 5.1 68.7 5.4L69 5.9H70.8L70.9 3.6H69.4L68.9 4.4ZM73 8.9C72.9 8.9 72.9 8.9 72.8 8.8L72.7 8.7H71.5C71.3 9.1 71.2 9.4 71 9.4H70.4C70.3 9.4 70.2 9.3 70.2 9.2L70.1 9H67.7V9.6C67.7 9.8 67.6 9.9 67.4 10.1C67.2 10.3 67 10.4 66.7 10.4H47.9C47.8 10.4 47.6 10.3 47.5 10L47.3 9.6L47 10.4H46.7V14.9L47 15.3C47 15.4 46.9 15.5 46.7 15.6C46.6 15.7 46.5 15.9 46.6 16.4C46.7 17.3 46.7 17.8 46.7 18C46.7 18.5 46.7 19 46.8 19.4C46.9 19.7 47 20.2 47.1 20.7C47.3 21.4 47.6 22.6 48.2 24.3L48.4 24.4C48.5 24.5 48.4 24.6 48.3 24.7C44.4 25.9 42.4 26.6 42.1 26.6C41.9 26.6 41.8 26.5 41.8 26.4C41.7 26.3 41.7 26.2 41.8 26C41.8 25.9 41.7 25.5 41.4 24.6C41 23.4 40.8 22.3 40.6 21.2C40.4 20 40.3 19 40.2 18V16.9L39.7 16.7V16.3C39.5 16.6 39.3 16.8 39.2 16.8H34.8C34.6 17.1 34.5 17.2 34.4 17.2C34.3 17.2 34.2 17.1 34.1 17L33.9 16.9C33.8 16.8 33.7 16.8 33.6 16.8C33.4 16.8 33.2 16.9 33.1 17.2C33 17.4 32.9 17.6 32.8 17.7C32.6 17.9 32.5 18 32.5 18.1C32.4 18.2 32.5 18.4 32.6 18.6C32.8 18.8 32.8 19 32.8 19.1C32.8 19.2 32.6 19.2 32.3 19.4C32 19.5 31.8 19.7 31.7 19.9C31.7 20 31.4 20.5 30.9 21.4C30.5 22.2 30.2 22.7 30.2 22.8C30.2 22.9 30.3 23 30.5 23.3C30.7 23.5 30.7 23.7 30.5 23.9C30.2 24.3 29.1 24.3 27 24C26.2 23.9 25.6 23.7 25.2 23.5C24.7 23.2 24.6 23 24.7 22.6C24.9 22.2 26.6 19.3 29.6 14.1C29.8 13.8 29.8 13.4 29.6 12.9C29.4 12.4 29.2 12.1 28.9 12C28.7 12 28.4 12 28.2 12C28 12 27.9 12 27.8 12C27.5 11.9 27.4 11.7 27.4 11.4C27.4 11.1 27.4 10.8 27.4 10.5C27.4 10 27.4 9.6 27.4 9.4H27.2L26.7 9.2V9H20.7L20.6 9.4C20.5 9.7 20.2 10 19.9 10.3C19.5 10.6 19.2 10.8 19 11.1L18.7 11.4L18 12.7H17.1L16.5 13.8H14.2V13.2H12.8C10.8 14.7 9.7 15.6 9.5 15.7C9.3 15.8 9.1 15.9 9 15.9C8.9 15.9 8.8 15.8 8.7 15.7V15.3L2.5 19.3L2.4 19.8C2.3 20.1 2.1 20.3 2 20.3C1.8 20.4 1.6 20.3 1.3 20.3C1 20.2 0.7 20.1 0.6 19.9C0.3 19.7 0.2 19.6 0.2 19.5C0.1 19.5 0 19.3 0 19V7.1C0 6.8 0.1 6.5 0.4 6.3C0.6 6 1 5.8 1.4 5.8H20.8C20.9 5.8 21 5.9 21 6.1C21 6.2 21.1 6.3 21.1 6.4H26.7V6.2L27.2 6H28.2V5.2L28.4 5C28.6 4.9 29 4.8 29.5 4.8H31.8L32.6 3.6L32.5 3.2C32.3 3.1 32.2 3.1 32 3C31.7 2.8 31.5 2.5 31.5 2.1C31.5 1.8 31.6 1.6 31.8 1.4C32 1.2 32.3 1 32.6 1C32.9 1 33.2 1.1 33.5 1.4C33.7 1.6 33.8 1.9 33.8 2.1V4.4H34.3V3.8H35.7V4.6H46.7C46.9 4.6 47 4.7 47.1 4.8C47.2 4.9 47.3 5 47.3 5.2C47.3 5.3 47.5 5.3 47.8 5H49C49 4.9 49 4.9 49 4.8C49.1 4.7 49.2 4.6 49.3 4.6H66.7C66.9 4.6 67 4.7 67.1 4.8C67.2 4.9 67.2 4.9 67.3 5L68.2 3.9C68.8 3.1 69.1 2.6 69.3 2.5L69.5 2.3C69.7 2.2 70.1 2.1 70.5 2.1H71.5V7.1H72.7L72.8 6.9C72.9 6.8 73 6.7 73.1 6.7H77.8C78 6.7 78.2 6.8 78.3 6.9C78.5 7.1 78.6 7.3 78.6 7.7V8.1C78.6 8.4 78.5 8.6 78.3 8.7C78.2 8.9 78 8.9 77.8 8.9H73Z" fill="white"/>
</svg>
