<svg width="128" height="29" viewBox="0 0 128 29" fill="none" xmlns="http://www.w3.org/2000/svg">
<path d="M98.158 27.823C99.739 26.3487 100.494 25.4491 100.994 24.4683C101.528 23.4187 101.875 22.0756 101.969 20.7199C102.269 16.2656 102.843 12.8671 103.617 10.9305C104.011 9.9497 104.358 9.4561 105.206 8.6565C106.154 7.76938 107.001 7.22587 108.577 6.50744C110.372 5.68281 111.694 5.23301 115.051 4.29592C116.787 3.81488 117.928 3.44629 121.425 2.24058C123.321 1.58462 126.725 0.366406 127.673 0.00406609C127.82 -0.0521639 128 0.485096 128 0.978626C128 1.40345 127.973 1.5034 127.74 1.94071C127.299 2.77784 126.612 3.3276 124.863 4.25844C122.6 5.45791 121.052 6.07638 116.486 7.56947C114.003 8.3879 112.982 8.7564 111.213 9.4874C108.343 10.6744 107.402 11.1804 106.421 12.0612C105.747 12.6672 105.339 13.2232 104.932 14.1166L104.619 14.7913L104.539 14.4602C104.438 14.0916 104.425 13.3919 104.498 13.1732C104.545 13.0483 104.532 13.0296 104.425 13.0483C104.358 13.0608 104.225 13.217 104.118 13.4231C103.944 13.7355 103.918 13.8917 103.838 14.835C103.784 15.416 103.698 16.1719 103.637 16.5093C103.577 16.8529 103.504 17.6088 103.471 18.1898C103.304 20.9198 103.057 22.188 102.369 23.7748C101.915 24.8431 101.395 25.649 100.774 26.2737C99.9 27.1421 98.004 28.5102 97.016 28.985C96.903 29.0412 97.397 28.5415 98.158 27.823Z" fill="white"/>
<path d="M108.31 28.6727C107.696 28.6477 106.848 28.5415 106.468 28.4353C105.967 28.2978 105.76 28.1729 105.486 27.823C105.339 27.6481 105.179 27.4607 105.113 27.4107C105.012 27.3357 105.039 27.292 105.386 26.9922C105.713 26.711 105.813 26.661 106.04 26.6548C106.281 26.6548 106.334 26.686 106.674 27.0421C107.522 27.9292 107.869 28.2104 108.43 28.4665C108.73 28.6039 108.93 28.7101 108.877 28.7039C108.824 28.6976 108.57 28.6852 108.31 28.6727Z" fill="white"/>
<path d="M98.738 28.5977C98.585 28.5602 98.591 28.5415 98.938 28.3416C99.559 27.9667 100.607 27.1546 101.275 26.5299C102.496 25.3741 103.277 23.9935 103.731 22.1568C103.804 21.8632 103.991 20.7137 104.138 19.5954C104.292 18.4772 104.445 17.3589 104.485 17.1028L104.559 16.6405L104.745 17.1215C104.846 17.3901 105.206 18.0711 105.546 18.6333C106.468 20.1827 106.681 20.8449 106.681 22.1693C106.674 23.6999 106.254 24.7306 105.099 26.0051C104.565 26.5923 104.258 26.8547 103.671 27.2233C102.423 28.0042 100.827 28.5227 99.366 28.6164C99.112 28.6289 98.825 28.6227 98.738 28.5977Z" fill="white"/>
<path d="M109.711 28.2791C108.737 27.9542 108.21 27.6606 107.549 27.0608C106.881 26.4611 106.594 26.2799 106.314 26.2799C106.154 26.2799 106.16 26.2612 106.521 25.7989C106.721 25.5303 106.941 25.2179 107.001 25.0992L107.108 24.8931L107.502 24.9368C108.049 24.993 108.203 25.0805 108.904 25.7427C109.371 26.1862 109.625 26.3674 110.012 26.5486C110.733 26.8859 111.44 27.0421 112.288 27.0484C113.082 27.0608 113.069 27.0484 112.742 27.5044C112.375 28.0042 111.634 28.3165 110.646 28.3728C110.212 28.404 110.038 28.3853 109.711 28.2791Z" fill="white"/>
<path d="M111.514 25.9988C110.653 25.8239 110.058 25.5366 109.398 24.993C108.79 24.4933 108.39 24.3308 107.816 24.3558L107.362 24.3746L107.442 24.1871C107.515 24.031 107.596 23.7124 107.776 22.8627C107.809 22.7128 108.109 22.5941 108.437 22.5941C108.804 22.5941 109.344 22.9564 110.312 23.856C110.826 24.3308 111.387 24.8119 111.56 24.9306C112.321 25.4366 113.256 25.6802 114.297 25.6428L114.951 25.624L114.597 25.7677C114.41 25.8489 114.07 25.9551 113.85 25.9988C113.349 26.1113 112.054 26.1113 111.514 25.9988Z" fill="white"/>
<path d="M113.349 24.437C112.682 24.2996 112.048 23.9622 111.28 23.3375C109.792 22.1381 108.877 21.7695 108.13 22.0818L107.829 22.2068L107.789 21.4758C107.762 21.076 107.729 20.6762 107.702 20.5887C107.662 20.4326 107.682 20.4201 108.103 20.3139C109.057 20.0702 110.065 20.4013 112.181 21.657C113.316 22.3255 115.125 23.1876 115.946 23.45C116.299 23.5562 116.653 23.6124 117.16 23.6374C117.881 23.6749 117.881 23.6749 117.721 23.7936C117.454 23.9872 116.747 24.2746 116.253 24.3746C115.578 24.5183 113.903 24.5557 113.349 24.437Z" fill="white"/>
<path d="M116.913 22.5316C116.186 22.3942 115.044 21.9381 112.915 20.9323C111.3 20.1639 110.766 19.964 109.945 19.8203C108.997 19.6516 108.477 19.7079 107.903 20.0515L107.622 20.2139L107.415 19.6704C107.302 19.3705 107.088 18.9457 106.948 18.7208C106.801 18.4959 106.694 18.3085 106.701 18.296C106.714 18.2897 107.015 18.2085 107.375 18.1273C109.177 17.6962 110.539 18.0586 113.783 19.8453C115.885 21.001 117.154 21.4633 118.789 21.6633C119.376 21.732 120.845 21.7132 121.125 21.6258C121.405 21.5383 120.851 21.9194 120.391 22.1318C119.236 22.6503 118.182 22.769 116.913 22.5316Z" fill="white"/>
<path d="M118.789 20.4638C118.222 20.3888 117.14 20.1202 116.626 19.9265C116.386 19.839 115.385 19.3892 114.404 18.9394C111.567 17.615 110.799 17.3839 109.311 17.3776C108.263 17.3776 107.976 17.4401 107.048 17.8399L106.501 18.0773L106.274 17.765L106.047 17.4526L106.341 17.2027C106.968 16.6842 107.876 16.3968 109.264 16.2719C110.279 16.1782 110.733 16.2219 113.783 16.6904C119.143 17.5088 119.83 17.5963 121.125 17.5963C122.547 17.5963 123.581 17.4151 124.536 17.0028C124.81 16.8903 125.03 16.8029 125.03 16.8154C125.03 16.9278 124.569 17.9024 124.349 18.2522C123.495 19.6079 122.734 20.1639 121.345 20.4325C120.785 20.5387 119.476 20.5575 118.789 20.4638Z" fill="white"/>
<path d="M105.773 17.0965C105.72 17.0403 105.673 16.9653 105.673 16.9278C105.673 16.7904 106.835 15.8408 107.522 15.4035C109.144 14.3915 111.02 13.723 113.115 13.4106C114.397 13.2232 115.498 13.1545 119.837 13.0046C123.681 12.8671 124.723 12.7109 125.984 12.08C126.431 11.8613 126.431 11.8613 126.598 12.3736C126.712 12.7297 126.725 13.4356 126.625 13.8479C126.512 14.3102 126.104 15.0099 125.737 15.366C125.13 15.9595 123.922 16.4593 122.76 16.5905C121.445 16.7467 120.438 16.6842 117.02 16.2219C112.101 15.5597 110.639 15.4472 109.351 15.6222C107.903 15.8221 106.875 16.2281 106.247 16.8466C105.907 17.1777 105.873 17.1965 105.773 17.0965Z" fill="white"/>
<path d="M105.373 16.5093C105.259 16.3156 105.259 16.2719 105.339 16.1157C105.473 15.8658 107.335 14.1416 108.009 13.6356C109.464 12.5548 110.98 11.9425 113.863 11.2866C115.578 10.893 116.399 10.7493 118.642 10.437C122.533 9.9059 125.25 9.3125 126.498 8.7252C126.999 8.4878 127.052 8.5128 127.086 9.0563C127.119 9.5186 126.925 10.0559 126.618 10.387C126.278 10.7493 125.317 11.1242 124.162 11.3428C123.214 11.5302 122.62 11.5865 120.024 11.7239C114.824 12.005 113.095 12.2362 111.08 12.9046C108.964 13.6168 106.835 15.0162 105.78 16.3968C105.64 16.5718 105.52 16.7217 105.513 16.7217C105.5 16.7217 105.44 16.6217 105.373 16.5093Z" fill="white"/>
<path d="M104.952 15.6721C104.872 15.4722 104.806 15.2598 104.806 15.1973C104.806 15.1349 104.926 14.86 105.066 14.5914C105.893 13.0545 106.808 12.2174 108.55 11.4303C110.005 10.768 113.136 9.6873 116.373 8.7252C121.566 7.18838 123.154 6.59489 125.644 5.27048L126.291 4.92688L126.678 5.1018C127.346 5.40792 127.633 5.72653 127.633 6.15134C127.633 6.63238 127.339 7.06968 126.732 7.50699C126.004 8.0255 125.17 8.3066 122.714 8.8814C121.118 9.25 120.378 9.3937 117.821 9.8185C116.213 10.0809 115.331 10.2745 113.549 10.7556C110.112 11.6801 108.777 12.3736 106.741 14.2915C106.281 14.7226 105.74 15.2911 105.54 15.5534C105.339 15.8158 105.159 16.0282 105.139 16.0282C105.119 16.0345 105.039 15.872 104.952 15.6721Z" fill="white"/>
<path d="M96.5 6V9.7L96.4 9.9H78.7V9.2H79V8.9L73.3 8.8V8.6H70.9L70.4 8.8H66.3L67.1 9V9.7L66.9 9.9H66V10.2H65.3V8.9H65.5V8.7L63 8.6L63.1 8.9L63 9.5C63 9.6 62.9 9.6 62.9 9.6C62.8 9.7 62.8 9.7 62.7 9.7C62.6 9.7 62.6 9.6 62.5 9.6L62.3 9.5V9L62.2 8.8H61.7V9.6C61.7 9.7 61.6 9.7 61.5 9.8V9.9H61.2L61 10.4L46.8 10.5L46.5 10.3L46.2 10.2L45.5 10.5L45.4 9.5H44.7V10.1V10.2C44.7 10.3 44.6 10.3 44.6 10.4C44.5 10.4 44.5 10.5 44.4 10.5H44.3H44.2C44.1 10.5 44 10.6 44 10.7C43.9 10.8 43.9 10.9 43.8 10.9L43.7 11.1V14.4L43.9 14.5V14.8L43.4 14.9V16.1C43.5 17 43.6 17.9 43.7 18.7C43.9 19.5 44.2 20.5 44.5 21.7C44.7 22.3 44.8 22.8 45 23.3L45.2 23.5L39.4 25.1H39.2V24.9C39 24.3 38.8 23.6 38.6 22.9C38.2 21.4 37.9 20.2 37.7 19.5C37.5 18.8 37.4 18 37.4 17.2L37.3 16.2L36.9 16.3L36.4 16.2H32.8L31.6 16.3C31.5 16.3 31.5 16.3 31.4 16.3C31.2 16.3 31.1 16.3 31 16.4C30.9 16.5 30.8 16.6 30.8 16.6L30 18.2L30.4 18.7L30.3 18.8C30.1 18.9 30 18.9 29.8 19C29.7 19.1 29.6 19.1 29.5 19.2L29.4 19.3L27.7 22.5C27.6 22.6 27.6 22.7 27.7 22.8C27.7 22.9 27.8 23 27.9 23.1C28 23.2 28 23.2 28.1 23.2L27.9 23.5L22.5 22.2L27.4 13.7C27.5 13.6 27.5 13.5 27.5 13.4C27.6 13.2 27.6 12.9 27.6 12.7C27.5 12.4 27.4 12.2 27.3 12C27.2 11.8 27 11.7 26.9 11.5C26.7 11.4 26.6 11.3 26.4 11.3H25.2V11.5H24.9V9.4H23.9V9.1H20L18.8 9.9H15.2V10.2H12V12.2H9.8V13H8.7V12.2L5.1 14.5V12.6L0.5 14.9V15.7V15.8C0.3 15.9 0.3 15.9 0.2 15.9C0.1 15.9 0.1 15.9 0 15.8V15.7L0.1 5.4H4.2C4.3 5.4 4.3 5.5 4.4 5.6C4.5 5.7 4.5 5.9 4.5 6.1L15 6.2C15.1 6.2 15.1 6.3 15.1 6.3C15.2 6.4 15.2 6.4 15.2 6.5H23.7V6.2H24.7V5.9H25V6.2H26V5.6H27L27.1 5.7L29.7 1.6L29.8 1.4C29.9 1.3 30 1.2 30.1 1.2C30.2 1.1 30.3 1.1 30.5 1C30.6 1 30.7 1 30.7 1L43.6 2.4L44 2.5C44.3 2.6 44.5 2.7 44.7 2.9C44.8 3.1 45 3.3 45.1 3.6C45.2 3.7 45.2 3.8 45.3 3.9L45.2 6.4H45.5V5.3L46.3 5.5V5.1H46.6V5C46.6 4.9 46.7 4.9 46.7 4.9C46.8 4.9 46.8 4.8 46.9 4.8L61 5L61.2 5.3V5.7H61.6H61.7C61.7 5.9 61.8 5.9 61.8 6C61.8 6.1 61.9 6.4 61.9 6.9H62.4V5.4L64.8 2.1L65 1.9C65.2 1.8 65.3 1.7 65.5 1.7C65.9 1.8 66.2 1.9 66.3 2.1C66.4 2.2 66.4 2.3 66.4 2.4C66.4 2.5 66.4 2.5 66.4 2.5V6.9H70.5L71 7.1H73.3V6.9H79V5.9H96.3L96.5 6ZM65.6 4.6C65.5 4.5 65.5 4.5 65.4 4.4C65.4 4.3 65.3 4.2 65.2 3.9V3.5L64.3 3.4L62.9 5.6L63.1 5.8H65.7L65.9 5.6V4.6H65.6ZM63.1 6.9H65.6L65.7 6.5H63.1C63.1 6.5 63.1 6.9 63.1 6.9ZM43.7 3H32.9C32.8 3 32.7 3 32.6 3C32.4 3.1 32.3 3.1 32.2 3.2C32.1 3.3 32 3.4 31.9 3.5L31.7 3.7L31.1 5.2L31.3 5.4L43.6 5.3H43.8C43.9 5.3 44 5.2 44.1 5.1C44.4 4.9 44.6 4.6 44.6 4.1C44.6 3.7 44.5 3.4 44.2 3.2C44.1 3.1 44 3.1 43.9 3H43.7ZM3.7 10.3H3.5H0.7H0.5C0.4 10.4 0.4 10.5 0.4 10.5C0.4 10.5 0.5 10.6 0.6 10.7L0.7 10.8H3.6C3.7 10.8 3.7 10.7 3.7 10.7C3.8 10.6 3.8 10.6 3.8 10.5C3.8 10.4 3.8 10.3 3.7 10.3ZM0.4 5.7V6.1H4.1C4.1 6 4.1 5.9 4.1 5.8C4.1 5.7 4.1 5.7 4 5.6H3.8L0.4 5.7ZM35.9 13.1C35.8 13 35.7 13 35.6 13H34.1C34 13.1 33.9 13.2 33.8 13.3C33.6 13.6 33.5 13.9 33.5 14.2C33.5 14.5 33.6 14.8 33.8 15C33.9 15.1 34 15.2 34.1 15.3L33.9 15.4C33.7 15.3 33.6 15.2 33.4 15C33.1 14.7 32.9 14.4 32.9 14C32.9 13.8 32.9 13.5 33.1 13.2L33.3 12.9C33.1 12.9 32.8 13 32.6 13.1C32.1 13.4 31.9 13.9 32 14.5C32 14.8 32.2 15.1 32.5 15.4C32.7 15.6 32.8 15.7 33 15.7H36.5V15.2C36.6 15.1 36.7 14.9 36.8 14.7C36.9 14.3 36.9 13.9 36.7 13.5C36.4 13.5 36.2 13.3 35.9 13.1Z" fill="white"/>
</svg>
