<svg width="108" height="29" viewBox="0 0 108 29" fill="none" xmlns="http://www.w3.org/2000/svg">
<path d="M78.158 27.823C79.739 26.3487 80.494 25.4491 80.994 24.4683C81.528 23.4187 81.875 22.0756 81.969 20.7199C82.269 16.2656 82.843 12.8671 83.617 10.9305C84.011 9.9497 84.358 9.4561 85.206 8.6565C86.154 7.76938 87.001 7.22587 88.577 6.50744C90.372 5.68281 91.694 5.23301 95.051 4.29592C96.787 3.81488 97.928 3.44629 101.425 2.24058C103.321 1.58462 106.725 0.366406 107.673 0.00406609C107.82 -0.0521639 108 0.485096 108 0.978626C108 1.40345 107.973 1.5034 107.74 1.94071C107.299 2.77784 106.612 3.3276 104.863 4.25844C102.6 5.45791 101.052 6.07638 96.486 7.56947C94.003 8.3879 92.982 8.7564 91.213 9.4874C88.343 10.6744 87.402 11.1804 86.421 12.0612C85.747 12.6672 85.339 13.2232 84.932 14.1166L84.619 14.7913L84.539 14.4602C84.438 14.0916 84.425 13.3919 84.498 13.1732C84.545 13.0483 84.532 13.0296 84.425 13.0483C84.358 13.0608 84.225 13.217 84.118 13.4231C83.944 13.7355 83.918 13.8917 83.838 14.835C83.784 15.416 83.698 16.1719 83.637 16.5093C83.577 16.8529 83.504 17.6088 83.471 18.1898C83.304 20.9198 83.057 22.188 82.369 23.7748C81.915 24.8431 81.395 25.649 80.774 26.2737C79.9 27.1421 78.004 28.5102 77.016 28.985C76.903 29.0412 77.397 28.5415 78.158 27.823Z" fill="white"/>
<path d="M88.31 28.6727C87.696 28.6477 86.848 28.5415 86.468 28.4353C85.967 28.2978 85.76 28.1729 85.486 27.823C85.339 27.6481 85.179 27.4607 85.113 27.4107C85.012 27.3357 85.039 27.292 85.386 26.9922C85.713 26.711 85.813 26.661 86.04 26.6548C86.281 26.6548 86.334 26.686 86.674 27.0421C87.522 27.9292 87.869 28.2104 88.43 28.4665C88.73 28.6039 88.93 28.7101 88.877 28.7039C88.824 28.6976 88.57 28.6852 88.31 28.6727Z" fill="white"/>
<path d="M78.738 28.5977C78.585 28.5602 78.591 28.5415 78.938 28.3416C79.559 27.9667 80.607 27.1546 81.275 26.5299C82.496 25.3741 83.277 23.9935 83.731 22.1568C83.804 21.8632 83.991 20.7137 84.138 19.5954C84.292 18.4772 84.445 17.3589 84.485 17.1028L84.559 16.6405L84.745 17.1215C84.846 17.3901 85.206 18.0711 85.546 18.6333C86.468 20.1827 86.681 20.8449 86.681 22.1693C86.674 23.6999 86.254 24.7306 85.099 26.0051C84.565 26.5923 84.258 26.8547 83.671 27.2233C82.423 28.0042 80.827 28.5227 79.366 28.6164C79.112 28.6289 78.825 28.6227 78.738 28.5977Z" fill="white"/>
<path d="M89.711 28.2791C88.737 27.9542 88.21 27.6606 87.549 27.0608C86.881 26.4611 86.594 26.2799 86.314 26.2799C86.154 26.2799 86.16 26.2612 86.521 25.7989C86.721 25.5303 86.941 25.2179 87.001 25.0992L87.108 24.8931L87.502 24.9368C88.049 24.993 88.203 25.0805 88.904 25.7427C89.371 26.1862 89.625 26.3674 90.012 26.5486C90.733 26.8859 91.44 27.0421 92.288 27.0484C93.082 27.0608 93.069 27.0484 92.742 27.5044C92.375 28.0042 91.634 28.3165 90.646 28.3728C90.212 28.404 90.038 28.3853 89.711 28.2791Z" fill="white"/>
<path d="M91.514 25.9988C90.653 25.8239 90.058 25.5366 89.398 24.993C88.79 24.4933 88.39 24.3308 87.816 24.3558L87.362 24.3746L87.442 24.1871C87.515 24.031 87.596 23.7124 87.776 22.8627C87.809 22.7128 88.109 22.5941 88.437 22.5941C88.804 22.5941 89.344 22.9564 90.312 23.856C90.826 24.3308 91.387 24.8119 91.56 24.9306C92.321 25.4366 93.256 25.6802 94.297 25.6428L94.951 25.624L94.597 25.7677C94.41 25.8489 94.07 25.9551 93.85 25.9988C93.349 26.1113 92.054 26.1113 91.514 25.9988Z" fill="white"/>
<path d="M93.349 24.437C92.682 24.2996 92.048 23.9622 91.28 23.3375C89.792 22.1381 88.877 21.7695 88.13 22.0818L87.829 22.2068L87.789 21.4758C87.762 21.076 87.729 20.6762 87.702 20.5887C87.662 20.4326 87.682 20.4201 88.103 20.3139C89.057 20.0702 90.065 20.4013 92.181 21.657C93.316 22.3255 95.125 23.1876 95.946 23.45C96.299 23.5562 96.653 23.6124 97.16 23.6374C97.881 23.6749 97.881 23.6749 97.721 23.7936C97.454 23.9872 96.747 24.2746 96.253 24.3746C95.578 24.5183 93.903 24.5557 93.349 24.437Z" fill="white"/>
<path d="M96.913 22.5316C96.186 22.3942 95.044 21.9381 92.915 20.9323C91.3 20.1639 90.766 19.964 89.945 19.8203C88.997 19.6516 88.477 19.7079 87.903 20.0515L87.622 20.2139L87.415 19.6704C87.302 19.3705 87.088 18.9457 86.948 18.7208C86.801 18.4959 86.694 18.3085 86.701 18.296C86.714 18.2897 87.015 18.2085 87.375 18.1273C89.177 17.6962 90.539 18.0586 93.783 19.8453C95.885 21.001 97.154 21.4633 98.789 21.6633C99.376 21.732 100.845 21.7132 101.125 21.6258C101.405 21.5383 100.851 21.9194 100.391 22.1318C99.236 22.6503 98.182 22.769 96.913 22.5316Z" fill="white"/>
<path d="M98.789 20.4638C98.222 20.3888 97.14 20.1202 96.626 19.9265C96.386 19.839 95.385 19.3892 94.404 18.9394C91.567 17.615 90.799 17.3839 89.311 17.3776C88.263 17.3776 87.976 17.4401 87.048 17.8399L86.501 18.0773L86.274 17.765L86.047 17.4526L86.341 17.2027C86.968 16.6842 87.876 16.3968 89.264 16.2719C90.279 16.1782 90.733 16.2219 93.783 16.6904C99.143 17.5088 99.83 17.5963 101.125 17.5963C102.547 17.5963 103.581 17.4151 104.536 17.0028C104.81 16.8903 105.03 16.8029 105.03 16.8154C105.03 16.9278 104.569 17.9024 104.349 18.2522C103.495 19.6079 102.734 20.1639 101.345 20.4325C100.785 20.5387 99.476 20.5575 98.789 20.4638Z" fill="white"/>
<path d="M85.773 17.0965C85.72 17.0403 85.673 16.9653 85.673 16.9278C85.673 16.7904 86.835 15.8408 87.522 15.4035C89.144 14.3915 91.02 13.723 93.115 13.4106C94.397 13.2232 95.498 13.1545 99.837 13.0046C103.681 12.8671 104.723 12.7109 105.984 12.08C106.431 11.8613 106.431 11.8613 106.598 12.3736C106.712 12.7297 106.725 13.4356 106.625 13.8479C106.512 14.3102 106.104 15.0099 105.737 15.366C105.13 15.9595 103.922 16.4593 102.76 16.5905C101.445 16.7467 100.438 16.6842 97.02 16.2219C92.101 15.5597 90.639 15.4472 89.351 15.6222C87.903 15.8221 86.875 16.2281 86.247 16.8466C85.907 17.1777 85.873 17.1965 85.773 17.0965Z" fill="white"/>
<path d="M85.373 16.5093C85.259 16.3156 85.259 16.2719 85.339 16.1157C85.473 15.8658 87.335 14.1416 88.009 13.6356C89.464 12.5548 90.98 11.9425 93.863 11.2866C95.578 10.893 96.399 10.7493 98.642 10.437C102.533 9.9059 105.25 9.3125 106.498 8.7252C106.999 8.4878 107.052 8.5128 107.086 9.0563C107.119 9.5186 106.925 10.0559 106.618 10.387C106.278 10.7493 105.317 11.1242 104.162 11.3428C103.214 11.5302 102.62 11.5865 100.024 11.7239C94.824 12.005 93.095 12.2362 91.08 12.9046C88.964 13.6168 86.835 15.0162 85.78 16.3968C85.64 16.5718 85.52 16.7217 85.513 16.7217C85.5 16.7217 85.44 16.6217 85.373 16.5093Z" fill="white"/>
<path d="M84.952 15.6721C84.872 15.4722 84.806 15.2598 84.806 15.1973C84.806 15.1349 84.926 14.86 85.066 14.5914C85.893 13.0545 86.808 12.2174 88.55 11.4303C90.005 10.768 93.136 9.6873 96.373 8.7252C101.566 7.18838 103.154 6.59489 105.644 5.27048L106.291 4.92688L106.678 5.1018C107.346 5.40792 107.633 5.72653 107.633 6.15134C107.633 6.63238 107.339 7.06968 106.732 7.50699C106.004 8.0255 105.17 8.3066 102.714 8.8814C101.118 9.25 100.378 9.3937 97.821 9.8185C96.213 10.0809 95.331 10.2745 93.549 10.7556C90.112 11.6801 88.777 12.3736 86.741 14.2915C86.281 14.7226 85.74 15.2911 85.54 15.5534C85.339 15.8158 85.159 16.0282 85.139 16.0282C85.119 16.0345 85.039 15.872 84.952 15.6721Z" fill="white"/>
<path d="M76.8 8.7H73.3V8.5H70.9L70.4 8.7H66.3L67.1 8.9V9.6L66.9 9.8H66V10H65.3V8.8H65.5V8.6L63 8.5L62.9 8.7L62.8 9.3C62.8 9.4 62.7 9.4 62.7 9.4C62.6 9.5 62.6 9.5 62.5 9.5C62.4 9.5 62.4 9.4 62.3 9.4L62.1 9.3V8.8L62 8.6H61.5V9.4C61.5 9.5 61.4 9.5 61.3 9.6L61.1 9.7H60.8L60.6 10.2L46.7 10.4L46.4 10.2L46.1 10.1L45.4 10.4L45.3 9.4H44.6V10V10.1C44.6 10.2 44.5 10.2 44.5 10.3C44.4 10.3 44.4 10.4 44.3 10.4H44.2H44.1C44 10.4 43.9 10.5 43.9 10.6C43.8 10.7 43.8 10.8 43.7 10.8L43.5 11V14.3L43.7 14.4V14.7L43.2 14.9V16.1C43.3 17 43.4 17.9 43.5 18.7C43.7 19.5 44 20.5 44.3 21.7C44.5 22.3 44.6 22.8 44.8 23.3L45 23.5L39.3 25H39.1V24.8C38.9 24.2 38.7 23.5 38.5 22.8C38.1 21.3 37.8 20.1 37.6 19.4C37.4 18.7 37.3 17.9 37.3 17.1L37.2 16.1L36.8 16.2L36.3 16.1H32.7L31.5 16.2C31.4 16.2 31.4 16.2 31.3 16.2C31.1 16.2 31 16.2 30.9 16.3C30.8 16.4 30.7 16.5 30.7 16.5L29.9 18.1L30.3 18.6L30.2 18.7C30 18.8 29.9 18.8 29.7 18.9C29.6 19 29.5 19 29.4 19.1L29.3 19.2L27.6 22.4C27.5 22.5 27.5 22.6 27.6 22.7C27.6 22.8 27.7 22.9 27.8 23C27.9 23.1 27.9 23.1 28 23.1L27.7 23.7L22.3 22.4L27.2 13.9C27.3 13.8 27.3 13.7 27.3 13.6C27.4 13.4 27.4 13.1 27.4 12.9C27.3 12.6 27.2 12.4 27.1 12.2C27 12 26.8 11.9 26.7 11.7C26.5 11.6 26.4 11.5 26.2 11.5H25V11.7H24.7V9.6H23.7V9.3H19.7L18.8 10L15.1 10.1V10.4H11.9V12.4H9.7V13.2H8.6V12.4L5 14.7V12.8L0.4 14.9V15.7V15.8C0.3 15.9 0.3 16 0.2 16C0.1 16 0.1 15.9 0 15.8V15.7V5.3H4.1C4.2 5.3 4.2 5.4 4.3 5.5C4.3 5.6 4.3 5.8 4.4 6L14.9 6.1C15 6.1 15 6.2 15 6.2C15.1 6.3 15.1 6.3 15.1 6.4H23.6V6.1H24.6V5.8H24.9V6.1H25.9V5.6H26.9L27 5.7L29.6 1.6L29.7 1.4C29.8 1.3 29.9 1.2 30 1.2C30.2 1 30.3 1 30.5 1C30.6 1 30.7 1 30.7 1L43.6 2.4L44 2.5C44.3 2.6 44.5 2.7 44.7 2.9C44.7 3 44.8 3.2 45 3.5C45.1 3.6 45.1 3.7 45.2 3.8L45.1 6.3H45.4V5.2L46.2 5.4V5.1H46.5V5C46.5 4.9 46.6 4.9 46.6 4.9C46.7 4.9 46.7 4.8 46.8 4.8L61 5L61.2 5.3V5.7H61.6H61.7C61.7 5.8 61.7 5.9 61.7 5.9C61.7 6 61.8 6.3 61.8 6.8H62.3V5.3L64.7 2L64.9 1.8C65.1 1.7 65.2 1.6 65.4 1.6C65.8 1.7 66.1 1.8 66.2 2C66.3 2.1 66.3 2.2 66.3 2.3C66.3 2.4 66.3 2.4 66.3 2.4V6.8H70.4L70.9 7H73.2V6.8H76.7L76.8 8.7ZM65.5 4.6C65.4 4.5 65.4 4.5 65.3 4.4C65.3 4.3 65.2 4.2 65.1 3.9V3.5L64.2 3.4L62.8 5.6L63 5.8H65.6L65.8 5.6V4.6H65.5ZM63.1 6.8H65.6L65.7 6.4H63.1V6.8ZM43.6 3H32.8C32.7 3 32.6 3 32.5 3C32.3 3.1 32.2 3.1 32.1 3.2C32 3.3 31.9 3.4 31.8 3.5L31.6 3.7L31 5.2L31.2 5.4L43.5 5.3H43.7C43.8 5.3 43.9 5.2 44 5.1C44.3 4.9 44.5 4.6 44.5 4.1C44.5 3.7 44.4 3.4 44.1 3.2C43.9 3.2 43.8 3.1 43.7 3H43.6ZM3.6 10.2H3.4H0.6H0.4C0.3 10.3 0.3 10.4 0.3 10.4C0.3 10.4 0.4 10.5 0.5 10.6L0.6 10.7H3.5C3.6 10.7 3.6 10.6 3.6 10.6C3.7 10.5 3.7 10.5 3.7 10.4C3.7 10.3 3.7 10.3 3.6 10.2ZM0.4 5.7V6.1H4.1C4.1 6 4.1 5.9 4.1 5.8C4.1 5.7 4.1 5.7 4 5.6H3.7L0.4 5.7ZM35.8 13C35.7 13 35.6 13 35.5 12.9H34C33.9 13 33.8 13.1 33.7 13.2C33.5 13.5 33.4 13.8 33.4 14.1C33.4 14.4 33.5 14.7 33.7 14.9C33.8 15 33.9 15.1 34 15.2L33.8 15.3C33.6 15.2 33.5 15.1 33.3 14.9C33 14.6 32.8 14.3 32.8 13.9C32.8 13.7 32.8 13.4 33 13.1L33.2 12.8C33 12.8 32.7 12.9 32.5 13C32 13.3 31.8 13.8 31.9 14.4C31.9 14.7 32.1 15 32.4 15.3C32.6 15.5 32.7 15.6 32.9 15.7H36.4V15.2C36.5 15.1 36.6 14.9 36.7 14.7C36.8 14.3 36.8 13.9 36.6 13.5C36.3 13.4 36.1 13.2 35.8 13Z" fill="white"/>
</svg>
