<svg width="76" height="32" viewBox="0 0 76 32" fill="none" xmlns="http://www.w3.org/2000/svg">
<path d="M46.158 27.823C47.739 26.3487 48.494 25.4491 48.994 24.4683C49.528 23.4187 49.875 22.0756 49.969 20.7199C50.269 16.2656 50.843 12.8671 51.617 10.9305C52.011 9.9497 52.358 9.4561 53.206 8.6565C54.154 7.76938 55.001 7.22587 56.577 6.50744C58.372 5.68281 59.694 5.23301 63.051 4.29592C64.787 3.81488 65.928 3.44629 69.425 2.24058C71.321 1.58462 74.725 0.366406 75.673 0.00406609C75.82 -0.0521639 76 0.485096 76 0.978626C76 1.40345 75.973 1.5034 75.74 1.94071C75.299 2.77784 74.612 3.3276 72.863 4.25844C70.6 5.45791 69.052 6.07638 64.486 7.56947C62.003 8.3879 60.982 8.7564 59.213 9.4874C56.343 10.6744 55.402 11.1804 54.421 12.0612C53.747 12.6672 53.339 13.2232 52.932 14.1166L52.619 14.7913L52.539 14.4602C52.438 14.0916 52.425 13.3919 52.498 13.1732C52.545 13.0483 52.532 13.0296 52.425 13.0483C52.358 13.0608 52.225 13.217 52.118 13.4231C51.944 13.7355 51.918 13.8917 51.838 14.835C51.784 15.416 51.698 16.1719 51.637 16.5093C51.577 16.8529 51.504 17.6088 51.471 18.1898C51.304 20.9198 51.057 22.188 50.369 23.7748C49.915 24.8431 49.395 25.649 48.774 26.2737C47.9 27.1421 46.004 28.5102 45.016 28.985C44.903 29.0412 45.397 28.5415 46.158 27.823Z" fill="white"/>
<path d="M56.31 28.6727C55.696 28.6477 54.848 28.5415 54.468 28.4353C53.967 28.2978 53.76 28.1729 53.486 27.823C53.339 27.6481 53.179 27.4607 53.113 27.4107C53.012 27.3357 53.039 27.292 53.386 26.9922C53.713 26.711 53.813 26.661 54.04 26.6548C54.281 26.6548 54.334 26.686 54.674 27.0421C55.522 27.9292 55.869 28.2104 56.43 28.4665C56.73 28.6039 56.93 28.7101 56.877 28.7039C56.824 28.6976 56.57 28.6852 56.31 28.6727Z" fill="white"/>
<path d="M46.738 28.5977C46.585 28.5602 46.591 28.5415 46.938 28.3416C47.559 27.9667 48.607 27.1546 49.275 26.5299C50.496 25.3741 51.277 23.9935 51.731 22.1568C51.804 21.8632 51.991 20.7137 52.138 19.5954C52.292 18.4772 52.445 17.3589 52.485 17.1028L52.559 16.6405L52.745 17.1215C52.846 17.3901 53.206 18.0711 53.546 18.6333C54.468 20.1827 54.681 20.8449 54.681 22.1693C54.674 23.6999 54.254 24.7306 53.099 26.0051C52.565 26.5923 52.258 26.8547 51.671 27.2233C50.423 28.0042 48.827 28.5227 47.366 28.6164C47.112 28.6289 46.825 28.6227 46.738 28.5977Z" fill="white"/>
<path d="M57.711 28.2791C56.737 27.9542 56.21 27.6606 55.549 27.0608C54.881 26.4611 54.594 26.2799 54.314 26.2799C54.154 26.2799 54.16 26.2612 54.521 25.7989C54.721 25.5303 54.941 25.2179 55.001 25.0992L55.108 24.8931L55.502 24.9368C56.049 24.993 56.203 25.0805 56.904 25.7427C57.371 26.1862 57.625 26.3674 58.012 26.5486C58.733 26.8859 59.44 27.0421 60.288 27.0484C61.082 27.0608 61.069 27.0484 60.742 27.5044C60.375 28.0042 59.634 28.3165 58.646 28.3728C58.212 28.404 58.038 28.3853 57.711 28.2791Z" fill="white"/>
<path d="M59.514 25.9988C58.653 25.8239 58.058 25.5366 57.398 24.993C56.79 24.4933 56.39 24.3308 55.816 24.3558L55.362 24.3746L55.442 24.1871C55.515 24.031 55.596 23.7124 55.776 22.8627C55.809 22.7128 56.109 22.5941 56.437 22.5941C56.804 22.5941 57.344 22.9564 58.312 23.856C58.826 24.3308 59.387 24.8119 59.56 24.9306C60.321 25.4366 61.256 25.6802 62.297 25.6428L62.951 25.624L62.597 25.7677C62.41 25.8489 62.07 25.9551 61.85 25.9988C61.349 26.1113 60.054 26.1113 59.514 25.9988Z" fill="white"/>
<path d="M61.349 24.437C60.682 24.2996 60.048 23.9622 59.28 23.3375C57.792 22.1381 56.877 21.7695 56.13 22.0818L55.829 22.2068L55.789 21.4758C55.762 21.076 55.729 20.6762 55.702 20.5887C55.662 20.4326 55.682 20.4201 56.103 20.3139C57.057 20.0702 58.065 20.4013 60.181 21.657C61.316 22.3255 63.125 23.1876 63.946 23.45C64.299 23.5562 64.653 23.6124 65.16 23.6374C65.881 23.6749 65.881 23.6749 65.721 23.7936C65.454 23.9872 64.747 24.2746 64.253 24.3746C63.578 24.5183 61.903 24.5557 61.349 24.437Z" fill="white"/>
<path d="M64.913 22.5316C64.186 22.3942 63.044 21.9381 60.915 20.9323C59.3 20.1639 58.766 19.964 57.945 19.8203C56.997 19.6516 56.477 19.7079 55.903 20.0515L55.622 20.2139L55.415 19.6704C55.302 19.3705 55.088 18.9457 54.948 18.7208C54.801 18.4959 54.694 18.3085 54.701 18.296C54.714 18.2897 55.015 18.2085 55.375 18.1273C57.177 17.6962 58.539 18.0586 61.783 19.8453C63.885 21.001 65.154 21.4633 66.789 21.6633C67.376 21.732 68.845 21.7132 69.125 21.6258C69.405 21.5383 68.851 21.9194 68.391 22.1318C67.236 22.6503 66.182 22.769 64.913 22.5316Z" fill="white"/>
<path d="M66.789 20.4638C66.222 20.3888 65.14 20.1202 64.626 19.9265C64.386 19.839 63.385 19.3892 62.404 18.9394C59.567 17.615 58.799 17.3839 57.311 17.3776C56.263 17.3776 55.976 17.4401 55.048 17.8399L54.501 18.0773L54.274 17.765L54.047 17.4526L54.341 17.2027C54.968 16.6842 55.876 16.3968 57.264 16.2719C58.279 16.1782 58.733 16.2219 61.783 16.6904C67.143 17.5088 67.83 17.5963 69.125 17.5963C70.547 17.5963 71.581 17.4151 72.536 17.0028C72.81 16.8903 73.03 16.8029 73.03 16.8154C73.03 16.9278 72.569 17.9024 72.349 18.2522C71.495 19.6079 70.734 20.1639 69.345 20.4325C68.785 20.5387 67.476 20.5575 66.789 20.4638Z" fill="white"/>
<path d="M53.773 17.0965C53.72 17.0403 53.673 16.9653 53.673 16.9278C53.673 16.7904 54.835 15.8408 55.522 15.4035C57.144 14.3915 59.02 13.723 61.115 13.4106C62.397 13.2232 63.498 13.1545 67.837 13.0046C71.681 12.8671 72.723 12.7109 73.984 12.08C74.431 11.8613 74.431 11.8613 74.598 12.3736C74.712 12.7297 74.725 13.4356 74.625 13.8479C74.512 14.3102 74.104 15.0099 73.737 15.366C73.13 15.9595 71.922 16.4593 70.76 16.5905C69.445 16.7467 68.438 16.6842 65.02 16.2219C60.101 15.5597 58.639 15.4472 57.351 15.6222C55.903 15.8221 54.875 16.2281 54.247 16.8466C53.907 17.1777 53.873 17.1965 53.773 17.0965Z" fill="white"/>
<path d="M53.373 16.5093C53.259 16.3156 53.259 16.2719 53.339 16.1157C53.473 15.8658 55.335 14.1416 56.009 13.6356C57.464 12.5548 58.98 11.9425 61.863 11.2866C63.578 10.893 64.399 10.7493 66.642 10.437C70.533 9.90589 73.25 9.31249 74.498 8.72519C74.999 8.48779 75.052 8.51279 75.086 9.05629C75.119 9.51859 74.925 10.0559 74.618 10.387C74.278 10.7493 73.317 11.1242 72.162 11.3428C71.214 11.5302 70.62 11.5865 68.024 11.7239C62.824 12.005 61.095 12.2362 59.08 12.9046C56.964 13.6168 54.835 15.0162 53.78 16.3968C53.64 16.5718 53.52 16.7217 53.513 16.7217C53.5 16.7217 53.44 16.6217 53.373 16.5093Z" fill="white"/>
<path d="M52.952 15.6721C52.872 15.4722 52.806 15.2598 52.806 15.1973C52.806 15.1349 52.926 14.86 53.066 14.5914C53.893 13.0545 54.808 12.2174 56.55 11.4303C58.005 10.768 61.136 9.6873 64.373 8.7252C69.566 7.18838 71.154 6.59489 73.644 5.27048L74.291 4.92688L74.678 5.1018C75.346 5.40792 75.633 5.72653 75.633 6.15134C75.633 6.63238 75.339 7.06968 74.732 7.50699C74.004 8.0255 73.17 8.3066 70.714 8.8814C69.118 9.25 68.378 9.3937 65.821 9.8185C64.213 10.0809 63.331 10.2745 61.549 10.7556C58.112 11.6801 56.777 12.3736 54.741 14.2915C54.281 14.7226 53.74 15.2911 53.54 15.5534C53.339 15.8158 53.159 16.0282 53.139 16.0282C53.119 16.0345 53.039 15.872 52.952 15.6721Z" fill="white"/>
<path d="M43.8 6.6V8L43.2 8.6H40.9C40.8 8.7 40.8 8.7 40.7 8.7C40.6 8.7 40.6 8.7 40.5 8.7V11.1H34.4C34.4 11.2 34.4 11.3 34.4 11.5C34.4 11.7 34.4 11.8 34.5 11.9C34.5 12 34.5 12.2 34.5 12.3C34.5 12.3 34.4 12.4 34.3 12.4C34.2 12.4 34.1 12.5 34 12.6C34 12.7 34.1 12.9 34.1 13.2C34.2 13.4 34.2 13.6 34.2 13.7H33C32.3 13.7 31.8 13.7 31.6 13.7C31.5 13.8 31.4 14.1 31.2 14.4C31.1 14.7 30.9 15.1 30.6 15.5C30.4 15.9 30.1 16.2 29.7 16.5C29.4 16.8 29 17 28.5 17C27.8 17.1 27 17.1 26.1 17C25.2 17 24.4 16.8 23.9 16.3C23.7 16.3 23.6 16.2 23.6 16.1V24.5C23.4 24.5 23.3 24.6 23.3 24.6C23.2 24.7 23 24.7 22.9 24.7V31.9H17.5V24.9L17.4 24.8H17.3H17.2H14.3L13.6 23.9C14 22.2 14.3 20.6 14.7 19.2C15 18 15.2 16.9 15.4 15.9L15.8 14.4C15.5 13.8 15.2 13.2 14.9 12.8C14.6 12.3 14.3 12 14.2 12C14 11.9 13.6 11.9 12.9 11.9C12.2 11.9 11.6 11.9 11 12L10.9 12.1C10.8 12.2 10.7 12.2 10.7 12.3L10.4 12.6L9.7 12.5C9.7 12.4 9.7 12.4 9.6 12.3V12.2C9.6 12.1 9.5 12.1 9.5 12.1H5V15.5H4.8C4.7 15.6 4.5 15.7 4.1 15.8C3.7 15.9 3.4 15.9 3 15.8C2.8 15.7 2.6 15.7 2.4 15.6C2.4 15.5 2.3 15.5 2.2 15.5C2.2 15.5 2.1 15.5 2 15.5C1.8 15.5 1.7 15.5 1.5 15.5C1.3 15.5 1.2 15.5 0.9 15.5C0.8 15.5 0.7 15.4 0.6 15.3C0.5 15.1 0.3 14.8 0.1 14.5C2.23517e-08 14.4 0 14.3 0 14.1C0 13.9 0 13.8 0 13.8C0 13.3 0.1 12.8 0.3 12.3C0.3 12.2 0.3 11.9 0.4 11.3C0.4 10.7 0.4 10.2 0.4 9.6L0.8 2.6L1.9 1.2V1L4.3 1.1C4.8 1.2 5.4 1.2 6.1 1.3C6.7 1.4 7.3 1.4 7.9 1.4C8.4 1.5 8.9 1.5 9.3 1.6C9.7 1.7 9.9 1.7 10 1.7C10.1 1.7 10.3 1.7 10.8 1.7C11.3 1.8 11.8 1.9 12.4 1.9C13 2 13.5 2 14 2.1C14.5 2.2 14.8 2.2 14.9 2.2H15V2.3C15.2 2.4 15.3 2.5 15.3 2.6C15.4 2.7 15.4 2.9 15.3 3.1C15.2 3.3 15 3.4 14.6 3.5C14.4 3.6 14 3.6 13.7 3.6C13.3 3.6 12.9 3.6 12.5 3.6C12.1 3.6 11.7 3.6 11.4 3.6C11.1 3.6 10.9 3.6 10.9 3.6L6.6 3.3H6.5C6.5 3.3 6.5 3.3 6.5 3.2V3.6C6.7 3.6 7 3.6 7.3 3.6C7.7 3.6 8.1 3.6 8.5 3.7C8.9 3.7 9.3 3.8 9.7 3.8C10.1 3.8 10.3 3.8 10.4 3.8C10.5 3.8 11.1 3.8 12.3 3.8C13.5 3.8 15 3.8 16.6 3.8C18.3 3.8 20.2 3.8 22.2 3.8C24.2 3.8 26 3.8 27.7 3.8C27.7 3.8 27.7 3.6 27.7 3.4C27.7 3.2 27.7 3 27.8 2.8C27.8 2.6 27.9 2.3 27.9 2.1H28C28.2 2.1 28.4 2 28.8 2C29.1 2 29.4 2 29.7 2C30 2 30.3 2 30.5 2C30.8 2 31 2.1 31 2.1C31.2 2.4 31.3 2.5 31.5 2.8C31.6 3.1 31.7 3.3 31.8 3.5H36.5C36.5 3.4 36.5 3.3 36.5 3.3C36.5 3.2 36.5 3.1 36.6 2.9C36.6 2.8 36.6 2.7 36.6 2.5H36.7C36.9 2.4 37.1 2.3 37.4 2.2C37.6 2.1 37.9 2 38.3 1.9C38.5 1.8 38.8 1.7 39.1 1.7C39.4 1.6 39.6 1.6 39.7 1.7C40 1.8 40.2 2 40.3 2.2C40.4 2.4 40.4 2.5 40.4 2.6V5.7L40.9 6.1H43.5L43.8 6.6ZM25.4 15.7H28.9C29.2 15.7 29.5 15.6 29.6 15.4C29.8 15.2 29.9 15 29.9 14.7V14.1C29.9 13.8 29.8 13.5 29.6 13.4C29.4 13.2 29.2 13.1 28.9 13.1H25.4C25.1 13.1 24.8 13.2 24.6 13.4C24.4 13.5 24.3 13.8 24.3 14.1V14.7C24.3 15 24.4 15.3 24.7 15.4C24.9 15.6 25.1 15.7 25.4 15.7ZM3.1 3.7C2.9 3.7 2.7 3.7 2.5 3.7C2.5 3.8 2.4 4 2.4 4.1C2.4 4.3 2.4 4.5 2.4 4.8C2.4 5.2 2.4 5.6 2.4 6.1C2.4 6.6 2.5 7.1 2.5 7.7C2.6 6.9 2.8 6.1 3.1 5.4C3.3 4.7 3.5 4.2 3.6 3.9C3.5 3.8 3.3 3.7 3.1 3.7Z" fill="white"/>
</svg>
