<svg width="98" height="30" viewBox="0 0 98 30" fill="none" xmlns="http://www.w3.org/2000/svg">
<path d="M68.158 27.823C69.739 26.3487 70.494 25.4491 70.994 24.4683C71.528 23.4187 71.875 22.0756 71.969 20.7199C72.269 16.2656 72.843 12.8671 73.617 10.9305C74.011 9.9497 74.358 9.4561 75.206 8.6565C76.154 7.76938 77.001 7.22587 78.577 6.50744C80.372 5.68281 81.694 5.23301 85.051 4.29592C86.787 3.81488 87.928 3.44629 91.425 2.24058C93.321 1.58462 96.725 0.366406 97.673 0.00406609C97.82 -0.0521639 98 0.485096 98 0.978626C98 1.40345 97.973 1.5034 97.74 1.94071C97.299 2.77784 96.612 3.3276 94.863 4.25844C92.6 5.45791 91.052 6.07638 86.486 7.56947C84.003 8.3879 82.982 8.7564 81.213 9.4874C78.343 10.6744 77.402 11.1804 76.421 12.0612C75.747 12.6672 75.339 13.2232 74.932 14.1166L74.619 14.7913L74.539 14.4602C74.438 14.0916 74.425 13.3919 74.498 13.1732C74.545 13.0483 74.532 13.0296 74.425 13.0483C74.358 13.0608 74.225 13.217 74.118 13.4231C73.944 13.7355 73.918 13.8917 73.838 14.835C73.784 15.416 73.698 16.1719 73.637 16.5093C73.577 16.8529 73.504 17.6088 73.471 18.1898C73.304 20.9198 73.057 22.188 72.369 23.7748C71.915 24.8431 71.395 25.649 70.774 26.2737C69.9 27.1421 68.004 28.5102 67.016 28.985C66.903 29.0412 67.397 28.5415 68.158 27.823Z" fill="white"/>
<path d="M78.31 28.6727C77.696 28.6477 76.848 28.5415 76.468 28.4353C75.967 28.2978 75.76 28.1729 75.486 27.823C75.339 27.6481 75.179 27.4607 75.113 27.4107C75.012 27.3357 75.039 27.292 75.386 26.9922C75.713 26.711 75.813 26.661 76.04 26.6548C76.281 26.6548 76.334 26.686 76.674 27.0421C77.522 27.9292 77.869 28.2104 78.43 28.4665C78.73 28.6039 78.93 28.7101 78.877 28.7039C78.824 28.6976 78.57 28.6852 78.31 28.6727Z" fill="white"/>
<path d="M68.738 28.5977C68.585 28.5602 68.591 28.5415 68.938 28.3416C69.559 27.9667 70.607 27.1546 71.275 26.5299C72.496 25.3741 73.277 23.9935 73.731 22.1568C73.804 21.8632 73.991 20.7137 74.138 19.5954C74.292 18.4772 74.445 17.3589 74.485 17.1028L74.559 16.6405L74.745 17.1215C74.846 17.3901 75.206 18.0711 75.546 18.6333C76.468 20.1827 76.681 20.8449 76.681 22.1693C76.674 23.6999 76.254 24.7306 75.099 26.0051C74.565 26.5923 74.258 26.8547 73.671 27.2233C72.423 28.0042 70.827 28.5227 69.366 28.6164C69.112 28.6289 68.825 28.6227 68.738 28.5977Z" fill="white"/>
<path d="M79.711 28.2791C78.737 27.9542 78.21 27.6606 77.549 27.0608C76.881 26.4611 76.594 26.2799 76.314 26.2799C76.154 26.2799 76.16 26.2612 76.521 25.7989C76.721 25.5303 76.941 25.2179 77.001 25.0992L77.108 24.8931L77.502 24.9368C78.049 24.993 78.203 25.0805 78.904 25.7427C79.371 26.1862 79.625 26.3674 80.012 26.5486C80.733 26.8859 81.44 27.0421 82.288 27.0484C83.082 27.0608 83.069 27.0484 82.742 27.5044C82.375 28.0042 81.634 28.3165 80.646 28.3728C80.212 28.404 80.038 28.3853 79.711 28.2791Z" fill="white"/>
<path d="M81.514 25.9988C80.653 25.8239 80.058 25.5366 79.398 24.993C78.79 24.4933 78.39 24.3308 77.816 24.3558L77.362 24.3746L77.442 24.1871C77.515 24.031 77.596 23.7124 77.776 22.8627C77.809 22.7128 78.109 22.5941 78.437 22.5941C78.804 22.5941 79.344 22.9564 80.312 23.856C80.826 24.3308 81.387 24.8119 81.56 24.9306C82.321 25.4366 83.256 25.6802 84.297 25.6428L84.951 25.624L84.597 25.7677C84.41 25.8489 84.07 25.9551 83.85 25.9988C83.349 26.1113 82.054 26.1113 81.514 25.9988Z" fill="white"/>
<path d="M83.349 24.437C82.682 24.2996 82.048 23.9622 81.28 23.3375C79.792 22.1381 78.877 21.7695 78.13 22.0818L77.829 22.2068L77.789 21.4758C77.762 21.076 77.729 20.6762 77.702 20.5887C77.662 20.4326 77.682 20.4201 78.103 20.3139C79.057 20.0702 80.065 20.4013 82.181 21.657C83.316 22.3255 85.125 23.1876 85.946 23.45C86.299 23.5562 86.653 23.6124 87.16 23.6374C87.881 23.6749 87.881 23.6749 87.721 23.7936C87.454 23.9872 86.747 24.2746 86.253 24.3746C85.578 24.5183 83.903 24.5557 83.349 24.437Z" fill="white"/>
<path d="M86.913 22.5316C86.186 22.3942 85.044 21.9381 82.915 20.9323C81.3 20.1639 80.766 19.964 79.945 19.8203C78.997 19.6516 78.477 19.7079 77.903 20.0515L77.622 20.2139L77.415 19.6704C77.302 19.3705 77.088 18.9457 76.948 18.7208C76.801 18.4959 76.694 18.3085 76.701 18.296C76.714 18.2897 77.015 18.2085 77.375 18.1273C79.177 17.6962 80.539 18.0586 83.783 19.8453C85.885 21.001 87.154 21.4633 88.789 21.6633C89.376 21.732 90.845 21.7132 91.125 21.6258C91.405 21.5383 90.851 21.9194 90.391 22.1318C89.236 22.6503 88.182 22.769 86.913 22.5316Z" fill="white"/>
<path d="M88.789 20.4638C88.222 20.3888 87.14 20.1202 86.626 19.9265C86.386 19.839 85.385 19.3892 84.404 18.9394C81.567 17.615 80.799 17.3839 79.311 17.3776C78.263 17.3776 77.976 17.4401 77.048 17.8399L76.501 18.0773L76.274 17.765L76.047 17.4526L76.341 17.2027C76.968 16.6842 77.876 16.3968 79.264 16.2719C80.279 16.1782 80.733 16.2219 83.783 16.6904C89.143 17.5088 89.83 17.5963 91.125 17.5963C92.547 17.5963 93.581 17.4151 94.536 17.0028C94.81 16.8903 95.03 16.8029 95.03 16.8154C95.03 16.9278 94.569 17.9024 94.349 18.2522C93.495 19.6079 92.734 20.1639 91.345 20.4325C90.785 20.5387 89.476 20.5575 88.789 20.4638Z" fill="white"/>
<path d="M75.773 17.0965C75.72 17.0403 75.673 16.9653 75.673 16.9278C75.673 16.7904 76.835 15.8408 77.522 15.4035C79.144 14.3915 81.02 13.723 83.115 13.4106C84.397 13.2232 85.498 13.1545 89.837 13.0046C93.681 12.8671 94.723 12.7109 95.984 12.08C96.431 11.8613 96.431 11.8613 96.598 12.3736C96.712 12.7297 96.725 13.4356 96.625 13.8479C96.512 14.3102 96.104 15.0099 95.737 15.366C95.13 15.9595 93.922 16.4593 92.76 16.5905C91.445 16.7467 90.438 16.6842 87.02 16.2219C82.101 15.5597 80.639 15.4472 79.351 15.6222C77.903 15.8221 76.875 16.2281 76.247 16.8466C75.907 17.1777 75.873 17.1965 75.773 17.0965Z" fill="white"/>
<path d="M75.373 16.5093C75.259 16.3156 75.259 16.2719 75.339 16.1157C75.473 15.8658 77.335 14.1416 78.009 13.6356C79.464 12.5548 80.98 11.9425 83.863 11.2866C85.578 10.893 86.399 10.7493 88.642 10.437C92.533 9.90589 95.25 9.31249 96.498 8.72519C96.999 8.48779 97.052 8.51279 97.086 9.05629C97.119 9.51859 96.925 10.0559 96.618 10.387C96.278 10.7493 95.317 11.1242 94.162 11.3428C93.214 11.5302 92.62 11.5865 90.024 11.7239C84.824 12.005 83.095 12.2362 81.08 12.9046C78.964 13.6168 76.835 15.0162 75.78 16.3968C75.64 16.5718 75.52 16.7217 75.513 16.7217C75.5 16.7217 75.44 16.6217 75.373 16.5093Z" fill="white"/>
<path d="M74.952 15.6721C74.872 15.4722 74.806 15.2598 74.806 15.1973C74.806 15.1349 74.926 14.86 75.066 14.5914C75.893 13.0545 76.808 12.2174 78.55 11.4303C80.005 10.768 83.136 9.6873 86.373 8.7252C91.566 7.18838 93.154 6.59489 95.644 5.27048L96.291 4.92688L96.678 5.1018C97.346 5.40792 97.633 5.72653 97.633 6.15134C97.633 6.63238 97.339 7.06968 96.732 7.50699C96.004 8.0255 95.17 8.3066 92.714 8.8814C91.118 9.25 90.378 9.3937 87.821 9.8185C86.213 10.0809 85.331 10.2745 83.549 10.7556C80.112 11.6801 78.777 12.3736 76.741 14.2915C76.281 14.7226 75.74 15.2911 75.54 15.5534C75.339 15.8158 75.159 16.0282 75.139 16.0282C75.119 16.0345 75.039 15.872 74.952 15.6721Z" fill="white"/>
<path d="M1.5 5.5H1.6H1.7C6.7 5.5 11.7 5.5 16.7 5.5C17 5.5 17.4 5.5 17.7 5.5L17.8 5.4C17.9 5.4 17.9 5.4 17.9 5.4H18C18.1 5.4 18.1 5.4 18.2 5.4L18.3 5.5C30.1 5.5 42 5.5 53.8 5.5C53.9 5.5 53.9 5.5 53.9 5.5C54 5.5 54 5.5 54 5.5C54 5.5 54.1 5.5 54.2 5.5L54.3 5.6L54.4 5.7V5.8V5.9C54.5 5.9 54.7 5.9 54.8 5.9V6V6.1V6.2V6.3V6.4V6.5V6.6V6.7V6.8V6.9V7V7.1V7.2V7.3V7.4V7.5V7.6V7.4C54.7 7.4 54.7 7.4 54.6 7.4V7.5H54.7C54.8 7.5 54.8 7.5 54.9 7.5L55 7.4H55.1C55.3 7.4 55.4 7.4 55.6 7.4H55.7C55.8 7.4 55.8 7.4 55.9 7.4L56 7.5V7.6V7.7V7.8V7.9V8V8.1V8.2V8.3V8.4V8.5C59.3 8.5 62.6 8.5 65.9 8.5C66 8.5 66 8.5 66.1 8.5L66.2 8.6H66.3L66.4 8.7V8.8V8.9V9V9.1V9.2V9.3V9.4V9.5V9.6V9.7V9.8V9.9V10V10.1V10.2V10.3V10.4V10.5V10.6V10.7V10.8V10.9V11V11.1L66.3 11.2V11.3L66.2 11.4V11.5H66.1H66C64.4 11.5 62.8 11.5 61.2 11.5V11.6V11.7V11.8V11.9V12H61.1V12.1L61 12.2H60.9C60.8 12.2 60.8 12.2 60.7 12.2H60.6C59.2 12.2 57.8 12.2 56.4 12.2H56.3H56.2H56.1L56 12.3V12.4V12.5H55.9V12.6V12.7H55.8H55.7H55.6H55.5C55.4 12.7 55.4 12.7 55.3 12.7V12.8C54.8 12.8 54.4 12.8 54 12.8V12.9V13V13.1V13.2V13.3V13.4V13.5V13.6V13.7C53.9 13.7 53.8 13.7 53.7 13.7V13.8V13.9V14V14.1L53.6 14.2V14.3C53.6 14.3 53.6 14.4 53.5 14.4V14.5V14.6V14.7V14.8V14.9L53.4 15V15.1V15.2V15.3C53.4 15.3 53.4 15.3 53.4 15.4L53.3 15.5V15.6L53.2 15.7L53.1 15.8L53 15.9H52.9C52.9 15.9 52.9 15.9 52.9 16L52.8 16.1C52.8 16.1 52.8 16.1 52.7 16.1V16.2V16.3L52.6 16.4C52.5 16.4 52.4 16.5 52.4 16.5C52.3 16.5 52.3 16.6 52.2 16.6C52 16.6 51.9 16.6 51.7 16.6C51.6 16.6 51.6 16.6 51.5 16.6C51 16.6 50.5 16.6 50 16.6C49.9 16.6 49.9 16.6 49.8 16.6V16.5C49.8 16.5 49.8 16.5 49.7 16.5C49.6 16.5 49.5 16.5 49.4 16.5H49.3H49.2C49.1 16.5 49.1 16.5 49 16.5L48.9 16.4V16.3C48.8 16.3 48.8 16.3 48.7 16.3L48.6 16.2V16.1L48.5 16C47.1 16 45.7 16 44.3 16C44.2 16 44.2 16 44.1 16C43.9 16 43.8 16 43.6 16H43.5C43.4 16 43.4 16 43.3 16V16.1C43.2 16.1 43.2 16.2 43.1 16.2L43 16.3H42.9V16.4V16.5C42.8 16.5 42.8 16.5 42.7 16.5L42.6 16.6L42.5 16.7C42.5 16.7 42.5 16.8 42.4 16.8V16.9V17C42.3 17 42.3 17.1 42.2 17.1L42.1 17.2H42V17.3C42 17.3 42 17.4 41.9 17.4V17.5L41.8 17.6V17.7L41.7 17.8V17.9V18V18.1L41.6 18.2V18.3V18.4C41.6 18.4 41.6 18.4 41.6 18.5V18.6V18.7V18.8C41.6 18.8 41.6 18.8 41.6 18.9V19V19.1C41.5 19.1 41.5 19.2 41.5 19.2V19.3H41.4V19.4L41.3 19.5C41.2 19.5 41.2 19.5 41.2 19.5C41.2 19.5 41.1 19.5 41 19.5C40.9 19.5 40.9 19.5 40.8 19.5C40.7 19.5 40.6 19.5 40.5 19.5C40.4 19.5 40.4 19.5 40.4 19.5C40.3 19.5 40.2 19.5 40.1 19.5H40C40 19.5 40 19.5 39.9 19.5C39.8 19.5 39.8 19.5 39.7 19.5V19.4H39.6C39.5 19.4 39.5 19.3 39.4 19.3H39.3C39.3 19.3 39.3 19.3 39.2 19.2C39.1 19.2 39 19.2 38.9 19.2L38.8 19.1V19V18.9L38.7 18.8V18.7V18.6V18.5V18.4V18.3V18.2L38.6 18.1C38.6 18.1 38.6 18.1 38.6 18V17.9V17.8V17.7V17.6V17.5V17.4V17.3V17.2C38.6 17.2 38.6 17.2 38.6 17.1V17V16.9V16.8V16.7V16.6V16.5V16.4C36.6 16.4 34.7 16.4 32.7 16.4C32.6 16.4 32.6 16.4 32.5 16.4H32.4C32.4 16.4 32.4 16.4 32.3 16.4V16.5V16.6V16.7L32.2 16.8L32.1 16.9V17C32 17 32 17 32 17V17.1V17.2V17.3L31.9 17.4L31.8 17.5V17.6L31.7 17.7H31.6V17.8C31.6 17.8 31.5 17.8 31.5 17.9C31.5 17.9 31.4 17.9 31.4 18V18.1L31.3 18.2L31.2 18.3V18.4H31.1C31.1 18.4 31.1 18.4 31.1 18.5L31 18.6L30.9 18.7C30.9 18.7 30.9 18.8 30.8 18.8L30.7 18.9L30.6 19C30.5 19 30.5 19.1 30.5 19.1H30.4V19.2V19.3C30.3 19.3 30.3 19.3 30.2 19.3V19.4V19.5H30.1H30H29.9V19.6H29.8H29.7C28 19.6 26.3 19.6 24.6 19.6H24.5C24.5 19.6 24.5 19.6 24.4 19.6C24.3 19.6 24.3 19.6 24.2 19.6L24.1 19.5V19.4V19.3V19.2H24V19.3C24 19.3 24 19.3 24 19.4V19.5V19.6H23.9C23.9 19.6 23.9 19.6 23.9 19.7C23.9 19.7 23.9 19.7 23.9 19.8H23.8V19.9V20V20.1C23.8 20.1 23.8 20.1 23.8 20.2V20.3V20.4C23.8 20.4 23.8 20.4 23.8 20.5C23.8 20.5 23.8 20.5 23.8 20.6H23.7V20.7V20.8V20.9H23.6C23.6 20.9 23.6 20.9 23.6 21V21.1V21.2V21.3V21.4C23.6 21.4 23.6 21.4 23.5 21.4V21.5V21.6C23.5 21.6 23.5 21.6 23.5 21.7V21.8V21.9H23.4V22C23.4 22 23.4 22 23.4 22.1V22.2C23.4 22.2 23.4 22.2 23.4 22.3V22.4V22.5C23.4 22.5 23.4 22.5 23.4 22.6H23.3V22.7V22.8V22.9V23V23.1V23.2V23.3V23.4V23.5V23.6H23.2C23.2 23.6 23.2 23.6 23.2 23.7H23.1V23.8H23V23.9H23.1H23.2V24H23.1V24.1V24.2V24.3V24.4H23V24.5V24.6V24.7V24.8V24.9V25.4C23 25.4 23 25.4 22.9 25.4V25.5V25.6V25.8H22.8V25.9V26C22.8 26 22.8 26 22.8 26.1C22.7 26.1 22.7 26.1 22.7 26.1H22.6H22.5H22.4C22.4 26.1 22.4 26.1 22.3 26.1H22.2V26.2H22.1V26.3V26.4H22L21.9 26.5V26.6V26.7C21.9 26.7 21.9 26.7 21.9 26.8V26.9C21.9 26.9 21.9 26.9 21.8 26.9V27C21.8 27 21.8 27 21.8 27.1V27.2V27.3V27.4V27.5C21.9 27.5 21.9 27.5 21.9 27.6H22V27.7V27.8C22 27.8 22 27.9 21.9 27.9H21.8C21.8 27.9 21.7 27.9 21.6 27.9V28H21.5V28.1V28.2V28.3V28.4C21.4 28.4 21.3 28.4 21.2 28.4V28.5V28.6V28.7L21.3 28.8V28.9V29V29.1C21.3 29.1 21.3 29.1 21.3 29.2C21.3 29.2 21.2 29.2 21.1 29.2C18.6 29.2 16.1 29.2 13.7 29.2H13.6H13.5C13.4 29.2 13.4 29.2 13.3 29.2C13.2 29.2 13.2 29.2 13.1 29.2H13H12.9C12.8 29.2 12.8 29.2 12.7 29.2L12.6 29.1L12.5 29L12.4 28.9L12.3 28.8V28.7L12.2 28.6H12.1L12 28.5L11.9 28.4V28.3V28.2V28.1C11.9 28.1 11.9 28.1 11.9 28V27.9L12 27.8L12.1 27.7C12.2 27.7 12.2 27.7 12.2 27.7H12.3C12.4 27.7 12.4 27.7 12.5 27.7L12.6 27.8V27.9V27.8V27.7V28.4L12.5 28.3V28.2V28.1V28L12.6 27.9C12.6 27.9 12.6 27.9 12.6 27.8V27.7V27.6C12.6 27.6 12.7 27.6 12.7 27.5H12.8C12.8 27.5 12.8 27.5 12.8 27.4H12.9V27.3V27.2H13V27.1V27V26.9V26.8H13.1V26.7C13.1 26.7 13.1 26.7 13.1 26.6H13.2V26.5V26.4H13.3V26.3V26.2V26.1V26V25.9H13.4V25.8V25.7V25.6H13.5V25.5V25.4V25.3V25.2V25.1C13.5 25.1 13.5 25.1 13.5 25C13.5 25 13.5 25 13.5 24.9V24.8V24.7V24.6H13.6V24.5V24.4V24.3V24.2V24.1H13.7V24V23.9C13.7 23.9 13.7 23.9 13.7 23.8V23.7C13.8 23.7 13.8 23.7 13.8 23.7V23.6V23.5V23.4V23.3V23.2V23.1C13.8 23.1 13.8 23.1 13.8 23V22.9V22.8V22.7H13.9V22.6V22.5V22.4V22.3V22.2H14V22.1C14 22.1 14 22.1 14 22V21.9V21.8V21.7V21.6H14.1V21.5V21.4C14.1 21.4 14.1 21.4 14.1 21.3V21.2C14.1 21.2 14.1 21.2 14.1 21.1V21V20.9V20.8V20.7V20.6V20.5V20.4V20.3V20.2H14.2V20.1C14.2 20.1 14.2 20.1 14.2 20V19.9V19.8V19.7V19.6V19.5V19.4V19.3C14.2 19.3 14.2 19.3 14.2 19.2H14.3V19.1V19V18.9V18.8V18.7V18.6V18.5V18.4V18.3V18.2H14.2C14.2 18.2 14.2 18.2 14.2 18.1C14.1 18.1 14.1 18.1 14 18.1H13.9C13.8 18.1 13.7 18.1 13.6 18.1C13.5 18.1 13.5 18.1 13.4 18.1V18C13.2 18 13.1 18 12.9 18H12.8C12.7 18 12.5 18 12.4 18C12.3 18 12.3 18 12.2 18V17.9C12.1 17.9 11.9 17.9 11.8 17.9H11.7C11.6 17.9 11.5 17.9 11.4 17.9C11.3 17.9 11.3 17.9 11.2 17.9V17.8C11.1 17.8 11 17.8 10.9 17.8H10.8C10.6 17.8 10.5 17.8 10.3 17.8C10.2 17.8 10.2 17.8 10.1 17.8V17.7C10 17.7 9.8 17.7 9.7 17.7H9.6C9.5 17.7 9.4 17.7 9.4 17.7C9.3 17.7 9.3 17.7 9.2 17.7V17.6C9.1 17.6 9.1 17.6 9 17.6H8.9C8.8 17.6 8.7 17.6 8.7 17.6C8.6 17.6 8.6 17.6 8.5 17.6V17.5C8.4 17.5 8.4 17.5 8.4 17.5H8.3H8.2C8.1 17.5 8.1 17.5 8 17.5V17.4C7.9 17.4 7.9 17.4 7.8 17.4H7.7C7.6 17.4 7.6 17.4 7.5 17.4C7.4 17.4 7.4 17.4 7.3 17.4V17.3H7.2H7.1C7 17.3 7 17.3 6.9 17.3C6.8 17.3 6.8 17.3 6.7 17.3V17.2H6.6H6.5C6.4 17.2 6.4 17.2 6.3 17.2C6.2 17.2 6.2 17.2 6.1 17.2L6 17.1L5.9 17C5.8 17 5.8 17 5.7 17L5.6 16.9L5.5 16.8C5.4 16.8 5.4 16.8 5.3 16.8L5.2 16.7L5.1 16.6H5C4.9 16.6 4.9 16.6 4.8 16.6L4.7 16.5V16.4C4.6 16.4 4.6 16.4 4.5 16.4V16.3C4.5 16.3 4.5 16.3 4.4 16.3C4.3 16.3 4.3 16.2 4.2 16.2C4.1 16.2 4.1 16.2 4.1 16.2L4 16.1V16C3.9 16 3.9 15.9 3.9 15.9L3.8 15.8L3.7 15.7L3.6 15.6C2.5 13.4 2.5 13.4 2.4 13.3C2.3 13.3 2.3 13.3 2.3 13.3L2.2 13.2V13.1C2.1 13.1 2.1 13 2.1 13L2 12.9V12.8L1.9 12.7C1.8 12.7 1.8 12.6 1.7 12.6H1.6L1.5 12.5L1.4 12.4C1.3 12.4 1.3 12.3 1.3 12.3C1.2 12.3 1.1 12.3 1 12.3V12.2V12.1L0.9 12L0.8 11.9L0.7 11.8L0.6 11.7C0.6 11.7 0.6 11.6 0.5 11.6L0.4 11.5V11.4H0.3H0.2V11.3V11.2C0.2 11.2 0.2 11.2 0.2 11.1L0.1 11V10.9L0 10.8V10.7V10.6V10.5V10.4V10.3V10.2V10.1V10V9.9V9.8V9.7V9.6V9.5V9.4V9.3V9.2V9.1V9V8.9V8.8V8.7V8.6V8.5V8.4V8.3V8.2V8.1V8V7.9L0.1 7.8L0.2 7.7V7.6V7.5L0.3 7.4C0.4 8.3 0.4 8.2 0.4 8.2V8.1C0.4 8.1 0.4 8.1 0.5 8.1V8V7.9V7.8V7.7V7.6C0.5 7.6 0.5 7.5 0.6 7.5V7.4V7.3V7.2V7.1V7V6.9V6.8V6.7V6.6V6.5V6.4V6.3V6.2V6.1V6L0.7 5.9V5.8V5.7V5.6V5.5V5.4V5.3H0.8L0.9 5.2V5.1L1 5C1.4 5.5 1.4 5.5 1.5 5.5ZM28.4 15.5C27.2 15.5 26 15.5 24.8 15.5V15.6V15.7V15.8V15.9V16V16.1V16.2V16.3V16.4V16.5V16.6V16.7L24.9 16.8L25 16.9L25.1 17V17.1C25.1 17.1 25.2 17.2 25.3 17.2C25.8 17.2 26.2 17.2 26.7 17.2C26.8 17.2 26.8 17.2 26.9 17.2H27C27.1 17.2 27.1 17.2 27.1 17.2V17.1H27.2C27.3 17.1 27.3 17.1 27.4 17.1L27.5 17L27.6 16.9C27.6 16.9 27.6 16.9 27.6 16.8L27.7 16.7V16.6L27.8 16.5C27.8 16.5 27.8 16.4 27.9 16.4V16.3L28 16.2V16.1V16V15.9L28.1 15.8L28.2 15.7H28.3V15.6C28.5 15.6 28.5 15.6 28.4 15.5ZM23.6 16.2C23.5 16.2 23.5 16.3 23.5 16.3L23.4 16.4V16.5V16.6V16.7V16.8C23.7 16.8 24 16.8 24.3 16.8V16.7V16.6H24.2L24.1 16.5V16.4V16.3V16.2L24 16.1V16V15.9C23.6 16.4 23.6 16.3 23.6 16.2C23.6 16.3 23.6 16.3 23.6 16.2ZM1 11.5C1 11.4 1 11.4 1 11.5C1 11.4 1 11.4 1 11.3C1 11.3 1 11.3 0.9 11.3C1 11.4 1 11.4 1 11.5ZM5.7 12.5H5.8C5.8 12.5 5.7 12.5 5.7 12.5Z" fill="white"/>
</svg>
