<svg width="122" height="37" viewBox="0 0 122 37" fill="none" xmlns="http://www.w3.org/2000/svg">
<path d="M92.158 29.823C93.739 28.3487 94.494 27.4491 94.994 26.4683C95.528 25.4187 95.875 24.0756 95.969 22.7199C96.269 18.2656 96.843 14.8671 97.617 12.9305C98.011 11.9497 98.358 11.4561 99.206 10.6565C100.154 9.76938 101.001 9.22587 102.577 8.50744C104.372 7.68281 105.694 7.23301 109.051 6.29592C110.787 5.81488 111.928 5.44629 115.425 4.24058C117.321 3.58462 120.725 2.36641 121.673 2.00407C121.82 1.94784 122 2.4851 122 2.97863C122 3.40345 121.973 3.5034 121.74 3.94071C121.299 4.77784 120.612 5.3276 118.863 6.25844C116.6 7.45791 115.052 8.07638 110.486 9.56947C108.003 10.3879 106.982 10.7564 105.213 11.4874C102.343 12.6744 101.402 13.1804 100.421 14.0612C99.747 14.6672 99.339 15.2232 98.932 16.1166L98.619 16.7913L98.539 16.4602C98.438 16.0916 98.425 15.3919 98.498 15.1732C98.545 15.0483 98.532 15.0296 98.425 15.0483C98.358 15.0608 98.225 15.217 98.118 15.4231C97.944 15.7355 97.918 15.8917 97.838 16.835C97.784 17.416 97.698 18.1719 97.637 18.5093C97.577 18.8529 97.504 19.6088 97.471 20.1898C97.304 22.9198 97.057 24.188 96.369 25.7748C95.915 26.8431 95.395 27.649 94.774 28.2737C93.9 29.1421 92.004 30.5102 91.016 30.985C90.903 31.0412 91.397 30.5415 92.158 29.823Z" fill="white"/>
<path d="M102.31 30.6727C101.696 30.6477 100.848 30.5415 100.468 30.4353C99.967 30.2978 99.76 30.1729 99.486 29.823C99.339 29.6481 99.179 29.4607 99.113 29.4107C99.012 29.3357 99.039 29.292 99.386 28.9922C99.713 28.711 99.813 28.661 100.04 28.6548C100.281 28.6548 100.334 28.686 100.674 29.0421C101.522 29.9292 101.869 30.2104 102.43 30.4665C102.73 30.6039 102.93 30.7101 102.877 30.7039C102.824 30.6976 102.57 30.6852 102.31 30.6727Z" fill="white"/>
<path d="M92.738 30.5977C92.585 30.5602 92.591 30.5415 92.938 30.3416C93.559 29.9667 94.607 29.1546 95.275 28.5299C96.496 27.3741 97.277 25.9935 97.731 24.1568C97.804 23.8632 97.991 22.7137 98.138 21.5954C98.292 20.4772 98.445 19.3589 98.485 19.1028L98.559 18.6405L98.745 19.1215C98.846 19.3901 99.206 20.0711 99.546 20.6333C100.468 22.1827 100.681 22.8449 100.681 24.1693C100.674 25.6999 100.254 26.7306 99.099 28.0051C98.565 28.5923 98.258 28.8547 97.671 29.2233C96.423 30.0042 94.827 30.5227 93.366 30.6164C93.112 30.6289 92.825 30.6227 92.738 30.5977Z" fill="white"/>
<path d="M103.711 30.2791C102.737 29.9542 102.21 29.6606 101.549 29.0608C100.881 28.4611 100.594 28.2799 100.314 28.2799C100.154 28.2799 100.16 28.2612 100.521 27.7989C100.721 27.5303 100.941 27.2179 101.001 27.0992L101.108 26.8931L101.502 26.9368C102.049 26.993 102.203 27.0805 102.904 27.7427C103.371 28.1862 103.625 28.3674 104.012 28.5486C104.733 28.8859 105.44 29.0421 106.288 29.0484C107.082 29.0608 107.069 29.0484 106.742 29.5044C106.375 30.0042 105.634 30.3165 104.646 30.3728C104.212 30.404 104.038 30.3853 103.711 30.2791Z" fill="white"/>
<path d="M105.514 27.9988C104.653 27.8239 104.058 27.5366 103.398 26.993C102.79 26.4933 102.39 26.3308 101.816 26.3558L101.362 26.3746L101.442 26.1871C101.515 26.031 101.596 25.7124 101.776 24.8627C101.809 24.7128 102.109 24.5941 102.437 24.5941C102.804 24.5941 103.344 24.9564 104.312 25.856C104.826 26.3308 105.387 26.8119 105.56 26.9306C106.321 27.4366 107.256 27.6802 108.297 27.6428L108.951 27.624L108.597 27.7677C108.41 27.8489 108.07 27.9551 107.85 27.9988C107.349 28.1113 106.054 28.1113 105.514 27.9988Z" fill="white"/>
<path d="M107.349 26.437C106.682 26.2996 106.048 25.9622 105.28 25.3375C103.792 24.1381 102.877 23.7695 102.13 24.0818L101.829 24.2068L101.789 23.4758C101.762 23.076 101.729 22.6762 101.702 22.5887C101.662 22.4326 101.682 22.4201 102.103 22.3139C103.057 22.0702 104.065 22.4013 106.181 23.657C107.316 24.3255 109.125 25.1876 109.946 25.45C110.299 25.5562 110.653 25.6124 111.16 25.6374C111.881 25.6749 111.881 25.6749 111.721 25.7936C111.454 25.9872 110.747 26.2746 110.253 26.3746C109.578 26.5183 107.903 26.5557 107.349 26.437Z" fill="white"/>
<path d="M110.913 24.5316C110.186 24.3942 109.044 23.9381 106.915 22.9323C105.3 22.1639 104.766 21.964 103.945 21.8203C102.997 21.6516 102.477 21.7079 101.903 22.0515L101.622 22.2139L101.415 21.6704C101.302 21.3705 101.088 20.9457 100.948 20.7208C100.801 20.4959 100.694 20.3085 100.701 20.296C100.714 20.2897 101.015 20.2085 101.375 20.1273C103.177 19.6962 104.539 20.0586 107.783 21.8453C109.885 23.001 111.154 23.4633 112.789 23.6633C113.376 23.732 114.845 23.7132 115.125 23.6258C115.405 23.5383 114.851 23.9194 114.391 24.1318C113.236 24.6503 112.182 24.769 110.913 24.5316Z" fill="white"/>
<path d="M112.789 22.4638C112.222 22.3888 111.14 22.1202 110.626 21.9265C110.386 21.839 109.385 21.3892 108.404 20.9394C105.567 19.615 104.799 19.3839 103.311 19.3776C102.263 19.3776 101.976 19.4401 101.048 19.8399L100.501 20.0773L100.274 19.765L100.047 19.4526L100.341 19.2027C100.968 18.6842 101.876 18.3968 103.264 18.2719C104.279 18.1782 104.733 18.2219 107.783 18.6904C113.143 19.5088 113.83 19.5963 115.125 19.5963C116.547 19.5963 117.581 19.4151 118.536 19.0028C118.81 18.8903 119.03 18.8029 119.03 18.8154C119.03 18.9278 118.569 19.9024 118.349 20.2522C117.495 21.6079 116.734 22.1639 115.345 22.4325C114.785 22.5387 113.476 22.5575 112.789 22.4638Z" fill="white"/>
<path d="M99.773 19.0965C99.72 19.0403 99.673 18.9653 99.673 18.9278C99.673 18.7904 100.835 17.8408 101.522 17.4035C103.144 16.3915 105.02 15.723 107.115 15.4106C108.397 15.2232 109.498 15.1545 113.837 15.0046C117.681 14.8671 118.723 14.7109 119.984 14.08C120.431 13.8613 120.431 13.8613 120.598 14.3736C120.712 14.7297 120.725 15.4356 120.625 15.8479C120.512 16.3102 120.104 17.0099 119.737 17.366C119.13 17.9595 117.922 18.4593 116.76 18.5905C115.445 18.7467 114.438 18.6842 111.02 18.2219C106.101 17.5597 104.639 17.4472 103.351 17.6222C101.903 17.8221 100.875 18.2281 100.247 18.8466C99.907 19.1777 99.873 19.1965 99.773 19.0965Z" fill="white"/>
<path d="M99.373 18.5093C99.259 18.3156 99.259 18.2719 99.339 18.1157C99.473 17.8658 101.335 16.1416 102.009 15.6356C103.464 14.5548 104.98 13.9425 107.863 13.2866C109.578 12.893 110.399 12.7493 112.642 12.437C116.533 11.9059 119.25 11.3125 120.498 10.7252C120.999 10.4878 121.052 10.5128 121.086 11.0563C121.119 11.5186 120.925 12.0559 120.618 12.387C120.278 12.7493 119.317 13.1242 118.162 13.3428C117.214 13.5302 116.62 13.5865 114.024 13.7239C108.824 14.005 107.095 14.2362 105.08 14.9046C102.964 15.6168 100.835 17.0162 99.78 18.3968C99.64 18.5718 99.52 18.7217 99.513 18.7217C99.5 18.7217 99.44 18.6217 99.373 18.5093Z" fill="white"/>
<path d="M98.952 17.6721C98.872 17.4722 98.806 17.2598 98.806 17.1973C98.806 17.1349 98.926 16.86 99.066 16.5914C99.893 15.0545 100.808 14.2174 102.55 13.4303C104.005 12.768 107.136 11.6873 110.373 10.7252C115.566 9.18838 117.154 8.59489 119.644 7.27048L120.291 6.92688L120.678 7.1018C121.346 7.40792 121.633 7.72653 121.633 8.15134C121.633 8.63238 121.339 9.06968 120.732 9.50699C120.004 10.0255 119.17 10.3066 116.714 10.8814C115.118 11.25 114.378 11.3937 111.821 11.8185C110.213 12.0809 109.331 12.2745 107.549 12.7556C104.112 13.6801 102.777 14.3736 100.741 16.2915C100.281 16.7226 99.74 17.2911 99.54 17.5534C99.339 17.8158 99.159 18.0282 99.139 18.0282C99.119 18.0345 99.039 17.872 98.952 17.6721Z" fill="white"/>
<path d="M89.7 8.8C89.7 9.4 89.6 10 89.4 10.7C89.3 11.1 89.2 11.4 89.1 11.6H62.1V12.4L61.8 12.9H37.1V11.8H36.1C35.9 11.9 35.9 12.2 36.1 12.6L36.8 14.7H37.1L37.2 15.1L36.6 15.4L36.8 15.9C37 16.3 37.1 16.8 37.3 17.4C38 19.1 38.8 21 39.9 23C40.9 25 42.4 27.4 44.2 30.1C45.1 31.4 45.9 32.6 46.7 33.6L43 36.5C42.3 35.6 41.5 34.5 40.5 33.1C38.7 30.4 37.2 27.9 36 25.6C34.9 23.3 33.9 21.2 33 19.2L32 16.9L31.7 17H30.3L29.9 19.1H29.8L30.1 17.1H28.6L28.3 17.6L26.5 21.1C26.4 21.4 26.2 21.5 25.9 21.6H20.4C19.9 21.6 19.5 21.5 19.2 21.2L19 21.3C18.9 21.5 18.8 21.6 18.7 21.8C18.6 21.9 18.6 22.2 18.6 22.4C18.6 22.7 18.5 22.9 18.4 23.1C18.4 23.2 18.3 23.4 18.1 23.7C17.9 23.9 17.7 24.2 17.6 24.5C17.5 24.8 17.4 25.1 17.4 25.4C17.4 25.7 17.4 26 17.3 26.1C17.3 26.3 17.1 26.5 16.9 26.9C16.7 27.2 16.5 27.5 16.4 27.8C16.3 28 16.3 28.3 16.3 28.7C16.3 29 16.2 29.2 16.2 29.4C16.1 29.6 15.9 29.9 15.7 30.1C15.5 30.2 15.4 30.3 15.3 30.4L9.4 27.1C9.4 26.8 9.5 26.4 9.7 25.9C10 24.9 10.4 23.9 10.9 22.9C11.3 22 11.9 21.2 12.5 20.3C12.8 19.9 13 19.6 13.1 19.5C13.2 19.2 13.4 19 13.5 18.8C13.7 18.2 13.8 17.7 13.9 17.3C14 16.7 13.9 16.3 13.6 15.9C13.4 15.6 13.1 15.3 12.7 15.1C12.5 15 12.3 15 12.3 14.9C12.2 14.9 12.1 14.8 12 14.8C11.9 14.7 11.8 14.6 11.8 14.5H7.9C7.6 14.5 7.3 14.2 7.1 13.7L6.5 10.6H6.3L6.2 11L6.8 13.1L6.5 13.6H5L4.7 13L5.7 11L5.6 10.6L5.2 10.8C4.9 11.1 4.7 11.4 4.5 11.7C4.3 12.1 4.2 12.4 4.1 12.8C4 13 4 13.1 4 13.2L3.4 16.6C3 18.8 2.8 20 2.6 20.1C2.5 20.2 2.3 20.3 2.2 20.5C2.1 20.6 2 20.6 1.9 20.6C1.7 20.6 1.4 20.6 1.1 20.6C0.7 20.5 0.4 20.4 0.3 20.2C0.0999999 20 0 19.9 0 19.7C0 19.6 0 19.5 0 19.2C0 19.2 0.1 18.4 0.4 16.9C0.6 15.6 0.8 14.6 0.9 13.9C0.9 13.5 0.9 12.1 0.9 10V7.2C0.9 6.7 0.9 6.4 1 6.1C1.2 5.9 1.4 5.8 1.6 5.8C1.9 5.8 2.5 5.8 3.6 6C4.1 6.1 4.6 6.3 5.1 6.3H6.4L6.5 5.5C6.7 5.3 6.8 5 6.9 4.6C7.2 3.9 7.3 3.5 7.5 3.3C7.5 3.2 7.7 3.1 7.8 3.1C7.9 3.1 7.9 3.1 7.9 3.1H11.6L12 3.3H13.8V1.8C13.9 1.5 14.1 1.2 14.2 1.1C14.4 1 14.6 0.9 14.8 0.9C15 0.9 15.2 0.9 15.3 0.9L15.5 1.7L15.9 0.7L18 1.6L17.5 2.4L18 3.1H36.9L37.3 3.2H60.1V2.7H59.8V0.3L60 0H60.8L61.5 2V3.2H62L62.3 3.7V5.4H62V6H89.3L89.5 6.9C89.6 7.6 89.7 8.2 89.7 8.8ZM27.1 17.6L26.8 17.2H22.7L22.5 17.6C22.4 17.9 22.3 18.1 22.2 18.4C22.2 18.6 22.2 18.9 22.3 19.3C22.4 19.6 22.4 19.9 22.5 20.1V20.6L22.1 20.4C21.8 20 21.6 19.5 21.5 19.1C21.4 18.7 21.4 18.3 21.4 17.8V17.3H20.4L19.9 18.3C19.6 19 19.5 19.4 19.4 19.5C19.4 19.7 19.4 20 19.4 20.4C19.7 20.7 20 20.9 20.4 20.9H25.4C25.6 20.9 25.8 20.7 25.9 20.5L27.1 17.6Z" fill="white"/>
</svg>
