<svg width="81" height="30" viewBox="0 0 81 30" fill="none" xmlns="http://www.w3.org/2000/svg">
<path d="M51.158 27.823C52.739 26.3487 53.494 25.4491 53.994 24.4683C54.528 23.4187 54.875 22.0756 54.969 20.7199C55.269 16.2656 55.843 12.8671 56.617 10.9305C57.011 9.9497 57.358 9.4561 58.206 8.6565C59.154 7.76938 60.001 7.22587 61.577 6.50744C63.372 5.68281 64.694 5.23301 68.051 4.29592C69.787 3.81488 70.928 3.44629 74.425 2.24058C76.321 1.58462 79.725 0.366406 80.673 0.00406609C80.82 -0.0521639 81 0.485096 81 0.978626C81 1.40345 80.973 1.5034 80.74 1.94071C80.299 2.77784 79.612 3.3276 77.863 4.25844C75.6 5.45791 74.052 6.07638 69.486 7.56947C67.003 8.3879 65.982 8.7564 64.213 9.4874C61.343 10.6744 60.402 11.1804 59.421 12.0612C58.747 12.6672 58.339 13.2232 57.932 14.1166L57.619 14.7913L57.539 14.4602C57.438 14.0916 57.425 13.3919 57.498 13.1732C57.545 13.0483 57.532 13.0296 57.425 13.0483C57.358 13.0608 57.225 13.217 57.118 13.4231C56.944 13.7355 56.918 13.8917 56.838 14.835C56.784 15.416 56.698 16.1719 56.637 16.5093C56.577 16.8529 56.504 17.6088 56.471 18.1898C56.304 20.9198 56.057 22.188 55.369 23.7748C54.915 24.8431 54.395 25.649 53.774 26.2737C52.9 27.1421 51.004 28.5102 50.016 28.985C49.903 29.0412 50.397 28.5415 51.158 27.823Z" fill="white"/>
<path d="M61.31 28.6727C60.696 28.6477 59.848 28.5415 59.468 28.4353C58.967 28.2978 58.76 28.1729 58.486 27.823C58.339 27.6481 58.179 27.4607 58.113 27.4107C58.012 27.3357 58.039 27.292 58.386 26.9922C58.713 26.711 58.813 26.661 59.04 26.6548C59.281 26.6548 59.334 26.686 59.674 27.0421C60.522 27.9292 60.869 28.2104 61.43 28.4665C61.73 28.6039 61.93 28.7101 61.877 28.7039C61.824 28.6976 61.57 28.6852 61.31 28.6727Z" fill="white"/>
<path d="M51.738 28.5977C51.585 28.5602 51.591 28.5415 51.938 28.3416C52.559 27.9667 53.607 27.1546 54.275 26.5299C55.496 25.3741 56.277 23.9935 56.731 22.1568C56.804 21.8632 56.991 20.7137 57.138 19.5954C57.292 18.4772 57.445 17.3589 57.485 17.1028L57.559 16.6405L57.745 17.1215C57.846 17.3901 58.206 18.0711 58.546 18.6333C59.468 20.1827 59.681 20.8449 59.681 22.1693C59.674 23.6999 59.254 24.7306 58.099 26.0051C57.565 26.5923 57.258 26.8547 56.671 27.2233C55.423 28.0042 53.827 28.5227 52.366 28.6164C52.112 28.6289 51.825 28.6227 51.738 28.5977Z" fill="white"/>
<path d="M62.711 28.2791C61.737 27.9542 61.21 27.6606 60.549 27.0608C59.881 26.4611 59.594 26.2799 59.314 26.2799C59.154 26.2799 59.16 26.2612 59.521 25.7989C59.721 25.5303 59.941 25.2179 60.001 25.0992L60.108 24.8931L60.502 24.9368C61.049 24.993 61.203 25.0805 61.904 25.7427C62.371 26.1862 62.625 26.3674 63.012 26.5486C63.733 26.8859 64.44 27.0421 65.288 27.0484C66.082 27.0608 66.069 27.0484 65.742 27.5044C65.375 28.0042 64.634 28.3165 63.646 28.3728C63.212 28.404 63.038 28.3853 62.711 28.2791Z" fill="white"/>
<path d="M64.514 25.9988C63.653 25.8239 63.058 25.5366 62.398 24.993C61.79 24.4933 61.39 24.3308 60.816 24.3558L60.362 24.3746L60.442 24.1871C60.515 24.031 60.596 23.7124 60.776 22.8627C60.809 22.7128 61.109 22.5941 61.437 22.5941C61.804 22.5941 62.344 22.9564 63.312 23.856C63.826 24.3308 64.387 24.8119 64.56 24.9306C65.321 25.4366 66.256 25.6802 67.297 25.6428L67.951 25.624L67.597 25.7677C67.41 25.8489 67.07 25.9551 66.85 25.9988C66.349 26.1113 65.054 26.1113 64.514 25.9988Z" fill="white"/>
<path d="M66.349 24.437C65.682 24.2996 65.048 23.9622 64.28 23.3375C62.792 22.1381 61.877 21.7695 61.13 22.0818L60.829 22.2068L60.789 21.4758C60.762 21.076 60.729 20.6762 60.702 20.5887C60.662 20.4326 60.682 20.4201 61.103 20.3139C62.057 20.0702 63.065 20.4013 65.181 21.657C66.316 22.3255 68.125 23.1876 68.946 23.45C69.299 23.5562 69.653 23.6124 70.16 23.6374C70.881 23.6749 70.881 23.6749 70.721 23.7936C70.454 23.9872 69.747 24.2746 69.253 24.3746C68.578 24.5183 66.903 24.5557 66.349 24.437Z" fill="white"/>
<path d="M69.913 22.5316C69.186 22.3942 68.044 21.9381 65.915 20.9323C64.3 20.1639 63.766 19.964 62.945 19.8203C61.997 19.6516 61.477 19.7079 60.903 20.0515L60.622 20.2139L60.415 19.6704C60.302 19.3705 60.088 18.9457 59.948 18.7208C59.801 18.4959 59.694 18.3085 59.701 18.296C59.714 18.2897 60.015 18.2085 60.375 18.1273C62.177 17.6962 63.539 18.0586 66.783 19.8453C68.885 21.001 70.154 21.4633 71.789 21.6633C72.376 21.732 73.845 21.7132 74.125 21.6258C74.405 21.5383 73.851 21.9194 73.391 22.1318C72.236 22.6503 71.182 22.769 69.913 22.5316Z" fill="white"/>
<path d="M71.789 20.4638C71.222 20.3888 70.14 20.1202 69.626 19.9265C69.386 19.839 68.385 19.3892 67.404 18.9394C64.567 17.615 63.799 17.3839 62.311 17.3776C61.263 17.3776 60.976 17.4401 60.048 17.8399L59.501 18.0773L59.274 17.765L59.047 17.4526L59.341 17.2027C59.968 16.6842 60.876 16.3968 62.264 16.2719C63.279 16.1782 63.733 16.2219 66.783 16.6904C72.143 17.5088 72.83 17.5963 74.125 17.5963C75.547 17.5963 76.581 17.4151 77.536 17.0028C77.81 16.8903 78.03 16.8029 78.03 16.8154C78.03 16.9278 77.569 17.9024 77.349 18.2522C76.495 19.6079 75.734 20.1639 74.345 20.4325C73.785 20.5387 72.476 20.5575 71.789 20.4638Z" fill="white"/>
<path d="M58.773 17.0965C58.72 17.0403 58.673 16.9653 58.673 16.9278C58.673 16.7904 59.835 15.8408 60.522 15.4035C62.144 14.3915 64.02 13.723 66.115 13.4106C67.397 13.2232 68.498 13.1545 72.837 13.0046C76.681 12.8671 77.723 12.7109 78.984 12.08C79.431 11.8613 79.431 11.8613 79.598 12.3736C79.712 12.7297 79.725 13.4356 79.625 13.8479C79.512 14.3102 79.104 15.0099 78.737 15.366C78.13 15.9595 76.922 16.4593 75.76 16.5905C74.445 16.7467 73.438 16.6842 70.02 16.2219C65.101 15.5597 63.639 15.4472 62.351 15.6222C60.903 15.8221 59.875 16.2281 59.247 16.8466C58.907 17.1777 58.873 17.1965 58.773 17.0965Z" fill="white"/>
<path d="M58.373 16.5093C58.259 16.3156 58.259 16.2719 58.339 16.1157C58.473 15.8658 60.335 14.1416 61.009 13.6356C62.464 12.5548 63.98 11.9425 66.863 11.2866C68.578 10.893 69.399 10.7493 71.642 10.437C75.533 9.90589 78.25 9.31249 79.498 8.72519C79.999 8.48779 80.052 8.51279 80.086 9.05629C80.119 9.51859 79.925 10.0559 79.618 10.387C79.278 10.7493 78.317 11.1242 77.162 11.3428C76.214 11.5302 75.62 11.5865 73.024 11.7239C67.824 12.005 66.095 12.2362 64.08 12.9046C61.964 13.6168 59.835 15.0162 58.78 16.3968C58.64 16.5718 58.52 16.7217 58.513 16.7217C58.5 16.7217 58.44 16.6217 58.373 16.5093Z" fill="white"/>
<path d="M57.952 15.6721C57.872 15.4722 57.806 15.2598 57.806 15.1973C57.806 15.1349 57.926 14.86 58.066 14.5914C58.893 13.0545 59.808 12.2174 61.55 11.4303C63.005 10.768 66.136 9.6873 69.373 8.7252C74.566 7.18838 76.154 6.59489 78.644 5.27048L79.291 4.92688L79.678 5.1018C80.346 5.40792 80.633 5.72653 80.633 6.15134C80.633 6.63238 80.339 7.06968 79.732 7.50699C79.004 8.0255 78.17 8.3066 75.714 8.8814C74.118 9.25 73.378 9.3937 70.821 9.8185C69.213 10.0809 68.331 10.2745 66.549 10.7556C63.112 11.6801 61.777 12.3736 59.741 14.2915C59.281 14.7226 58.74 15.2911 58.54 15.5534C58.339 15.8158 58.159 16.0282 58.139 16.0282C58.119 16.0345 58.039 15.872 57.952 15.6721Z" fill="white"/>
<path d="M27.9 8.4C27.9 8.3 27.9 8.3 27.9 8.4C26.7 8.3 25.6 8.3 24.5 8.3V8.4V8.5V8.6V8.7C24.6 8.7 24.6 8.8 24.7 8.8L24.8 8.9V9H24.9V9.1V9.2V9.3V9.4V9.5L25 9.6V9.7L25.1 9.8L25.2 9.9V10H25.3V10.1C25.7 10.1 26.1 10.1 26.5 10.1H26.6H26.7V10L26.8 9.9C26.9 9.9 26.9 9.9 26.9 9.9V9.8V9.7V9.6V9.5V9.4L27 9.3V9.2V9.1V9H27.1H27.2V8.9V8.8V8.7V8.6V8.5C27.9 8.5 27.9 8.5 27.9 8.4ZM44 4.5C44 4.6 44.1 4.6 44.1 4.6C44.3 4.6 44.5 4.6 44.7 4.6H48.6L48.8 4.9V7.2L48.5 7.5H44.9V7.6C44.7 7.6 44.5 7.6 44.3 7.6L44.2 7.7H44.1V7.8V7.9V8V8.1V8.2V8.3V8.4V8.5L44 8.6V8.7V8.8V8.9V9C43.9 9 43.9 9 43.8 9C43.7 9 43.7 9 43.6 9V8.9H43.5V8.8V8.7V8.6L43.4 8.5L43.3 8.4V8.3H43.2L43.1 8.2L43 8.1V8C43 8 43 8 42.9 8V7.9L42.8 7.8L42.7 7.7L42.6 7.6V7.5C42.5 7.5 42.5 7.5 42.4 7.5C42.3 7.5 42.3 7.5 42.3 7.5C42.3 7.6 42.2 7.6 42.2 7.6C42.2 7.7 42.2 7.7 42.2 7.7L42.1 7.8C42 7.9 42 7.9 41.9 7.9C41.8 7.9 41.8 8 41.7 8C41.6 8 41.6 8 41.6 8V8.1C41.5 8.1 41.5 8.1 41.5 8.1C41.4 8.1 41.4 8.2 41.4 8.2V8.3V8.4V8.5H41.3V8.6V8.7V8.8V8.9V9V9.1V9.2V9.3V9.4V9.5V9.6V9.7V9.8V9.9V10V10.1V10.2V10.3V10.4V10.5V10.6V10.7V10.8V10.9V11V11.1V11.2V11.3V11.4V11.5V11.6V11.7V11.8V11.9V12V12.1V12.2V12.3V12.4V12.5V12.6V12.7V12.8V12.9V13V13.1V13.2V13.3V13.4V13.5V13.6V13.7V13.8V14.1V14.2V14.3V14.4V14.5V14.6V14.7V14.8V14.9V15V15.1V15.2V15.3V15.4V15.5V15.6V15.7V15.8V15.9V16V16.1V16.2V16.3V16.4V16.5V16.6V16.7V16.8V16.9V17V17.1V17.2V17.3V17.4V17.5V17.6V17.7V17.8V17.9V18V18.1V18.2V18.1V18.2V18.3V18.4V18.5V18.6V18.7V18.8V18.9V19V19.1V19.2V19.3V19.4V19.5V19.6V19.7V19.8V19.9V20V20.1H41.2C41.1 20.1 41.1 20.1 41.1 20.1H41C40.9 20.1 40.9 20.1 40.9 20.1H40.8C40.7 20.1 40.5 20.1 40.4 20.1C40.3 20.1 40.3 20.1 40.2 20.1C40.1 20.1 40.1 20 40.1 20H40C39.9 20 39.9 20 39.8 20C39.7 20 39.7 20 39.6 20C39.5 20 39.5 20 39.5 20C39.4 20 39.4 20 39.3 20C39.2 20 39.2 20 39.1 20C39 20 39 20 38.9 20H38.8H38.7H38.6C38.5 20 38.5 20 38.5 20C38.4 20 38.4 19.9 38.4 19.9C38.3 19.9 38.3 19.8 38.2 19.8C38.1 19.8 38.1 19.7 38.1 19.7C38 19.7 38 19.6 38 19.6V19.5H37.9V19.4L37.8 19.3V19.2H37.7H37.6V19.1V19V18.9V18.8V18.7L37.5 18.6V18.5V18.4V18.3V18.2V18.1V18V17.8V17.7V17.6V17.5V17.4V17.3V17.2V17.1V17V16.9V16.8V16.7V16.6V16.5V16.4V16.3V16.2V16.1V16V15.9V15.8V15.7V15.6V15.5V15.4V15.3V15.2V15.1V15V14.9V14.8V14.7V14.6V14.5V14.4V14.3V14.2V14.1V14V13.9V13.8V13.7V13.6V13.5V13.4V13.3V13.2V13.1V13V12.9V12.8V12.7V12.6V12.5V12.4V12.3V12.2V12.1V12V11.9V11.8V11.7V11.6V11.5V11.4V11.3V11.2V11.1V11V10.9V10.8V10.7V10.6V10.5V10.4V10.3V10.2V10.1V10V9.9V9.8V9.7V9.6V9.5V9.4V9.3V9.2V9.1V9V8.9V8.8V8.7C37.4 8.7 37.4 8.7 37.4 8.7C35.2 8.7 32.9 8.7 30.7 8.7V8.8V8.9V9V9.1V9.2V9.3V9.4L30.6 9.5V9.6V9.7V9.8C30.5 9.8 30.5 9.9 30.4 9.9H30.3H30.2V10L30.1 10.1C30 10.1 30 10.2 30 10.2V10.3V10.4V10.5L29.9 10.6V10.7V10.8V10.9V11V11.1L29.8 11.2V11.3V11.4V11.5V11.6L29.7 11.7L29.6 11.8H29.5C29.4 11.8 29.3 11.9 29.1 11.9H29H28.9C28.5 11.9 28 11.9 27.6 11.9C27.5 11.9 27.5 11.9 27.5 11.9C26.5 11.9 25.4 12 24.4 12H24.3H24.2C24.1 12 24 12 24 12L23.9 12.1V12.2V12.3V12.4V12.5V12.6V12.7V12.8V12.9V13V13.1V13.2V13.3V13.4V13.5V13.6V13.7V13.8V13.9V14V14.1V14.2V14.3V14.4V14.5V14.6V14.7V14.8V14.9V15V15.1V15.2V15.3V15.4V15.5V15.6V15.7V15.8V15.9V16V16.1V16.2V16.3V16.4V16.5V16.6V16.7V16.8V16.9V17V17.1V17.2V17.3V17.4V17.5V17.6V17.7V17.8V17.9V18V18.1V18.2V18.3V18.4V18.5V18.6V18.7V18.8V18.9V19V19.1V19.2H23.8V19.3V19.4V19.5L23.7 19.6V19.7V19.8V19.9V20V20.1V20.2V20.3V20.4H23.8V20.5V20.6V20.7V20.8V20.9V21V21.1V21.2V21.3V21.4V21.5V21.6V21.7V21.8V21.9V22V22.1V22.2V22.3V22.4V22.5V22.6H23.9V22.7V22.8V22.9V23V23.1L24 23.2V23.3V23.4V23.5V23.6V23.7V23.8V23.9V24V24.1V24.2V24.3H24.1V24.4V24.5V24.6V24.7V24.8L24.2 24.9V25V25.1V25.2V25.3V25.4V25.5V25.6V25.7V25.8V25.9V26V26.1V26.2V26.3V26.4H24.3V26.5V26.6V26.7V26.8V26.9H24.4V27V27.1V27.2V27.3C24.5 27.3 24.5 27.3 24.6 27.3V27.4V27.5V27.6V27.7V27.8V27.9V28V28.1V28.2V28.3V28.4V28.5L24.5 28.6V28.7H24.4C23.9 28.7 23.4 28.7 22.9 28.7H22.8C22.7 28.7 22.6 28.7 22.6 28.7L22.5 28.8H22.4C21.8 28.8 21.2 28.8 20.7 28.8C20.6 28.8 20.6 28.8 20.5 28.8C20.4 28.8 20.4 28.7 20.3 28.7C20.2 28.7 20.2 28.7 20.1 28.7C19.9 28.7 19.6 28.7 19.4 28.7H19.3L18.8 29.1C18.7 29.1 18.7 29.1 18.6 29.1H18.5C18.4 29.1 18.4 29.1 18.3 29.1L18.2 29V28.9H18.1V28.8V28.7V28.6L18 28.5V28.4L17.9 28.3V28.2V28.1V28L17.8 27.9V27.8V27.7V27.6V27.5V27.4V27.3V27.2V27.1V27L17.7 26.9V26.8V26.7V26.6V26.5V26.4V26.3V26.2H17.6V26.1V26V25.9V25.8V25.7V25.6V25.5V25.4V25.3V25.2V25.1V25V24.9V24.8V24.7V24.6V24.5V24.4V24.3V24.2V24.1V24V23.9V23.8V23.7V23.6V23.5V23.4V23.3V23.2V23.1V23V22.9V22.8V22.7V22.6V22.5V22.4V22.3V22.2V22.1V22V21.9V21.8V21.7V21.6V21.5V21.4V21.3V21.2V21.1V21V20.9V20.8V20.7V20.6V20.5V20.4V20.3V20.2V20.1V20V19.9V19.8V19.7V19.6H17.4H17.3H17.2H17.1C17 19.6 17 19.6 16.9 19.6L16.8 19.5L16.7 19.4V19.3V19.2V19.1V19V18.9V18.8V18.7V18.6V18.5V18.4V18.3L16.6 18.2V18.1V18V17.9V17.8V17.7V17.6V17.5V17.4V17.3V17.2V17.1V17V16.9V16.8V16.7V16.6V16.5V16.4V16.3V16.2V16.1V16V15.9V15.8V15.7V15.6V15.5V15.4V15.3V15.2V15.1V15V14.9V14.8V14.7V14.6V14.5V14.4V14.3V14.2V14.1V14V13.9V13.8V13.7V13.6V13.5V13.4H16.7V13.3V13.2V13.1L16.8 13V12.9H16.9V12.8V12.7V12.6V12.5V12.4V12.3H17V12.2V12.1V12V11.9H17.1V11.8V11.7V11.6V11.5V11.4V11.3V11.2V11.1V11V10.9V10.8L17.2 10.7V10.6V10.5V10.4V10.3V10.2H17.1V10.1V10V9.9V9.8L17 9.7H16.9V9.8V9.9L16.8 10H16.7C16.6 10 16.6 10 16.6 10C16.6 10 16.5 10 16.4 10H16.3H16.2C15.2 10 14.3 10.1 13.3 10.1V10.2C13.2 10.2 13.2 10.2 13.2 10.2C13.1 10.2 13.1 10.2 13 10.2V10.1L12.9 10V9.9H12.8C12.7 9.9 12.7 9.9 12.7 9.9H12.6C12.5 9.9 12.4 9.9 12.4 9.9H12.3H12.2C12.1 9.9 12.1 9.9 12.1 9.9H12C10.4 9.9 8.8 9.9 7.3 9.9C7.2 9.9 7.2 9.9 7.1 9.9H7L6.9 9.8V9.7V9.6H6.8H6.7L6.6 9.5V9.4V9.3V9.2V9.1V9H6.5V9.1V9.2V9.3V9.4V9.5V9.6V9.7V9.8V9.9V10V10.1V10.2V10.3V10.4V10.5H4.8V10.6V10.7V10.8V10.9V11V11.1V11.2L4.7 11.3C4.6 11.4 4.6 11.4 4.5 11.5C4.5 11.5 4.5 11.5 4.5 11.6C4.5 11.7 4.5 11.7 4.5 11.8C4.5 11.9 4.5 11.9 4.5 11.9C4.5 12 4.5 12 4.5 12.1V12.2C4.4 12.3 4.4 12.3 4.4 12.4C4.4 12.5 4.4 12.5 4.4 12.5C4.4 12.6 4.4 12.6 4.4 12.7V12.8C4.3 12.8 4.3 12.9 4.3 12.9C4.3 13 4.3 13 4.3 13.1L4.2 13.2V13.3C4.2 13.4 4.1 13.4 4.1 13.4C4.1 13.5 4 13.5 4 13.6C4 13.7 4 13.7 4 13.7V13.8V13.9V14V14.1C4 14.2 3.9 14.2 3.9 14.3H3.8L3.7 14.4V14.5V14.6V14.7V14.8H3.6V14.9V15V15.1H3.5V15.2H3.4C3.3 15.2 3.3 15.2 3.3 15.2V15.3H3.2H3.1C3 15.3 3 15.3 2.9 15.3C2.8 15.3 2.8 15.3 2.8 15.3H2.7C2.6 15.3 2.5 15.3 2.4 15.3C2.3 15.3 2.3 15.3 2.2 15.3C1.1 15.1 1 15.1 0.9 15.1C0.8 15.1 0.7 15.1 0.7 15.1C0.6 15.1 0.5 15.1 0.4 15.1C0.3 15.1 0.3 15.1 0.2 15.1V15L0.1 14.9V14.8V14.7V14.6V14.5V14.4V14.3V14.2V14.1V14V13.9V13.8V13.7V13.6V13.5V13.4V13.3V13.2V13.1V13V12.9V12.8V12.7V12.6V12.5V12.4V12.3V12.2V12.1V12V11.9V11.8V11.7V11.6V11.5V11.4V11.3V11.2V11.1V11V10.9V10.8V10.7V10.6V10.5V10.4V10.3V10.2V10.1V10V9.9V9.8V9.7V9.6V9.5V9.4V9.3V9.2V9.1V9V8.9V8.8V8.7V8.6V8.5V8.4V8.3V8.2V8.1V8V7.9V7.8V7.7V7.7V7.6V7.5V7.4V7.3V7.2V7.1V7V6.9V6.8V6.7V6.6V6.5V6.4V6.3V6.2V6.1V6V5.9V5.8V5.7V5.6V5.5V5.4V5.3V5.2V5.1V5V4.9V4.9V4.8V4.7V4.6V4.5V4.4V4.3V4.2V4.1V4V3.9V3.8V3.7V3.6H0V3.5V3.4L0.1 3.3C0.3 3.1 0.3 3.1 0.3 3.1L0.4 3V2.9V2.8V2.7H0.5C0.6 2.7 0.6 2.7 0.6 2.7C0.7 2.7 0.7 2.6 0.8 2.6C0.9 2.6 0.9 2.6 1 2.6C1.1 2.6 1.1 2.6 1.1 2.6C1.2 2.6 1.3 2.6 1.3 2.6H1.4C1.7 2.4 1.8 2.4 1.8 2.4V2.5C2.6 2.5 3.4 2.5 4.1 2.5V2.4L4 2.3V2.2V2V1.9V1.8H4.1V1.7V1.6V1.5V1.4H4.2H4.3H4.4V1.3V1.2V1.1V1C4.8 0.7 4.8 0.7 4.9 0.6L5 0.5H5.1C5.2 0.5 5.3 0.5 5.5 0.5H5.6H5.7C5.8 0.5 5.8 0.6 5.9 0.6V0.7H6C6.1 0.7 6.1 0.7 6.1 0.7C6.2 0.7 6.3 0.7 6.3 0.7H6.4H6.5H6.6H6.7C6.7 0.7 6.7 0.8 6.8 0.8V0.7V0.6H6.9L7 0.5V0.4L7.1 0.3V0.2V0.1H7.2V0H7.3H7.4C7.5 0 7.5 0 7.5 0C7.6 0 7.6 0 7.7 0H7.8C7.9 0 7.9 0 8 0C18.1 0 28.2 0 38.4 0H38.5H38.6C38.7 0 38.7 0.1 38.8 0.1C38.9 0.1 38.9 0.1 39 0.1H39.1C39.2 0.1 39.2 0.2 39.2 0.2L39.3 0.3L39.4 0.4L39.5 0.5V0.6V0.7C39.6 0.7 39.6 0.8 39.6 0.8V0.9L39.7 1C39.7 1 39.7 1 39.8 1C39.9 1 39.9 1 39.9 1H40C40.2 1 40.4 1 40.6 1H40.7C40.7 1 40.8 1 40.9 1H41H41.1C41.2 1 41.2 1.1 41.3 1.1C41.4 1.1 41.4 1.1 41.4 1.1C41.5 1.1 41.5 1.2 41.6 1.2C41.7 1.2 41.7 1.3 41.8 1.3V1.4H41.9V1.5V1.6V1.7C41.9 1.8 41.9 1.8 41.9 1.8C41.9 1.9 42 1.9 42 2V2.1C42 2.2 42 2.2 42 2.3V2.4C42 2.5 42 2.5 42 2.6V2.7C42.1 2.7 42.1 2.7 42.1 2.7H42.2L42.3 2.8V2.9V3V3.1V3.2V3.3V3.4V3.5V3.6C42.3 3.7 42.3 3.7 42.4 3.8V3.9C42.4 4 42.4 4 42.4 4.1V4.2C42.4 4.3 42.4 4.3 42.4 4.4C42.5 4.4 42.5 4.5 42.6 4.5C43.8 4.4 43.9 4.5 44 4.5ZM23.3 9.7C23.2 9.7 23.2 9.7 23.3 9.7C23.2 9.6 23.2 9.6 23.2 9.6V9.5V9.4V9.3V9.4V9.5V9.6V9.7V9.8V9.9V10V10.1V10.2L23.3 10.3C23.5 10.3 23.7 10.3 24 10.3H23.9L23.8 10.2L23.7 10.1V10V9.9H23.6C23.3 9.9 23.3 9.8 23.3 9.7C23.3 9.7 23.3 9.8 23.3 9.7ZM0.7 5.2C0.7 5.2 0.7 5.3 0.7 5.2C0.7 5.3 0.7 5.3 0.7 5.4V5.5V5.6V5.7V5.8V5.9V6V6.1V6.2V6.3V6.4V6.5V6.4V6.3C0.7 6.2 0.7 6.2 0.7 6.1V6C0.7 5.9 0.7 5.9 0.7 5.9V5.8C0.7 5.7 0.7 5.7 0.7 5.6V5.5C0.7 5.4 0.7 5.4 0.7 5.4C0.7 5.3 0.7 5.2 0.7 5.2C0.7 5.1 0.7 5.1 0.7 5C0.7 4.9 0.7 4.9 0.7 4.9C0.7 4.8 0.7 4.8 0.7 4.8V4.7V4.8V4.9V5C0.7 5 0.7 5.1 0.7 5.2Z" fill="white"/>
</svg>
