<svg width="105" height="30" viewBox="0 0 105 30" fill="none" xmlns="http://www.w3.org/2000/svg">
<path d="M75.158 28.823C76.739 27.3487 77.494 26.4491 77.994 25.4683C78.528 24.4187 78.875 23.0756 78.969 21.7199C79.269 17.2656 79.843 13.8671 80.617 11.9305C81.011 10.9497 81.358 10.4561 82.206 9.6565C83.154 8.76938 84.001 8.22587 85.577 7.50744C87.372 6.68281 88.694 6.23301 92.051 5.29592C93.787 4.81488 94.928 4.44629 98.425 3.24058C100.321 2.58462 103.725 1.36641 104.673 1.00407C104.82 0.947836 105 1.4851 105 1.97863C105 2.40345 104.973 2.5034 104.74 2.94071C104.299 3.77784 103.612 4.3276 101.863 5.25844C99.6 6.45791 98.052 7.07638 93.486 8.56947C91.003 9.3879 89.982 9.7564 88.213 10.4874C85.343 11.6744 84.402 12.1804 83.421 13.0612C82.747 13.6672 82.339 14.2232 81.932 15.1166L81.619 15.7913L81.539 15.4602C81.438 15.0916 81.425 14.3919 81.498 14.1732C81.545 14.0483 81.532 14.0296 81.425 14.0483C81.358 14.0608 81.225 14.217 81.118 14.4231C80.944 14.7355 80.918 14.8917 80.838 15.835C80.784 16.416 80.698 17.1719 80.637 17.5093C80.577 17.8529 80.504 18.6088 80.471 19.1898C80.304 21.9198 80.057 23.188 79.369 24.7748C78.915 25.8431 78.395 26.649 77.774 27.2737C76.9 28.1421 75.004 29.5102 74.016 29.985C73.903 30.0412 74.397 29.5415 75.158 28.823Z" fill="white"/>
<path d="M85.31 29.6727C84.696 29.6477 83.848 29.5415 83.468 29.4353C82.967 29.2978 82.76 29.1729 82.486 28.823C82.339 28.6481 82.179 28.4607 82.113 28.4107C82.012 28.3357 82.039 28.292 82.386 27.9922C82.713 27.711 82.813 27.661 83.04 27.6548C83.281 27.6548 83.334 27.686 83.674 28.0421C84.522 28.9292 84.869 29.2104 85.43 29.4665C85.73 29.6039 85.93 29.7101 85.877 29.7039C85.824 29.6976 85.57 29.6852 85.31 29.6727Z" fill="white"/>
<path d="M75.738 29.5977C75.585 29.5602 75.591 29.5415 75.938 29.3416C76.559 28.9667 77.607 28.1546 78.275 27.5299C79.496 26.3741 80.277 24.9935 80.731 23.1568C80.804 22.8632 80.991 21.7137 81.138 20.5954C81.292 19.4772 81.445 18.3589 81.485 18.1028L81.559 17.6405L81.745 18.1215C81.846 18.3901 82.206 19.0711 82.546 19.6333C83.468 21.1827 83.681 21.8449 83.681 23.1693C83.674 24.6999 83.254 25.7306 82.099 27.0051C81.565 27.5923 81.258 27.8547 80.671 28.2233C79.423 29.0042 77.827 29.5227 76.366 29.6164C76.112 29.6289 75.825 29.6227 75.738 29.5977Z" fill="white"/>
<path d="M86.711 29.2791C85.737 28.9542 85.21 28.6606 84.549 28.0608C83.881 27.4611 83.594 27.2799 83.314 27.2799C83.154 27.2799 83.16 27.2612 83.521 26.7989C83.721 26.5303 83.941 26.2179 84.001 26.0992L84.108 25.8931L84.502 25.9368C85.049 25.993 85.203 26.0805 85.904 26.7427C86.371 27.1862 86.625 27.3674 87.012 27.5486C87.733 27.8859 88.44 28.0421 89.288 28.0484C90.082 28.0608 90.069 28.0484 89.742 28.5044C89.375 29.0042 88.634 29.3165 87.646 29.3728C87.212 29.404 87.038 29.3853 86.711 29.2791Z" fill="white"/>
<path d="M88.514 26.9988C87.653 26.8239 87.058 26.5366 86.398 25.993C85.79 25.4933 85.39 25.3308 84.816 25.3558L84.362 25.3746L84.442 25.1871C84.515 25.031 84.596 24.7124 84.776 23.8627C84.809 23.7128 85.109 23.5941 85.437 23.5941C85.804 23.5941 86.344 23.9564 87.312 24.856C87.826 25.3308 88.387 25.8119 88.56 25.9306C89.321 26.4366 90.256 26.6802 91.297 26.6428L91.951 26.624L91.597 26.7677C91.41 26.8489 91.07 26.9551 90.85 26.9988C90.349 27.1113 89.054 27.1113 88.514 26.9988Z" fill="white"/>
<path d="M90.349 25.437C89.682 25.2996 89.048 24.9622 88.28 24.3375C86.792 23.1381 85.877 22.7695 85.13 23.0818L84.829 23.2068L84.789 22.4758C84.762 22.076 84.729 21.6762 84.702 21.5887C84.662 21.4326 84.682 21.4201 85.103 21.3139C86.057 21.0702 87.065 21.4013 89.181 22.657C90.316 23.3255 92.125 24.1876 92.946 24.45C93.299 24.5562 93.653 24.6124 94.16 24.6374C94.881 24.6749 94.881 24.6749 94.721 24.7936C94.454 24.9872 93.747 25.2746 93.253 25.3746C92.578 25.5183 90.903 25.5557 90.349 25.437Z" fill="white"/>
<path d="M93.913 23.5316C93.186 23.3942 92.044 22.9381 89.915 21.9323C88.3 21.1639 87.766 20.964 86.945 20.8203C85.997 20.6516 85.477 20.7079 84.903 21.0515L84.622 21.2139L84.415 20.6704C84.302 20.3705 84.088 19.9457 83.948 19.7208C83.801 19.4959 83.694 19.3085 83.701 19.296C83.714 19.2897 84.015 19.2085 84.375 19.1273C86.177 18.6962 87.539 19.0586 90.783 20.8453C92.885 22.001 94.154 22.4633 95.789 22.6633C96.376 22.732 97.845 22.7132 98.125 22.6258C98.405 22.5383 97.851 22.9194 97.391 23.1318C96.236 23.6503 95.182 23.769 93.913 23.5316Z" fill="white"/>
<path d="M95.789 21.4638C95.222 21.3888 94.14 21.1202 93.626 20.9265C93.386 20.839 92.385 20.3892 91.404 19.9394C88.567 18.615 87.799 18.3839 86.311 18.3776C85.263 18.3776 84.976 18.4401 84.048 18.8399L83.501 19.0773L83.274 18.765L83.047 18.4526L83.341 18.2027C83.968 17.6842 84.876 17.3968 86.264 17.2719C87.279 17.1782 87.733 17.2219 90.783 17.6904C96.143 18.5088 96.83 18.5963 98.125 18.5963C99.547 18.5963 100.581 18.4151 101.536 18.0028C101.81 17.8903 102.03 17.8029 102.03 17.8154C102.03 17.9278 101.569 18.9024 101.349 19.2522C100.495 20.6079 99.734 21.1639 98.345 21.4325C97.785 21.5387 96.476 21.5575 95.789 21.4638Z" fill="white"/>
<path d="M82.773 18.0965C82.72 18.0403 82.673 17.9653 82.673 17.9278C82.673 17.7904 83.835 16.8408 84.522 16.4035C86.144 15.3915 88.02 14.723 90.115 14.4106C91.397 14.2232 92.498 14.1545 96.837 14.0046C100.681 13.8671 101.723 13.7109 102.984 13.08C103.431 12.8613 103.431 12.8613 103.598 13.3736C103.712 13.7297 103.725 14.4356 103.625 14.8479C103.512 15.3102 103.104 16.0099 102.737 16.366C102.13 16.9595 100.922 17.4593 99.76 17.5905C98.445 17.7467 97.438 17.6842 94.02 17.2219C89.101 16.5597 87.639 16.4472 86.351 16.6222C84.903 16.8221 83.875 17.2281 83.247 17.8466C82.907 18.1777 82.873 18.1965 82.773 18.0965Z" fill="white"/>
<path d="M82.373 17.5093C82.259 17.3156 82.259 17.2719 82.339 17.1157C82.473 16.8658 84.335 15.1416 85.009 14.6356C86.464 13.5548 87.98 12.9425 90.863 12.2866C92.578 11.893 93.399 11.7493 95.642 11.437C99.533 10.9059 102.25 10.3125 103.498 9.72519C103.999 9.48779 104.052 9.51279 104.086 10.0563C104.119 10.5186 103.925 11.0559 103.618 11.387C103.278 11.7493 102.317 12.1242 101.162 12.3428C100.214 12.5302 99.62 12.5865 97.024 12.7239C91.824 13.005 90.095 13.2362 88.08 13.9046C85.964 14.6168 83.835 16.0162 82.78 17.3968C82.64 17.5718 82.52 17.7217 82.513 17.7217C82.5 17.7217 82.44 17.6217 82.373 17.5093Z" fill="white"/>
<path d="M81.952 16.6721C81.872 16.4722 81.806 16.2598 81.806 16.1973C81.806 16.1349 81.926 15.86 82.066 15.5914C82.893 14.0545 83.808 13.2174 85.55 12.4303C87.005 11.768 90.136 10.6873 93.373 9.7252C98.566 8.18838 100.154 7.59489 102.644 6.27048L103.291 5.92688L103.678 6.1018C104.346 6.40792 104.633 6.72653 104.633 7.15134C104.633 7.63238 104.339 8.06968 103.732 8.50699C103.004 9.0255 102.17 9.3066 99.714 9.8814C98.118 10.25 97.378 10.3937 94.821 10.8185C93.213 11.0809 92.331 11.2745 90.549 11.7556C87.112 12.6801 85.777 13.3736 83.741 15.2915C83.281 15.7226 82.74 16.2911 82.54 16.5534C82.339 16.8158 82.159 17.0282 82.139 17.0282C82.119 17.0345 82.039 16.872 81.952 16.6721Z" fill="white"/>
<path d="M31.7 0.4L31.8 0.3V0.2V0.0999999V0C32 0 32.1 0 32.3 0V0.0999999C32.5 0.0999999 32.6 0.0999999 32.8 0.0999999V0.2H32.9V0.3C33 0.3 33 0.3 33 0.3V0.4C33 0.4 33.1 0.4 33.1 0.5L33.2 0.6C33.3 0.6 33.3 0.7 33.3 0.7C33.4 0.7 33.4 0.8 33.4 0.8C33.5 0.8 33.6 0.9 33.7 0.9V1H33.8V1.1C44.2 1.1 54.5 1.1 64.9 1.1C65.2 1.3 65.3 1.3 65.3 1.3L65.4 1.4L65.5 1.5V1.6V1.7V1.8C65.5 1.9 65.6 1.9 65.6 1.9C65.6 1.9 65.8 2.4 66 3.4C66.3 4.4 66.5 4.9 66.8 4.9H68.1L68.4 4.8H68.7H69.9H70.2L70.5 4.9H72.3L72.5 5L72.6 5.1H73.1V9.1V9.2V9.3L72.9 9.5H72.6H72.4H68.7L70.3 13.2C70.3 13.3 70.3 13.3 70.3 13.3V13.4V13.5C70.3 13.6 70.3 13.6 70.3 13.6V13.7V13.8V14.6C70.3 14.6 69.7 14.6 68.6 14.6C68.5 14.6 68 13.6 67 11.6C66.6 11.6 66.1 11.7 65.7 11.7C65.6 11.7 65.5 11.7 65.5 11.7C65.4 11.7 65.3 11.7 65.3 11.7H65.2V11.8C65.2 11.9 65.2 11.9 65.2 11.9C65.2 12 65.2 12 65.2 12V12.1V12.2C65.2 12.3 65.2 12.3 65.2 12.3V12.4V12.5C65.2 12.6 65.2 12.6 65.2 12.6V12.7V12.8V12.9V13V13.1V13.2V13.3V13.4C65.2 13.5 65.2 13.5 65.2 13.5V13.6V13.7C65.2 13.8 65.2 13.8 65.2 13.8V13.9V14C65.2 14.1 65.2 14.1 65.2 14.1V14.2V14.3C65.2 14.4 65.2 14.4 65.2 14.4V14.5V14.6L65.3 14.7C65.3 14.8 65.3 14.8 65.3 14.8V14.9V15C65.3 15.1 65.3 15.1 65.3 15.1V15.2V15.3C65.3 15.4 65.3 15.4 65.3 15.4V15.5V15.6V15.7L65.4 15.8C65.4 15.9 65.4 15.9 65.4 15.9V16V16.1V16.2C65.4 16.3 65.4 16.3 65.4 16.3V16.4V16.5C65.4 16.6 65.4 16.6 65.4 16.6V16.7V16.8C65.4 16.9 65.4 16.9 65.4 16.9V17V17.1V17.2V17.3C65.4 17.4 65.4 17.4 65.4 17.4V17.5V17.6V17.7C65.4 17.8 65.4 17.8 65.4 17.8V17.9V18V18.1C65.4 18.2 65.5 18.2 65.5 18.2V18.3V18.4V18.5V18.6V18.7C65.5 18.7 65.5 18.7 65.5 18.8V18.9V19C65.5 19.1 65.5 19.1 65.5 19.1C65.5 19.1 65.5 19.1 65.5 19.2V19.3L65.6 19.4C65.6 19.5 65.6 19.5 65.6 19.5V19.6V19.7V19.8C65.6 19.9 65.6 19.9 65.6 19.9L65.7 20V20.1V20.2V20.3L65.8 20.4C65.8 20.4 65.8 20.4 65.8 20.5V20.6V20.7V20.8V20.9V21C65.8 21.1 65.9 21.1 65.9 21.1C65.9 21.2 65.9 21.2 65.9 21.2V21.3V21.4C65.9 21.5 66 21.5 66 21.5V21.6V21.7C66 21.8 66 21.8 66 21.8L66.1 21.9V22V22.1V22.2V22.3L66.2 22.4V22.5V22.6V22.7V22.8V22.9V23C66.2 23.1 66.2 23.1 66.2 23.1V23.2V23.3C66.2 23.4 66.3 23.4 66.3 23.4V23.5V23.6C66.3 23.7 66.3 23.7 66.3 23.7V23.8V23.9V24V24.1C66.3 24.2 66.3 24.2 66.3 24.2V24.3V24.4V24.5C66.3 24.6 66.3 24.6 66.3 24.6V24.7V24.8C66.3 24.9 66.3 24.9 66.3 24.9V25V25.1C66.3 25.2 66.3 25.2 66.3 25.2V26.3V26.4V26.5V26.6C66.3 26.7 66.3 26.7 66.3 26.7V26.8C66.3 26.9 66.2 26.9 66.2 26.9C66.2 27 66.2 27 66.2 27V27.1C66.1 27.1 66 27.2 65.9 27.2C65.8 27.2 65.7 27.2 65.7 27.2C65.6 27.2 65.6 27.3 65.6 27.3C65.6 27.3 65.5 27.3 65.4 27.3C65.3 27.3 65.3 27.3 65.2 27.3L65.1 27.4C65 27.4 65 27.4 64.9 27.4C64.8 27.4 64.6 27.4 64.5 27.4H64.4C64.3 27.4 64.3 27.4 64.2 27.4C64 27.4 63.8 27.4 63.7 27.4C63.6 27.4 63.6 27.5 63.5 27.5C63 27.5 62.5 27.5 62.1 27.5L62 27.6C61.9 27.6 61.9 27.6 61.8 27.6C61.5 27.6 61.2 27.7 61 27.7H60.9C61.7 28.2 61.6 28.3 61.6 28.3C61.5 28.3 61.4 28.2 61.4 28.2H61.3C61.2 28.2 61.1 28.2 61.1 28.2C61 28.1 61 28.1 60.9 28.1L60.8 28L60.7 27.9C60.7 27.8 60.7 27.8 60.7 27.8V27.7V27.6H60.6C60.6 27.5 60.6 27.5 60.6 27.5V27.4L60.5 27.3L60.4 27.2V27.1C60.4 27 60.4 27 60.4 27V26.9V26.8C60.4 26.7 60.3 26.7 60.3 26.7L60.2 26.6V26.5C60.2 26.4 60.2 26.4 60.2 26.4C60.2 26.3 60.1 26.3 60.1 26.3V26.2V26.1V26C60.1 25.9 60.1 25.9 60.1 25.9V25.8V25.7V25.6C60.1 25.5 60.1 25.5 60.1 25.5V25.4L60 25.3H59.9V25.2L59.8 25.1V25C59.8 24.9 59.8 24.9 59.8 24.9V24.3V24.2V24.1V24C59.8 23.9 59.8 23.9 59.8 23.9V23.8V23.7V23.6C59.8 23.5 59.8 23.5 59.8 23.5L59.7 23.4V23.3C59.7 23.2 59.7 23.2 59.7 23.2V23.1V23V22.9V22.8V22.7V22.6V22.5V22.4C59.7 22.3 59.7 22.3 59.7 22.3V22.2V22.1V22C59.7 21.9 59.7 21.9 59.7 21.9V21.8V21.7V21.6C59.7 21.5 59.7 21.5 59.7 21.5V21.4V21.3V21.2V21.1V21V20.9V20.8L59.6 20.7V20.6V20.5V20.4V20.3C59.6 20.2 59.6 20.2 59.6 20.2V20.1V20C59.6 19.9 59.6 19.9 59.6 19.9V19.8V19.7C59.6 19.6 59.6 19.6 59.6 19.6V19.5V19.4V19.3V19.2V19.1L59.5 19V18.9V18.8V18.7V18.6V18.5V18.4C59.5 18.3 59.5 18.3 59.5 18.3V18.2V18.1C59.5 18 59.5 18 59.5 18V17.9V17.8C59.5 17.7 59.5 17.7 59.5 17.7V17.6V17.5V17.4V17.3C59.5 17.2 59.5 17.2 59.5 17.2C59.5 17.2 59.4 17.2 59.4 17.1V17V16.9C59.4 16.8 59.4 16.8 59.4 16.8V16.7V16.6C59.4 16.5 59.4 16.5 59.4 16.5V16.4V16.3C59.4 16.2 59.4 16.2 59.4 16.2V16.1V16V15.9V15.8C59.4 15.7 59.4 15.7 59.4 15.7V15.3V15.2V15.1C59.4 15 59.4 15 59.4 15H59.3V14.9C59.3 14.8 59.3 14.8 59.3 14.8V14.7C59.2 14.7 59.2 14.6 59.2 14.6H59.1C59.1 14.5 59.1 14.5 59.1 14.5V14.4V14.3L59 14.2H58.9C58.8 14.2 58.7 14.1 58.6 14.1C58.6 14.1 58.5 14.1 58.5 14H58.4C58.3 14 58.2 14 58.1 14H58H57.9C57.9 14 57.8 14 57.6 14C57.5 14 57.5 14 57.3 14C57.2 14 57.2 14 57.1 14C57.1 14.1 57.1 14.1 57.1 14.1C57 14.1 57 14.2 56.9 14.2C56.8 14.2 56.8 14.3 56.7 14.3C56.7 14.4 56.7 14.4 56.7 14.4C56.6 14.5 56.6 14.5 56.6 14.5L56.5 14.6C56.4 14.6 56.4 14.7 56.4 14.7C56.3 14.7 56.3 14.8 56.3 14.8V14.9C56.2 14.9 56.2 15 56.2 15L56.1 15.1L56 15.2V15.3C55.9 15.3 55.9 15.3 55.8 15.4L55.7 15.5H55.6C55.6 15.6 55.6 15.6 55.6 15.6C55.5 15.6 55.5 15.7 55.5 15.7C55.5 15.7 54.6 15.5 54.6 15.6H54.5C54.4 15.7 54.4 15.7 54.3 15.7C54.3 15.8 54.2 15.8 54.2 15.8L54.1 15.9C54 15.9 54 16 54 16L53.9 16.1C53.9 16.2 53.8 16.2 53.8 16.2L53.7 16.3L53.6 16.4C53.5 16.4 53.4 16.4 53.3 16.4C53.2 16.4 53.2 16.5 53.1 16.5C53.1 16.6 53 16.6 53 16.6C53 16.6 52.9 16.6 52.9 16.7C52.8 16.7 52.7 16.8 52.6 16.8C52.5 16.8 52.4 16.9 52.3 16.9C52.2 17 52.2 17 52.1 17C52 17 52 17 51.9 17.1C51.8 17.1 51.8 17.2 51.7 17.2C51.6 17.2 51.5 17.2 51.4 17.2H51.3C51.2 17.2 51.2 17.2 51.1 17.2C50.9 17.2 50.6 17.3 50.4 17.3C50.3 17.3 50.2 17.4 50.2 17.4C49.6 17.4 49 17.4 48.4 17.4C48.3 17.4 48.3 17.3 48.1 17.3C48 17.3 47.8 17.2 47.6 17.2C47.5 17.2 47.5 17.2 47.4 17.2C47.4 17.1 47.4 17.1 47.3 17.1C47.3 17 47.2 17 47.2 17V16.9C47.1 16.9 47.1 16.8 47.1 16.8C47 16.8 47 16.7 46.8 16.7C46.8 16.6 46.8 16.6 46.7 16.6C46.6 16.6 46.6 16.5 46.6 16.5L46.5 16.4V16.5C46.5 16.6 46.5 16.6 46.5 16.6C46.5 16.6 46.4 16.6 46.4 16.7V16.8V16.9C46.4 17 46.4 17 46.4 17C46.4 17 46.3 17 46.3 17.1V17.2H46.2C46.2 17.3 46.2 17.3 46.2 17.3V17.4V17.5C46.2 17.6 46.2 17.6 46.2 17.6L46.1 17.7V17.8V17.9V18C46.1 18.1 46.1 18.1 46.1 18.1V18.2L46 18.3V18.4C46 18.5 46 18.5 46 18.5V18.6V18.7C46 18.8 46 18.8 46 18.8C46 18.9 46 18.9 46 18.9V19L45.9 19.1V19.2V19.3V19.4C45.9 19.4 45.8 19.4 45.8 19.5V19.6V19.7C45.8 19.8 45.8 19.8 45.8 19.8V19.9V20V20.1C45.8 20.2 45.8 20.2 45.8 20.2V20.3V20.4V20.5C45.8 20.6 45.8 20.6 45.8 20.6L45.7 20.7V20.8V20.9V21V21.1V21.3V21.4V21.5V21.6L45.6 21.7V21.8V21.9C45.6 22 45.6 22 45.6 22V22.1V22.2C45.6 22.3 45.6 22.3 45.6 22.3V22.4V22.5C45.6 22.6 45.6 22.6 45.6 22.6V22.7V22.8V22.9V23V23.1V23.2V23.3V23.4V23.5V23.6V23.7V23.8C45.6 23.9 45.6 23.9 45.6 23.9V24V24.1C45.6 24.2 45.6 24.2 45.6 24.2V24.3V24.4C45.6 24.5 45.6 24.5 45.6 24.5V24.6V24.7V24.8V24.9C45.6 25 45.6 25 45.6 25V25.1V25.2V25.3C45.6 25.4 45.6 25.4 45.6 25.4V25.5V25.6C45.6 25.7 45.6 25.7 45.6 25.7V25.8V25.9C45.6 26 45.6 26 45.6 26V26.3V26.4V26.5V26.6C45.6 26.7 45.6 26.7 45.6 26.7V26.8V26.9C45.6 27 45.6 27 45.6 27V27.1V27.2C45.6 27.3 45.6 27.3 45.6 27.3V27.4V27.5V27.6V27.7V27.8L45.5 27.9L45.4 28C45.3 28 45.3 28 45.2 28C45.2 28.1 45.2 28.1 45.2 28.1V28.2V28.3C45.2 28.4 45.2 28.4 45.2 28.4V28.5V28.6V28.7C42.8 28.7 40.3 28.7 37.9 28.7V28.6V28.5V28.4V28.3V28.2C37.9 28.1 37.9 28.1 37.9 28.1V28.3V28.2C37.6 28.2 37.3 28.2 37.1 28.2H37C36.9 28.2 36.9 28.2 36.8 28.2C36.7 28.2 36.6 28.2 36.6 28.2C36.5 28.2 36.5 28.2 36.5 28.2C36.4 28.2 36.4 28.2 36.3 28.2C36.2 28.2 36.1 28.2 36.1 28.2C36 28.2 35.9 28.2 35.9 28.2C35.8 28.1 35.8 28.1 35.8 28.1L35.7 28V27.9C35.7 27.8 35.7 27.8 35.7 27.8L35.6 27.7L35.5 27.6C35.5 27.5 35.5 27.5 35.5 27.5V27.4V27.3V27.2V27.1C35.5 27 35.5 27 35.5 27V26.9V26.8C35.5 26.7 35.5 26.7 35.5 26.7V26.6V26.5C35.5 26.4 35.5 26.4 35.5 26.4V26.3V26.2V26.1V26C35.5 25.9 35.5 25.9 35.5 25.9V25.8V25.7V25.6C35.5 25.5 35.5 25.5 35.5 25.5V25.4V25.3C35.5 25.2 35.5 25.2 35.5 25.2V25.1V25C35.5 24.9 35.5 24.9 35.5 24.9V24.3V24.2V24.1V24C35.5 23.9 35.5 23.9 35.5 23.9V23.8V23.7V23.6C35.5 23.5 35.5 23.5 35.5 23.5V23.4V23.3C35.5 23.2 35.5 23.2 35.5 23.2V23.1V23V22.9V22.8V22.7V22.6V22.5V22.4C35.5 22.3 35.5 22.3 35.5 22.3V22.2V22.1V22C35.6 21.9 35.6 21.9 35.6 21.9V21.8V21.7V21.6C35.6 21.5 35.6 21.5 35.6 21.5V21.4V21.3V21.2L35.7 21.1V21V20.9V20.8V20.7V20.6V20.5V20.4V20.3C35.7 20.2 35.7 20.2 35.7 20.2V20.1V20C35.8 19.9 35.8 19.9 35.8 19.9V19.8L35.9 19.7C35.9 19.6 35.9 19.6 35.9 19.6V19.5V19.4V19.3V19.2V19.1V19V18.9V18.8V18.7V18.6L36 18.5L36.1 18.4C36.1 18.3 36.1 18.3 36.1 18.3V18.2V18.1C36.1 18 36.1 18 36.1 18L36.2 17.9V17.8H36.3C36.3 17.7 36.4 17.7 36.4 17.7V17.6V17.5V17.4V17.3C36.4 17.2 36.4 17.2 36.4 17.2C36.4 17.2 36.5 17.2 36.5 17.1V17V16.9C36.5 16.8 36.6 16.8 36.6 16.8C36.6 16.8 36.7 16.8 36.7 16.7V16.6C36.7 16.5 36.7 16.5 36.7 16.5L36.8 16.4L36.9 16.3C36.9 16.2 36.9 16.2 36.9 16.2V16.1V16L37 15.9V15.8C37 15.7 37 15.7 37 15.7V15.3V15.2V15.1C37 15 37 15 37 15V14.9C37 14.8 37 14.8 37 14.8V14.7V14.6V14.5V14.4V14.3V14.2V14.1L36.9 14C36.9 13.9 36.9 13.9 36.9 13.9L36.8 13.8L36.7 13.7C36.7 13.6 36.7 13.6 36.7 13.6L36.6 13.5L36.5 13.4C36.5 13.3 36.5 13.3 36.5 13.3L36.4 13.2V13.1V13L36.3 12.9C36.2 12.8 36.2 12.8 36.2 12.8H29.3C27.7 12.8 26.1 12.8 24.5 12.8L24.4 12.9H24.3C24.2 12.9 24.2 12.9 24.2 12.9C24.1 12.9 24.1 12.9 24 12.9C23.9 12.9 23.9 12.9 23.8 12.9C23.7 12.9 23.7 12.8 23.6 12.8C23.6 12.7 23.5 12.7 23.5 12.7C23.5 12.7 23.4 12.7 23.4 12.6V12.5H23.3C23.3 12.4 23.3 12.4 23.3 12.4L23.2 12.3V12.2V12.1C23.2 12 23.2 12 23.2 12V11.9V11.8V11.7V11.6V11.5V11.4V11.3V11.2V11.1V11V10.9V10.8C23.2 10.7 23.2 10.7 23.2 10.7V10.6V10.5V10.3C23.2 10.2 23.2 10.2 23.2 10.2V10.1V10C23.2 9.9 23.2 9.9 23.2 9.9V9.8V9.7V9.6V9.5V9.4V9.3V9.2V9.1V9V8.9V8.8C23 8.8 22.9 8.8 22.7 8.8C22.6 8.8 22.5 8.8 22.5 8.8C22.4 8.8 22.3 8.7 22.2 8.7L22.1 8.6H22C21.9 8.6 21.8 8.5 21.8 8.5L21.7 8.4C21.7 8.4 21.6 8.4 21.6 8.3V8.2H2.5V9V9.1V9.6V9.7L1.7 17.9V18L1.3 19.3L0 19.4V5.7H0.1H0.3H0.4L0.5 5.8L0.6 5.9V6H2.6H2.7H2.8H22.1C22.4 6 22.6 6 22.8 6C23.5 6 24.2 6 24.9 6H25C25.1 6 25.1 6 25.2 6V5.9V5.7V5.6V5.5V5.4C25.2 5.3 25.2 5.3 25.2 5.3V5.2V5.1C25.2 5 25.2 5 25.2 5V4.9V4.8C25.2 4.7 25.2 4.7 25.2 4.7V4.5V4.4V4.3V4.2C25.2 4.1 25.2 4.1 25.2 4.1V4V3.9C25.2 3.8 25.2 3.8 25.2 3.8V3.7V3.6C25.2 3.5 25.2 3.5 25.2 3.5V3.4V3.3C25.2 3.2 25.2 3.2 25.2 3.2V2.8V2.7V2.6V2.5C25.2 2.4 25.2 2.4 25.2 2.4V2.3V2.2V2.1C25.2 2 25.2 2 25.2 2V1.9V1.8C25.2 1.7 25.2 1.7 25.2 1.7V1.6C25.3 1.6 25.3 1.5 25.3 1.5C25.3 1.5 25.4 1.5 25.5 1.5V1.4H25.6C25.7 1.4 25.7 1.4 25.8 1.4C27.6 1.4 29.4 1.4 31.2 1.4V1.3V1.2V1.1V1V0.9C31.3 0.9 31.3 0.9 31.4 0.9V0.8V0.5C31.6 0.5 31.6 0.4 31.7 0.4ZM49.5 15.2C48.8 14.5 48.4 13.7 48.3 12.8C48.2 12.9 48.1 13 48 13.1C47.6 13.5 47.4 13.9 47.2 14.3L47.3 14.4C48.1 15.1 48.9 15.5 49.9 15.6C49.8 15.4 49.7 15.3 49.5 15.2ZM54.2 13.2C54.1 13.1 54.1 13.1 54 13C53.2 12.2 52.2 11.8 51.1 11.8C50.7 11.8 50.2 11.9 49.8 12C49.7 12.3 49.7 12.5 49.7 12.8C49.7 13.8 50 14.7 50.7 15.5C51.7 15.4 52.5 15 53.3 14.3C53.6 14 53.9 13.6 54.2 13.2ZM35.8 27.1C35.8 27 35.8 27 35.8 27.1C35.8 27 35.8 27.1 35.8 27.1Z" fill="white"/>
</svg>
