<svg width="113" height="32" viewBox="0 0 113 32" fill="none" xmlns="http://www.w3.org/2000/svg">
<path d="M83.158 28.823C84.739 27.3487 85.494 26.4491 85.994 25.4683C86.528 24.4187 86.875 23.0756 86.969 21.7199C87.269 17.2656 87.843 13.8671 88.617 11.9305C89.011 10.9497 89.358 10.4561 90.206 9.6565C91.154 8.76938 92.001 8.22587 93.577 7.50744C95.372 6.68281 96.694 6.23301 100.051 5.29592C101.787 4.81488 102.928 4.44629 106.425 3.24058C108.321 2.58462 111.725 1.36641 112.673 1.00407C112.82 0.947836 113 1.4851 113 1.97863C113 2.40345 112.973 2.5034 112.74 2.94071C112.299 3.77784 111.612 4.3276 109.863 5.25844C107.6 6.45791 106.052 7.07638 101.486 8.56947C99.003 9.3879 97.982 9.7564 96.213 10.4874C93.343 11.6744 92.402 12.1804 91.421 13.0612C90.747 13.6672 90.339 14.2232 89.932 15.1166L89.619 15.7913L89.539 15.4602C89.438 15.0916 89.425 14.3919 89.498 14.1732C89.545 14.0483 89.532 14.0296 89.425 14.0483C89.358 14.0608 89.225 14.217 89.118 14.4231C88.944 14.7355 88.918 14.8917 88.838 15.835C88.784 16.416 88.698 17.1719 88.637 17.5093C88.577 17.8529 88.504 18.6088 88.471 19.1898C88.304 21.9198 88.057 23.188 87.369 24.7748C86.915 25.8431 86.395 26.649 85.774 27.2737C84.9 28.1421 83.004 29.5102 82.016 29.985C81.903 30.0412 82.397 29.5415 83.158 28.823Z" fill="white"/>
<path d="M93.31 29.6727C92.696 29.6477 91.848 29.5415 91.468 29.4353C90.967 29.2978 90.76 29.1729 90.486 28.823C90.339 28.6481 90.179 28.4607 90.113 28.4107C90.012 28.3357 90.039 28.292 90.386 27.9922C90.713 27.711 90.813 27.661 91.04 27.6548C91.281 27.6548 91.334 27.686 91.674 28.0421C92.522 28.9292 92.869 29.2104 93.43 29.4665C93.73 29.6039 93.93 29.7101 93.877 29.7039C93.824 29.6976 93.57 29.6852 93.31 29.6727Z" fill="white"/>
<path d="M83.738 29.5977C83.585 29.5602 83.591 29.5415 83.938 29.3416C84.559 28.9667 85.607 28.1546 86.275 27.5299C87.496 26.3741 88.277 24.9935 88.731 23.1568C88.804 22.8632 88.991 21.7137 89.138 20.5954C89.292 19.4772 89.445 18.3589 89.485 18.1028L89.559 17.6405L89.745 18.1215C89.846 18.3901 90.206 19.0711 90.546 19.6333C91.468 21.1827 91.681 21.8449 91.681 23.1693C91.674 24.6999 91.254 25.7306 90.099 27.0051C89.565 27.5923 89.258 27.8547 88.671 28.2233C87.423 29.0042 85.827 29.5227 84.366 29.6164C84.112 29.6289 83.825 29.6227 83.738 29.5977Z" fill="white"/>
<path d="M94.711 29.2791C93.737 28.9542 93.21 28.6606 92.549 28.0608C91.881 27.4611 91.594 27.2799 91.314 27.2799C91.154 27.2799 91.16 27.2612 91.521 26.7989C91.721 26.5303 91.941 26.2179 92.001 26.0992L92.108 25.8931L92.502 25.9368C93.049 25.993 93.203 26.0805 93.904 26.7427C94.371 27.1862 94.625 27.3674 95.012 27.5486C95.733 27.8859 96.44 28.0421 97.288 28.0484C98.082 28.0608 98.069 28.0484 97.742 28.5044C97.375 29.0042 96.634 29.3165 95.646 29.3728C95.212 29.404 95.038 29.3853 94.711 29.2791Z" fill="white"/>
<path d="M96.514 26.9988C95.653 26.8239 95.058 26.5366 94.398 25.993C93.79 25.4933 93.39 25.3308 92.816 25.3558L92.362 25.3746L92.442 25.1871C92.515 25.031 92.596 24.7124 92.776 23.8627C92.809 23.7128 93.109 23.5941 93.437 23.5941C93.804 23.5941 94.344 23.9564 95.312 24.856C95.826 25.3308 96.387 25.8119 96.56 25.9306C97.321 26.4366 98.256 26.6802 99.297 26.6428L99.951 26.624L99.597 26.7677C99.41 26.8489 99.07 26.9551 98.85 26.9988C98.349 27.1113 97.054 27.1113 96.514 26.9988Z" fill="white"/>
<path d="M98.349 25.437C97.682 25.2996 97.048 24.9622 96.28 24.3375C94.792 23.1381 93.877 22.7695 93.13 23.0818L92.829 23.2068L92.789 22.4758C92.762 22.076 92.729 21.6762 92.702 21.5887C92.662 21.4326 92.682 21.4201 93.103 21.3139C94.057 21.0702 95.065 21.4013 97.181 22.657C98.316 23.3255 100.125 24.1876 100.946 24.45C101.299 24.5562 101.653 24.6124 102.16 24.6374C102.881 24.6749 102.881 24.6749 102.721 24.7936C102.454 24.9872 101.747 25.2746 101.253 25.3746C100.578 25.5183 98.903 25.5557 98.349 25.437Z" fill="white"/>
<path d="M101.913 23.5316C101.186 23.3942 100.044 22.9381 97.915 21.9323C96.3 21.1639 95.766 20.964 94.945 20.8203C93.997 20.6516 93.477 20.7079 92.903 21.0515L92.622 21.2139L92.415 20.6704C92.302 20.3705 92.088 19.9457 91.948 19.7208C91.801 19.4959 91.694 19.3085 91.701 19.296C91.714 19.2897 92.015 19.2085 92.375 19.1273C94.177 18.6962 95.539 19.0586 98.783 20.8453C100.885 22.001 102.154 22.4633 103.789 22.6633C104.376 22.732 105.845 22.7132 106.125 22.6258C106.405 22.5383 105.851 22.9194 105.391 23.1318C104.236 23.6503 103.182 23.769 101.913 23.5316Z" fill="white"/>
<path d="M103.789 21.4638C103.222 21.3888 102.14 21.1202 101.626 20.9265C101.386 20.839 100.385 20.3892 99.404 19.9394C96.567 18.615 95.799 18.3839 94.311 18.3776C93.263 18.3776 92.976 18.4401 92.048 18.8399L91.501 19.0773L91.274 18.765L91.047 18.4526L91.341 18.2027C91.968 17.6842 92.876 17.3968 94.264 17.2719C95.279 17.1782 95.733 17.2219 98.783 17.6904C104.143 18.5088 104.83 18.5963 106.125 18.5963C107.547 18.5963 108.581 18.4151 109.536 18.0028C109.81 17.8903 110.03 17.8029 110.03 17.8154C110.03 17.9278 109.569 18.9024 109.349 19.2522C108.495 20.6079 107.734 21.1639 106.345 21.4325C105.785 21.5387 104.476 21.5575 103.789 21.4638Z" fill="white"/>
<path d="M90.773 18.0965C90.72 18.0403 90.673 17.9653 90.673 17.9278C90.673 17.7904 91.835 16.8408 92.522 16.4035C94.144 15.3915 96.02 14.723 98.115 14.4106C99.397 14.2232 100.498 14.1545 104.837 14.0046C108.681 13.8671 109.723 13.7109 110.984 13.08C111.431 12.8613 111.431 12.8613 111.598 13.3736C111.712 13.7297 111.725 14.4356 111.625 14.8479C111.512 15.3102 111.104 16.0099 110.737 16.366C110.13 16.9595 108.922 17.4593 107.76 17.5905C106.445 17.7467 105.438 17.6842 102.02 17.2219C97.101 16.5597 95.639 16.4472 94.351 16.6222C92.903 16.8221 91.875 17.2281 91.247 17.8466C90.907 18.1777 90.873 18.1965 90.773 18.0965Z" fill="white"/>
<path d="M90.373 17.5093C90.259 17.3156 90.259 17.2719 90.339 17.1157C90.473 16.8658 92.335 15.1416 93.009 14.6356C94.464 13.5548 95.98 12.9425 98.863 12.2866C100.578 11.893 101.399 11.7493 103.642 11.437C107.533 10.9059 110.25 10.3125 111.498 9.72519C111.999 9.48779 112.052 9.51279 112.086 10.0563C112.119 10.5186 111.925 11.0559 111.618 11.387C111.278 11.7493 110.317 12.1242 109.162 12.3428C108.214 12.5302 107.62 12.5865 105.024 12.7239C99.824 13.005 98.095 13.2362 96.08 13.9046C93.964 14.6168 91.835 16.0162 90.78 17.3968C90.64 17.5718 90.52 17.7217 90.513 17.7217C90.5 17.7217 90.44 17.6217 90.373 17.5093Z" fill="white"/>
<path d="M89.952 16.6721C89.872 16.4722 89.806 16.2598 89.806 16.1973C89.806 16.1349 89.926 15.86 90.066 15.5914C90.893 14.0545 91.808 13.2174 93.55 12.4303C95.005 11.768 98.136 10.6873 101.373 9.7252C106.566 8.18838 108.154 7.59489 110.644 6.27048L111.291 5.92688L111.678 6.1018C112.346 6.40792 112.633 6.72653 112.633 7.15134C112.633 7.63238 112.339 8.06968 111.732 8.50699C111.004 9.0255 110.17 9.3066 107.714 9.8814C106.118 10.25 105.378 10.3937 102.821 10.8185C101.213 11.0809 100.331 11.2745 98.549 11.7556C95.112 12.6801 93.777 13.3736 91.741 15.2915C91.281 15.7226 90.74 16.2911 90.54 16.5534C90.339 16.8158 90.159 17.0282 90.139 17.0282C90.119 17.0345 90.039 16.872 89.952 16.6721Z" fill="white"/>
<path d="M80.8 7.3L80.9 7.4C80.9 7.5 81 7.5 81 7.6C81 7.7 81 7.7 81 7.8L81.1 7.9H81.2V8H81.3V8.1V8.2V8.3V8.4V8.5V8.6V8.7V8.8H81.2H81.1V8.9V9V9.1H81H80.9C80.1 9.1 79.2 9.1 78.4 9.1C78.3 9.1 78.3 9.1 78.3 9.1H78.2H78.1C71.5 9.1 65 9.2 58.5 9.2H58.4V9.3V9.4V9.5V9.6V9.7V9.8V10.1V10.2V10.3V10.4V10.5V10.6V10.7H58.5H58.6H58.7H58.8V10.8V10.9H58.9V11V11.1C58.8 11.1 58.8 11.2 58.8 11.2V11.3V11.4V11.5V11.6V11.7V11.8V11.9V12V12.1V12.2V12.3V12.4V12.5V12.6V12.7V12.8V12.9V13V13.1V13.2V13.3V13.4V13.5V13.6V13.7V13.8V13.9V14C58.7 14 58.7 14 58.7 14C58.6 14 58.5 14 58.4 14H58.3V14.1V14.2V14.3V14.4V14.5V14.6V14.7V14.8V14.9V15V15.1V15.2V15.3V15.4V15.5V15.6V15.7V15.8V15.9V16V16.1H58.4H58.5V16.2V16.3V16.4V16.5V16.6V16.7V16.8V16.9V19V19.1V19.2V19.3V19.4V19.5V19.6V19.7V19.8V19.9V20V20.1V20.2V20.3V20.4V20.5V20.6V21V21.1V21.2V21.3V21.4V21.5V21.6V21.7V21.8V21.9V22V22.1V22.2V22.3V22.4V22.5V22.6V22.7V22.8V22.9V23V23.1V23.2V23.3V23.4V23.5V23.6V23.7V23.8V23.9V24V24.1V24.2V24.3V24.4V24.5V24.6V24.7V24.8V24.9V25V25.1V25.2V25.3V25.4V25.5V25.6V25.7V25.8V25.9V26V26.1V26.2V26.3V26.4V27V27.1V27.2V27.3V27.4V27.5V27.6V27.7V27.8V27.9V28V28.1V28.2V28.3V28.4V28.5V28.6V28.7V28.8V28.9V29H58.6V29.1V29.2V29.3C58.5 29.3 58.5 29.3 58.5 29.3C58.4 29.3 58.2 29.3 58.1 29.3V29.4L58 29.5V29.6V29.7V29.8V29.9V30V30.1V30.2V30.3V30.4V30.5V30.6V30.7V30.8V30.9V31V31.1V31.2H58.1V31.3V31.4C58 31.4 58 31.4 58 31.4C57.6 31.4 57.2 31.4 56.9 31.4C56.8 31.4 56.8 31.4 56.8 31.4H56.7V31.3V31.2H56.8H56.9V31.1V31V30.9V30.8V30.7V31V30.9V30.8V30.7V30.6V30.5V30.4V30.3V30.2V30.1V30V29.9V29.8V29.7C56.8 29.7 56.8 29.7 56.8 29.7V29.6H56.7C56.6 29.6 56.6 29.5 56.6 29.5V29.4V29.3V29.2V29.1V29V28.9V28.8V28.7V28.6V28.5V28.4V28V27.9V27.8V27.7V27.6V27.5V27.4V27.3V27.2V27.1V27V26.9V26.8V26.7V26.6V26.5V26.4V26.3V26.2V26.1V26V25.9V25.8V25.7V25.6V25.5V25.4V25.3V25.2V25.1V25V24.9V24.8V24.7V24.6V24.5V24.4V24.3V24.2V24.1V24V23.9V23.8V23.7V23.6V23.5V23V22.9V22.8V22.7V22.6V22.5V22.4V22.3V22.2V22.1V22V21.9V21.8V21.7V21.6V21.5V21.4V21.3V21.2V21.1V20.9V20.8V20.7V20.6V20.5V20.4V20.3V20.2V20V19.9V19.8V19.7V19.6V19.5V19.4V19.3V19.2V19.1V19V18.9V18.8V18.7V18.6V18.5V18.4H56.7V18.3V18.2H56.8V18.1V18V17.9V17.8V17.7V17.6V17.5V17.4V17.3V17.2V17.1V17V16.9V16.7V16.6V16.5V16.4V16.3V16.2V16.1V16V15.9H56.7H56.6C56.5 15.9 56.5 15.9 56.4 15.9H56.3L56.2 15.8V15.7V15.6V15.5V15.4V15.3V15.2H56.1V15.1V15V14.9V14.8V14.7V14.6V14.5V14.4V14.3V14.2V14.1H56.2H56.1V14C56 14 56 14 55.9 14L55.8 13.9V13.8V13.7V13.6V13.5V13.4L55.7 13.3H55.6V13.4V13.5V13.6V13.7V13.8C55.5 13.8 55.5 13.8 55.5 13.8C55.4 13.8 55.3 13.9 55.2 13.9H55.1V14V14.1V14.2H54C53.9 14.2 53.9 14.2 53.8 14.2H53.7C53.6 14.2 53.6 14.2 53.5 14.2C53.4 14.2 53.4 14.2 53.3 14.2V14.3H53.2H53.1C53 14.3 52.9 14.3 52.9 14.3C52.7 14.3 52.6 14.3 52.5 14.3H52.4C52.3 14.3 52.1 14.4 52 14.4H51.9C51.8 14.4 51.8 14.4 51.8 14.4C51.7 14.4 51.7 14.4 51.6 14.4V14.3H51.5H51.4V14.2H51.3V14.1V14V13.9V13.8V13.7V13.6V13.5C51.2 13.5 51.2 13.5 51.1 13.5H51H41V13.6V13.7V13.8V13.9V14V14.1V14.2V14.3H41.1H41.2C41.3 14.3 41.3 14.4 41.3 14.4V14.5V14.6V14.7V14.8V14.9V15V15.1V15.2V15.3C41.3 15.4 41.4 15.4 41.4 15.4C41.4 15.5 41.4 15.5 41.4 15.6L41.5 15.7H41.6H41.7H41.8H41.9V15.8V15.9V16V16.1V16.2V16.3V16.4V16.5V16.6V16.7V16.8V16.9V17V17.1V17.2V17.3V17.4V17.5V17.6V17.7V17.8V17.9V18V18.1V18.2V18.3V18.4V18.5V18.6V18.7V18.8V18.9V19V19.1V19.2V19.3V19.4V19.5V19.6V19.7V20V20.1V20.2V20.3V20.4V20.5V20.6V20.7V20.8V21V21.1V21.2V21.3V21.4V21.5V21.6V21.7V21.8V21.9V22V22.1V22.2V22.3V22.4V22.5V22.6V22.7V22.8V22.9V23V23.1V23.2V23.3V23.4V23.5V23.6V23.7V23.8V23.9V24V24.1V24.2V24.3V24.4V24.5V24.6V24.7V24.8V24.9V25V25.1V25.2V25.3V25.4V25.5V25.6V25.7V25.8V25.9V26.1V26.2V26.3L41.8 26.4V26.5V26.6V26.7V26.8V26.9H41.7H41.6C38.8 26.9 36 26.9 33.3 26.9H33.2H33.1C33 26.9 33 26.9 33 26.9H32.9C32.8 26.9 32.8 26.9 32.7 26.9V26.8L32.6 26.7H32.5C32.4 26.7 32.4 26.7 32.4 26.7H32.3V26.6V26.5V26.4V26.3V26.2V26.1V26V25.9V25.8V25.7V25.6V25.5V26V25.9V25.8V25.7V25.6V25.5V25.4V25.3V25.2V25.1V25V24.9V24.8V24.7V24.6V24.5V24.4V24.3V24.2V24.1V24V23.9V23.8V23.7V23.6V23.5V23.4V23.3V23.2V23.1V23V22.9V22.8V22.7V22.6V22.5V22.4V22.3V22.2V22.1V22V21.9V21.8V21.7V21.6V21.5V21.4V21.3V21.2V21.1V21V20.9V20.8V20.7V20.6V20.5V20.4V20.3V20.2V20.1V20V19.9V19.8V19.7V19V18.9V18.8V18.7V18.6V18.5V18.4V18.3V18.2V18.1V18V17.9V17.8V17.7V17.6V17.5V17.4V17.3V17.2V17.1V17V16.9V16.8V16.7V16.6V16.5V16.4V16.3V16.2V16.1V16V15.9V15.8V15.7V15.6V15.5V15.4V15.3V15.2V15.1V15L32.4 14.9V14.8H32.5H32.6V14.7V14.6H32.7C32.1 14.6 31.6 14.6 31 14.6H30.9C30.9 14.7 30.9 14.7 30.9 14.8V14.9V15V15.1V15.2C30.9 15.3 30.9 15.3 30.9 15.3V15.4V15.5L31 15.6L31.1 15.7V15.8V15.9V16V16.1V16.2V16.3L31 16.4H30.9C30.7 16.4 30.6 16.5 30.4 16.5H30.3C30.2 16.5 30.2 16.5 30.2 16.5C30 16.5 29.8 16.5 29.6 16.5V16.6V16.7V16.8H29.5V16.9V17V17.1V17.2V17.3H29.4V17.4V17.5V17.6V17.7V17.8V17.9V18V18.1V18.2L29.3 18.3V18.4V18.5V18.6V18.7L29.2 18.8V18.9V19V19.1V19.2L29.1 19.3V19.4V20L29 20.1V20.2V20.3V20.4V20.5V20.6V20.7V20.8H28.9V21V21.1L28.8 21.2V21.3V21.4V21.5H28.7H28.6V21.6H28.5C28.4 21.6 28.4 21.6 28.3 21.6H28.2H28.1C27.5 21.6 26.9 21.6 26.3 21.6C26.2 21.6 26.2 21.6 26.1 21.6C26 21.6 25.9 21.6 25.9 21.6H25.8H25.7C25.6 21.6 25.6 21.6 25.5 21.6L25.4 21.5C25.3 21.5 25.3 21.5 25.3 21.5H25.2L25.1 21.4V21.3H25V21.2V21.1V21V20.9L24.9 20.8V20.7V20.6V20.5V20.4V20.3V20.2V20.1V20V19.9V19.8V19.7V19.6V19.5V19.4H25V19.3V19.2V19.1V19H25.1V18.9V18.8V18.7V18.6V18.5V18.4V18.3V18.2H25.2V18.1V18V17.9V17.8V17.7V17.6V17.5V17.4V17.3V17.2H25.3V17.1V17V16.9V16.8V16.7V16.6V16.5V16.4V16.3L25.2 16.2V16.1L25.1 16C25.1 16 25.1 15.9 25 15.9H24.9H24.8C24.7 15.9 24.7 15.9 24.6 15.9V15.8C24.5 15.8 24.5 15.8 24.4 15.8H24.3V15.7H24.2V15.6C24.1 15.6 24.1 15.6 24 15.6L23.9 15.5C23.8 15.5 23.8 15.4 23.8 15.4H23.7C23.6 15.4 23.6 15.3 23.6 15.3L23.5 15.2V15.1V15V14.9V14.8V14.7V14.6V14.5V14.4V14.3H23.4H23.3H23.2C23.1 14.3 23.1 14.3 23.1 14.3H23V14.2C22.9 14.2 22.9 14.2 22.9 14.2H22.8V14.1V14V13.9C21.1 13.9 19.4 13.9 17.6 13.9H17.5C17.4 13.9 17.4 13.9 17.3 13.9L17.2 13.8L17.1 13.7V13.6V13.5V13.4V13.3V13.2V13.1C16.3 13.1 15.6 13.1 14.9 13.1C14.8 13.1 14.7 13.1 14.6 13.1C14.5 13.1 14.4 13.1 14.4 13.1L14.3 13.2C14.2 13.3 14.2 13.3 14.1 13.3H13.9H13.8V13.4C13.8 13.5 13.7 13.6 13.7 13.7L7.2 18.8C7.1 18.9 7 18.9 6.9 18.8H6.8C6.7 18.8 6.7 18.8 6.7 18.8C6.6 18.8 6.6 18.9 6.5 18.9C6.5 19 6.5 19 6.5 19.1C6.5 19.2 6.4 19.3 6.4 19.4L4.4 17C4.3 17 4.3 17 4.2 17L4.1 17.1C4 17.1 4 17.2 4 17.2H3.9H3.8L3.7 17.3H3.6H2.9C2.8 17.3 2.8 17.3 2.7 17.3H2.6C2.5 17.3 2.5 17.3 2.4 17.3C2.4 17.3 2.3 17.2 2.2 17.2V17.1C2.1 17.1 2.1 17.1 2.1 17.1H2L1.9 17V16.9V16.8L1.8 16.7V16.6V16.5V16.4V16.3V16.2V16.1V16V15.9V15.8V15.7H1.7V15.6V15.5L1.6 15.4V15.3V15.2V15.1V15V14.9V14.8L1.5 14.7V14.6V14.5V14.4V14.3V14.2V14.1V14V13.9L1.4 13.8V13.7V13.6V13.5V13.4V13.3V13.2V13.1V13V12.9V12.8V12.7V12.6V12.5V12.4V12.3V12.2V12.1V12V11.9V11.8V11.7V11.6V11.5V11.4V11.3V11.2V11.1L1.3 11V10V9.9V9.8V9.7V9.6V9.5V9.4V9.3V9.2V9.1C1.3 9.1 0 9 0 8.9V8.8V8.7V8.6V8.5L0.1 8.4V8.3V8.2V8.1H0.2V8V7.9H0.3V7.8L0.4 7.7C0.5 7.7 0.5 7.7 0.5 7.7C0.6 7.7 0.6 7.7 0.7 7.7C0.7 7.7 0.8 7.7 0.9 7.7H1H1.1C1.2 7.7 1.2 7.7 1.2 7.7H1.3H1.4C2 7.3 2 7.3 2.2 7.3H11.6C11.7 7.3 11.8 7.3 11.8 7.3C11.9 7.3 11.9 7.2 12 7.2C12.1 7.2 12.1 7.1 12.2 7.1H12.3C12.4 7.1 12.4 7.1 12.5 7.1C12.6 7.1 12.6 7.1 12.7 7.1C14.5 7.1 16.4 7.1 18.3 7.1V7V6.8V6.7V6.6H18.4V6.5V6.4L18.5 6.3C18.6 6.3 18.6 6.2 18.7 6.2H18.8V6.1L19 5.9H19.1C19.2 5.9 19.3 5.9 19.4 5.9H19.5H19.6V5.8V5.7H19.7V5.6V5.5V5.4V5.3H19.6V5.2V5.1V5V4.9V4.8V4.7V4.6H19.7H19.8H19.9H20H20.1H20.2H20.3H20.4V4.5V4.4V4.3H20.5V4.2V4.1H20.6C20.7 4.1 20.7 4.1 20.7 4.1C20.9 4.1 21.1 4.1 21.3 4.1H21.4H21.5V4.2L21.6 4.3V4.4V4.5H21.7C21.8 4.5 21.9 4.5 22 4.5C22.1 4.5 22.1 4.5 22.2 4.5L22.3 4.6H22.4V4.7V4.8C22.4 4.8 22.4 4.9 22.5 4.9C22.6 4.9 22.6 4.9 22.6 4.9C22.7 4.9 22.7 4.9 22.7 4.9C23.2 4.9 23.7 4.9 24.2 4.9C24.4 4.9 24.7 4.9 25 4.9H25.1H25.2H25.3C25.4 4.9 25.4 5 25.4 5H25.5C25.6 5 25.6 5.1 25.6 5.1V5.2H25.7V5.3V5.4V5.5H25.8H25.9H26V5.6V5V5.1V5.2V5.3V5.4V5.5V5.6V5.7V5.8H26.1C27.3 5.8 28.4 5.8 29.6 5.8H29.7C29.7 5.8 29.8 5.8 29.9 5.8V5.7L30 5.6L30.1 5.5V5.4L30.2 5.3H30.3V5.3C30.4 5.3 30.4 5.3 30.5 5.3L30.6 5.4L30.7 5.5V5.6C30.8 5.5 30.8 5.5 30.9 5.5C31 5.5 31 5.5 31.1 5.4C31.2 5.4 31.3 5.4 31.4 5.4C31.5 5.4 31.6 5.4 31.7 5.4L31.8 5.5C31.8 5.4 31.8 5.4 31.8 5.4C31.9 5.3 32 5.3 32.1 5.3H34.4C34.5 5.3 34.6 5.3 34.6 5.4C34.6 5.5 34.7 5.5 34.7 5.6C34.9 5.6 35 5.6 35.1 5.6C35.2 5.6 35.2 5.6 35.3 5.6H35.4C36.4 5.6 37.4 5.6 38.4 5.6C38.5 5.6 38.5 5.6 38.5 5.6C38.6 5.6 38.6 5.6 38.6 5.6C38.7 5.6 38.7 5.7 38.7 5.7L38.8 5.8L38.9 5.7V5.6H39H39.1H39.2V5.7V5.8H39.3C39.4 5.8 39.4 5.8 39.5 5.8H39.6C40.2 5.8 40.8 5.8 41.4 5.8L41.5 5.7L41.6 5.6C41.7 5.6 41.7 5.6 41.8 5.6C42 5.6 42.2 5.6 42.5 5.6V5.5H42.6H42.7C42.8 5.5 42.8 5.4 42.9 5.4C43 5.4 43.1 5.4 43.2 5.4L43.3 5.3C43.4 5.3 43.4 5.3 43.4 5.3C43.5 5.3 43.6 5.3 43.6 5.3H43.7H43.8C43.9 5.3 43.9 5.3 43.9 5.3H44V4.6V4.5V4.4H43.9L43 3C42.9 3 42.9 2.9 42.8 2.8C42.8 2.7 42.8 2.7 42.8 2.6H42.7H42.6H42.5C42.4 2.6 42.4 2.6 42.4 2.6C42.3 2.6 42.2 2.5 42.1 2.5H42H41.9C41.8 2.5 41.8 2.5 41.8 2.5C41.7 2.5 41.7 2.5 41.6 2.5H41.5L41.4 2.4L41.3 2.3H41.2C41.1 2.3 41.1 2.3 41.1 2.3C41 2.3 41 2.3 41 2.3V2.2H40.9V2.1H40.8L40.7 2V1.9V1.8V1.7V1.6V1.5V1.4V1.3L40.8 1.2H40.9C40.9 1.1 41 1 41.1 1C40.7 0 40.8 0 40.9 0L41.2 0.1C41.3 0.1 41.4 0.2 41.5 0.3C41.6 0.4 41.6 0.5 41.5 0.6H41.6H41.7H41.8H41.9C42 0.6 42 0.6 42 0.6H42.1C42.2 0.6 42.2 0.6 42.2 0.6C42.2 0.5 42.2 0.5 42.3 0.5C42.4 0.4 42.5 0.4 42.6 0.4C42.7 0.4 42.7 0.4 42.8 0.4L47.7 1.7C47.8 1.7 47.9 1.7 47.9 1.8V1.9H48H48.1H48.2V2H48.3H48.4V2.1H48.5C48.6 2.1 48.6 2.1 48.7 2.1C48.8 2.1 48.8 2.2 48.8 2.2L48.9 2.3V2.4V2.5V2.6V2.7V2.8V2.9V3V3.1V3.2V3.3V3.4V3.5V3.6V3.7V3.8V3.9V4V4.1V4.2V4.3V4.4V4.5V4.6V4.7V4.8V4.9V5V5.1V5.2H48.8V5.3H48.7H48.6H48.5C48 5.3 47.5 5.3 47 5.3C46.9 5.3 46.9 5.3 46.9 5.3C46.8 5.3 46.8 5.4 46.7 5.4V5.5V5.6V5.7V5.8C49 5.8 51.3 5.8 53.6 5.8V5.7V5.6V6.5V6.4V6.3H53.7H53.8H53.9V6.2H54V6.1V6V5.9V5.8V5.7V5.6V5.5H53.9V5.4V5.3L54 5.2H54.1H54.2V5.1H54.3V5V4.9H54.4V4.8H54.5C54.7 4.8 54.9 4.8 55.1 4.8H55.2C55.3 4.8 55.3 4.8 55.4 4.8C55.5 4.8 55.5 4.9 55.5 4.9C55.6 4.9 55.6 4.9 55.6 4.9C55.7 4.9 55.7 5 55.8 5V5.1V5.2V5.3V5.4V5.5V5.6V5.7C55.9 5.7 55.9 5.8 56 5.8V5.9H56.1V6V6.1V6.2V6.3V6.4V6.5V6.6V6.7V6.8V6.9V7.1H56.2H56.3C56.4 7.1 56.4 7.2 56.4 7.2V7.3H56.5V7.4C63.9 7.4 71.3 7.4 78.7 7.4C78.8 7.4 78.9 7.4 79 7.4C79.1 7.4 79.2 7.5 79.3 7.5C80.6 7.2 80.7 7.3 80.8 7.3ZM56.7 5.5C56.7 5.6 56.7 5.7 56.7 5.7V5.8V5.7V5.6V5.5ZM54.5 6.7C54.6 6.7 54.6 6.7 54.5 6.7V6.7ZM47.4 4.4V4.5V4.4C47.4 4.3 47.4 4.3 47.4 4.4ZM44.8 6C44.7 6 44.6 6 44.5 6C44.6 6.1 44.7 6.1 44.8 6ZM22 11.6C22 11.5 22 11.6 22 11.6V11.6ZM25 14.4C25.1 14.5 25.1 14.5 25 14.4C25.1 14.4 25.1 14.4 25 14.4ZM30.2 15.4C30.2 15.5 30.1 15.5 30.1 15.5H30.2C30.3 15.5 30.3 15.4 30.2 15.4ZM11.1 9.6H3.2V9.7C3.2 9.8 3.2 9.8 3.2 9.8V9.9V10V10.1V10.2C3.2 10.3 3.3 10.3 3.3 10.3C3.3 10.4 3.3 10.4 3.3 10.5C3.3 10.6 3.3 10.6 3.3 10.6C3.3 10.7 3.3 10.7 3.3 10.8C3.3 10.9 3.4 10.9 3.4 10.9V11C3.5 11 3.5 11 3.6 11C3.7 11.1 3.7 11.1 3.8 11.2L4.5 13.3L5.7 12.4C5.8 12.3 5.9 12.3 6 12.3C6.1 12.3 6.2 12.4 6.2 12.4L6.3 12.3L6.4 12.2V12.1H6.5V12C6.6 12 6.7 11.9 6.7 11.9H6.8L6.9 11.8H7H7.1C7.1 11.8 7.1 11.7 7.2 11.7L7.3 11.6L7.4 11.5C7.5 11.5 7.5 11.4 7.5 11.4H7.6H7.7V11.3H7.8H7.9V11.2C8 11.2 8 11.1 8 11.1L8.1 11C9 11.1 9 11 9 11C9.1 11 9.1 10.9 9.1 10.9V10.8L9.2 10.7H9.3L9.4 10.6V10.5H9.5V10.4C9.6 10.4 9.6 10.4 9.6 10.4L9.7 10.3H9.8L9.9 10.2L10 10.1H10.1C10.2 10.1 10.2 10 10.2 10H10.3V9.9C10.4 9.9 10.4 9.8 10.4 9.8C11 9.6 11 9.6 11.1 9.6Z" fill="white"/>
</svg>
