<svg width="131" height="29" viewBox="0 0 131 29" fill="none" xmlns="http://www.w3.org/2000/svg">
<path d="M101.158 27.823C102.739 26.3487 103.494 25.4491 103.994 24.4683C104.528 23.4187 104.875 22.0756 104.969 20.7199C105.269 16.2656 105.843 12.8671 106.617 10.9305C107.011 9.9497 107.358 9.4561 108.206 8.6565C109.154 7.76938 110.001 7.22587 111.577 6.50744C113.372 5.68281 114.694 5.23301 118.051 4.29592C119.787 3.81488 120.928 3.44629 124.425 2.24058C126.321 1.58462 129.725 0.366406 130.673 0.00406609C130.82 -0.0521639 131 0.485096 131 0.978626C131 1.40345 130.973 1.5034 130.74 1.94071C130.299 2.77784 129.612 3.3276 127.863 4.25844C125.6 5.45791 124.052 6.07638 119.486 7.56947C117.003 8.3879 115.982 8.7564 114.213 9.4874C111.343 10.6744 110.402 11.1804 109.421 12.0612C108.747 12.6672 108.339 13.2232 107.932 14.1166L107.619 14.7913L107.539 14.4602C107.438 14.0916 107.425 13.3919 107.498 13.1732C107.545 13.0483 107.532 13.0296 107.425 13.0483C107.358 13.0608 107.225 13.217 107.118 13.4231C106.944 13.7355 106.918 13.8917 106.838 14.835C106.784 15.416 106.698 16.1719 106.637 16.5093C106.577 16.8529 106.504 17.6088 106.471 18.1898C106.304 20.9198 106.057 22.188 105.369 23.7748C104.915 24.8431 104.395 25.649 103.774 26.2737C102.9 27.1421 101.004 28.5102 100.016 28.985C99.903 29.0412 100.397 28.5415 101.158 27.823Z" fill="white"/>
<path d="M111.31 28.6727C110.696 28.6477 109.848 28.5415 109.468 28.4353C108.967 28.2978 108.76 28.1729 108.486 27.823C108.339 27.6481 108.179 27.4607 108.113 27.4107C108.012 27.3357 108.039 27.292 108.386 26.9922C108.713 26.711 108.813 26.661 109.04 26.6548C109.281 26.6548 109.334 26.686 109.674 27.0421C110.522 27.9292 110.869 28.2104 111.43 28.4665C111.73 28.6039 111.93 28.7101 111.877 28.7039C111.824 28.6976 111.57 28.6852 111.31 28.6727Z" fill="white"/>
<path d="M101.738 28.5977C101.585 28.5602 101.591 28.5415 101.938 28.3416C102.559 27.9667 103.607 27.1546 104.275 26.5299C105.496 25.3741 106.277 23.9935 106.731 22.1568C106.804 21.8632 106.991 20.7137 107.138 19.5954C107.292 18.4772 107.445 17.3589 107.485 17.1028L107.559 16.6405L107.745 17.1215C107.846 17.3901 108.206 18.0711 108.546 18.6333C109.468 20.1827 109.681 20.8449 109.681 22.1693C109.674 23.6999 109.254 24.7306 108.099 26.0051C107.565 26.5923 107.258 26.8547 106.671 27.2233C105.423 28.0042 103.827 28.5227 102.366 28.6164C102.112 28.6289 101.825 28.6227 101.738 28.5977Z" fill="white"/>
<path d="M112.711 28.2791C111.737 27.9542 111.21 27.6606 110.549 27.0608C109.881 26.4611 109.594 26.2799 109.314 26.2799C109.154 26.2799 109.16 26.2612 109.521 25.7989C109.721 25.5303 109.941 25.2179 110.001 25.0992L110.108 24.8931L110.502 24.9368C111.049 24.993 111.203 25.0805 111.904 25.7427C112.371 26.1862 112.625 26.3674 113.012 26.5486C113.733 26.8859 114.44 27.0421 115.288 27.0484C116.082 27.0608 116.069 27.0484 115.742 27.5044C115.375 28.0042 114.634 28.3165 113.646 28.3728C113.212 28.404 113.038 28.3853 112.711 28.2791Z" fill="white"/>
<path d="M114.514 25.9988C113.653 25.8239 113.058 25.5366 112.398 24.993C111.79 24.4933 111.39 24.3308 110.816 24.3558L110.362 24.3746L110.442 24.1871C110.515 24.031 110.596 23.7124 110.776 22.8627C110.809 22.7128 111.109 22.5941 111.437 22.5941C111.804 22.5941 112.344 22.9564 113.312 23.856C113.826 24.3308 114.387 24.8119 114.56 24.9306C115.321 25.4366 116.256 25.6802 117.297 25.6428L117.951 25.624L117.597 25.7677C117.41 25.8489 117.07 25.9551 116.85 25.9988C116.349 26.1113 115.054 26.1113 114.514 25.9988Z" fill="white"/>
<path d="M116.349 24.437C115.682 24.2996 115.048 23.9622 114.28 23.3375C112.792 22.1381 111.877 21.7695 111.13 22.0818L110.829 22.2068L110.789 21.4758C110.762 21.076 110.729 20.6762 110.702 20.5887C110.662 20.4326 110.682 20.4201 111.103 20.3139C112.057 20.0702 113.065 20.4013 115.181 21.657C116.316 22.3255 118.125 23.1876 118.946 23.45C119.299 23.5562 119.653 23.6124 120.16 23.6374C120.881 23.6749 120.881 23.6749 120.721 23.7936C120.454 23.9872 119.747 24.2746 119.253 24.3746C118.578 24.5183 116.903 24.5557 116.349 24.437Z" fill="white"/>
<path d="M119.913 22.5316C119.186 22.3942 118.044 21.9381 115.915 20.9323C114.3 20.1639 113.766 19.964 112.945 19.8203C111.997 19.6516 111.477 19.7079 110.903 20.0515L110.622 20.2139L110.415 19.6704C110.302 19.3705 110.088 18.9457 109.948 18.7208C109.801 18.4959 109.694 18.3085 109.701 18.296C109.714 18.2897 110.015 18.2085 110.375 18.1273C112.177 17.6962 113.539 18.0586 116.783 19.8453C118.885 21.001 120.154 21.4633 121.789 21.6633C122.376 21.732 123.845 21.7132 124.125 21.6258C124.405 21.5383 123.851 21.9194 123.391 22.1318C122.236 22.6503 121.182 22.769 119.913 22.5316Z" fill="white"/>
<path d="M121.789 20.4638C121.222 20.3888 120.14 20.1202 119.626 19.9265C119.386 19.839 118.385 19.3892 117.404 18.9394C114.567 17.615 113.799 17.3839 112.311 17.3776C111.263 17.3776 110.976 17.4401 110.048 17.8399L109.501 18.0773L109.274 17.765L109.047 17.4526L109.341 17.2027C109.968 16.6842 110.876 16.3968 112.264 16.2719C113.279 16.1782 113.733 16.2219 116.783 16.6904C122.143 17.5088 122.83 17.5963 124.125 17.5963C125.547 17.5963 126.581 17.4151 127.536 17.0028C127.81 16.8903 128.03 16.8029 128.03 16.8154C128.03 16.9278 127.569 17.9024 127.349 18.2522C126.495 19.6079 125.734 20.1639 124.345 20.4325C123.785 20.5387 122.476 20.5575 121.789 20.4638Z" fill="white"/>
<path d="M108.773 17.0965C108.72 17.0403 108.673 16.9653 108.673 16.9278C108.673 16.7904 109.835 15.8408 110.522 15.4035C112.144 14.3915 114.02 13.723 116.115 13.4106C117.397 13.2232 118.498 13.1545 122.837 13.0046C126.681 12.8671 127.723 12.7109 128.984 12.08C129.431 11.8613 129.431 11.8613 129.598 12.3736C129.712 12.7297 129.725 13.4356 129.625 13.8479C129.512 14.3102 129.104 15.0099 128.737 15.366C128.13 15.9595 126.922 16.4593 125.76 16.5905C124.445 16.7467 123.438 16.6842 120.02 16.2219C115.101 15.5597 113.639 15.4472 112.351 15.6222C110.903 15.8221 109.875 16.2281 109.247 16.8466C108.907 17.1777 108.873 17.1965 108.773 17.0965Z" fill="white"/>
<path d="M108.373 16.5093C108.259 16.3156 108.259 16.2719 108.339 16.1157C108.473 15.8658 110.335 14.1416 111.009 13.6356C112.464 12.5548 113.98 11.9425 116.863 11.2866C118.578 10.893 119.399 10.7493 121.642 10.437C125.533 9.90589 128.25 9.31249 129.498 8.72519C129.999 8.48779 130.052 8.51279 130.086 9.05629C130.119 9.51859 129.925 10.0559 129.618 10.387C129.278 10.7493 128.317 11.1242 127.162 11.3428C126.214 11.5302 125.62 11.5865 123.024 11.7239C117.824 12.005 116.095 12.2362 114.08 12.9046C111.964 13.6168 109.835 15.0162 108.78 16.3968C108.64 16.5718 108.52 16.7217 108.513 16.7217C108.5 16.7217 108.44 16.6217 108.373 16.5093Z" fill="white"/>
<path d="M107.952 15.6721C107.872 15.4722 107.806 15.2598 107.806 15.1973C107.806 15.1349 107.926 14.86 108.066 14.5914C108.893 13.0545 109.808 12.2174 111.55 11.4303C113.005 10.768 116.136 9.6873 119.373 8.7252C124.566 7.18838 126.154 6.59489 128.644 5.27048L129.291 4.92688L129.678 5.1018C130.346 5.40792 130.633 5.72653 130.633 6.15134C130.633 6.63238 130.339 7.06968 129.732 7.50699C129.004 8.0255 128.17 8.3066 125.714 8.8814C124.118 9.25 123.378 9.3937 120.821 9.8185C119.213 10.0809 118.331 10.2745 116.549 10.7556C113.112 11.6801 111.777 12.3736 109.741 14.2915C109.281 14.7226 108.74 15.2911 108.54 15.5534C108.339 15.8158 108.159 16.0282 108.139 16.0282C108.119 16.0345 108.039 15.872 107.952 15.6721Z" fill="white"/>
<path d="M96.8 3.6V3.7V3.8V3.9V4V4.4C97.4 4.4 97.9 4.4 98.5 4.4C98.6 4.4 98.6 4.4 98.7 4.4C98.7 4.4 98.7 4.4 98.8 4.4C98.8 4.4 98.8 4.4 98.9 4.4C98.9 4.4 99 4.4 99.1 4.5C99.1 4.5 99.1 4.6 99.2 4.6C99.2 4.6 99.2 4.6 99.2 4.7C99.2 4.7 99.2 4.7 99.2 4.8V4.9V5C99.2 5 99.2 5 99.2 5.1C99.2 5.1 99.2 5.1 99.3 5.1V5.2V5.3V5.4V5.5V5.6C99.3 5.6 99.3 5.6 99.3 5.7V5.8V5.9V6V6.1C99.3 6.1 99.3 6.1 99.3 6.2C99.3 6.2 99.3 6.2 99.2 6.3V6.4V6.5V6.6V6.7V6.8V6.9C99.2 6.9 99.2 6.9 99.2 7C99 7 98.9 7 98.7 7C98.7 7 98.7 7 98.7 7.1C98.7 7.1 98.7 7.1 98.8 7.2V7.3C95.7 7.3 92.6 7.3 89.5 7.3C89.5 7.3 89.4 7.3 89.4 7.4C89.3 7.4 89.1 7.4 89 7.4V7.5C89 7.5 89 7.5 89 7.4C88.6 7.4 88.2 7.4 87.8 7.5H87.7V7.6C87.5 7.6 87.4 7.6 87.2 7.6C87.2 7.6 87.2 7.6 87.1 7.7V7.8H87V7.9V8V8.1V8.2C87.1 8.2 87.1 8.2 87.2 8.2V8.3V8.4V8.5V8.6V8.7V8.8V8.9V9C87.2 9.1 87.2 9.1 87.2 9.1V9.2V9.3V9.4V9.5V9.6V9.7C87.2 9.7 87.2 9.7 87.2 9.8C87.1 9.8 87 9.8 86.8 9.8V9.9C86.8 9.9 86.8 9.9 86.8 10C86.7 10 86.6 10 86.4 10C86.2 10 86 10 85.8 10C85.8 10 85.8 10 85.8 10.1C85.8 10.2 85.8 10.1 85.8 10.2V10.3C85.8 10.3 85.8 10.3 85.7 10.3C85.7 10.3 85.7 10.3 85.6 10.3C85.6 10.3 85.6 10.3 85.5 10.3H85.4C85.3 10.3 85.3 10.3 85.2 10.3H85.1C84.9 10.3 84.6 10.4 84.4 10.4C84.4 10.4 84.4 10.4 84.4 10.5C84.2 10.5 84 10.6 83.8 10.6C83.8 10.6 83.7 10.6 83.7 10.7C83.1 10.7 82.5 10.8 81.8 10.8C81.8 10.8 81.7 10.8 81.7 10.9C81.2 10.9 80.7 10.9 80.2 10.9C80.2 10.9 80.2 10.9 80.1 11C80.1 11 80 11 79.9 11C76.5 11 73.2 11 69.8 11C69.7 11 69.6 11 69.5 11C69.5 11 69.5 11 69.5 11.1C69 11.1 68.4 11.2 67.9 11.2C67.9 11.2 67.9 11.2 67.9 11.3C67.3 11.3 66.8 11.4 66.2 11.4C66.2 11.4 66.1 11.4 66.1 11.5C65.6 11.5 65.2 11.6 64.8 11.6C64.8 11.6 64.7 11.6 64.7 11.7C64.3 11.7 63.9 11.8 63.4 11.8C63.4 11.8 63.4 11.8 63.4 11.9C62.9 11.9 62.4 12 62 12C62 12 62 12 62 12.1C61.5 12.1 61.1 12.2 60.7 12.2C60.7 12.2 60.6 12.2 60.6 12.3C60 12.3 59.5 12.4 58.9 12.4C58.9 12.4 58.8 12.4 58.8 12.5C58.1 12.5 57.3 12.5 56.6 12.5L56.5 12.4C56.1 12.4 55.7 12.4 55.4 12.3L55.3 12.2C55.2 12.2 55 12.2 54.9 12.1V12C54.8 12 54.7 12 54.5 11.9V11.8C54.5 11.8 54.4 11.8 54.3 11.7V11.6C54.2 11.6 54.1 11.6 53.9 11.5V11.4C53.9 11.4 53.8 11.4 53.7 11.3V11.2L53.6 11.1L53.5 11C53.4 11 53.3 10.9 53.2 10.9V10.8L53.1 10.7C50.6 10.7 48.1 10.7 45.5 10.8C45.5 10.8 45.5 10.8 45.5 10.9C44.7 10.9 43.9 10.9 43.1 10.9L43 10.8C42.9 10.8 42.7 10.8 42.6 10.7V10.6C42.6 10.6 42.6 10.6 42.5 10.6L42.1 11.3C42.1 11.3 42.1 11.3 42 11.3C42 11.3 42 11.3 41.9 11.3H41.8H41.7C41.7 11.3 41.7 11.3 41.6 11.3H41.5C41.5 11.3 41.5 11.3 41.4 11.3C41.4 11.3 41.4 11.3 41.3 11.3C41.3 11.3 41.3 11.3 41.2 11.3C41.1 11.3 41 11.3 40.8 11.3C40.8 11.3 40.8 11.3 40.7 11.3L40.2 12.4H40.1C40.1 12.4 40.1 12.4 40 12.4L39.9 12.5V12.6H39.8L39.7 12.7V12.8H39.6C39.6 12.8 39.6 12.8 39.5 12.8V12.9H39.4C39.4 12.9 39.4 12.9 39.3 12.9V13.4C39.2 13.4 39.2 13.4 39.1 13.4V13.5H39C39 13.5 39 13.5 38.9 13.5C38.8 13.5 38.7 13.5 38.6 13.5C38.5 13.5 38.4 13.5 38.3 13.5V13.6C38.2 13.6 38.2 13.6 38.1 13.6H38C37.7 13.6 37.4 13.6 37.1 13.6C36.8 13.6 36.5 13.6 36.3 13.6H36.2H36.1C36.1 13.6 36.1 13.6 36 13.6H35.9V13.9V14C35.7 14 35.5 14 35.3 14H35.2L35.1 13.9V13.8H35C35 13.8 35 13.8 34.9 13.8V13.7L34.7 13.5L34.6 13.4V13.3C34.6 13.3 34.6 13.3 34.5 13.3L33.8 12.4V12.2C33.7 12.2 33.7 12.2 33.6 12.2C33.2 12.2 32.8 12.2 32.3 12.2C32.1 12.2 31.8 12.2 31.6 12.2H31.5C31.4 12.2 31.4 12.2 31.3 12.3C31 12.3 30.8 12.3 30.5 12.4H30.4H30.3C30.2 12.4 30.2 12.4 30.2 12.4C30.2 12.4 30.2 12.4 30.1 12.4C30 12.4 30 12.4 30 12.4H29.9H29.8C29.7 12.4 29.7 12.4 29.7 12.5C29.6 12.5 29.6 12.5 29.5 12.6C29.5 12.6 29.5 12.6 29.4 12.7H29.3C29.3 12.7 29.2 12.7 29.2 12.8H29.1C29.1 12.8 29.1 12.8 29 12.8C29 12.8 29 12.8 29 12.9C29 12.9 29 12.9 28.9 13L28.8 13.1L28.7 13.2C28.6 13.2 28.6 13.3 28.5 13.3V13.4V13.5C28.5 13.5 28.4 13.6 28.3 13.6C28.3 13.6 28.3 13.6 28.3 13.7C28.3 13.7 28.2 13.8 28.1 13.8V13.9V14C28.1 14 28 14.1 27.9 14.1V14.2V14.3C27.9 14.3 27.8 14.4 27.7 14.4V14.5V14.6V14.7V14.8V14.9V15V15.1V15.2V15.3V15.4V15.5V15.6V15.7L27.6 15.8C27.5 15.8 27.5 15.8 27.4 15.8C27.4 15.8 27.4 15.8 27.4 15.9C27.4 15.9 27.4 16 27.3 16H27.2C27.2 16 27.1 16 27 16H26.9C26.8 16 26.8 16 26.7 16C26.7 16 26.7 15.9 26.6 15.9V15.8C26.4 15.8 26.3 15.8 26.1 15.8C26.1 15.8 26 15.9 25.9 15.9C25.9 15.9 25.9 15.9 25.9 16C25.8 16 25.8 16 25.7 16.1V16.2V16.3C25.7 16.3 25.7 16.3 25.7 16.4C25.7 16.4 25.6 16.5 25.5 16.5C25.5 16.5 25.5 16.5 25.5 16.6C25.2 16.6 24.9 16.6 24.7 16.6C24.3 16.6 23.9 16.6 23.5 16.6C23.5 16.6 23.5 16.6 23.5 16.7C23.5 16.7 23.5 16.7 23.6 16.8L23.7 16.9C23.7 16.9 23.7 16.9 23.7 17V17.1C23.7 17.1 23.7 17.1 23.7 17.2V17.3C23.7 17.3 23.7 17.3 23.6 17.3C23.6 17.3 23.6 17.3 23.5 17.3H23.4C23.3 17.3 23.3 17.3 23.3 17.3C23.2 17.3 23.2 17.3 23.1 17.3C23.1 17.3 23 17.3 23 17.2C23 17.2 23 17.1 22.9 17.1C22.9 17.1 22.9 17.1 22.8 17V16.9V16.8V16.7C22.8 16.7 22.8 16.7 22.7 16.6C22.7 16.6 22.7 16.6 22.7 16.5C22.7 16.5 22.7 16.5 22.7 16.4L22.6 16.3C22.6 16.3 22.5 16.3 22.5 16.2C22.5 16.2 22.5 16.2 22.5 16.1C22.5 16.1 22.5 16 22.4 16C22.4 16 22.4 16 22.3 15.9V15.8C22.3 15.8 22.3 15.8 22.3 15.7C22.2 15.7 22.2 15.7 22.1 15.6C22.1 15.6 22.1 15.5 22 15.5C22 15.5 22 15.4 21.9 15.4C21.8 15.4 21.8 15.4 21.7 15.3C21.6 15.3 21.6 15.3 21.5 15.3C21.5 15.3 21.4 15.3 21.3 15.3C21.3 15.3 21.2 15.3 21.1 15.3C21.1 15.3 21.1 15.3 21 15.2C21 15.2 21 15.1 20.9 15.1C20.9 15.1 20.9 15.1 20.9 15C20.9 15 20.9 15 20.9 14.9V14.8V14.7C20.9 14.7 20.9 14.7 20.9 14.6C20.8 14.6 20.7 14.7 20.6 14.7C20.5 14.7 20.4 14.8 20.3 14.8V14.9C20.2 14.9 20.1 15 20 15C19.9 15 19.8 15 19.7 15.1C19.6 15.1 19.5 15.2 19.3 15.2C19.3 15.2 19.2 15.2 19.1 15.3C19 15.3 18.9 15.4 18.8 15.4C18.8 15.4 18.7 15.4 18.7 15.5C18.6 15.5 18.5 15.6 18.3 15.6C18.3 15.6 18.3 15.6 18.3 15.7C18.2 15.7 18.1 15.8 17.9 15.8C17.9 15.8 17.9 15.8 17.9 15.9C17.8 15.9 17.7 16 17.5 16C17.5 16 17.5 16 17.5 16.1C17.4 16.1 17.2 16.2 17.1 16.2C17.1 16.2 17 16.2 17 16.3C17 16.3 16.9 16.4 16.8 16.4C16.8 16.4 16.8 16.4 16.8 16.5C16.7 16.5 16.5 16.6 16.4 16.6C16.4 16.6 16.3 16.6 16.3 16.7C16.2 16.7 16.1 16.8 15.9 16.8C15.9 16.8 15.9 16.8 15.9 16.9C15.8 16.9 15.7 17 15.5 17C15.5 17 15.5 17 15.5 17.1C15.4 17.1 15.2 17.2 15.1 17.2C15.1 17.2 15 17.2 15 17.3C14.9 17.3 14.8 17.4 14.6 17.4C14.6 17.4 14.6 17.4 14.6 17.5C14.6 17.5 14.5 17.6 14.4 17.6V17.7C14.3 17.7 14.2 17.8 14.1 17.8C14.1 17.8 14 17.8 14 17.9C13.9 17.9 13.8 18 13.6 18C13.6 18 13.6 18 13.6 18.1C13.5 18.1 13.4 18.2 13.2 18.2C13.2 18.2 13.2 18.2 13.2 18.3C13.1 18.3 13 18.4 12.9 18.4C12.9 18.4 12.8 18.4 12.8 18.5C12.7 18.5 12.6 18.6 12.5 18.6C12.5 18.6 12.4 18.6 12.4 18.7C12.3 18.7 12.2 18.8 12.1 18.8C12.1 18.8 12 18.8 12 18.9C12 18.9 11.9 19 11.8 19C11.8 19 11.8 19 11.8 19.1C11.7 19.1 11.6 19.2 11.4 19.2C11.4 19.2 11.4 19.2 11.4 19.3C11.3 19.3 11.2 19.4 11 19.4C11 19.4 11 19.4 11 19.5C10.9 19.5 10.8 19.6 10.6 19.6C10.6 19.6 10.6 19.6 10.6 19.7C10.4 19.7 10.3 19.8 10.1 19.8C10.1 19.8 10.1 19.8 10.1 19.9C10 19.9 9.9 20 9.8 20C9.8 20 9.7 20 9.7 20.1C9.6 20.1 9.5 20.2 9.3 20.2C9.3 20.2 9.3 20.2 9.3 20.3C9.2 20.3 9.1 20.4 8.9 20.4C8.9 20.4 8.9 20.4 8.9 20.5C8.8 20.5 8.7 20.6 8.5 20.6C8.5 20.6 8.5 20.6 8.5 20.7C8.3 20.7 8.2 20.8 8 20.8C8 20.8 8 20.8 8 20.9C7.9 20.9 7.8 21 7.6 21C7.6 21 7.6 21 7.6 21.1C7.5 21.1 7.4 21.2 7.2 21.2C7.2 21.2 7.2 21.2 7.2 21.3C7.1 21.3 7 21.4 6.8 21.4C6.8 21.4 6.8 21.4 6.8 21.5C6.7 21.5 6.6 21.6 6.4 21.6C6.4 21.6 6.4 21.6 6.4 21.7C6.3 21.7 6.2 21.8 6.1 21.8C6.1 21.8 6 21.8 6 21.9C5.9 21.9 5.8 22 5.6 22C5.6 22 5.6 22 5.6 22.1C6.3 22.4 6.2 22.4 6.1 22.5C6.1 22.5 6.1 22.5 6.1 22.6C5.9 22.6 5.8 22.7 5.6 22.7C5.6 22.7 5.6 22.7 5.6 22.8C5.5 22.8 5.3 22.9 5.2 22.9C5.2 22.9 5.1 22.9 5.1 23C5 23 4.8 23.1 4.7 23.1C4.7 23.1 4.6 23.1 4.6 23.2C4.5 23.2 4.4 23.3 4.2 23.3C4.2 23.3 4.2 23.3 4.2 23.4C4.1 23.4 4 23.4 3.9 23.4V23.5V23.6C3.9 23.6 3.9 23.7 3.8 23.7H3.7H3.6C3.6 23.7 3.5 23.7 3.5 23.6H3.4C3.4 23.6 3.3 23.6 3.3 23.7H3.2C3.2 23.7 3.1 23.7 3 23.6C3 23.6 3 23.6 2.9 23.5C2.9 23.5 2.9 23.5 2.8 23.4C2.8 23.4 2.8 23.4 2.8 23.5C2.8 23.5 2.8 23.5 2.7 23.6V23.7V23.8H2.6C2.6 23.8 2.5 23.8 2.4 23.9C2.3 23.9 2.2 23.9 2.1 23.9C2 23.9 2 23.9 1.9 23.8C1.9 23.8 1.9 23.8 1.8 23.8C1.8 23.8 1.7 23.8 1.7 23.7C1.7 23.7 1.7 23.7 1.6 23.6C1.6 23.6 1.5 23.6 1.4 23.5H1.3C1.2 23.5 1.1 23.5 1.1 23.4H1C1 23.4 1 23.4 0.9 23.3L0.8 23.2C0.8 23.2 0.8 23.2 0.8 23.1V23C0.8 23 0.8 23 0.8 22.9C0.8 22.9 0.8 22.9 0.8 22.8V22.7V22.6C0.8 22.6 0.8 22.6 0.8 22.5V22.4V22.3C0.8 22.3 0.8 22.3 0.8 22.2C0.8 22.2 0.8 22.2 0.8 22.1V22C0.8 22 0.8 22 0.8 21.9V21.8C0.8 21.8 0.8 21.8 0.8 21.7C0.8 21.7 0.8 21.7 0.8 21.6V21.5V21.4C0.8 21.4 0.8 21.4 0.8 21.3V21.2V21.1C0.8 21.1 0.8 21.1 0.8 21V20.9C0.8 20.9 0.8 20.9 0.8 20.8C0.8 20.8 0.8 20.8 0.8 20.7C0.8 20.7 0.8 20.6 0.7 20.6C0.7 20.6 0.7 20.6 0.7 20.5C0.7 20.5 0.7 20.5 0.7 20.4V20.3V20.2V20.1V20V19.9V19.8C0.7 19.8 0.7 19.8 0.7 19.7C0.7 19.7 0.7 19.7 0.7 19.6V19.5C0.7 19.5 0.7 19.5 0.7 19.4C0.7 19.4 0.7 19.4 0.7 19.3V19.2C0.7 19.2 0.7 19.2 0.7 19.1C0.7 19 0.7 19 0.7 19C0.7 19 0.7 19 0.7 18.9C0.7 18.9 0.7 18.9 0.7 18.8V18.7V18.6V18.5V18.4C0.7 18.4 0.7 18.4 0.7 18.3V18.2C0.7 18.2 0.7 18.2 0.7 18.1C0.7 18.1 0.7 18.1 0.7 18V17.9V17.8C0.7 17.8 0.7 17.8 0.7 17.7V17.6C0.7 17.6 0.7 17.5 0.6 17.5V17.4V17.3C0.6 17.3 0.6 17.3 0.6 17.2C0.6 17.2 0.6 17.2 0.6 17.1V17C0.6 17 0.6 17 0.6 16.9C0.6 16.9 0.6 16.9 0.6 16.8V16.7V16.6V16.5V16.4V16.3V16.2C0.6 16.2 0.6 16.2 0.6 16.1C0.6 16.1 0.6 16.1 0.6 16V15.9C0.6 15.9 0.6 15.9 0.6 15.8C0.6 15.8 0.6 15.8 0.6 15.7V15.6C0.6 15.6 0.6 15.6 0.5 15.5V15.4C0.5 15.4 0.5 15.4 0.5 15.3C0.5 15.3 0.5 15.3 0.5 15.2V15.1V15V14.9V14.8C0.5 14.8 0.5 14.8 0.5 14.7V14.6C0.5 14.6 0.5 14.6 0.5 14.5C0.5 14.5 0.5 14.5 0.5 14.4V14.3C0.5 14.3 0.5 14.3 0.5 14.2C0.5 14.2 0.5 14.2 0.5 14.1V14V13.9C0.5 13.9 0.5 13.8 0.4 13.8V13.7V13.6V13.5C0.4 13.5 0.4 13.5 0.4 13.4C0.4 13.4 0.4 13.4 0.4 13.3V13.2C0.4 13.2 0.4 13.2 0.4 13.1C0.4 13 0.4 13 0.4 13V12.9V12.8V12.7C0.4 12.7 0.4 12.7 0.3 12.6V12.5V12.4C0.3 12.4 0.3 12.4 0.3 12.3C0.3 12.2 0.3 12.3 0.3 12.2V12.1C0.3 12.1 0.3 12.1 0.3 12V11.9V11.8V11.7V11.6V11.5V11.4C0.3 11.4 0.3 11.3 0.2 11.3C0.2 11.3 0.2 11.3 0.2 11.2V11.1C0.2 11.1 0.2 11.1 0.2 11C0.2 11 0.2 11 0.2 10.9V10.8C0.2 10.8 0.2 10.8 0.2 10.7C0.2 10.7 0.2 10.7 0.2 10.6V10.5C0.2 10.5 0.2 10.5 0.2 10.4V10.3C0.2 10.3 0.2 10.3 0.1 10.3V10.2V10.1V10V9.9V9.8C0.1 9.8 0.1 9.8 0.1 9.7V9.6C0.1 9.6 0.1 9.6 0.1 9.5C0.1 9.5 0.1 9.5 0.1 9.4C0.1 9.4 0.1 9.3 0.2 9.3C0.2 9.3 0.2 9.3 0.3 9.3C0.3 9.3 0.3 9.3 0.3 9.2V9.1V9V8.9C0.3 8.9 0.3 8.9 0.4 8.9L0.5 8.8C0.5 8.8 0.5 8.8 0.6 8.7C0.6 8.7 0.6 8.6 0.7 8.6C0.7 8.6 0.7 8.6 0.8 8.5H0.9C1 8.5 1 8.5 1.1 8.4C1.1 8.4 1.1 8.4 1.2 8.3H1.3C1.4 8.3 1.4 8.3 1.5 8.2C1.6 8.2 1.7 8.1 1.7 8.1H1.8H1.9C2 8.1 2.1 8.1 2.2 8.1H2.3H2.4C2.4 8.1 2.4 8.1 2.5 8.1C2.5 8.1 2.6 8.1 2.7 8.2C2.7 8.2 2.7 8.3 2.8 8.3C2.8 8.3 2.8 8.4 2.9 8.4H3C3.1 8.4 3.3 8.3 3.4 8.3C3.4 8.3 3.4 8.3 3.4 8.2C3.4 8.2 3.4 8.2 3.5 8.2C3.9 8.2 4.2 8.2 4.6 8.2C5.1 8.2 5.6 8.2 6.1 8.2L6.2 8.3C6.3 8.3 6.5 8.3 6.6 8.3C6.8 8.3 7 8.3 7.1 8.3C7.1 8.3 7.1 8.3 7.2 8.4C7.4 8.4 7.7 8.4 7.9 8.4C7.9 8.4 7.9 8.4 8 8.3C8.6 8.3 9.2 8.3 9.9 8.3H10H10.1C10.2 8.3 10.2 8.3 10.3 8.3V7.9C10.4 7.9 10.6 7.9 10.7 7.9C10.7 7.9 10.7 7.9 10.8 7.9C10.9 7.9 10.9 7.9 11 7.9C11.1 7.9 11.2 7.9 11.3 7.9C11.4 7.9 11.6 7.9 11.7 7.9C11.8 7.9 11.8 7.9 11.9 7.9C11.9 7.9 11.9 7.9 12 7.9C12 7.9 12 7.9 12.1 7.9C12.2 7.9 12.4 7.9 12.5 7.9C12.5 7.9 12.5 7.9 12.6 7.9C12.7 7.9 12.6 7.9 12.7 7.9C12.8 7.9 12.8 7.9 12.9 7.9C12.9 7.9 12.9 7.9 13 7.9C13.1 7.9 13 7.9 13.1 7.9C13.1 7.9 13.1 7.9 13.2 7.9C13.2 7.9 13.2 7.9 13.3 7.9C13.4 7.9 13.6 7.9 13.7 7.9C13.8 7.9 14 7.9 14.1 7.9C14.1 7.9 14.1 7.9 14.2 7.9C14.3 7.9 14.5 7.9 14.6 7.9C14.6 7.9 14.6 7.9 14.7 7.9C15 7.9 15.2 7.9 15.5 7.9H15.6C15.8 7.9 16 7.9 16.1 7.9C16.1 7.9 16.1 7.9 16.2 7.9C16.2 7.9 16.2 7.9 16.3 7.9H16.4C16.5 7.9 16.7 7.9 16.8 7.9H16.9H17H17.1H17.2H17.3H17.4H17.5H17.6C17.8 7.9 18 7.9 18.2 7.9C18.2 7.9 18.2 7.9 18.3 7.9C18.3 7.9 18.3 7.9 18.4 7.9C18.5 7.9 18.4 7.9 18.4 7.9C18.4 7.9 18.4 7.9 18.5 7.9C18.5 7.9 18.5 7.9 18.6 7.9C18.6 7.9 18.6 7.9 18.7 7.9C18.7 7.9 18.8 7.9 18.9 7.9H19H19.1C19.2 7.9 19.2 7.9 19.3 7.9C19.4 7.9 19.4 7.9 19.5 7.9H19.6H19.7H19.8H19.9C19.9 7.9 19.9 7.9 20 7.9C20.1 7.9 20 7.9 20.1 7.9C20.1 7.9 20.1 7.9 20.2 7.9C20.2 7.9 20.2 7.9 20.3 7.9C20.4 7.9 20.3 7.9 20.4 7.9C20.4 7.9 20.4 7.9 20.5 7.9C20.5 7.9 20.5 7.9 20.6 7.9H20.7H20.8H20.9C20.9 7.9 21 7.9 21.1 7.9H21.2H21.3H21.4H21.5C21.7 7.9 21.9 7.9 22.1 7.9C22.1 7.9 22.1 7.9 22.2 7.9C22.2 7.9 22.2 7.9 22.3 7.9C22.3 7.9 22.3 7.9 22.4 7.9H22.5H22.6H22.7H22.8H22.9C23 7.9 23.1 7.9 23.2 7.9H23.3V8.1H23.4C23.5 8.1 23.5 8.1 23.6 8.1C23.6 8.1 23.6 8.1 23.7 8.1C23.8 8.1 23.8 8.1 23.9 8.1C24 8.1 24.1 8.1 24.2 8.1C24.3 8.1 24.5 8.1 24.6 8.1C24.7 8.1 24.7 8.1 24.8 8.1C24.8 8.1 24.8 8.1 24.9 8.1H25C25 8.1 25 8.1 25.1 8.1H25.2H25.3H25.4H25.5H25.6H25.7C25.7 8.1 25.7 8.1 25.8 8.1H25.9H26H26.1H26.2H26.3C26.3 8.1 26.3 8.1 26.4 8.1C26.5 8.1 26.5 8.1 26.6 8.1H26.7C26.7 8.1 26.7 8.1 26.8 8.1C26.9 8.1 26.9 8.1 27 8.1H27.1H27.2H27.3C27.4 8.1 27.4 8.1 27.5 8.1H27.6C27.6 8.1 27.6 8.1 27.7 8.1H27.8H27.9C27.9 8.1 27.9 8.1 28 8.1C28 8.1 28 8.1 28.1 8.1H28.2C28.2 8.1 28.2 8.1 28.3 8.1H28.4C28.4 8.1 28.4 8.1 28.5 8.1H28.6H28.7C28.7 8.1 28.7 8.1 28.8 8.1H28.9C28.9 8.1 28.9 8.1 29 8.1C29 8.1 29 8.1 29.1 8.1H29.2C29.2 8.1 29.2 8.1 29.3 8.1H29.4C29.4 8.1 29.4 8.1 29.5 8.1C29.5 8.1 29.5 8.1 29.6 8.1H29.7C29.7 8.1 29.7 8.1 29.8 8.1H29.9C29.9 8.1 29.9 8.1 30 8.1H30.1C30.1 8.1 30.1 8.1 30.2 8.1C30.2 8.1 30.2 8.1 30.3 8.1C30.3 8.1 30.3 8.1 30.4 8.1H30.5C30.5 8.1 30.5 8.1 30.6 8.1H30.7H30.8C30.8 8.1 30.8 8.1 30.9 8.1H31H31.1C31.1 8.1 31.1 8.1 31.2 8.1H31.3C31.3 8.1 31.3 8.1 31.4 8.1C31.4 8.1 31.4 8.1 31.5 8.1H31.6C31.6 8.1 31.6 8.1 31.7 8.1C31.8 8.1 31.8 8.1 31.8 8.1C31.8 8.1 31.8 8.1 31.9 8.1H32H32.1C32.1 8.1 32.1 8.1 32.2 8.1C32.2 8.1 32.2 8.1 32.3 8.1C32.3 8.1 32.3 8.1 32.4 8.1C32.4 8.1 32.4 8.1 32.5 8.1H32.6C32.6 8.1 32.6 8.1 32.7 8.1H32.8H32.9C32.9 8.1 32.9 8.1 33 8.1H33.1H33.2C33.2 8.1 33.2 8.1 33.3 8.1H33.4C33.4 8.1 33.4 8.1 33.5 8.1H33.6H33.7C33.7 8.1 33.7 8.1 33.8 8.1C33.8 8.1 33.8 8.1 33.9 8.1C33.9 8.1 33.9 8.1 34 8.1H34.1C34.1 8.1 34.1 8.1 34.2 8.1C34.2 8.1 34.2 8.1 34.3 8.1H34.4C34.4 8.1 34.4 8.1 34.5 8.1H34.6C34.6 8.1 34.6 8.1 34.7 8.1H34.8C34.8 8.1 34.8 8.1 34.9 8.1C34.9 8.1 34.9 8.1 35 8.1H35.1C35.1 8.1 35.1 8.1 35.2 8.1H35.3C35.3 8.1 35.3 8.1 35.4 8.1C35.4 8.1 35.4 8.1 35.5 8.1H35.6H35.7C35.7 8.1 35.7 8.1 35.8 8.1V3.4C35.9 3.4 36 3.4 36.2 3.4V3C36.6 3 37 3 37.4 3C37.6 3 37.8 3 37.9 3C37.9 3 37.9 3 38 3V3.4C38.1 3.4 38.2 3.4 38.3 3.4C38.4 3.4 38.6 3.4 38.7 3.4V3.8C40.9 3.8 43.1 3.8 45.2 3.8C45.2 3.8 45.2 3.8 45.2 3.9C45.3 3.9 45.3 3.9 45.4 3.9C45.4 3.9 45.4 3.9 45.3 3.9C45.4 3.9 45.6 3.9 45.7 3.9C46.4 3.9 47.2 3.9 47.9 3.9C48.1 3.9 48.2 3.9 48.4 3.9H48.5C48.6 3.9 48.8 3.9 48.9 3.9C49 3.9 49.1 3.9 49.2 3.9C49.3 3.9 49.5 3.9 49.6 3.9C50 3.9 50.4 3.9 50.9 3.9C51 3.9 51.2 3.9 51.3 3.9C51.4 3.9 51.5 3.9 51.6 3.9C51.9 3.9 52.2 3.9 52.5 3.9C52.6 3.9 52.8 3.9 52.9 3.9V4C52.9 4 52.9 4.1 53 4.1C53.4 4.1 53.8 4.1 54.3 4.1V4.2V4.3C54.3 4.3 54.3 4.3 54.4 4.3C55.1 4.4 55.2 4.4 55.2 4.4H55.3C67.8 4.4 80.2 4.4 92.7 4.4C92.7 4.4 92.7 4.4 92.6 4.3V4.2C92.9 4.2 93.2 4.2 93.5 4.2C93.5 4.2 93.5 4.2 93.6 4.3C93.8 4.3 93.9 4.3 94.1 4.3C94.1 4.3 94.1 4.3 94.1 4.2C94.1 4.1 94.1 4 94.1 3.9V3.8V3.7V3.6C94.2 3.6 94.2 3.5 94.3 3.5C94.3 3.5 94.3 3.5 94.3 3.4C95.1 3.4 95.9 3.4 96.7 3.4C96.8 3.5 96.8 3.5 96.8 3.6ZM34.2 10.6H34.1C34.1 10.6 34.1 10.6 34.2 10.6ZM35.8 11.7C35.7 11.7 35.7 11.8 35.8 11.7C35.7 11.8 35.7 11.8 35.8 11.7V12.5C35.8 12.5 35.8 12.5 35.9 12.5V12.6C35.9 12.6 35.9 12.6 36 12.6H36.1V12.7C36.1 12.7 36.1 12.7 36.2 12.7H36.3H36.4C36.4 12.7 36.4 12.7 36.5 12.7H36.6C36.6 12.7 36.7 12.7 36.8 12.7C37 12.7 37.3 12.7 37.5 12.7C37.6 12.7 37.6 12.7 37.7 12.7V12.6H37.8C37.9 12.6 38 12.6 38.2 12.6C38.2 12.6 38.2 12.6 38.3 12.6H38.4H38.5V11.4C37.6 11.4 36.6 11.4 35.7 11.4L35.8 11.7ZM39.2 10.9C38.9 10.9 38.6 10.9 38.3 10.9C38.6 10.9 38.9 10.9 39.2 10.9ZM0.1 11.1C0.1 11.2 2.23517e-08 11.2 0.1 11.1C2.23517e-08 11.2 0 11.2 0 11.2C0 11.3 2.23517e-08 11.2 0.1 11.1C0.2 11.1 0.2 11.1 0.2 11C0.2 11.1 0.2 11.1 0.1 11.1ZM0.3 10.9C0.4 10.8 0.4 10.8 0.4 10.8C0.3 10.8 0.3 10.8 0.3 10.9ZM0.6 10.6C0.5 10.6 0.5 10.6 0.4 10.6C0.4 10.6 0.4 10.6 0.3 10.7H0.4V10.6C0.5 10.7 0.6 10.6 0.6 10.6ZM0.3 13.8C0.3 13.8 0.3 13.9 0.3 13.8V13.8ZM2.5 23.3C2.5 23.3 2.5 23.4 2.6 23.4C2.6 23.4 2.6 23.4 2.6 23.5V23.4C2.6 23.4 2.6 23.4 2.6 23.3H2.5C2.5 23.3 2.4 23.3 2.5 23.3Z" fill="white"/>
</svg>
