<svg width="70" height="29" viewBox="0 0 70 29" fill="none" xmlns="http://www.w3.org/2000/svg">
<path d="M40.158 27.823C41.739 26.3487 42.494 25.4491 42.994 24.4683C43.528 23.4187 43.875 22.0756 43.969 20.7199C44.269 16.2656 44.843 12.8671 45.617 10.9305C46.011 9.9497 46.358 9.4561 47.206 8.6565C48.154 7.76938 49.001 7.22587 50.577 6.50744C52.372 5.68281 53.694 5.23301 57.051 4.29592C58.787 3.81488 59.928 3.44629 63.425 2.24058C65.321 1.58462 68.725 0.366406 69.673 0.00406609C69.82 -0.0521639 70 0.485096 70 0.978626C70 1.40345 69.973 1.5034 69.74 1.94071C69.299 2.77784 68.612 3.3276 66.863 4.25844C64.6 5.45791 63.052 6.07638 58.486 7.56947C56.003 8.3879 54.982 8.7564 53.213 9.4874C50.343 10.6744 49.402 11.1804 48.421 12.0612C47.747 12.6672 47.339 13.2232 46.932 14.1166L46.619 14.7913L46.539 14.4602C46.438 14.0916 46.425 13.3919 46.498 13.1732C46.545 13.0483 46.532 13.0296 46.425 13.0483C46.358 13.0608 46.225 13.217 46.118 13.4231C45.944 13.7355 45.918 13.8917 45.838 14.835C45.784 15.416 45.698 16.1719 45.637 16.5093C45.577 16.8529 45.504 17.6088 45.471 18.1898C45.304 20.9198 45.057 22.188 44.369 23.7748C43.915 24.8431 43.395 25.649 42.774 26.2737C41.9 27.1421 40.004 28.5102 39.016 28.985C38.903 29.0412 39.397 28.5415 40.158 27.823Z" fill="white"/>
<path d="M50.31 28.6727C49.696 28.6477 48.848 28.5415 48.468 28.4353C47.967 28.2978 47.76 28.1729 47.486 27.823C47.339 27.6481 47.179 27.4607 47.113 27.4107C47.012 27.3357 47.039 27.292 47.386 26.9922C47.713 26.711 47.813 26.661 48.04 26.6548C48.281 26.6548 48.334 26.686 48.674 27.0421C49.522 27.9292 49.869 28.2104 50.43 28.4665C50.73 28.6039 50.93 28.7101 50.877 28.7039C50.824 28.6976 50.57 28.6852 50.31 28.6727Z" fill="white"/>
<path d="M40.738 28.5977C40.585 28.5602 40.591 28.5415 40.938 28.3416C41.559 27.9667 42.607 27.1546 43.275 26.5299C44.496 25.3741 45.277 23.9935 45.731 22.1568C45.804 21.8632 45.991 20.7137 46.138 19.5954C46.292 18.4772 46.445 17.3589 46.485 17.1028L46.559 16.6405L46.745 17.1215C46.846 17.3901 47.206 18.0711 47.546 18.6333C48.468 20.1827 48.681 20.8449 48.681 22.1693C48.674 23.6999 48.254 24.7306 47.099 26.0051C46.565 26.5923 46.258 26.8547 45.671 27.2233C44.423 28.0042 42.827 28.5227 41.366 28.6164C41.112 28.6289 40.825 28.6227 40.738 28.5977Z" fill="white"/>
<path d="M51.711 28.2791C50.737 27.9542 50.21 27.6606 49.549 27.0608C48.881 26.4611 48.594 26.2799 48.314 26.2799C48.154 26.2799 48.16 26.2612 48.521 25.7989C48.721 25.5303 48.941 25.2179 49.001 25.0992L49.108 24.8931L49.502 24.9368C50.049 24.993 50.203 25.0805 50.904 25.7427C51.371 26.1862 51.625 26.3674 52.012 26.5486C52.733 26.8859 53.44 27.0421 54.288 27.0484C55.082 27.0608 55.069 27.0484 54.742 27.5044C54.375 28.0042 53.634 28.3165 52.646 28.3728C52.212 28.404 52.038 28.3853 51.711 28.2791Z" fill="white"/>
<path d="M53.514 25.9988C52.653 25.8239 52.058 25.5366 51.398 24.993C50.79 24.4933 50.39 24.3308 49.816 24.3558L49.362 24.3746L49.442 24.1871C49.515 24.031 49.596 23.7124 49.776 22.8627C49.809 22.7128 50.109 22.5941 50.437 22.5941C50.804 22.5941 51.344 22.9564 52.312 23.856C52.826 24.3308 53.387 24.8119 53.56 24.9306C54.321 25.4366 55.256 25.6802 56.297 25.6428L56.951 25.624L56.597 25.7677C56.41 25.8489 56.07 25.9551 55.85 25.9988C55.349 26.1113 54.054 26.1113 53.514 25.9988Z" fill="white"/>
<path d="M55.349 24.437C54.682 24.2996 54.048 23.9622 53.28 23.3375C51.792 22.1381 50.877 21.7695 50.13 22.0818L49.829 22.2068L49.789 21.4758C49.762 21.076 49.729 20.6762 49.702 20.5887C49.662 20.4326 49.682 20.4201 50.103 20.3139C51.057 20.0702 52.065 20.4013 54.181 21.657C55.316 22.3255 57.125 23.1876 57.946 23.45C58.299 23.5562 58.653 23.6124 59.16 23.6374C59.881 23.6749 59.881 23.6749 59.721 23.7936C59.454 23.9872 58.747 24.2746 58.253 24.3746C57.578 24.5183 55.903 24.5557 55.349 24.437Z" fill="white"/>
<path d="M58.913 22.5316C58.186 22.3942 57.044 21.9381 54.915 20.9323C53.3 20.1639 52.766 19.964 51.945 19.8203C50.997 19.6516 50.477 19.7079 49.903 20.0515L49.622 20.2139L49.415 19.6704C49.302 19.3705 49.088 18.9457 48.948 18.7208C48.801 18.4959 48.694 18.3085 48.701 18.296C48.714 18.2897 49.015 18.2085 49.375 18.1273C51.177 17.6962 52.539 18.0586 55.783 19.8453C57.885 21.001 59.154 21.4633 60.789 21.6633C61.376 21.732 62.845 21.7132 63.125 21.6258C63.405 21.5383 62.851 21.9194 62.391 22.1318C61.236 22.6503 60.182 22.769 58.913 22.5316Z" fill="white"/>
<path d="M60.789 20.4638C60.222 20.3888 59.14 20.1202 58.626 19.9265C58.386 19.839 57.385 19.3892 56.404 18.9394C53.567 17.615 52.799 17.3839 51.311 17.3776C50.263 17.3776 49.976 17.4401 49.048 17.8399L48.501 18.0773L48.274 17.765L48.047 17.4526L48.341 17.2027C48.968 16.6842 49.876 16.3968 51.264 16.2719C52.279 16.1782 52.733 16.2219 55.783 16.6904C61.143 17.5088 61.83 17.5963 63.125 17.5963C64.547 17.5963 65.581 17.4151 66.536 17.0028C66.81 16.8903 67.03 16.8029 67.03 16.8154C67.03 16.9278 66.569 17.9024 66.349 18.2522C65.495 19.6079 64.734 20.1639 63.345 20.4325C62.785 20.5387 61.476 20.5575 60.789 20.4638Z" fill="white"/>
<path d="M47.773 17.0965C47.72 17.0403 47.673 16.9653 47.673 16.9278C47.673 16.7904 48.835 15.8408 49.522 15.4035C51.144 14.3915 53.02 13.723 55.115 13.4106C56.397 13.2232 57.498 13.1545 61.837 13.0046C65.681 12.8671 66.723 12.7109 67.984 12.08C68.431 11.8613 68.431 11.8613 68.598 12.3736C68.712 12.7297 68.725 13.4356 68.625 13.8479C68.512 14.3102 68.104 15.0099 67.737 15.366C67.13 15.9595 65.922 16.4593 64.76 16.5905C63.445 16.7467 62.438 16.6842 59.02 16.2219C54.101 15.5597 52.639 15.4472 51.351 15.6222C49.903 15.8221 48.875 16.2281 48.247 16.8466C47.907 17.1777 47.873 17.1965 47.773 17.0965Z" fill="white"/>
<path d="M47.373 16.5093C47.259 16.3156 47.259 16.2719 47.339 16.1157C47.473 15.8658 49.335 14.1416 50.009 13.6356C51.464 12.5548 52.98 11.9425 55.863 11.2866C57.578 10.893 58.399 10.7493 60.642 10.437C64.533 9.9059 67.25 9.3125 68.498 8.7252C68.999 8.4878 69.052 8.5128 69.086 9.0563C69.119 9.5186 68.925 10.0559 68.618 10.387C68.278 10.7493 67.317 11.1242 66.162 11.3428C65.214 11.5302 64.62 11.5865 62.024 11.7239C56.824 12.005 55.095 12.2362 53.08 12.9046C50.964 13.6168 48.835 15.0162 47.78 16.3968C47.64 16.5718 47.52 16.7217 47.513 16.7217C47.5 16.7217 47.44 16.6217 47.373 16.5093Z" fill="white"/>
<path d="M46.952 15.6721C46.872 15.4722 46.806 15.2598 46.806 15.1973C46.806 15.1349 46.926 14.86 47.066 14.5914C47.893 13.0545 48.808 12.2174 50.55 11.4303C52.005 10.768 55.136 9.6873 58.373 8.7252C63.566 7.18838 65.154 6.59489 67.644 5.27048L68.291 4.92688L68.678 5.1018C69.346 5.40792 69.633 5.72653 69.633 6.15134C69.633 6.63238 69.339 7.06968 68.732 7.50699C68.004 8.0255 67.17 8.3066 64.714 8.8814C63.118 9.25 62.378 9.3937 59.821 9.8185C58.213 10.0809 57.331 10.2745 55.549 10.7556C52.112 11.6801 50.777 12.3736 48.741 14.2915C48.281 14.7226 47.74 15.2911 47.54 15.5534C47.339 15.8158 47.159 16.0282 47.139 16.0282C47.119 16.0345 47.039 15.872 46.952 15.6721Z" fill="white"/>
<path d="M37 1.5C37 1.6 37 1.6 37 1.7C37 1.8 37 1.8 37 1.8V1.9C37.1 1.9 37.3 1.9 37.4 1.9V2C37.4 2.2 37.4 2.3 37.4 2.5C37.4 2.6 37.4 2.8 37.4 2.9C37.4 3.1 37.4 3.2 37.4 3.4C37.4 3.5 37.4 3.7 37.4 3.8C37.4 4 37.4 4.1 37.4 4.3C37.4 4.4 37.4 4.6 37.4 4.7C37.4 4.9 37.4 5 37.4 5.2C37.4 5.3 37.4 5.5 37.4 5.6C37.4 5.8 37.4 5.9 37.4 6.1C37.4 6.2 37.4 6.4 37.4 6.5C37.4 6.7 37.4 6.8 37.4 7C37.4 7.2 37.4 7.3 37.4 7.4C37.4 7.6 37.4 7.7 37.4 7.9C37.4 8.1 37.4 8.2 37.4 8.3C37.4 8.5 37.4 8.6 37.4 8.7C37.4 8.8 37.4 8.9 37.4 9C37.4 9.1 37.4 9.1 37.4 9.1V9.2V9.5C37.4 9.6 37.4 9.6 37.4 9.6C37.4 9.7 37.4 9.7 37.4 9.7V9.8V9.9V10V10V10.1V10.2C34 10.2 30.7 10.2 27.3 10.2V10.3H27.2C27.1 10.3 27.1 10.4 27.1 10.4H27V10.5L26.9 10.6H26.8H26.7C26.7 10.7 26.7 10.7 26.7 10.8C26.7 10.9 26.7 11 26.7 11.2C26.7 11.3 26.7 11.4 26.7 11.6C26.7 11.7 26.7 11.9 26.7 12C26.7 12.1 26.7 12.3 26.7 12.4C26.7 12.5 26.7 12.7 26.7 12.8C26.7 12.9 26.7 13.1 26.7 13.2C26.7 13.3 26.7 13.5 26.7 13.6C26.7 13.7 26.7 13.8 26.7 14C26.7 14.1 26.7 14.2 26.7 14.4C26.7 14.5 26.7 14.6 26.7 14.8V14.9C26.8 14.9 26.9 14.9 26.9 14.9V15V15.1V15.2V15.3V15.4V15.5V15.6V15.7V15.8V15.9V16V16.1V16.2C22.8 16.2 18.7 16.2 14.5 16.2C14.5 16.3 14.5 16.3 14.5 16.3C14.5 16.4 14.5 16.4 14.5 16.4V16.5C14.5 16.6 14.4 16.6 14.4 16.6V16.7V16.8V17V17.1C14.4 17.2 14.4 17.2 14.4 17.2C14.4 17.3 14.4 17.3 14.4 17.3V17.4C14.3 17.4 14.3 17.5 14.3 17.5V17.6V17.7V17.8V17.9C14.3 18 14.3 18 14.3 18C14.3 18.1 14.3 18.1 14.3 18.1C14.2 18.1 14.2 18.2 14.2 18.2V18.3V18.4V18.5V18.6C14.2 18.7 14.2 18.7 14.2 18.7C14.2 18.8 14.2 18.8 14.2 18.8C14.1 18.8 14.1 18.9 14 18.9V19V19.1V19.2V19.3V19.4C14 19.4 13.9 19.4 13.9 19.5V19.6V19.7V19.8V19.9V20C13.9 20.1 13.8 20.1 13.8 20.1C13.8 20.2 13.8 20.2 13.8 20.2V20.3C13.8 20.3 13.8 20.3 13.8 20.4L13.7 20.5V20.6C13.7 20.7 13.7 20.7 13.7 20.7V20.8C13.7 20.9 13.6 20.9 13.6 20.9C13.6 21 13.6 21 13.6 21V21.1C13.6 21.1 13.6 21.1 13.6 21.2L13.5 21.3V21.4C13.5 21.5 13.5 21.5 13.5 21.5V21.6C13.4 21.6 13.4 21.6 13.3 21.7C13.3 21.7 13.3 21.7 13.3 21.8L13.2 21.9V22C13.2 22.1 13.2 22.1 13.2 22.1V22.2V22.3C13.1 22.3 13.1 22.4 13 22.4V22.5C13 22.6 13 22.6 13 22.6V22.7L12.9 22.8V22.9V23C12.9 23.1 12.9 23.1 12.9 23.1C12.8 23.2 12.8 23.2 12.7 23.2V23.3C12.7 23.4 12.7 23.4 12.7 23.4V23.5V23.6C12.6 23.6 12.6 23.6 12.6 23.7V23.8C12.6 23.9 12.6 23.9 12.6 23.9C12.6 24 12.6 24 12.6 24C12.5 24 12.5 24.1 12.4 24.1V24.2V24.3C12.4 24.4 12.4 24.4 12.4 24.4C12.4 24.5 12.4 24.5 12.4 24.5L12.3 24.6V24.7V24.8C12.3 24.9 12.3 24.9 12.3 24.9C12.3 25 12.3 25 12.3 25V25.1V25.2C12.2 25.2 12.2 25.3 12.1 25.3V25.4V25.5V25.6V25.7V25.8C12.1 25.9 12.1 25.9 12.1 25.9C12.1 26 12.1 26 12.1 26V26.1V26.2V26.3V26.4V26.5V26.6V26.7V26.9V27V27.2H12.2H12.3H12.4H12.5H12.6C12.7 27.2 12.7 27.2 12.7 27.2C12.8 27.2 12.8 27.2 12.8 27.2H12.9V27.5C12.7 27.5 12.5 27.5 12.4 27.5C12.3 27.5 12.2 27.5 12.1 27.5H12C11.8 27.5 11.7 27.5 11.5 27.5C11.4 27.5 11.3 27.5 11.2 27.5C10.9 27.5 10.5 27.5 10.2 27.5C10.1 27.5 10 27.5 10 27.5V27.4C9.9 27.4 9.8 27.4 9.7 27.4C9.6 27.4 9.6 27.4 9.5 27.4V29C9.4 29 9.3 29 9.1 29C9 29 8.8 29 8.7 29V28.9C8.6 28.9 8.5 28.9 8.3 28.9C8.1 28.9 8 28.9 7.9 28.9C7.8 28.9 7.8 28.9 7.8 28.9H7.7C7.4 28.9 7 28.9 6.7 28.9V28.8C6.4 28.8 6.1 28.7 5.8 28.7C5.8 28.7 5.7 28.7 5.7 28.6C5.5 28.6 5.4 28.6 5.2 28.6L5.1 28.5C4.9 28.5 4.8 28.4 4.6 28.4C4.6 28.4 4.5 28.4 4.5 28.3C4.3 28.3 4.2 28.3 4 28.3L3.9 28.2C3.8 28 3.6 28 3.5 28V27.9C3.4 27.9 3.3 27.9 3.2 27.9L3.1 27.8C3 27.8 3 27.7 2.9 27.7C2.8 27.7 2.7 27.7 2.6 27.7V27.6C2.6 27.5 2.6 27.5 2.6 27.5V27.4C2.6 27.3 2.6 27.3 2.6 27.3V27.2V27.1C1.8 27.1 1 27.1 0.3 27.1V27V26.9C0.3 26.9 0.2 26.9 0.1 26.9C0.1 26.8 0.1 26.8 0.1 26.8C0.1 26.7 0.1 26.7 0.1 26.7V26.6C0.1 26.5 0.1 26.5 0.1 26.5V26.4V26.3V26.2V26.1C0.1 26 0.1 26 0.1 26C0.1 25.9 0.1 25.9 0.1 25.9V25.8V25.7V25.6V25.5C0.1 25.4 0.1 25.4 0.1 25.4V25.3C0.1 25.2 0.1 25.2 0.1 25.2C0.1 25.1 0.1 25.1 0.1 25.1V25V24.9V24.8V24.7V24.6C0.1 24.5 0.1 24.5 0.1 24.5V24.4C0.2 24.4 0.2 24.4 0.3 24.4C0.3 24.3 0.3 24.3 0.3 24.3C0.3 24.2 0.3 24.2 0.3 24.2V24.1V24V23.9V23.8V23.7C0.3 23.6 0.4 23.6 0.4 23.6C0.4 23.5 0.4 23.5 0.4 23.5C0.4 23.4 0.4 23.4 0.4 23.4V23.3V23.2V23.1C0.5 23.1 0.5 23.1 0.6 23.1C0.6 23 0.6 23 0.6 23C0.6 22.9 0.6 22.9 0.6 22.9V22.8V22.7V22.6V22.5C0.6 22.4 0.6 22.4 0.6 22.4C0.7 22.3 0.7 22.3 0.7 22.3C0.7 22.2 0.7 22.2 0.7 22.2V22.1V22V21.9V21.8C0.8 21.8 0.8 21.8 0.9 21.8C0.9 21.1 0.9 21 0.9 21V20.9V20.8V20.7V20.6C1 20.6 1 20.6 1 20.6C1 20.5 1 20.5 1 20.5V20.4V20.3C1.1 20.3 1.1 20.2 1.2 20.2V20.1C1.2 20 1.2 20 1.2 20C1.2 19.9 1.2 19.9 1.2 19.9C1.3 19.9 1.3 19.8 1.3 19.8C1.3 19.7 1.3 19.7 1.3 19.7V19.6C1.4 19.6 1.4 19.5 1.4 19.5V19.4V19.3C1.5 19.3 1.5 19.3 1.5 19.3C1.5 19.2 1.5 19.2 1.5 19.2V19.1C1.6 19.1 1.6 19 1.6 19V18.9V18.8V18.7C1.7 18.7 1.7 18.6 1.7 18.6V18.5C1.7 18.4 1.7 18.4 1.7 18.4C1.7 18.3 1.7 18.3 1.7 18.3C1.9 18 2 18 2 17.9V17.8V17.7L2.1 17.6C2.1 17.5 2.1 17.5 2.1 17.5V17.4C2.1 17.3 2.2 17.3 2.2 17.3C2.2 17.2 2.2 17.2 2.2 17.2L2.3 17.1V17V16.9V16.8C2.4 16.7 2.4 16.7 2.5 16.7C2.5 16.6 2.5 16.6 2.5 16.6C2.5 16.5 2.5 16.5 2.5 16.5L2.6 16.4V16.3V16.2V16.1C2.7 16.1 2.7 16 2.7 16C2.7 15.9 2.7 15.9 2.7 15.9V15.8C2.8 15.8 2.8 15.7 2.8 15.7V15.6V15.5C2.9 15.5 2.9 15.4 3 15.4V15.3C3.1 15.3 3.1 15.2 3.1 15.2C3.1 15.1 3.1 15.1 3.1 15.1C3.1 15 3.2 15 3.2 15C3.2 14.9 3.3 14.9 3.3 14.9C3.3 14.8 3.3 14.8 3.3 14.8V14.7C3.3 14.7 3.3 14.6 3.4 14.6V14.5V14.4C3.5 14.3 3.5 14.3 3.5 14.3C3.5 14.2 3.5 14.2 3.5 14.2C3.5 14.1 3.5 14.1 3.5 14.1C3.6 14.1 3.6 14 3.6 14V13.9V13.8V13.7C3.7 13.7 3.7 13.7 3.8 13.7C3.8 13.6 3.8 13.6 3.8 13.6V13.5V13.4C4.1 13 4.2 13 4.2 13V12.9V12.8C4.2 12.7 4.2 12.7 4.2 12.7V12.6C4.2 12.5 4.2 12.5 4.2 12.5V12.4C4.3 12.4 4.3 12.4 4.4 12.4C4.4 12.3 4.4 12.3 4.4 12.3V12.2V12.1C4.3 12.1 4.3 12.1 4.2 12.1V12V11.9C4.1 11.9 4.1 11.9 4 11.9L3.9 11.8V11.7V11.6C3.8 11.6 3.7 11.5 3.7 11.5V11.4C3.5 11 3.5 11 3.4 11L3.3 10.9V10.8C3.2 10.8 3.2 10.7 3.1 10.7L3 10.6C2.9 10.6 2.9 10.6 2.8 10.6V10.5C2.7 10.5 2.7 10.4 2.6 10.4V10.3C2.5 10.3 2.4 10.3 2.3 10.3V10.2C2.2 10.2 2.2 10.1 2.1 10.1L2 10C1.9 10 1.9 10 1.8 10V9.9C1.6 9.9 1.5 9.8 1.3 9.8L1.2 9.7C1.1 9.7 1.1 9.7 1 9.7V9.6C0.8 9.6 0.6 9.5 0.4 9.5V9.4V9.3V9.2C0.3 9.2 0.1 9.2 0 9.2V9.1V9V8.9C0 8.8 0 8.8 0 8.8C0 8.7 0 8.7 0 8.7V8.6V8.5V8.4V8.3V8.2V8C0 7.9 0 7.9 0 7.9C0 7.8 0 7.8 0 7.8V7.7L0.1 7.6V7.5V7.4C0.1 7.3 0.1 7.3 0.1 7.3V7.2C0.1 7.1 0.1 7.1 0.1 7.1C0.1 7 0.1 7 0.1 7V6.9V6.8V6.7C0.3 6.7 0.4 6.7 0.6 6.7C0.6 6.6 0.6 6.6 0.6 6.6V6.5V6.4V6.3V6.2V6.1C0.6 6 0.6 6 0.6 6V5.7C0.6 5.6 0.6 5.6 0.6 5.6V5.5V5.4C0.9 5.3 0.9 5.3 1 5.2V5.1C1 5 1 5 1 5C1 5 1.1 4.9 1.1 4.9V4.8C1.1 4.7 1.1 4.7 1.1 4.7V4.6C1.2 4.6 1.2 4.6 1.2 4.6C1.2 4.5 1.2 4.5 1.2 4.5V4.4V4.3C1.3 4.3 1.3 4.2 1.4 4.2V4.1V4C1.5 4 1.5 3.9 1.5 3.9V3.8V3.7C1.6 3.7 1.6 3.6 1.7 3.6V3.5C1.8 3.5 1.8 3.5 1.8 3.5V3.4V3.3C1.9 3.3 1.9 3.3 2 3.3V3.2C2.1 3.2 2.1 3.1 2.1 3.1V3V2.9C2.2 2.9 2.2 2.8 2.3 2.8V2.7C2.4 2.7 2.4 2.7 2.4 2.7V2.6C2.5 2.6 2.5 2.5 2.6 2.5V2.4C2.7 2.4 2.7 2.4 2.7 2.4V2.3C2.8 2.3 2.8 2.3 2.9 2.3C2.9 2 2.9 2 2.9 2V1.9V1.8V1.7C3.3 1.7 3.7 1.7 4.1 1.7V1.6V1.5V1.4V1.3V1.2C4.1 1.1 4.1 1.1 4.1 1.1V1C8.9 1 13.6 1 18.4 1V1.1C18.4 1.2 18.4 1.2 18.4 1.2C18.4 1.3 18.4 1.3 18.4 1.3V1.4C18.6 1.4 18.8 1.4 19 1.4V1.5C19.1 1.5 19.1 1.6 19.1 1.6V1.7C19.1 1.8 19.1 1.8 19.1 1.8C19.1 1.9 19.1 1.9 19.1 1.9V2C19.1 2.1 19.1 2.1 19.1 2.1V2.2C20.8 2.2 22.6 2.2 24.4 2.2V2.1V2.1C24.4 2 24.4 2 24.4 2C24.4 1.9 24.4 1.9 24.4 1.9V1.8V1.7V1.6V1.5V1.4V1.2C24.4 1.1 24.4 1.1 24.4 1.1V1C28 1 31.5 1 35 1C35.3 1 35.7 1 36 1H36.3C36.5 1 36.7 1 36.9 1V1.1C37 1.1 37 1.1 37.1 1.1C37.1 1.2 37.1 1.2 37.1 1.2V1.3C37 1.4 37 1.4 37 1.5ZM17.4 10.7C17.3 10.7 17.2 10.8 17.2 10.8L17.1 10.9L17 11V11.1L16.9 11.2V11.3C16.9 11.4 16.9 11.4 16.9 11.4C16.8 11.4 16.8 11.5 16.7 11.5V11.6C16.7 11.7 16.7 11.7 16.7 11.7L16.6 11.8V11.9C16.6 12 16.6 12 16.6 12C16.6 12.1 16.6 12.1 16.6 12.1L16.5 12.2L16.4 12.3V12.4V12.5V12.6L16.3 12.7C16.3 12.8 16.3 12.8 16.3 12.8C16.3 12.9 16.3 12.9 16.3 12.9V13V13.1V13.2V13.3C16.3 13.4 16.4 13.4 16.4 13.4V13.5C16.4 13.6 16.4 13.6 16.4 13.6C16.5 13.7 16.5 13.7 16.5 13.7V13.8C16.5 13.8 16.5 13.8 16.5 13.9L16.6 14V14.1C16.6 14.2 16.6 14.2 16.6 14.2V14.3C16.6 14.4 16.6 14.4 16.6 14.4V14.5V14.6V15V15.1V15.2C16.6 15.3 16.6 15.3 16.6 15.3V15.4C16.6 15.5 16.6 15.5 16.6 15.5C19.4 15.5 22.1 15.5 24.9 15.5V15.4V15.3V15.2V15C25.1 15 25.3 15 25.6 15V14.9H25.7C25.7 14.8 25.7 14.7 25.7 14.6C25.7 14.5 25.7 14.4 25.7 14.3C25.7 14.2 25.7 14 25.7 14C25.7 13.9 25.7 13.8 25.7 13.6C25.7 13.5 25.7 13.4 25.7 13.3C25.7 13.2 25.7 13.1 25.7 13C25.7 12.9 25.7 12.8 25.7 12.7C25.7 12.6 25.7 12.5 25.7 12.4C25.7 12.3 25.7 12.2 25.7 12.1C25.7 12 25.7 11.9 25.7 11.8C25.7 11.7 25.7 11.6 25.7 11.5V11.4C25.6 11.4 25.5 11.4 25.3 11.4V11.3H25.2H25.1V11.2H25V11.1H24.9V11H24.8H24.7C24.6 11 24.6 11 24.6 11V10.9C23.1 10.9 21.6 10.9 20.1 10.9V11V11.1V11.2V11.3C20 11.3 20 11.4 19.9 11.4C19.9 11.5 19.9 11.5 19.9 11.5V11.6V11.7V11.8V11.9C19.9 12 19.9 12 19.9 12C19.9 12.1 19.9 12.1 19.9 12.1C19.9 12.2 19.9 12.2 19.9 12.3V12.4V12.5V12.6V12.7C19.9 12.8 19.9 12.8 19.9 12.8C19.9 12.9 19.9 12.9 19.9 12.9V13V13.1V13.2V13.3H20L20.1 13.4V13.5H20.2V13.6H20.3H20.4V13.7H20.5L20.6 13.8H20.7C20.8 13.8 20.8 13.8 20.9 13.8V13.9C21 13.9 21 13.9 21.1 13.9C21.2 13.9 21.2 14 21.2 14C21.3 14 21.4 14 21.4 14C21.5 14 21.5 14 21.6 14V14.1C21.8 14.1 22 14.1 22.2 14.1V14.2V14.3V14.4V14.5V14.6V14.7V14.8V14.9C21.8 14.9 21.3 14.9 20.9 14.9C20.8 14.9 20.8 14.9 20.7 14.9C20.6 14.9 20.6 14.8 20.5 14.8H20.4C20.4 14.8 20.3 14.8 20.2 14.8H20.1C20 14.8 20 14.7 19.9 14.7H19.8C19.7 14.7 19.7 14.6 19.7 14.6H19.6V14.5H19.5H19.4V14.4V14.3H19.3L19.2 14.2L19.1 14.1H19L18.9 14C18.9 14 18.9 14 18.8 14V13.9C18.7 13.9 18.7 13.9 18.6 13.9V13.8V13.7V13.5V13.4V13.3V13.2V13.1V13V12.9C18.7 12.9 18.7 12.9 18.7 12.9V12.8C18.7 12.7 18.7 12.7 18.7 12.7C18.7 12.6 18.7 12.6 18.7 12.5C18.7 12.4 18.7 12.4 18.7 12.3C18.7 12.2 18.7 12.2 18.7 12.1C18.7 12 18.7 12 18.7 11.9C18.7 11.8 18.7 11.8 18.7 11.7C18.7 11.6 18.7 11.6 18.7 11.5C18.7 11.4 18.7 11.4 18.7 11.3C18.7 11.2 18.7 11.2 18.7 11.2C18.7 11.1 18.7 11 18.7 11C18.4 11 18.2 11 18 11V11.1C17.9 11.1 17.7 11.2 17.5 11.2C17.5 10.6 17.5 10.6 17.4 10.7C17.4 10.7 17.4 10.6 17.4 10.7ZM7.1 28.6C7.2 28.6 7.3 28.6 7.3 28.6C7.2 28.6 7.1 28.6 7.1 28.6Z" fill="white"/>
</svg>
