<svg width="100" height="31" viewBox="0 0 100 31" fill="none" xmlns="http://www.w3.org/2000/svg">
<path d="M70.158 29.823C71.739 28.3487 72.494 27.4491 72.994 26.4683C73.528 25.4187 73.875 24.0756 73.969 22.7199C74.269 18.2656 74.843 14.8671 75.617 12.9305C76.011 11.9497 76.358 11.4561 77.206 10.6565C78.154 9.76938 79.001 9.22587 80.577 8.50744C82.372 7.68281 83.694 7.23301 87.051 6.29592C88.787 5.81488 89.928 5.44629 93.425 4.24058C95.321 3.58462 98.725 2.36641 99.673 2.00407C99.82 1.94784 100 2.4851 100 2.97863C100 3.40345 99.973 3.5034 99.74 3.94071C99.299 4.77784 98.612 5.3276 96.863 6.25844C94.6 7.45791 93.052 8.07638 88.486 9.56947C86.003 10.3879 84.982 10.7564 83.213 11.4874C80.343 12.6744 79.402 13.1804 78.421 14.0612C77.747 14.6672 77.339 15.2232 76.932 16.1166L76.619 16.7913L76.539 16.4602C76.438 16.0916 76.425 15.3919 76.498 15.1732C76.545 15.0483 76.532 15.0296 76.425 15.0483C76.358 15.0608 76.225 15.217 76.118 15.4231C75.944 15.7355 75.918 15.8917 75.838 16.835C75.784 17.416 75.698 18.1719 75.637 18.5093C75.577 18.8529 75.504 19.6088 75.471 20.1898C75.304 22.9198 75.057 24.188 74.369 25.7748C73.915 26.8431 73.395 27.649 72.774 28.2737C71.9 29.1421 70.004 30.5102 69.016 30.985C68.903 31.0412 69.397 30.5415 70.158 29.823Z" fill="white"/>
<path d="M80.31 30.6727C79.696 30.6477 78.848 30.5415 78.468 30.4353C77.967 30.2978 77.76 30.1729 77.486 29.823C77.339 29.6481 77.179 29.4607 77.113 29.4107C77.012 29.3357 77.039 29.292 77.386 28.9922C77.713 28.711 77.813 28.661 78.04 28.6548C78.281 28.6548 78.334 28.686 78.674 29.0421C79.522 29.9292 79.869 30.2104 80.43 30.4665C80.73 30.6039 80.93 30.7101 80.877 30.7039C80.824 30.6976 80.57 30.6852 80.31 30.6727Z" fill="white"/>
<path d="M70.738 30.5977C70.585 30.5602 70.591 30.5415 70.938 30.3416C71.559 29.9667 72.607 29.1546 73.275 28.5299C74.496 27.3741 75.277 25.9935 75.731 24.1568C75.804 23.8632 75.991 22.7137 76.138 21.5954C76.292 20.4772 76.445 19.3589 76.485 19.1028L76.559 18.6405L76.745 19.1215C76.846 19.3901 77.206 20.0711 77.546 20.6333C78.468 22.1827 78.681 22.8449 78.681 24.1693C78.674 25.6999 78.254 26.7306 77.099 28.0051C76.565 28.5923 76.258 28.8547 75.671 29.2233C74.423 30.0042 72.827 30.5227 71.366 30.6164C71.112 30.6289 70.825 30.6227 70.738 30.5977Z" fill="white"/>
<path d="M81.711 30.2791C80.737 29.9542 80.21 29.6606 79.549 29.0608C78.881 28.4611 78.594 28.2799 78.314 28.2799C78.154 28.2799 78.16 28.2612 78.521 27.7989C78.721 27.5303 78.941 27.2179 79.001 27.0992L79.108 26.8931L79.502 26.9368C80.049 26.993 80.203 27.0805 80.904 27.7427C81.371 28.1862 81.625 28.3674 82.012 28.5486C82.733 28.8859 83.44 29.0421 84.288 29.0484C85.082 29.0608 85.069 29.0484 84.742 29.5044C84.375 30.0042 83.634 30.3165 82.646 30.3728C82.212 30.404 82.038 30.3853 81.711 30.2791Z" fill="white"/>
<path d="M83.514 27.9988C82.653 27.8239 82.058 27.5366 81.398 26.993C80.79 26.4933 80.39 26.3308 79.816 26.3558L79.362 26.3746L79.442 26.1871C79.515 26.031 79.596 25.7124 79.776 24.8627C79.809 24.7128 80.109 24.5941 80.437 24.5941C80.804 24.5941 81.344 24.9564 82.312 25.856C82.826 26.3308 83.387 26.8119 83.56 26.9306C84.321 27.4366 85.256 27.6802 86.297 27.6428L86.951 27.624L86.597 27.7677C86.41 27.8489 86.07 27.9551 85.85 27.9988C85.349 28.1113 84.054 28.1113 83.514 27.9988Z" fill="white"/>
<path d="M85.349 26.437C84.682 26.2996 84.048 25.9622 83.28 25.3375C81.792 24.1381 80.877 23.7695 80.13 24.0818L79.829 24.2068L79.789 23.4758C79.762 23.076 79.729 22.6762 79.702 22.5887C79.662 22.4326 79.682 22.4201 80.103 22.3139C81.057 22.0702 82.065 22.4013 84.181 23.657C85.316 24.3255 87.125 25.1876 87.946 25.45C88.299 25.5562 88.653 25.6124 89.16 25.6374C89.881 25.6749 89.881 25.6749 89.721 25.7936C89.454 25.9872 88.747 26.2746 88.253 26.3746C87.578 26.5183 85.903 26.5557 85.349 26.437Z" fill="white"/>
<path d="M88.913 24.5316C88.186 24.3942 87.044 23.9381 84.915 22.9323C83.3 22.1639 82.766 21.964 81.945 21.8203C80.997 21.6516 80.477 21.7079 79.903 22.0515L79.622 22.2139L79.415 21.6704C79.302 21.3705 79.088 20.9457 78.948 20.7208C78.801 20.4959 78.694 20.3085 78.701 20.296C78.714 20.2897 79.015 20.2085 79.375 20.1273C81.177 19.6962 82.539 20.0586 85.783 21.8453C87.885 23.001 89.154 23.4633 90.789 23.6633C91.376 23.732 92.845 23.7132 93.125 23.6258C93.405 23.5383 92.851 23.9194 92.391 24.1318C91.236 24.6503 90.182 24.769 88.913 24.5316Z" fill="white"/>
<path d="M90.789 22.4638C90.222 22.3888 89.14 22.1202 88.626 21.9265C88.386 21.839 87.385 21.3892 86.404 20.9394C83.567 19.615 82.799 19.3839 81.311 19.3776C80.263 19.3776 79.976 19.4401 79.048 19.8399L78.501 20.0773L78.274 19.765L78.047 19.4526L78.341 19.2027C78.968 18.6842 79.876 18.3968 81.264 18.2719C82.279 18.1782 82.733 18.2219 85.783 18.6904C91.143 19.5088 91.83 19.5963 93.125 19.5963C94.547 19.5963 95.581 19.4151 96.536 19.0028C96.81 18.8903 97.03 18.8029 97.03 18.8154C97.03 18.9278 96.569 19.9024 96.349 20.2522C95.495 21.6079 94.734 22.1639 93.345 22.4325C92.785 22.5387 91.476 22.5575 90.789 22.4638Z" fill="white"/>
<path d="M77.773 19.0965C77.72 19.0403 77.673 18.9653 77.673 18.9278C77.673 18.7904 78.835 17.8408 79.522 17.4035C81.144 16.3915 83.02 15.723 85.115 15.4106C86.397 15.2232 87.498 15.1545 91.837 15.0046C95.681 14.8671 96.723 14.7109 97.984 14.08C98.431 13.8613 98.431 13.8613 98.598 14.3736C98.712 14.7297 98.725 15.4356 98.625 15.8479C98.512 16.3102 98.104 17.0099 97.737 17.366C97.13 17.9595 95.922 18.4593 94.76 18.5905C93.445 18.7467 92.438 18.6842 89.02 18.2219C84.101 17.5597 82.639 17.4472 81.351 17.6222C79.903 17.8221 78.875 18.2281 78.247 18.8466C77.907 19.1777 77.873 19.1965 77.773 19.0965Z" fill="white"/>
<path d="M77.373 18.5093C77.259 18.3156 77.259 18.2719 77.339 18.1157C77.473 17.8658 79.335 16.1416 80.009 15.6356C81.464 14.5548 82.98 13.9425 85.863 13.2866C87.578 12.893 88.399 12.7493 90.642 12.437C94.533 11.9059 97.25 11.3125 98.498 10.7252C98.999 10.4878 99.052 10.5128 99.086 11.0563C99.119 11.5186 98.925 12.0559 98.618 12.387C98.278 12.7493 97.317 13.1242 96.162 13.3428C95.214 13.5302 94.62 13.5865 92.024 13.7239C86.824 14.005 85.095 14.2362 83.08 14.9046C80.964 15.6168 78.835 17.0162 77.78 18.3968C77.64 18.5718 77.52 18.7217 77.513 18.7217C77.5 18.7217 77.44 18.6217 77.373 18.5093Z" fill="white"/>
<path d="M76.952 17.6721C76.872 17.4722 76.806 17.2598 76.806 17.1973C76.806 17.1349 76.926 16.86 77.066 16.5914C77.893 15.0545 78.808 14.2174 80.55 13.4303C82.005 12.768 85.136 11.6873 88.373 10.7252C93.566 9.18838 95.154 8.59489 97.644 7.27048L98.291 6.92688L98.678 7.1018C99.346 7.40792 99.633 7.72653 99.633 8.15134C99.633 8.63238 99.339 9.06968 98.732 9.50699C98.004 10.0255 97.17 10.3066 94.714 10.8814C93.118 11.25 92.378 11.3937 89.821 11.8185C88.213 12.0809 87.331 12.2745 85.549 12.7556C82.112 13.6801 80.777 14.3736 78.741 16.2915C78.281 16.7226 77.74 17.2911 77.54 17.5534C77.339 17.8158 77.159 18.0282 77.139 18.0282C77.119 18.0345 77.039 17.872 76.952 17.6721Z" fill="white"/>
<path d="M45.9 16.4C45.5 16.6 45.2 16.8 45 17C44.8 17.2 44.8 17.6 44.8 18.1C44.8 18.8 44.8 19.3 44.8 19.8H46.4V20.6L46.7 20.7C46.9 20.8 47 20.8 47.1 20.9C47.3 21.1 47.5 21.3 47.8 21.3C48.3 21.5 48.9 21.3 49.6 20.9C50.3 20.4 50.5 19.8 50.2 18.9C50 18.2 49.5 17.7 48.9 17.4C48.7 17.3 48.5 17.1 48.3 16.7L48 16.2C47.8 16.2 47.6 16.2 47.4 16.2C46.8 16.2 46.3 16.3 45.9 16.4ZM34.9 19.6C35.3 19.2 35.6 18.7 35.6 18.3C35.6 17.8 35.5 17.4 35.2 16.9L34.9 16.3H29.3C28.6 17 28.1 17.5 27.7 17.8C27.5 18 27.4 18.2 27.5 18.5C27.5 18.7 27.5 18.9 27.6 19.4C27.6 20.3 27.9 21 28.4 21.4C29 21.9 29.6 22.1 30.2 22.1C30.4 22 31 21.8 32 21.4C32.8 21 33.5 20.7 33.9 20.5C34.2 20.1 34.6 19.8 34.9 19.6ZM55 8.1C55.1 8 54.9 7.9 54.7 7.6C51.5 7.6 49.5 7.6 48.5 7.6C47.9 7.6 46.8 7.5 45.3 7.4L43.1 7.3V8.6H54.7C54.7 8.5 54.7 8.5 54.7 8.4C54.9 8.3 54.9 8.2 55 8.1ZM56.4 7.5C56.3 7.5 56.2 7.5 56 7.5H55.8V8.3H56.1C56.3 8.4 56.4 8.5 56.4 8.7C56.4 8.9 56.3 9.1 56.2 9.2L56 9.4L56.2 11.4H56.7V7.9C56.7 7.7 56.7 7.6 56.7 7.6C56.6 7.6 56.5 7.5 56.4 7.5ZM67.3 14.5C67.2 14.7 67 14.8 66.7 14.8H61.1L60.9 14.6C60.8 14.6 60.8 14.7 60.7 14.7C60.5 14.8 60.5 14.8 60.5 14.9C60.5 15 60.7 15.1 61 15.5C61.3 15.9 61.5 16.3 61.4 16.5C61.3 16.8 61.2 17.7 61.1 19.1C61 20.5 60.9 21.3 60.9 21.5C60.9 21.7 60.8 21.8 60.7 21.8C60.6 21.9 60.5 21.9 60.3 21.9H57.9C57.8 21.9 57.7 21.8 57.6 21.6C57.5 21.4 57.4 21.1 57.4 20.7C57.4 20.2 57.4 19.8 57.4 19.4C57.3 18.9 57.3 18.6 57.2 18.5C57.1 18.4 56.7 18.3 56 18.3C55.3 18.2 54.8 18.3 54.7 18.4C54.5 18.6 54.4 18.7 54.3 18.8C54.1 19 54 19.2 54 19.3C54 19.4 53.9 20.1 53.8 21.5C53.5 23 52.9 24.1 52.1 25C51.2 25.9 49.9 26.5 48 26.9C46.6 27.2 45.4 27.2 44.5 27.1C44 27 43.6 26.9 43.5 26.8C43.4 26.8 43.4 26.7 43.5 26.4C44.2 24.1 44.5 22.9 44.4 22.7C44.5 22.6 44.5 22.4 44.4 22.4C44.3 22.3 44.1 22.2 44 22.2C43.8 22.2 43.4 22.2 42.7 22.2C42.3 22.2 41.9 22.2 41.5 22.2C41.4 22.2 41.3 22.3 41.3 22.4C41.2 22.6 41.1 22.7 41.1 22.8C41 22.9 40.7 23.2 40.1 23.6C39.4 24.2 38.7 24.7 37.9 25.1C35.6 26.5 33.6 27.3 32 27.3C30.5 27.3 28.8 27.2 27 27.1L24.8 26.9V25.6C21.5 24.2 19.6 23.5 19.1 23.5C18.8 23.5 18.5 23.5 18.2 23.5H17.8L17.5 23.8C17.3 24.2 17 24.3 16.8 24.3H1C0.8 24.3 0.5 24.1 0.4 23.8C0.3 23.5 0.2 23.2 0.2 22.8V16C0.2 14.6 0.2 13 0.1 11.3C2.23517e-08 9.9 0 9.2 0 9.2C0.1 8.7 0.2 8.4 0.4 8.4H21C21.1 8.4 21.5 8.3 22.1 8.2C22.7 8.1 23.1 8 23.4 8H38.1V6.3C38.1 6.2 38.3 5.7 38.7 4.8C39.1 3.8 39.4 3.3 39.4 3.1C39.4 2.9 39.6 2.8 39.9 2.6C40.1 2.5 40.2 2.5 40.4 2.4C40.4 2.2 40.4 1.9 40.5 1.7C40.6 1.2 40.6 0.9 40.7 0.8C41.1 0.3 41.4 0 41.6 0C41.9 0 42.1 0.0999998 42.2 0.4C42.3 0.6 42.3 0.8 42.4 1.1C42.5 1.3 42.5 1.7 42.4 2.3H42.3C42.2 2.4 42.2 2.4 42.2 2.6V3.6H53.8L55.3 2.7C55.3 2.7 55.5 2.6 55.5 2.5V1.8H55.3V0.8L55.4 0.6L55.8 0.3L56.7 0.2C56.8 0.2 56.8 0.3 56.9 0.4C56.9 0.5 56.9 0.6 56.9 0.8V2.6L57.1 3.2C57.3 3.6 57.4 3.8 57.5 3.8C57.6 3.8 58 3.8 58.6 3.8C60.2 5.6 61 6.5 61.1 6.6C61.3 6.8 61.4 7.1 61.4 7.4V11.8H67L67.2 12C67.4 12.2 67.5 12.6 67.5 13.1C67.5 13.8 67.4 14.3 67.3 14.5Z" fill="white"/>
</svg>
