<svg width="84" height="31" viewBox="0 0 84 31" fill="none" xmlns="http://www.w3.org/2000/svg">
<path d="M54.158 27.823C55.739 26.3487 56.494 25.4491 56.994 24.4683C57.528 23.4187 57.875 22.0756 57.969 20.7199C58.269 16.2656 58.843 12.8671 59.617 10.9305C60.011 9.9497 60.358 9.4561 61.206 8.6565C62.154 7.76938 63.001 7.22587 64.577 6.50744C66.372 5.68281 67.694 5.23301 71.051 4.29592C72.787 3.81488 73.928 3.44629 77.425 2.24058C79.321 1.58462 82.725 0.366406 83.673 0.00406609C83.82 -0.0521639 84 0.485096 84 0.978626C84 1.40345 83.973 1.5034 83.74 1.94071C83.299 2.77784 82.612 3.3276 80.863 4.25844C78.6 5.45791 77.052 6.07638 72.486 7.56947C70.003 8.3879 68.982 8.7564 67.213 9.4874C64.343 10.6744 63.402 11.1804 62.421 12.0612C61.747 12.6672 61.339 13.2232 60.932 14.1166L60.619 14.7913L60.539 14.4602C60.438 14.0916 60.425 13.3919 60.498 13.1732C60.545 13.0483 60.532 13.0296 60.425 13.0483C60.358 13.0608 60.225 13.217 60.118 13.4231C59.944 13.7355 59.918 13.8917 59.838 14.835C59.784 15.416 59.698 16.1719 59.637 16.5093C59.577 16.8529 59.504 17.6088 59.471 18.1898C59.304 20.9198 59.057 22.188 58.369 23.7748C57.915 24.8431 57.395 25.649 56.774 26.2737C55.9 27.1421 54.004 28.5102 53.016 28.985C52.903 29.0412 53.397 28.5415 54.158 27.823Z" fill="white"/>
<path d="M64.31 28.6727C63.696 28.6477 62.848 28.5415 62.468 28.4353C61.967 28.2978 61.76 28.1729 61.486 27.823C61.339 27.6481 61.179 27.4607 61.113 27.4107C61.012 27.3357 61.039 27.292 61.386 26.9922C61.713 26.711 61.813 26.661 62.04 26.6548C62.281 26.6548 62.334 26.686 62.674 27.0421C63.522 27.9292 63.869 28.2104 64.43 28.4665C64.73 28.6039 64.93 28.7101 64.877 28.7039C64.824 28.6976 64.57 28.6852 64.31 28.6727Z" fill="white"/>
<path d="M54.738 28.5977C54.585 28.5602 54.591 28.5415 54.938 28.3416C55.559 27.9667 56.607 27.1546 57.275 26.5299C58.496 25.3741 59.277 23.9935 59.731 22.1568C59.804 21.8632 59.991 20.7137 60.138 19.5954C60.292 18.4772 60.445 17.3589 60.485 17.1028L60.559 16.6405L60.745 17.1215C60.846 17.3901 61.206 18.0711 61.546 18.6333C62.468 20.1827 62.681 20.8449 62.681 22.1693C62.674 23.6999 62.254 24.7306 61.099 26.0051C60.565 26.5923 60.258 26.8547 59.671 27.2233C58.423 28.0042 56.827 28.5227 55.366 28.6164C55.112 28.6289 54.825 28.6227 54.738 28.5977Z" fill="white"/>
<path d="M65.711 28.2791C64.737 27.9542 64.21 27.6606 63.549 27.0608C62.881 26.4611 62.594 26.2799 62.314 26.2799C62.154 26.2799 62.16 26.2612 62.521 25.7989C62.721 25.5303 62.941 25.2179 63.001 25.0992L63.108 24.8931L63.502 24.9368C64.049 24.993 64.203 25.0805 64.904 25.7427C65.371 26.1862 65.625 26.3674 66.012 26.5486C66.733 26.8859 67.44 27.0421 68.288 27.0484C69.082 27.0608 69.069 27.0484 68.742 27.5044C68.375 28.0042 67.634 28.3165 66.646 28.3728C66.212 28.404 66.038 28.3853 65.711 28.2791Z" fill="white"/>
<path d="M67.514 25.9988C66.653 25.8239 66.058 25.5366 65.398 24.993C64.79 24.4933 64.39 24.3308 63.816 24.3558L63.362 24.3746L63.442 24.1871C63.515 24.031 63.596 23.7124 63.776 22.8627C63.809 22.7128 64.109 22.5941 64.437 22.5941C64.804 22.5941 65.344 22.9564 66.312 23.856C66.826 24.3308 67.387 24.8119 67.56 24.9306C68.321 25.4366 69.256 25.6802 70.297 25.6428L70.951 25.624L70.597 25.7677C70.41 25.8489 70.07 25.9551 69.85 25.9988C69.349 26.1113 68.054 26.1113 67.514 25.9988Z" fill="white"/>
<path d="M69.349 24.437C68.682 24.2996 68.048 23.9622 67.28 23.3375C65.792 22.1381 64.877 21.7695 64.13 22.0818L63.829 22.2068L63.789 21.4758C63.762 21.076 63.729 20.6762 63.702 20.5887C63.662 20.4326 63.682 20.4201 64.103 20.3139C65.057 20.0702 66.065 20.4013 68.181 21.657C69.316 22.3255 71.125 23.1876 71.946 23.45C72.299 23.5562 72.653 23.6124 73.16 23.6374C73.881 23.6749 73.881 23.6749 73.721 23.7936C73.454 23.9872 72.747 24.2746 72.253 24.3746C71.578 24.5183 69.903 24.5557 69.349 24.437Z" fill="white"/>
<path d="M72.913 22.5316C72.186 22.3942 71.044 21.9381 68.915 20.9323C67.3 20.1639 66.766 19.964 65.945 19.8203C64.997 19.6516 64.477 19.7079 63.903 20.0515L63.622 20.2139L63.415 19.6704C63.302 19.3705 63.088 18.9457 62.948 18.7208C62.801 18.4959 62.694 18.3085 62.701 18.296C62.714 18.2897 63.015 18.2085 63.375 18.1273C65.177 17.6962 66.539 18.0586 69.783 19.8453C71.885 21.001 73.154 21.4633 74.789 21.6633C75.376 21.732 76.845 21.7132 77.125 21.6258C77.405 21.5383 76.851 21.9194 76.391 22.1318C75.236 22.6503 74.182 22.769 72.913 22.5316Z" fill="white"/>
<path d="M74.789 20.4638C74.222 20.3888 73.14 20.1202 72.626 19.9265C72.386 19.839 71.385 19.3892 70.404 18.9394C67.567 17.615 66.799 17.3839 65.311 17.3776C64.263 17.3776 63.976 17.4401 63.048 17.8399L62.501 18.0773L62.274 17.765L62.047 17.4526L62.341 17.2027C62.968 16.6842 63.876 16.3968 65.264 16.2719C66.279 16.1782 66.733 16.2219 69.783 16.6904C75.143 17.5088 75.83 17.5963 77.125 17.5963C78.547 17.5963 79.581 17.4151 80.536 17.0028C80.81 16.8903 81.03 16.8029 81.03 16.8154C81.03 16.9278 80.569 17.9024 80.349 18.2522C79.495 19.6079 78.734 20.1639 77.345 20.4325C76.785 20.5387 75.476 20.5575 74.789 20.4638Z" fill="white"/>
<path d="M61.773 17.0965C61.72 17.0403 61.673 16.9653 61.673 16.9278C61.673 16.7904 62.835 15.8408 63.522 15.4035C65.144 14.3915 67.02 13.723 69.115 13.4106C70.397 13.2232 71.498 13.1545 75.837 13.0046C79.681 12.8671 80.723 12.7109 81.984 12.08C82.431 11.8613 82.431 11.8613 82.598 12.3736C82.712 12.7297 82.725 13.4356 82.625 13.8479C82.512 14.3102 82.104 15.0099 81.737 15.366C81.13 15.9595 79.922 16.4593 78.76 16.5905C77.445 16.7467 76.438 16.6842 73.02 16.2219C68.101 15.5597 66.639 15.4472 65.351 15.6222C63.903 15.8221 62.875 16.2281 62.247 16.8466C61.907 17.1777 61.873 17.1965 61.773 17.0965Z" fill="white"/>
<path d="M61.373 16.5093C61.259 16.3156 61.259 16.2719 61.339 16.1157C61.473 15.8658 63.335 14.1416 64.009 13.6356C65.464 12.5548 66.98 11.9425 69.863 11.2866C71.578 10.893 72.399 10.7493 74.642 10.437C78.533 9.90589 81.25 9.31249 82.498 8.72519C82.999 8.48779 83.052 8.51279 83.086 9.05629C83.119 9.51859 82.925 10.0559 82.618 10.387C82.278 10.7493 81.317 11.1242 80.162 11.3428C79.214 11.5302 78.62 11.5865 76.024 11.7239C70.824 12.005 69.095 12.2362 67.08 12.9046C64.964 13.6168 62.835 15.0162 61.78 16.3968C61.64 16.5718 61.52 16.7217 61.513 16.7217C61.5 16.7217 61.44 16.6217 61.373 16.5093Z" fill="white"/>
<path d="M60.952 15.6721C60.872 15.4722 60.806 15.2598 60.806 15.1973C60.806 15.1349 60.926 14.86 61.066 14.5914C61.893 13.0545 62.808 12.2174 64.55 11.4303C66.005 10.768 69.136 9.6873 72.373 8.7252C77.566 7.18838 79.154 6.59489 81.644 5.27048L82.291 4.92688L82.678 5.1018C83.346 5.40792 83.633 5.72653 83.633 6.15134C83.633 6.63238 83.339 7.06968 82.732 7.50699C82.004 8.0255 81.17 8.3066 78.714 8.8814C77.118 9.25 76.378 9.3937 73.821 9.8185C72.213 10.0809 71.331 10.2745 69.549 10.7556C66.112 11.6801 64.777 12.3736 62.741 14.2915C62.281 14.7226 61.74 15.2911 61.54 15.5534C61.339 15.8158 61.159 16.0282 61.139 16.0282C61.119 16.0345 61.039 15.872 60.952 15.6721Z" fill="white"/>
<path d="M52.3392 6.9L51.8392 8.2V10.6H49.3392V10.3H48.7392V10.7H44.8392V10.3H40.9392L40.2392 10.6H34.3392C34.1392 10.6 33.9392 10.6 33.7392 10.7C33.2392 10.8 32.9392 10.9 32.7392 11.1C32.3392 11.4 32.1392 11.6 32.1392 11.6C31.9392 11.9 31.8392 12.2 31.7392 12.5C31.7392 12.8 31.7392 13.3 31.7392 14C31.7392 14.3 31.7392 14.7 31.7392 15C31.3392 15 30.8392 15 30.4392 15C30.0392 15 29.6392 15 29.3392 15C29.0392 15 28.7392 15 28.5392 15.1C28.1392 15.2 27.8392 15.3 27.6392 15.5C27.5392 15.6 27.4392 15.8 27.2392 16C27.1392 16.1 27.1392 16.1 27.1392 16.2C27.0392 16.4 26.9392 16.8 26.8392 17.2C26.7392 17.7 26.7392 18 26.6392 18.1C26.4392 18.5 26.2392 18.9 26.0392 19.1C25.5392 19.6 24.9392 20 24.2392 20.2C24.1392 20.2 24.1392 20.3 24.0392 20.3C23.2392 20.5 22.5392 20.7 21.8392 20.8C21.1392 20.9 20.5392 20.9 20.0392 20.8C19.9392 20.8 19.7392 20.8 19.6392 20.7C19.3392 20.6 19.0392 20.4 18.7392 20.2C18.6392 20.1 18.5392 20 18.3392 19.8L18.0392 19.7L17.7392 20C17.5392 20 17.4392 19.9 17.2392 19.9C17.0392 19.9 16.8392 19.8 16.6392 19.8C16.4392 19.8 16.3392 19.8 16.1392 19.8C15.7392 19.7 15.4392 19.7 15.1392 19.7C14.5392 19.6 14.1392 19.7 13.9392 19.7C13.5392 19.9 13.2392 20.1 12.9392 20.3C12.6392 20.6 12.5392 20.9 12.4392 21.2C12.4392 21.7 12.5392 22.1 12.8392 22.4C12.9392 22.5 12.9392 22.7 13.1392 22.8C13.2392 22.9 13.2392 23 13.1392 23.1C13.1392 23.2 13.0392 23.3 12.9392 23.4C12.8392 23.5 12.7392 23.6 12.5392 23.7C12.2392 24 12.0392 24.3 12.0392 24.7C11.9392 25.2 12.0392 25.6 12.3392 26L12.5392 26.4C12.6392 26.5 12.6392 26.6 12.5392 26.8C12.5392 26.9 12.4392 27 12.3392 27.1C12.2392 27.2 12.1392 27.2 11.8392 27.3C11.4392 27.5 11.1392 27.7 10.9392 27.9C10.8392 28.1 10.6392 28.4 10.5392 28.7C10.4392 29 10.3392 29.2 10.1392 29.4C9.83923 29.6 9.13923 29.8 8.03923 30C6.83923 30.2 5.83923 30.3 5.03923 30.2C3.83923 30.1 2.83923 30 2.03923 29.8C0.839231 29.5 0.23923 29.1 0.0392305 28.5C-0.0607695 28.3 0.0392305 28 0.23923 27.6C0.33923 27.5 0.339231 27.5 0.339231 27.4C0.839231 27.2 1.03923 27 1.13923 26.8C1.33923 26.5 1.43923 26.2 1.53923 25.9C1.63923 25.6 1.83923 25.2 2.03923 24.6C2.33923 23.9 2.53923 23.3 2.63923 22.9C3.13923 21.4 3.63923 20.3 4.03923 19.5C4.43923 18.7 5.13923 17.6 6.13923 16.1C7.13923 14.6 7.83923 13.6 8.13923 13.1C8.33923 12.8 8.53923 12.4 8.63923 12.1C8.63923 11.9 8.63923 11.6 8.63923 11.2C8.63923 10.8 8.63923 10.5 8.63923 10.4C8.63923 10.1 8.73923 9.9 8.83923 9.6C8.83923 9.4 9.33923 9.2 10.1392 9C10.4392 8.9 10.7392 8.9 11.0392 8.9H11.3392C11.4392 8.8 11.6392 8.7 11.7392 8.5C12.0392 8.3 12.3392 8.1 12.6392 8C12.8392 7.9 13.1392 7.8 13.5392 7.7L14.0392 7.6L13.6392 7C13.4392 6.6 13.1392 6.3 12.8392 6.1C12.5392 5.9 12.1392 5.8 11.7392 5.8C11.6392 5.8 11.6392 5.8 11.5392 5.8C11.2392 5.8 10.9392 5.8 10.7392 5.8V5.6C11.0392 5.6 11.3392 5.6 11.6392 5.6C12.3392 5.5 12.7392 5.5 13.0392 5.6C13.2392 5.7 13.5392 5.8 13.9392 6.1H14.0392C14.3392 6.3 14.5392 6.4 14.6392 6.4C14.8392 6.4 15.0392 6.2 15.3392 5.7C15.5392 5.5 15.6392 5.3 15.8392 5.1H16.8392L17.2392 4.1L17.0392 4C16.9392 4 16.9392 3.9 16.9392 3.9C16.7392 3.7 16.7392 3.5 16.8392 3.3C16.9392 3.1 17.0392 3 17.1392 3H17.2392C17.3392 3 17.4392 3 17.4392 3L17.5392 2.5H18.0392V2.9H19.6392L20.0392 3.2H22.4392V2.6L23.1392 2H24.0392V2.5H24.8392V2.1H25.8392V2.6H26.6392V2H27.6392V2.5H28.5392V2H29.3392V2.5H30.3392V2.1H31.0392V2.6H31.9392V2H32.8392V2.5H33.7392V2H34.6392V2.5H35.5392V2H36.3392V2.5H37.2392V2.1H38.0392V2.5H38.9392V2.1H39.5392L40.0392 2.2C40.3392 2.3 40.6392 2.4 40.9392 2.5C41.3392 2.7 41.8392 2.9 42.5392 3.3H47.8392V2.5H50.4392H50.6392C50.7392 2.5 50.9392 2.6 51.0392 2.7C51.0392 2.9 51.0392 3 51.0392 3.2V3.4L52.3392 4.4V6.9ZM22.5392 14.6L22.8392 14.8C22.7392 15.1 22.6392 15.3 22.4392 15.5C22.3392 15.6 22.2392 15.8 22.1392 16H22.0392C21.8392 16.2 21.6392 16.5 21.5392 16.6C21.4392 16.9 21.4392 17.2 21.5392 17.5C21.6392 17.8 21.7392 18 22.0392 18.3C22.2392 18.5 22.6392 18.8 23.0392 19C23.2392 19.1 23.3392 19.2 23.5392 19.3L23.4392 19.6C23.2392 19.5 22.9392 19.5 22.6392 19.3C22.1392 19.1 21.6392 18.8 21.2392 18.4C21.0392 18.1 20.8392 17.8 20.6392 17.3L20.4392 16.6L20.6392 16.4V15.9C20.5392 15.9 20.3392 15.9 20.2392 15.9C19.8392 15.9 19.6392 15.8 19.4392 15.8C19.2392 15.7 19.1392 15.6 18.9392 15.4L18.7392 15.2L18.5392 15.3C18.4392 15.4 18.3392 15.6 18.2392 15.8C17.9392 16.3 17.7392 16.7 17.7392 17.1C17.7392 17.2 17.7392 17.2 17.7392 17.3C17.7392 17.7 17.8392 18.1 17.9392 18.5C18.0392 19 18.2392 19.3 18.4392 19.5C18.6392 19.7 18.9392 19.9 19.2392 20C19.6392 20.2 20.0392 20.2 20.6392 20.3C21.1392 20.3 21.8392 20.3 22.5392 20.2C22.9392 20.1 23.2392 20 23.5392 20C23.6392 19.9 23.8392 19.9 23.9392 19.9C24.0392 19.8 24.2392 19.8 24.4392 19.7C24.6392 19.6 24.8392 19.5 25.0392 19.3C25.5392 18.9 25.8392 18.6 25.9392 18.4C26.1392 18.1 26.1392 17.8 26.2392 17.5C26.3392 17.2 26.3392 16.8 26.2392 16.4C26.2392 16 26.0392 15.7 25.6392 15.4C25.4392 15.2 25.0392 15 24.6392 14.7C24.3392 14.5 23.8392 14.5 23.2392 14.5H22.4392L22.5392 14.6Z" fill="white"/>
</svg>
