<svg width="115" height="29" viewBox="0 0 115 29" fill="none" xmlns="http://www.w3.org/2000/svg">
<path d="M85.158 27.823C86.739 26.3487 87.494 25.4491 87.994 24.4683C88.528 23.4187 88.875 22.0756 88.969 20.7199C89.269 16.2656 89.843 12.8671 90.617 10.9305C91.011 9.9497 91.358 9.4561 92.206 8.6565C93.154 7.76938 94.001 7.22587 95.577 6.50744C97.372 5.68281 98.694 5.23301 102.051 4.29592C103.787 3.81488 104.928 3.44629 108.425 2.24058C110.321 1.58462 113.725 0.366406 114.673 0.00406609C114.82 -0.0521639 115 0.485096 115 0.978626C115 1.40345 114.973 1.5034 114.74 1.94071C114.299 2.77784 113.612 3.3276 111.863 4.25844C109.6 5.45791 108.052 6.07638 103.486 7.56947C101.003 8.3879 99.982 8.7564 98.213 9.4874C95.343 10.6744 94.402 11.1804 93.421 12.0612C92.747 12.6672 92.339 13.2232 91.932 14.1166L91.619 14.7913L91.539 14.4602C91.438 14.0916 91.425 13.3919 91.498 13.1732C91.545 13.0483 91.532 13.0296 91.425 13.0483C91.358 13.0608 91.225 13.217 91.118 13.4231C90.944 13.7355 90.918 13.8917 90.838 14.835C90.784 15.416 90.698 16.1719 90.637 16.5093C90.577 16.8529 90.504 17.6088 90.471 18.1898C90.304 20.9198 90.057 22.188 89.369 23.7748C88.915 24.8431 88.395 25.649 87.774 26.2737C86.9 27.1421 85.004 28.5102 84.016 28.985C83.903 29.0412 84.397 28.5415 85.158 27.823Z" fill="white"/>
<path d="M95.31 28.6727C94.696 28.6477 93.848 28.5415 93.468 28.4353C92.967 28.2978 92.76 28.1729 92.486 27.823C92.339 27.6481 92.179 27.4607 92.113 27.4107C92.012 27.3357 92.039 27.292 92.386 26.9922C92.713 26.711 92.813 26.661 93.04 26.6548C93.281 26.6548 93.334 26.686 93.674 27.0421C94.522 27.9292 94.869 28.2104 95.43 28.4665C95.73 28.6039 95.93 28.7101 95.877 28.7039C95.824 28.6976 95.57 28.6852 95.31 28.6727Z" fill="white"/>
<path d="M85.738 28.5977C85.585 28.5602 85.591 28.5415 85.938 28.3416C86.559 27.9667 87.607 27.1546 88.275 26.5299C89.496 25.3741 90.277 23.9935 90.731 22.1568C90.804 21.8632 90.991 20.7137 91.138 19.5954C91.292 18.4772 91.445 17.3589 91.485 17.1028L91.559 16.6405L91.745 17.1215C91.846 17.3901 92.206 18.0711 92.546 18.6333C93.468 20.1827 93.681 20.8449 93.681 22.1693C93.674 23.6999 93.254 24.7306 92.099 26.0051C91.565 26.5923 91.258 26.8547 90.671 27.2233C89.423 28.0042 87.827 28.5227 86.366 28.6164C86.112 28.6289 85.825 28.6227 85.738 28.5977Z" fill="white"/>
<path d="M96.711 28.2791C95.737 27.9542 95.21 27.6606 94.549 27.0608C93.881 26.4611 93.594 26.2799 93.314 26.2799C93.154 26.2799 93.16 26.2612 93.521 25.7989C93.721 25.5303 93.941 25.2179 94.001 25.0992L94.108 24.8931L94.502 24.9368C95.049 24.993 95.203 25.0805 95.904 25.7427C96.371 26.1862 96.625 26.3674 97.012 26.5486C97.733 26.8859 98.44 27.0421 99.288 27.0484C100.082 27.0608 100.069 27.0484 99.742 27.5044C99.375 28.0042 98.634 28.3165 97.646 28.3728C97.212 28.404 97.038 28.3853 96.711 28.2791Z" fill="white"/>
<path d="M98.514 25.9988C97.653 25.8239 97.058 25.5366 96.398 24.993C95.79 24.4933 95.39 24.3308 94.816 24.3558L94.362 24.3746L94.442 24.1871C94.515 24.031 94.596 23.7124 94.776 22.8627C94.809 22.7128 95.109 22.5941 95.437 22.5941C95.804 22.5941 96.344 22.9564 97.312 23.856C97.826 24.3308 98.387 24.8119 98.56 24.9306C99.321 25.4366 100.256 25.6802 101.297 25.6428L101.951 25.624L101.597 25.7677C101.41 25.8489 101.07 25.9551 100.85 25.9988C100.349 26.1113 99.054 26.1113 98.514 25.9988Z" fill="white"/>
<path d="M100.349 24.437C99.682 24.2996 99.048 23.9622 98.28 23.3375C96.792 22.1381 95.877 21.7695 95.13 22.0818L94.829 22.2068L94.789 21.4758C94.762 21.076 94.729 20.6762 94.702 20.5887C94.662 20.4326 94.682 20.4201 95.103 20.3139C96.057 20.0702 97.065 20.4013 99.181 21.657C100.316 22.3255 102.125 23.1876 102.946 23.45C103.299 23.5562 103.653 23.6124 104.16 23.6374C104.881 23.6749 104.881 23.6749 104.721 23.7936C104.454 23.9872 103.747 24.2746 103.253 24.3746C102.578 24.5183 100.903 24.5557 100.349 24.437Z" fill="white"/>
<path d="M103.913 22.5316C103.186 22.3942 102.044 21.9381 99.915 20.9323C98.3 20.1639 97.766 19.964 96.945 19.8203C95.997 19.6516 95.477 19.7079 94.903 20.0515L94.622 20.2139L94.415 19.6704C94.302 19.3705 94.088 18.9457 93.948 18.7208C93.801 18.4959 93.694 18.3085 93.701 18.296C93.714 18.2897 94.015 18.2085 94.375 18.1273C96.177 17.6962 97.539 18.0586 100.783 19.8453C102.885 21.001 104.154 21.4633 105.789 21.6633C106.376 21.732 107.845 21.7132 108.125 21.6258C108.405 21.5383 107.851 21.9194 107.391 22.1318C106.236 22.6503 105.182 22.769 103.913 22.5316Z" fill="white"/>
<path d="M105.789 20.4638C105.222 20.3888 104.14 20.1202 103.626 19.9265C103.386 19.839 102.385 19.3892 101.404 18.9394C98.567 17.615 97.799 17.3839 96.311 17.3776C95.263 17.3776 94.976 17.4401 94.048 17.8399L93.501 18.0773L93.274 17.765L93.047 17.4526L93.341 17.2027C93.968 16.6842 94.876 16.3968 96.264 16.2719C97.279 16.1782 97.733 16.2219 100.783 16.6904C106.143 17.5088 106.83 17.5963 108.125 17.5963C109.547 17.5963 110.581 17.4151 111.536 17.0028C111.81 16.8903 112.03 16.8029 112.03 16.8154C112.03 16.9278 111.569 17.9024 111.349 18.2522C110.495 19.6079 109.734 20.1639 108.345 20.4325C107.785 20.5387 106.476 20.5575 105.789 20.4638Z" fill="white"/>
<path d="M92.773 17.0965C92.72 17.0403 92.673 16.9653 92.673 16.9278C92.673 16.7904 93.835 15.8408 94.522 15.4035C96.144 14.3915 98.02 13.723 100.115 13.4106C101.397 13.2232 102.498 13.1545 106.837 13.0046C110.681 12.8671 111.723 12.7109 112.984 12.08C113.431 11.8613 113.431 11.8613 113.598 12.3736C113.712 12.7297 113.725 13.4356 113.625 13.8479C113.512 14.3102 113.104 15.0099 112.737 15.366C112.13 15.9595 110.922 16.4593 109.76 16.5905C108.445 16.7467 107.438 16.6842 104.02 16.2219C99.101 15.5597 97.639 15.4472 96.351 15.6222C94.903 15.8221 93.875 16.2281 93.247 16.8466C92.907 17.1777 92.873 17.1965 92.773 17.0965Z" fill="white"/>
<path d="M92.373 16.5093C92.259 16.3156 92.259 16.2719 92.339 16.1157C92.473 15.8658 94.335 14.1416 95.009 13.6356C96.464 12.5548 97.98 11.9425 100.863 11.2866C102.578 10.893 103.399 10.7493 105.642 10.437C109.533 9.90589 112.25 9.31249 113.498 8.72519C113.999 8.48779 114.052 8.51279 114.086 9.05629C114.119 9.51859 113.925 10.0559 113.618 10.387C113.278 10.7493 112.317 11.1242 111.162 11.3428C110.214 11.5302 109.62 11.5865 107.024 11.7239C101.824 12.005 100.095 12.2362 98.08 12.9046C95.964 13.6168 93.835 15.0162 92.78 16.3968C92.64 16.5718 92.52 16.7217 92.513 16.7217C92.5 16.7217 92.44 16.6217 92.373 16.5093Z" fill="white"/>
<path d="M91.952 15.6721C91.872 15.4722 91.806 15.2598 91.806 15.1973C91.806 15.1349 91.926 14.86 92.066 14.5914C92.893 13.0545 93.808 12.2174 95.55 11.4303C97.005 10.768 100.136 9.6873 103.373 8.7252C108.566 7.18838 110.154 6.59489 112.644 5.27048L113.291 4.92688L113.678 5.1018C114.346 5.40792 114.633 5.72653 114.633 6.15134C114.633 6.63238 114.339 7.06968 113.732 7.50699C113.004 8.0255 112.17 8.3066 109.714 8.8814C108.118 9.25 107.378 9.3937 104.821 9.8185C103.213 10.0809 102.331 10.2745 100.549 10.7556C97.112 11.6801 95.777 12.3736 93.741 14.2915C93.281 14.7226 92.74 15.2911 92.54 15.5534C92.339 15.8158 92.159 16.0282 92.139 16.0282C92.119 16.0345 92.039 15.872 91.952 15.6721Z" fill="white"/>
<path d="M19.6 2.6C24.2 2.6 28.7 2.6 33.3 2.6C33.4 2.6 33.5 2.6 33.5 2.7C33.6 2.7 33.6 2.8 33.6 2.8L33.7 2.9C33.7 2.9 33.7 3 33.8 3C33.8 3 33.8 3 33.8 3.1V3.2H33.9V3.2C34 3.2 34.1 3.2 34.2 3.2C34.2 3.2 34.3 3.3 34.4 3.3C34.4 3.3 34.5 3.3 34.5 3.4C50.7 3.4 66.9 3.4 83.1 3.4C83.2 3.4 83.3 3.5 83.3 3.5C83.3 3.5 83.4 3.5 83.4 3.6C83.4 3.6 83.4 3.7 83.5 3.7V3.8V3.9C83.5 3.9 83.5 3.9 83.5 4C83.5 4.1 83.5 4.1 83.5 4.1V4.2V4.3C83.5 4.3 83.5 4.3 83.5 4.4C83.5 4.5 83.5 4.5 83.5 4.5V4.6V4.7C83.5 4.7 83.5 4.7 83.5 4.8C83.5 4.9 83.5 4.9 83.5 4.9V5V5.1V5.2C83.5 5.2 83.5 5.2 83.5 5.3V5.4V5.5V5.6C83.5 5.6 83.5 5.6 83.5 5.7V5.8V5.9V6H83.4L83.3 6.1C83.3 6.2 83.3 6.2 83.2 6.2C83.1 6.2 83.1 6.3 83.1 6.3V6.4C83 6.4 82.9 6.3 82.9 6.3C82.3 6.3 81.8 6.3 81.2 6.3V6.4C81.2 6.4 81.2 6.4 81.2 6.5C81.2 6.5 81.2 6.5 81.2 6.6V6.7C81.2 6.7 81.2 6.7 81.2 6.8V6.9C81.2 6.9 81.2 6.9 81.2 7C81.4 7 81.5 7 81.7 7V6.9C82.2 6.9 82.7 6.9 83.3 6.9C83.3 6.9 83.3 6.9 83.3 7C83.3 7 83.3 7.1 83.3 7.2C83.3 7.2 83.3 7.3 83.3 7.4V7.5V7.6C83.3 7.6 83.3 7.7 83.3 7.8V7.9C83.3 8 83.3 8 83.3 8.1V8.2V8.3C83.3 8.4 83.3 8.4 83.3 8.5C83.3 8.5 83.3 8.6 83.3 8.7C83.3 8.7 83.3 8.7 83.3 8.8V8.9C83.3 8.9 83.3 8.9 83.3 9V9.1V9.2V9.3V9.4V9.5C83.3 9.5 83.3 9.5 83.3 9.6V9.7C83.3 9.7 83.3 9.7 83.3 9.8V9.9C83.3 9.9 83.3 9.9 83.3 10V10.2C83.3 10.2 83.3 10.2 83.3 10.3V10.5C83.3 10.5 83.3 10.5 83.3 10.6V10.7C82.8 10.7 82.3 10.7 81.8 10.7C81.7 10.7 81.5 10.7 81.4 10.7H81.3C81.3 10.7 81.3 10.8 81.2 10.8C81.2 10.8 81.2 10.8 81.2 10.9C81.2 10.9 81.2 10.9 81.2 11V11.1C81.2 11.1 81.2 11.1 81.2 11.2C81.2 11.2 81.2 11.2 81.1 11.3C81.1 11.3 81.1 11.4 81 11.4C81 11.4 81 11.4 81 11.5C80.9 11.5 80.9 11.6 80.9 11.6C80.9 11.6 80.9 11.6 80.8 11.7C80.8 11.7 80.8 11.7 80.8 11.8L80.7 11.9C80.7 11.9 80.7 11.9 80.7 12V12.1H80.6V12.2C80.6 12.2 80.5 12.2 80.4 12.2L80.3 12.3V12.4C80.1 12.4 80 12.4 79.8 12.4V12.5V12.1C72.8 12.1 65.8 12.1 58.9 12.1V12.2C58.9 12.2 58.9 12.2 58.9 12.3V12.4C58.4 12.4 57.8 12.4 57.3 12.4C57.3 12.4 57.3 12.4 57.3 12.3V12.2C57.3 12.2 57.3 12.2 57.3 12.1C57.3 12 57.3 12.1 57.3 12C57.2 12 57.2 11.9 57.1 11.9C57 11.9 56.9 11.9 56.8 11.8V11.7C56.7 11.7 56.6 11.7 56.6 11.6C56.5 11.6 56.5 11.6 56.4 11.5V11.4C56.3 11.4 56.2 11.4 56.1 11.4C56 11.4 55.9 11.3 55.8 11.3C55.8 11.3 55.8 11.3 55.8 11.2C52.3 11.2 48.9 11.2 45.4 11.2C45.3 11.2 45.2 11.1 45.1 11.1C45.1 11.1 45 11.1 45 11C45 11 44.9 11 44.8 10.9L44.7 10.8C44.7 10.8 44.6 10.8 44.6 10.7C44.6 10.6 44.6 10.6 44.6 10.6V10.5V10.4C43.8 10.4 43 10.4 42.2 10.4C42.2 10.4 42.2 10.4 42.2 10.5V10.6C42.2 10.6 42.2 10.6 42.2 10.7V10.8C42.2 10.8 42.2 10.8 42.2 10.9V11.1C42 11.1 41.7 11.1 41.5 11.1V11.2C41.5 11.2 41.5 11.2 41.5 11.3C41.5 11.4 41.5 11.3 41.5 11.4V11.5C41.5 11.5 41.5 11.5 41.5 11.6C41 11.6 40.5 11.6 39.9 11.6C39.9 11.6 39.9 11.6 39.8 11.5V11.4C39.8 11.4 39.8 11.4 39.8 11.3V11.2C37.2 11.2 34.6 11.2 32 11.2C32 11.2 31.9 11.2 31.9 11.3H31.8H31.7C31.6 11.3 31.6 11.3 31.6 11.4C31.6 11.4 31.5 11.5 31.4 11.5H31.3C31.2 11.5 31.2 11.5 31.2 11.5C31.2 11.5 31.1 11.5 31.1 11.6C31.1 11.6 31.1 11.7 31 11.7C31 11.7 30.9 11.7 30.9 11.8C30.9 11.8 30.9 11.8 30.8 11.8H30.7L30.6 11.9V12H30.5V12.1V12.1H30.4H30.3V12.3C30.1 12.3 30 12.3 29.8 12.3C29.7 12.3 29.6 12.3 29.5 12.3H29.4H29.3C29.2 12.3 29.1 12.3 29 12.4C28.9 12.4 28.8 12.4 28.7 12.4H28.6H28.5H28.4C28.4 12.4 28.4 12.4 28.3 12.4C28.2 12.4 28.2 12.4 28.2 12.4C28.2 12.4 28.2 12.4 28.2 12.5H28.1H28C27.9 12.5 27.9 12.5 27.9 12.5C27.9 12.5 27.8 12.5 27.7 12.5C27.7 12.5 27.7 12.5 27.6 12.5H27.5C27.5 12.5 27.5 12.5 27.5 12.6C27.5 12.6 27.5 12.6 27.4 12.6H27.3H27.2C27.2 12.6 27.2 12.6 27.1 12.6C27.1 12.6 27 12.6 27 12.7C27 12.7 27 12.7 26.9 12.7H26.8C26.8 12.7 26.8 12.7 26.7 12.7H26.6C26.6 12.7 26.6 12.7 26.5 12.8H26.4H26C26 12.8 26 12.8 25.9 12.9H25.8H25.7C25.7 12.9 25.7 12.9 25.7 13C25.6 13 25.6 13 25.6 13L25.5 13.1H25.4C25.4 13.1 25.4 13.1 25.4 13.2H25.3C25.3 13.2 25.3 13.2 25.2 13.2C25.2 13.2 25.2 13.3 25.1 13.3C25.1 13.3 25.1 13.3 25 13.3H24.9H24.8V13.4H24.7L24 14.5C24 14.5 24 14.5 24 14.6H23.9C23.9 14.6 23.8 14.6 23.8 14.7H23.7C23.7 14.7 23.7 14.7 23.7 14.8H23.6L23 15.1C23 15.1 23 15.1 22.9 15.2L22.8 15.3C22.8 15.3 22.8 15.3 22.8 15.4L22.7 15.5C22.7 15.5 22.7 15.5 22.7 15.6H22.6C22.6 15.6 22.6 15.6 22.5 15.6H22.4C22.4 15.6 22.4 15.6 22.3 15.6H22.2C22.2 15.6 22.2 15.6 22.1 15.7H22C22 15.7 22 15.7 21.9 15.7C21.8 15.7 21.8 15.7 21.8 15.7C21.8 15.7 21.8 15.7 21.8 15.8H21.7C21.7 15.8 21.7 15.8 21.6 15.8C21.6 15.8 21.6 15.8 21.5 15.8H21.4H21.3H21.2C21.1 15.8 21 15.8 20.9 15.8C20.8 15.8 20.8 15.8 20.8 15.9C20.7 15.9 20.7 15.9 20.6 15.9C20.5 15.9 20.4 15.9 20.3 15.9C19.9 15.9 19.6 15.9 19.2 15.9C19.1 15.9 19.1 15.9 19 15.9H18.9V15.8C18.9 15.8 18.8 15.8 18.7 15.8C18.6 15.8 18.6 15.8 18.5 15.8C18.5 15.8 18.5 15.8 18.4 15.8C18.3 15.8 18.3 15.8 18.3 15.8H18.2H18.1V15.7H18H17.9H17.8C17.8 15.7 17.8 15.7 17.7 15.7H17.6V15.6C17.6 15.6 17.6 15.6 17.5 15.6H17.4C17.4 15.6 17.4 15.6 17.3 15.6H17.2L17.1 15.5H17V15.4H16.9L15.9 15.1L15.8 15V14.9L15.7 14.8L15.6 14.7H15.5V14.6V14.5H15.4L15.2 14.1V14L15 13.8L14.9 13.7H14.8V13.6V13.5L14.7 13.4V13.3L14.5 13.1V13H14.4L14.1 12.7V12.6H14L13.9 12.5L13.7 12.1C13.5 12.1 13.3 12.1 13.1 12.1C13.1 12.1 13.1 12.1 13 12.1C12.8 12.1 12.6 12.2 12.4 12.2C12.4 12.2 12.3 12.2 12.3 12.3H12.2C12.2 12.3 12.2 12.3 12.2 12.2C12.2 12.1 12.2 12.1 12.2 12.1V12C12.1 12 12.1 12 12 12C11.9 12 11.9 12.1 11.8 12.1C11.8 12.1 11.8 12.1 11.7 12.2H11.6C11.6 12.2 11.5 12.2 11.5 12.3C11.5 12.3 11.4 12.3 11.4 12.4L11.3 12.5C11.3 12.5 11.2 12.5 11.1 12.5C11.1 12.5 11.1 12.6 11 12.6H10.9H10.8L10.7 12.7C10.7 12.7 10.6 12.7 10.5 12.7C10.5 12.7 10.4 12.7 10.4 12.8V13.1C10.4 13.1 10.3 13.1 10.2 13.1C10.1 13.1 10.1 13.1 10 13.2L9.9 13.3C9.8 13.3 9.8 13.3 9.8 13.3C9.8 13.3 9.8 13.3 9.7 13.4L9.6 13.5C9.5 13.5 9.5 13.5 9.4 13.5C9.3 13.5 9.3 13.6 9.2 13.6C9.2 13.6 9.2 13.6 9.1 13.7C9.1 13.7 9 13.7 9 13.8C9 13.9 9 13.9 9 13.9C9 13.9 9 13.9 8.9 13.9C8.9 13.9 8.9 13.9 8.8 14C8.7 14.1 8.7 14.1 8.6 14.2C8.5 14.2 8.4 14.3 8.4 14.3C8.4 14.3 8.4 14.3 8.4 14.4H8.3C8.3 14.4 8.3 14.4 8.2 14.4C8.2 14.4 8.2 14.5 8.1 14.5C8.1 14.5 8.1 14.5 8 14.6C8 14.6 8 14.7 7.9 14.7C7.9 14.7 7.8 14.7 7.8 14.8C7.8 14.8 7.8 14.8 7.7 14.9V15C7.7 15 7.7 15 7.6 15.1H7.5C8.1 15.1 8 15.1 8 15.1L7.9 15.2C7.9 15.2 7.9 15.2 7.9 15.3C7.9 15.3 7.9 15.4 7.8 15.4V15.5C7.7 15.5 7.7 15.5 7.7 15.5C7.7 15.5 7.7 15.6 7.6 15.6V15.7H7.5C7.5 15.7 7.5 15.7 7.4 15.8C7.4 15.8 7.4 15.9 7.3 15.9C7.3 15.9 7.2 15.9 7.2 16V16.1C7.2 16.1 7.2 16.1 7.2 16.2C7.2 16.2 7.1 16.2 7.1 16.3V16.4C7.1 16.4 7.1 16.4 7 16.5L6.9 16.6C6.9 16.6 6.9 16.6 6.9 16.7C6.9 16.7 6.9 16.7 6.8 16.8H6.7V16.9C6.7 16.9 6.7 16.9 6.6 17C6.5 17.1 6.6 17.1 6.6 17.1C6.6 17.1 6.5 17.1 6.5 17.2C6.5 17.2 6.5 17.2 6.4 17.3C6.4 17.3 6.4 17.4 6.3 17.4C6.3 17.4 6.3 17.4 6.3 17.5C6.3 17.5 6.3 17.5 6.2 17.5V17.6C6.2 17.6 6.1 17.6 6.1 17.7C6.1 17.7 6.1 17.7 6.1 17.8C6.1 17.9 6.1 17.9 6 17.9C6 17.9 6 17.9 6 18C6 18 6 18 6 18.1V18.2H5.9C5.9 18.2 5.9 18.2 5.9 18.3C5.9 18.3 5.8 18.3 5.8 18.4V18.5C5.8 18.5 5.8 18.5 5.8 18.6V18.7C5.8 18.7 5.8 18.7 5.7 18.8V18.9C5.7 18.9 5.7 18.9 5.7 19V19.1H5.6V19.2C5.6 19.2 5.6 19.2 5.6 19.3V19.4C5.5 19.4 5.5 19.4 5.5 19.4C5.5 19.4 5.5 19.4 5.5 19.5C5.5 19.5 5.5 19.5 5.5 19.6V19.7L5.4 19.8C5.4 19.8 5.4 19.8 5.3 19.8V19.9C5.3 19.9 5.3 19.9 5.2 20C5.2 20 5.2 20 5.2 20.1V20.2C5.2 20.2 5.2 20.2 5.2 20.3C5.2 20.4 5.2 20.4 5.2 20.4C5.2 20.4 5.2 20.4 5.2 20.5C5.1 20.5 5.1 20.5 5.1 20.5C5.1 20.5 5.1 20.5 5.1 20.6V20.7C4.6 20.7 4 20.7 3.5 20.7C3.4 20.7 3.4 20.6 3.3 20.6V20.5C3.2 20.5 3.2 20.5 3.2 20.5C3.1 20.5 3 20.5 3 20.4V20.3C2.9 20.3 2.8 20.3 2.8 20.2V20.1C2.7 20.1 2.7 20.1 2.6 20.1C2.6 20.1 2.6 20.1 2.5 20L2.2 19.1C2.2 19.1 2.2 19.1 2.1 19.1C2.1 19.1 2 19.1 1.9 19V18.9H1.8C1.8 18.9 1.8 18.9 1.8 18.8C1.8 18.8 1.7 18.8 1.7 18.7L1.6 18.6C1.6 18.6 1.5 18.6 1.5 18.5C1.5 18.5 1.5 18.4 1.4 18.4C1.4 18.4 1.3 18.4 1.3 18.3C1.3 18.3 1.3 18.3 1.3 18.2H1.2V18.1C1.2 18.1 1.1 18.1 1.1 18L1 17.9C1 17.9 1 17.9 0.9 17.8H0.8V17.7C0.8 17.7 0.8 17.7 0.7 17.6C0.6 17.6 0.6 17.6 0.6 17.5V17.4C0.6 17.4 0.5 17.4 0.5 17.3C0.5 17.3 0.5 17.2 0.4 17.2C0.4 17.2 0.4 17.2 0.4 17.1C0.3 17.1 0.3 17.1 0.3 17V16.9C0.2 16.9 0.2 16.9 0.2 16.8V16.7C0.2 16.7 0.2 16.7 0.2 16.6C0.2 16.5 0.2 16.5 0.2 16.5H0.1C0.1 16.5 0.1 16.5 0.1 16.4V16.3C0.1 16.3 0 16.3 0 16.2C0 16.2 0 16.2 0 16.1V16C0 16 0 16 0 15.9C0 15.9 0 15.9 0 15.8V15.7C0 15.7 0 15.7 0 15.6C0 15.5 0 15.6 0 15.5V15.4C0 15.4 0 15.4 0 15.3V15.2C0 15.2 0 15.2 0 15.1C0 15 0 15.1 0 15C0 14.9 0 14.9 0 14.8V14.7C0 14.7 0 14.7 0 14.6C0 14.6 0 14.6 0 14.5V14.4C0 14.4 0 14.4 0 14.3V14.2V14.1V14C0 14 2.23517e-08 14 0.1 14C0.1 13.9 0.1 13.7 0.1 13.6C0.1 13.5 0.1 13.3 0.1 13.2C0.1 13 0.1 12.9 0.1 12.8C0.1 12.6 0.1 12.5 0.1 12.4C0.1 12.2 0.1 12.1 0.1 11.9C0.1 11.8 0.1 11.6 0.1 11.5C0.1 11.3 0.1 11.2 0.1 11.1C0.1 10.9 0.1 10.8 0.1 10.7C0.1 10.5 0.1 10.4 0.1 10.2C0.1 10.1 0.1 10 0.1 9.8C0.1 9.7 0.1 9.5 0.1 9.4C0.1 9.4 0.1 9.4 0.1 9.3C0.1 9.3 0.1 9.3 0 9.3C0 9.3 0 9.3 0 9.2V9.1C0 9.1 0 9.1 0 9C0 9 0 9 0 8.9V8.8C0 8.8 0 8.8 0 8.7C0 8.7 0 8.7 0 8.6V8.5C0 8.5 0 8.5 0 8.4V8.3C0 8.3 0 8.3 0 8.2C0 8.2 0 8.2 0 8.1V8C0 8 0 8 0 7.9V7.8C0 7.8 0 7.8 0 7.7C0 7.7 0 7.7 0 7.6V7.5C0 7.5 0 7.5 0 7.4C0 7.3 0 7.3 0 7.3C0.5 7.3 1.1 7.3 1.6 7.3V7.4C1.6 7.4 1.7 7.4 1.7 7.5H1.8V7.6C1.8 7.6 1.9 7.6 1.9 7.7C2 7.7 2 7.7 2.1 7.7C2.1 7.7 2.1 7.7 2.1 7.8C2.1 7.8 2.1 7.9 2.2 7.9C2.2 7.9 2.3 7.9 2.4 7.9C2.4 7.9 2.4 7.9 2.4 8C2.5 8 2.5 8.1 2.6 8.1C2.7 8.1 2.7 8.1 2.8 8.1C2.8 8.1 2.8 8.1 2.8 8.2C2.9 8.2 3 8.3 3 8.3C3.1 8.3 3.3 8.3 3.4 8.3C3.4 8.3 3.4 8.3 3.4 8.4C3.5 8.4 3.6 8.5 3.7 8.5C4.1 8.5 4.4 8.5 4.8 8.5C4.9 8.5 5 8.4 5.1 8.4C5.1 8.4 5.2 8.4 5.2 8.3C5.3 8.3 5.5 8.3 5.6 8.3C5.7 8.3 5.8 8.2 5.9 8.2C5.9 8.2 5.9 8.2 5.9 8.1C6 8.1 6.2 8.1 6.3 8.1C6.4 8.1 6.6 8 6.7 8C6.7 8 6.7 8 6.7 7.9C6.8 7.9 7 7.9 7.1 7.9C7.2 7.9 7.2 7.8 7.3 7.8C7.3 7.8 7.3 7.8 7.3 7.7C7.4 7.7 7.4 7.7 7.5 7.7C7.6 7.7 7.7 7.7 7.8 7.6V7.5H7.9H8C8.1 7.5 8.2 7.5 8.4 7.4V7.3C8.5 7.3 8.5 7.3 8.6 7.3C8.7 7.3 8.8 7.3 8.9 7.2V7.1C9 7.1 9.1 7.1 9.2 7.1C9.3 7.1 9.3 7.1 9.4 7V6.9C9.4 6.9 9.5 6.9 9.6 6.9C9.6 6.9 9.7 6.9 9.8 6.8V6.7C9.9 6.7 10 6.7 10.1 6.7C10.1 6.7 10.2 6.7 10.3 6.6C10.3 6.6 10.3 6.6 10.3 6.5L10.4 6.4C10.5 6.4 10.5 6.4 10.5 6.3C10.5 6.3 10.5 6.3 10.6 6.2L10.7 6.1C10.8 6.1 10.8 6.1 10.9 6.1C10.9 6.1 10.9 6.1 11 6L11.1 5.9C11.1 5.9 11.2 5.9 11.3 5.9C11.3 5.9 11.3 5.9 11.3 5.8H11.4L11.5 5.7C11.5 5.7 11.5 5.7 11.5 5.6C11.5 5.6 11.6 5.6 11.7 5.6L11.8 5.5C11.8 5.5 11.9 5.5 11.9 5.4C11.9 5.4 11.9 5.4 12 5.4C12.1 5.4 12.1 5.3 12.2 5.3C12.2 5.3 12.2 5.3 12.2 5.2H12.3C12.4 5.2 12.4 5.2 12.5 5.1V5C12.5 5 12.6 5 12.7 5C12.7 5 12.7 5 12.8 4.9C12.8 4.9 12.8 4.8 12.9 4.8H13H13.1V4.7H13.2H13.3C13.4 4.7 13.4 4.7 13.4 4.6V4.5C13.4 4.5 13.5 4.5 13.6 4.5C13.6 4.5 13.6 4.5 13.7 4.4C13.7 4.4 13.7 4.4 13.7 4.3C13.8 4.3 13.8 4.2 13.9 4.2C14 4.2 14 4.2 14.1 4.1C14.1 4.1 14.1 4.1 14.1 4L14.2 3.9C14.2 3.9 14.3 3.8 14.4 3.8C14.4 3.8 14.4 3.8 14.4 3.7C14.5 3.7 14.5 3.6 14.6 3.6C14.6 3.6 14.7 3.6 14.8 3.5C14.8 3.5 14.8 3.5 14.8 3.4C14.8 3.4 14.9 3.4 15 3.4L15.1 3.3C15.1 3.3 15.1 3.3 15.1 3.2C15.2 3.2 15.3 3.2 15.3 3.2C15.4 3.2 15.4 3.1 15.5 3.1C15.5 3.1 15.5 3.1 15.5 3H15.6C15.6 3 15.7 3 15.8 3C15.9 3 15.9 2.9 16 2.9C16 2.9 16 2.9 16 2.8C16.1 2.8 16.2 2.8 16.4 2.8C16.4 2.8 16.5 2.7 16.6 2.7C16.6 2.7 16.6 2.7 16.6 2.6C16.6 2.6 16.7 2.6 16.8 2.6C16.8 2.6 16.9 2.6 17 2.5V2.4H17.1C17.2 2.4 17.2 2.4 17.2 2.3V2.2C17.3 2.2 17.4 2.2 17.4 2.2H17.5C17.5 2.2 17.5 2.2 17.5 2.1C17.5 2 17.5 2 17.5 2C17.6 2 17.6 2 17.8 2C17.8 2 17.9 2 18 2C18 2 18 2 18.1 2C18.1 2 18.1 2 18.2 2V3.2H18.3C18.3 3.2 18.3 3.2 18.4 3.1C18.6 3.1 18.7 3.1 18.9 3C18.9 2.9 19 2.9 19 2.9C19.2 2.9 19.4 2.9 19.7 2.8C19.7 2.7 19.7 2.7 19.8 2.7C19.4 2.7 19.5 2.7 19.6 2.6ZM18.8 12.2V12.3H18.7V12.4V12.5V12.6V12.7V12.8H18.6V12.9V13.1V13.3V13.4V13.6H18.5V13.8V14.1V14.7C18.3 14.7 18.1 14.7 17.9 14.7V14.6V14.5V14.4V14.3V14.2L17.8 14.1V14V13.8V13.6C17.8 13.5 17.8 13.5 17.8 13.5V13.4C17.8 13.3 17.8 13.3 17.8 13.3V13.2C17.8 13.1 17.8 13.1 17.8 13.1C17.8 13.1 17.8 13.1 17.8 13V12.9C17.8 12.9 17.8 12.9 17.8 12.8C17.8 12.7 17.8 12.8 17.8 12.7C17.8 12.6 17.8 12.6 17.8 12.6C17.8 12.6 17.8 12.6 17.8 12.5V12.4C17.8 12.4 17.8 12.4 17.8 12.3H17.7L17 12.7L16.8 12.9V13L16.7 13.1V13.2V13.3V13.5V13.6V13.9V14.1V14.1V14.2H16.8V14.3L16.9 14.4V14.5L17 14.6L17.1 14.7H17.2V14.8H17.3C17.3 14.8 17.3 14.8 17.4 14.8L17.5 14.9C17.6 14.9 17.6 14.9 17.7 14.9C17.8 14.9 17.8 14.9 17.9 14.9V15H18H18.1H18.2C18.4 15 18.6 15 18.8 15V15.1C18.9 15.1 19.1 15.1 19.2 15.1V15H19.3C19.4 15 19.5 15 19.7 15H19.8H19.9H20V14.9H20.1H20.2C20.2 14.9 20.2 14.9 20.3 14.9H20.4H20.5L20.6 14.8C20.6 14.8 20.6 14.8 20.7 14.8C20.7 14.8 20.7 14.8 20.8 14.8H20.9L21 14.7H21.1L21.2 14.6H21.3C21.3 14.6 21.3 14.6 21.4 14.6V14.5H21.5L21.6 14.4C21.6 14.4 21.6 14.4 21.7 14.4C21.7 14.4 21.7 14.3 21.8 14.3H21.9V14.2V14H22V13.9V13.8C22 13.8 22 13.8 22.1 13.8V13.7V13.5V13.4H22V13.1V13V12.9V12.8H21.9L21.7 12.6L21.6 12.5L21.5 12.4C21.5 12.4 21.5 12.4 21.4 12.4L22.1 12.1H22C20.9 12.1 19.9 12.1 18.8 12.2C18.8 12.1 18.8 12.1 18.8 12.2ZM18.1 15.1C18.1 15 18.1 15 18.1 15.1C18.2 15 18.2 15 18.3 15C18.2 15 18.1 15 18.1 15.1ZM1.3 14.5C1.3 14.4 1.3 14.4 1.3 14.5C1.4 14.4 1.4 14.4 1.4 14.4C1.4 14.4 1.4 14.4 1.3 14.4V14.5C1.3 14.4 1.3 14.4 1.3 14.5Z" fill="white"/>
</svg>
