<svg width="122" height="32" viewBox="0 0 122 32" fill="none" xmlns="http://www.w3.org/2000/svg">
<g clip-path="url(#clip0)">
<path fill-rule="evenodd" clip-rule="evenodd" d="M26.496 2.11005H26.54C26.54 2.08005 26.555 2.06505 26.586 2.06505V2.02105C26.615 2.02105 26.646 2.02105 26.675 2.02105V1.93205H26.72L26.764 1.88705V1.70805L26.81 1.66305V1.08005C26.81 1.05005 26.81 1.01905 26.81 0.990049V0.810049C26.988 0.810049 27.139 0.810049 27.259 0.810049C27.259 0.780049 27.259 0.736049 27.259 0.675049C27.468 0.675049 27.677 0.675049 27.886 0.675049V0.720049C27.886 0.780049 27.886 0.855049 27.886 0.944049C27.886 1.00405 27.886 1.06505 27.886 1.12405C27.886 1.21405 27.886 1.28905 27.886 1.34805C27.886 1.40805 27.886 1.46805 27.886 1.52805C27.886 1.61705 27.886 1.69205 27.886 1.75305C27.886 1.81305 27.886 1.87205 27.886 1.93205C27.886 2.02105 27.886 2.09605 27.886 2.15605C27.886 2.21505 27.886 2.29005 27.886 2.38105C27.886 2.44005 27.886 2.48505 27.886 2.51505C28.036 2.51505 28.186 2.51505 28.334 2.51505C28.544 2.51505 28.753 2.51505 28.963 2.51505V2.20105C29.172 2.20105 29.382 2.20105 29.59 2.20105V2.38105L29.635 2.42605V2.56005C29.755 2.53005 29.86 2.53005 29.95 2.56005V2.51405C29.95 2.48505 29.95 2.45405 29.95 2.42505C29.95 2.39505 29.95 2.36505 29.95 2.33505C29.95 2.30505 29.95 2.27505 29.95 2.24505C29.95 2.21505 29.95 2.18605 29.95 2.15605C29.95 2.12605 29.95 2.09605 29.95 2.06605C29.95 2.03705 29.95 2.00605 29.95 1.97705V1.88705H30.039V1.84105C30.308 1.84105 30.593 1.84105 30.892 1.84105V1.79605C31.101 1.79605 31.311 1.79605 31.52 1.79605C31.52 1.85605 31.52 1.90105 31.52 1.93105V2.15505C31.52 2.18505 31.52 2.21405 31.52 2.24405V2.33405C31.52 2.36405 31.52 2.39405 31.52 2.42405C31.52 2.45305 31.52 2.48405 31.52 2.51305V2.55805C33.045 2.55805 34.585 2.55805 36.14 2.55805V2.11005H36.184C37.202 2.11005 38.203 2.11005 39.19 2.11005V2.02005C39.19 1.99005 39.19 1.96105 39.19 1.93105V1.88605C39.19 1.85605 39.19 1.82605 39.19 1.79605C39.19 1.76605 39.19 1.73705 39.19 1.70705V1.61705C39.19 1.58805 39.19 1.55705 39.19 1.52805V1.48305C39.399 1.48305 39.609 1.48305 39.818 1.48305V1.97705C39.818 2.00605 39.834 2.02105 39.863 2.02105V2.20105C40.012 2.20105 40.162 2.20105 40.311 2.20105V3.00805C40.282 3.00805 40.251 3.02305 40.221 3.05305V3.14205H40.177V3.32205C40.147 3.32205 40.132 3.33605 40.132 3.36605V3.41105C40.102 3.41105 40.087 3.42605 40.087 3.45605V3.54605H40.043V3.59005L39.997 3.63505V3.72505L39.953 3.77005V3.81405L39.907 3.86005V3.95005H39.862V3.99505L39.817 4.03905L39.772 4.12805C39.772 4.16005 39.758 4.17405 39.728 4.17405C39.728 4.20305 39.713 4.21905 39.683 4.21905V4.35405L39.638 4.39905V4.44405H39.593V4.57705H39.548V4.66805H39.504V4.75705C39.474 4.75705 39.459 4.77205 39.459 4.80105V4.84605H39.414V4.89205L39.369 4.93605V5.07105H39.324V5.11705C39.324 5.14605 39.31 5.16105 39.28 5.16105V5.29505C39.25 5.29505 39.235 5.31105 39.235 5.34105V5.38505H39.19V5.47405H39.146V5.56505H39.1V5.60905C39.071 5.60905 39.056 5.62405 39.056 5.65405V5.78805H39.01V5.83305H38.965V5.92205L38.92 5.96705H38.875V6.10205H38.83V6.19105H38.785V6.37105H38.74C38.74 6.40105 38.725 6.41605 38.696 6.41605V6.46105L38.65 6.50605L38.606 6.59505C38.576 6.59505 38.561 6.61005 38.561 6.64005V6.68505C38.531 6.68505 38.516 6.70005 38.516 6.73005V6.77505H38.472V6.91005C38.966 6.91005 39.474 6.91005 39.996 6.91005V7.31405C41.103 7.31405 42.209 7.31405 43.316 7.31405C44.244 7.31405 45.17 7.31405 46.097 7.31405V7.71805C54.858 7.71805 63.619 7.71805 72.381 7.71805V7.94205C72.5 7.94205 72.62 7.94205 72.739 7.94205V7.67305C72.83 7.67305 72.933 7.67305 73.054 7.67305C73.054 7.61205 73.054 7.55205 73.054 7.49205C73.054 7.40205 73.054 7.31305 73.054 7.22405C73.054 7.13405 73.054 7.04405 73.054 6.95405C73.054 6.86405 73.054 6.77505 73.054 6.68405C73.054 6.62405 73.054 6.55005 73.054 6.46005C73.054 6.33905 73.054 6.25105 73.054 6.19005C73.054 6.10105 73.054 6.01105 73.054 5.92105C73.054 5.83205 73.054 5.74205 73.054 5.65205C73.054 5.56205 73.054 5.47205 73.054 5.38205C73.054 5.29205 73.054 5.20305 73.054 5.11405C73.054 5.02305 73.054 4.93305 73.054 4.84305C73.054 4.78405 73.054 4.70905 73.054 4.62005C73.054 4.49905 73.054 4.41105 73.054 4.35105C73.054 4.26005 73.054 4.17105 73.054 4.08105C73.054 3.99205 73.054 3.90205 73.054 3.81205C73.054 3.72305 73.054 3.63305 73.054 3.54305C73.054 3.48305 73.054 3.39305 73.054 3.27405C73.054 3.18405 73.054 3.10805 73.054 3.05005C73.054 2.98905 73.054 2.94505 73.054 2.91405C73.143 2.91405 73.233 2.91405 73.323 2.91405C73.442 2.91405 73.563 2.91405 73.682 2.91405C73.771 2.91405 73.861 2.91405 73.951 2.91405H73.996V2.95905C74.056 2.95905 74.1 2.95905 74.131 2.95905L74.175 3.00405V3.31805C74.265 3.31805 74.355 3.31805 74.444 3.31805H74.489C74.52 3.34705 74.549 3.36205 74.579 3.36205V3.86005C74.579 3.95005 74.579 4.03905 74.579 4.12805V4.17405C74.579 4.23305 74.579 4.29305 74.579 4.35405C74.668 4.35405 74.773 4.35405 74.892 4.35405V4.71205H74.982V4.75705C74.982 4.81805 74.982 4.90605 74.982 5.02605C74.982 5.11705 74.982 5.19105 74.982 5.25005C74.982 5.34105 74.982 5.44405 74.982 5.56505C74.982 5.65405 74.982 5.72905 74.982 5.78905C74.982 5.87905 74.982 5.96805 74.982 6.05805C74.982 6.14705 74.982 6.23705 74.982 6.32805C74.982 6.41705 74.982 6.50705 74.982 6.59605C74.982 6.68605 74.982 6.77605 74.982 6.86505C74.982 6.95505 74.982 7.03005 74.982 7.09005C74.982 7.17905 74.982 7.25405 74.982 7.31405C75.102 7.31405 75.222 7.31405 75.34 7.31405C75.46 7.34405 75.565 7.35905 75.655 7.35905H75.7C75.73 7.35905 75.759 7.35905 75.789 7.35905V7.40305C75.789 7.46305 75.789 7.52405 75.789 7.58305C75.789 7.64305 75.789 7.68705 75.789 7.71805C75.789 7.77805 75.789 7.83805 75.789 7.89805C75.789 7.98705 75.789 8.06205 75.789 8.12205C75.789 8.18105 75.789 8.22605 75.789 8.25605V8.34705C75.879 8.34705 75.955 8.34705 76.013 8.34705V8.43605C76.612 8.43605 77.224 8.43605 77.853 8.43605V8.61505C77.883 8.61505 77.913 8.61505 77.942 8.61505V9.24305C77.673 9.24305 77.374 9.24305 77.046 9.24305V9.51205L76.956 9.55705V9.60205C77.255 9.60205 77.554 9.60205 77.853 9.60205V10.229C77.165 10.229 76.478 10.229 75.789 10.229V10.364C78.69 10.364 81.575 10.364 84.446 10.364V10.05C85.911 10.05 87.376 10.05 88.841 10.05C88.871 10.05 88.901 10.05 88.932 10.05V10.857C88.932 10.916 88.932 10.961 88.932 10.991C88.932 11.021 88.932 11.051 88.932 11.081V11.574C88.932 11.604 88.932 11.633 88.932 11.664C88.932 11.694 88.932 11.739 88.932 11.799V11.844C88.932 11.873 88.932 11.905 88.932 11.933C88.932 11.963 88.932 11.993 88.932 12.023V12.157C88.961 12.157 88.991 12.157 89.021 12.157V12.785C88.901 12.785 88.797 12.785 88.708 12.785C88.587 12.785 88.468 12.785 88.348 12.785C86.763 12.785 85.194 12.785 83.639 12.785V12.83C83.431 12.83 83.221 12.83 83.012 12.83C83.012 12.8 82.997 12.785 82.967 12.785H82.92V12.382C80.349 12.382 77.777 12.382 75.206 12.382V12.83C75.145 12.83 75.101 12.83 75.071 12.83V13.099C74.951 13.099 74.832 13.099 74.712 13.099V13.145C74.682 13.145 74.652 13.159 74.622 13.19C74.622 13.219 74.622 13.249 74.622 13.279C74.622 13.309 74.622 13.353 74.622 13.414C74.622 13.443 74.622 13.473 74.622 13.503C74.622 13.563 74.622 13.607 74.622 13.639C74.622 13.666 74.622 13.698 74.622 13.728C74.622 13.788 74.622 13.832 74.622 13.863C74.622 13.891 74.622 13.922 74.622 13.952C74.622 14.012 74.622 14.056 74.622 14.087C74.622 14.115 74.622 14.146 74.622 14.176C74.622 14.206 74.622 14.25 74.622 14.311C74.622 14.34 74.622 14.386 74.622 14.445C74.622 14.475 74.622 14.505 74.622 14.535C74.622 14.564 74.622 14.595 74.622 14.625C74.622 14.684 74.622 14.729 74.622 14.759C74.622 14.819 74.622 14.863 74.622 14.893C74.622 14.923 74.622 14.968 74.622 15.029V15.118C74.622 15.148 74.622 15.193 74.622 15.252C74.622 15.283 74.622 15.312 74.622 15.342C74.413 15.342 74.204 15.342 73.994 15.342V15.298H73.905C73.726 15.268 73.531 15.252 73.322 15.252H73.143L73.054 15.208V14.49C73.084 14.49 73.114 14.475 73.143 14.445C73.143 14.415 73.143 14.371 73.143 14.311C73.143 14.28 73.143 14.25 73.143 14.22C73.143 14.161 73.143 14.116 73.143 14.087C73.143 14.056 73.143 14.012 73.143 13.952C73.143 13.922 73.143 13.891 73.143 13.863C73.143 13.832 73.143 13.788 73.143 13.728C73.143 13.698 73.143 13.666 73.143 13.639C73.143 13.577 73.143 13.534 73.143 13.503C73.143 13.473 73.143 13.443 73.143 13.414C73.143 13.352 73.143 13.309 73.143 13.279C73.143 13.219 73.143 13.174 73.143 13.145C73.054 13.145 72.963 13.145 72.874 13.145C72.844 13.115 72.8 13.099 72.739 13.099V12.83C72.62 12.83 72.5 12.83 72.381 12.83H72.337C72.337 12.86 72.32 12.874 72.291 12.874V13.099C72.291 13.129 72.291 13.159 72.291 13.19V13.234C72.291 13.264 72.291 13.293 72.291 13.323V13.414C72.291 13.443 72.291 13.473 72.291 13.503V13.547C72.291 13.577 72.291 13.607 72.291 13.639V13.728C72.291 13.758 72.291 13.788 72.291 13.817V13.952C72.291 13.982 72.291 14.012 72.291 14.041V14.131C72.291 14.161 72.291 14.19 72.291 14.22V14.265H72.247V14.4C72.038 14.4 71.844 14.4 71.664 14.4V14.444H71.619V14.534H71.574V14.624L71.485 14.713V14.758C71.455 14.758 71.441 14.773 71.441 14.803V14.848C71.441 14.878 71.441 14.907 71.441 14.937V15.027C71.441 15.057 71.441 15.102 71.441 15.161C71.441 15.191 71.441 15.222 71.441 15.25C71.441 15.31 71.441 15.355 71.441 15.385C71.441 15.416 71.441 15.446 71.441 15.474V15.609C71.291 15.609 71.127 15.609 70.947 15.609L70.9 15.657H70.855V15.747H70.811V15.971C70.541 15.971 70.287 15.971 70.048 15.971L70.003 15.925C63.843 15.896 57.669 15.881 51.479 15.881V16.06C51.239 16.06 51 16.06 50.761 16.06V15.971H50.716V15.881C50.687 15.881 50.672 15.866 50.672 15.836L50.627 15.791V15.747H50.583V15.657C50.583 15.627 50.567 15.612 50.538 15.612C48.325 15.582 46.113 15.567 43.9 15.567H43.856L43.811 15.612C43.78 15.612 43.766 15.627 43.766 15.657C43.735 15.657 43.706 15.657 43.676 15.657L43.632 15.701C43.602 15.701 43.572 15.717 43.542 15.747C43.512 15.747 43.482 15.747 43.452 15.747C43.452 15.776 43.437 15.791 43.408 15.791L43.363 15.836H43.319C43.289 15.866 43.259 15.881 43.229 15.881C43.229 15.91 43.214 15.925 43.185 15.925L43.14 15.971C43.11 15.971 43.08 15.971 43.051 15.971V16.015C43.021 16.015 42.991 16.03 42.962 16.06C42.931 16.06 42.901 16.076 42.871 16.105L42.826 16.149C42.796 16.149 42.766 16.165 42.737 16.195L42.691 16.239H42.647C42.617 16.269 42.587 16.284 42.557 16.284C42.557 16.314 42.542 16.329 42.513 16.329L42.467 16.373H42.423C42.423 16.404 42.408 16.419 42.378 16.419L42.333 16.463H42.289C42.258 16.463 42.243 16.478 42.243 16.508L42.199 16.553H42.154C42.124 16.553 42.109 16.568 42.109 16.597L42.065 16.643V16.687C42.065 16.748 42.065 16.8071 42.065 16.8671C42.065 16.9261 42.065 16.987 42.065 17.046C42.065 17.106 42.065 17.151 42.065 17.181C42.065 17.241 42.065 17.3011 42.065 17.3601C42.065 17.4501 42.065 17.526 42.065 17.585C42.065 17.615 42.065 17.66 42.065 17.719C42.065 17.779 42.065 17.839 42.065 17.899V17.989C42.184 17.989 42.304 17.989 42.423 17.989V18.616C42.214 18.616 41.989 18.6321 41.751 18.6621H41.706V19.917H41.751V20.3221H41.795V20.725L41.841 20.7701V21.083C41.841 21.113 41.856 21.128 41.885 21.128V21.442H41.93V21.935L41.975 21.98C41.975 22.01 41.99 22.024 42.019 22.024V22.473C42.019 22.504 42.034 22.518 42.065 22.518V22.563L42.109 22.608V22.8321L42.154 22.8771V23.011L42.199 23.056V23.101L42.243 23.1451V23.369L42.289 23.414C42.289 23.444 42.303 23.459 42.333 23.459V23.684H42.378V23.729C42.378 23.758 42.393 23.7731 42.423 23.7731V23.9081L42.467 23.953V23.997L42.513 24.042V24.087H42.557V24.401L42.647 24.445V24.625C42.647 24.654 42.662 24.6691 42.691 24.6691V24.8041H42.737V24.893L42.781 24.983V25.028H42.826V25.2071H42.871V25.2971L42.962 25.386V25.5651C42.962 25.5961 42.976 25.6101 43.006 25.6101C43.006 25.6401 43.021 25.6551 43.051 25.6551V25.789L43.096 25.834V25.924H43.14V26.1481H43.185V26.2381L43.229 26.328V26.418L43.274 26.462V26.552C43.274 26.582 43.289 26.597 43.319 26.597V26.642H43.363V26.776C43.393 26.776 43.408 26.791 43.408 26.821L43.452 26.866V27C43.452 27.03 43.467 27.045 43.497 27.045V27.1341C43.497 27.1641 43.512 27.1791 43.542 27.1791L43.587 27.269V27.358C43.617 27.358 43.632 27.373 43.632 27.403V27.448L43.676 27.493V27.5821C43.676 27.6121 43.691 27.6271 43.721 27.6271V27.6721H43.766V27.851L43.811 27.896V27.9851C43.811 28.0161 43.826 28.0301 43.856 28.0301V28.0751C43.856 28.1041 43.871 28.1201 43.9 28.1201V28.1651H43.945V28.344L44.034 28.389V28.4331L44.079 28.4781V28.6131C44.109 28.6131 44.123 28.627 44.123 28.657V28.702C44.153 28.702 44.168 28.717 44.168 28.747V28.792H44.213C44.213 28.822 44.228 28.837 44.258 28.837V28.8811C44.288 28.8811 44.318 28.8961 44.348 28.9261L44.393 28.9711V29.5991H44.348V29.688C44.288 29.688 44.213 29.688 44.123 29.688V29.778C44.033 29.778 43.944 29.793 43.854 29.823H43.809C43.778 29.853 43.749 29.868 43.719 29.868C43.689 29.868 43.644 29.8831 43.584 29.9121H43.54C43.51 29.9121 43.48 29.9271 43.45 29.9571L43.406 30.0021C43.376 30.0021 43.331 30.0021 43.271 30.0021C43.241 30.0021 43.197 30.0171 43.136 30.0471C43.106 30.0471 43.076 30.062 43.047 30.092H43.002L42.912 30.181C42.883 30.181 42.853 30.181 42.823 30.181H42.778C42.749 30.181 42.703 30.196 42.644 30.226V30.271C42.614 30.271 42.584 30.286 42.554 30.316H42.464L42.42 30.3601H42.375C42.345 30.3601 42.315 30.3751 42.286 30.4051H42.24C42.211 30.4051 42.181 30.4201 42.151 30.4501C42.121 30.4501 42.092 30.4651 42.062 30.4951H42.016C41.987 30.4951 41.956 30.4951 41.927 30.4951C41.898 30.4951 41.867 30.5101 41.838 30.5401L41.792 30.584C41.762 30.584 41.732 30.584 41.703 30.584C41.643 30.614 41.598 30.629 41.568 30.629C41.539 30.629 41.494 30.645 41.434 30.674C41.405 30.674 41.359 30.689 41.3 30.719H41.255C41.226 30.719 41.195 30.734 41.166 30.764H41.12C41.09 30.793 41.06 30.8081 41.031 30.8081H40.986C40.926 30.8081 40.896 30.8231 40.896 30.8531C40.867 30.8531 40.837 30.8681 40.807 30.8981H40.718C40.687 30.9271 40.658 30.9431 40.628 30.9431C40.598 30.9431 40.553 30.9581 40.494 30.9881C40.463 30.9881 40.434 30.9881 40.404 30.9881C40.374 30.9881 40.359 31.002 40.359 31.032C40.329 31.032 40.299 31.047 40.269 31.077H40.22L40.176 31.122C40.116 31.122 40.072 31.122 40.042 31.122C39.952 31.122 39.862 31.137 39.772 31.167V31.212C39.742 31.212 39.713 31.212 39.683 31.212V31.2561C39.622 31.2861 39.563 31.3011 39.503 31.3011C39.473 31.3011 39.428 31.3011 39.368 31.3011V31.3461C39.338 31.3461 39.308 31.3611 39.279 31.3911L39.189 31.4361C39.128 31.4361 39.085 31.4361 39.055 31.4361C39.025 31.4361 38.995 31.45 38.965 31.48V31.525C38.935 31.525 38.905 31.525 38.875 31.525C38.846 31.555 38.816 31.57 38.786 31.57C38.726 31.57 38.681 31.585 38.651 31.615C38.562 31.615 38.473 31.615 38.383 31.615V31.66C38.323 31.66 38.278 31.6741 38.248 31.7041H38.203C38.174 31.7041 38.144 31.7041 38.114 31.7041C37.875 31.7041 37.62 31.7041 37.352 31.7041V31.4H37.307C37.307 31.37 37.292 31.355 37.263 31.355V31.1761C37.233 31.1761 37.218 31.1601 37.218 31.1311L37.173 31.0861V30.907C37.143 30.907 37.129 30.892 37.129 30.862V30.6831H37.084V30.504H37.04V30.1901H36.949V29.92H36.905V29.786H36.86V29.696L36.816 29.6521V29.607C36.786 29.607 36.771 29.592 36.771 29.562V29.472H36.725V29.293L36.636 29.203V28.979H36.592V28.889C36.592 28.858 36.576 28.845 36.547 28.845V28.755C36.517 28.755 36.501 28.74 36.501 28.71V28.621C36.472 28.621 36.457 28.606 36.457 28.576V28.486L36.412 28.441V28.173C36.382 28.173 36.352 28.173 36.323 28.173V27.859L36.277 27.814V27.725L36.233 27.68V27.501C36.233 27.47 36.218 27.456 36.188 27.456V27.366H36.144V27.0961L36.099 27.052V26.962H36.053C36.053 26.932 36.038 26.917 36.009 26.917V26.737H35.964V26.6031L35.92 26.5581V26.379L35.875 26.334V26.289C35.844 26.289 35.83 26.275 35.83 26.244V26.064C35.83 26.034 35.814 26.019 35.785 26.019V25.93L35.74 25.885V25.795C35.71 25.795 35.696 25.78 35.696 25.751V25.661L35.651 25.616V25.4811L35.606 25.4361V25.3461L35.556 25.3V25.21H35.51V25.031L35.466 24.986V24.852L35.421 24.807V24.717H35.376V24.628L35.331 24.583V24.448L35.286 24.404V24.314C35.286 24.284 35.272 24.269 35.242 24.269V24.0891H35.197V23.775C35.197 23.746 35.182 23.7311 35.152 23.7311V23.5961L35.107 23.552V23.462C35.077 23.462 35.062 23.447 35.062 23.417V23.2831H35.018V22.924C34.988 22.924 34.972 22.91 34.972 22.88H34.928V22.6101C34.899 22.6101 34.884 22.5951 34.884 22.5651V22.2071L34.838 22.1621V21.938L34.794 21.893V21.67H34.749V21.489L34.704 21.445V21.041C34.704 21.011 34.688 20.997 34.66 20.997V20.9501H34.615V20.546H34.571V20.232H34.526V20.098C34.526 20.068 34.512 20.053 34.482 20.053V19.8291C34.452 19.8291 34.438 19.813 34.438 19.784V19.65C34.407 19.65 34.393 19.635 34.393 19.605C32.15 19.605 29.908 19.605 27.664 19.605C27.575 19.605 27.486 19.605 27.396 19.605V19.8291L27.351 19.8741V19.918C27.321 19.918 27.291 19.918 27.262 19.918V20.008L27.216 20.053V20.142L27.172 20.187C27.172 20.217 27.157 20.232 27.127 20.232C27.127 20.262 27.112 20.2771 27.083 20.2771V20.501C27.053 20.501 27.038 20.516 27.038 20.546H26.948V20.68L26.903 20.725V20.7701L26.814 20.859V20.9501C26.784 20.9501 26.768 20.9651 26.768 20.9951V21.129H26.72V21.173L26.675 21.219V21.2631L26.631 21.3081V21.3531C26.602 21.3531 26.586 21.369 26.586 21.397V21.4431H26.54V21.487C26.54 21.517 26.526 21.532 26.496 21.532L26.451 21.577V21.7111L26.362 21.8V21.845H26.315V21.935C26.287 21.935 26.271 21.95 26.271 21.98V22.024L26.137 22.114V22.2041L26.047 22.248V22.383H26.002V22.428H25.958V22.472C25.958 22.503 25.942 22.517 25.914 22.517C25.914 22.547 25.898 22.562 25.868 22.562V22.6521L25.824 22.696V22.741L25.779 22.786C25.749 22.786 25.735 22.801 25.735 22.831V22.876H25.691L25.645 22.92V23.01C25.645 23.04 25.63 23.055 25.6 23.055C25.6 23.084 25.585 23.1 25.555 23.1L25.511 23.189V23.234C25.482 23.234 25.467 23.249 25.467 23.279V23.324L25.422 23.368H25.377V23.413L25.332 23.458V23.5931C25.302 23.5931 25.272 23.5931 25.243 23.5931V23.6831C25.212 23.6831 25.198 23.6981 25.198 23.7281V23.772L25.153 23.817V23.907H25.108V23.952L25.064 23.996H25.02V24.1761C24.989 24.1761 24.974 24.191 24.974 24.22C24.945 24.22 24.929 24.236 24.929 24.265V24.355L24.884 24.4V24.444C24.884 24.475 24.87 24.489 24.84 24.489V24.5791L24.795 24.6241V24.713C24.765 24.713 24.75 24.728 24.75 24.758V24.892C24.75 24.923 24.735 24.937 24.706 24.937V25.116C24.676 25.116 24.646 25.131 24.616 25.161V25.475L24.572 25.5201V25.609H24.527V26.192C24.527 26.221 24.512 26.236 24.483 26.236V26.281C24.243 26.281 24.019 26.281 23.81 26.281V26.236C23.81 26.207 23.794 26.192 23.765 26.192L23.72 26.147C23.691 26.147 23.66 26.147 23.63 26.147C23.601 26.117 23.57 26.102 23.54 26.102V26.057H23.49V26.012C23.43 26.012 23.386 26.012 23.356 26.012C23.326 25.983 23.296 25.9681 23.266 25.9681C23.236 25.9381 23.206 25.923 23.177 25.923H23.088V25.878C23.058 25.848 23.027 25.833 22.998 25.833C22.969 25.833 22.939 25.833 22.909 25.833C22.879 25.803 22.849 25.788 22.82 25.788V25.744C22.79 25.744 22.745 25.744 22.685 25.744V25.699C22.655 25.699 22.625 25.699 22.596 25.699C22.596 25.669 22.58 25.654 22.551 25.654C22.521 25.624 22.491 25.609 22.462 25.609H22.37C22.339 25.578 22.309 25.564 22.279 25.564V25.5201C22.22 25.5201 22.175 25.5201 22.145 25.5201C22.115 25.4901 22.07 25.475 22.011 25.475L21.922 25.385C21.891 25.385 21.846 25.385 21.787 25.385L21.742 25.34H21.697C21.667 25.34 21.653 25.325 21.653 25.296L21.563 25.251L21.518 25.206H21.473C21.443 25.176 21.413 25.161 21.384 25.161C21.355 25.131 21.309 25.116 21.249 25.116C21.219 25.087 21.189 25.0721 21.16 25.0721L21.115 25.0271H21.025C20.995 25.0271 20.981 25.012 20.981 24.982L20.936 24.937H20.891V24.892H20.757C20.727 24.892 20.697 24.877 20.667 24.848L20.577 24.803C20.547 24.803 20.533 24.788 20.533 24.758C20.473 24.758 20.429 24.758 20.398 24.758L20.353 24.713C20.323 24.713 20.294 24.713 20.264 24.713V24.668C20.235 24.668 20.19 24.668 20.129 24.668V24.6241H20.085C20.025 24.5941 19.981 24.5791 19.951 24.5791C19.92 24.5491 19.89 24.534 19.861 24.534V24.489C19.83 24.489 19.801 24.489 19.772 24.489H19.728C19.728 24.46 19.712 24.444 19.682 24.444C19.653 24.415 19.623 24.4 19.593 24.4C19.564 24.4 19.519 24.4 19.458 24.4V24.355C19.429 24.355 19.398 24.34 19.369 24.31H19.325C19.264 24.28 19.205 24.265 19.145 24.265C19.145 24.236 19.13 24.22 19.101 24.22C19.071 24.22 19.04 24.2051 19.01 24.1761V24.1311C18.981 24.1311 18.951 24.1311 18.921 24.1311C18.892 24.1011 18.862 24.0861 18.832 24.0861H18.742V24.041H18.697L18.653 23.996V23.952C18.622 23.952 18.577 23.952 18.518 23.952V23.817H18.473V23.1H18.518V22.965C18.518 22.934 18.533 22.92 18.563 22.92V22.786H18.608V22.607C18.638 22.607 18.652 22.592 18.652 22.562H18.696C18.726 22.562 18.741 22.547 18.741 22.517V22.428L18.786 22.383V22.338L18.831 22.293C18.831 22.262 18.846 22.248 18.875 22.248V22.2041L18.919 22.159V22.069H18.964V22.024H19.008V21.98L19.054 21.935V21.845H19.099V21.8L19.143 21.7561V21.7111L19.278 21.577V21.532H19.322V21.4431L19.411 21.3531H19.455C19.455 21.3231 19.47 21.3081 19.501 21.3081V21.2631L19.59 21.173C19.62 21.173 19.635 21.159 19.635 21.129V21.084C19.635 21.054 19.65 21.039 19.679 21.039C19.709 21.039 19.725 21.0251 19.725 20.9951C19.754 20.9951 19.769 20.9791 19.769 20.9501L19.858 20.9051V20.8601L19.902 20.8151C19.902 20.7851 19.917 20.771 19.948 20.771V20.726C19.948 20.696 19.963 20.681 19.992 20.681V20.636H20.036V20.59C20.066 20.59 20.096 20.576 20.125 20.546V20.501C20.156 20.501 20.171 20.486 20.171 20.456H20.215L20.259 20.366C20.259 20.336 20.274 20.3221 20.304 20.3221L20.348 20.2771C20.348 20.2461 20.363 20.232 20.393 20.232V20.187C20.424 20.187 20.439 20.172 20.439 20.142L20.483 20.098C20.513 20.098 20.528 20.083 20.528 20.053C20.557 20.053 20.572 20.038 20.572 20.008V19.963C20.602 19.933 20.633 19.918 20.662 19.918V19.8741C20.662 19.8441 20.678 19.8291 20.707 19.8291L20.752 19.784V19.739H20.796V19.65C20.827 19.65 20.841 19.635 20.841 19.605H20.886V19.56L20.931 19.515H20.976C20.976 19.485 20.991 19.47 21.02 19.47V19.4261L21.155 19.291V19.246C21.184 19.246 21.2 19.232 21.2 19.202L21.244 19.157C21.274 19.157 21.289 19.141 21.289 19.112H21.334L21.424 19.022C21.453 19.022 21.468 19.0081 21.468 18.9781V18.9331L21.513 18.8881C21.544 18.8881 21.558 18.8731 21.558 18.8431V18.798H21.602V18.754H21.647V18.709L21.691 18.6651C21.691 18.6351 21.706 18.619 21.736 18.619L21.781 18.574V18.5301C21.811 18.5301 21.825 18.5151 21.825 18.4851C21.855 18.4851 21.87 18.47 21.87 18.441V18.351L21.915 18.306H21.959V18.217H22.004V18.1271L22.048 18.0821C22.078 18.0821 22.093 18.0671 22.093 18.0371V17.9471L22.137 17.903C22.168 17.903 22.182 17.888 22.182 17.858V17.6791C22.213 17.6491 22.243 17.6341 22.271 17.6341V17.409C22.301 17.409 22.316 17.394 22.316 17.364V16.9611H22.271V16.736C22.242 16.706 22.212 16.691 22.182 16.691V16.557H22.137V16.512L22.1 16.463V16.419H22.055L21.876 16.239C21.876 16.209 21.86 16.195 21.831 16.195L21.787 16.149V16.105H21.742C21.712 16.075 21.681 16.06 21.652 16.06H21.607C21.578 16.03 21.548 16.015 21.518 16.015C21.518 15.985 21.504 15.971 21.473 15.971H21.429C21.399 15.941 21.355 15.925 21.294 15.925C21.263 15.896 21.234 15.881 21.205 15.881C21.115 15.851 21.025 15.836 20.935 15.836H20.89V15.791C20.861 15.791 20.831 15.791 20.8 15.791C20.74 15.761 20.696 15.747 20.666 15.747C20.637 15.747 20.606 15.747 20.576 15.747C20.546 15.717 20.516 15.701 20.487 15.701V15.657H20.443C20.382 15.657 20.338 15.657 20.308 15.657C20.248 15.627 20.189 15.612 20.128 15.612C20.068 15.582 20.024 15.567 19.994 15.567C19.874 15.567 19.755 15.567 19.635 15.567V15.388C19.575 15.388 19.501 15.388 19.411 15.388V15.343C19.411 15.313 19.411 15.284 19.411 15.253C19.411 15.224 19.411 15.194 19.411 15.164C19.411 15.105 19.411 15.06 19.411 15.03C19.411 15 19.411 14.969 19.411 14.94C19.411 14.881 19.411 14.836 19.411 14.806C19.411 14.746 19.411 14.701 19.411 14.671C19.411 14.641 19.411 14.612 19.411 14.582V14.537C19.411 14.476 19.411 14.433 19.411 14.403C19.411 14.342 19.411 14.298 19.411 14.268C19.411 14.239 19.411 14.193 19.411 14.134C19.411 14.104 19.411 14.074 19.411 14.044C19.411 14.015 19.411 13.969 19.411 13.91C19.411 13.88 19.411 13.849 19.411 13.82C19.411 13.761 19.411 13.716 19.411 13.686C19.411 13.656 19.411 13.625 19.411 13.596V13.551C19.261 13.551 19.098 13.551 18.917 13.551V13.643C18.828 13.643 18.723 13.643 18.604 13.643C18.604 13.67 18.604 13.702 18.604 13.732C18.604 13.792 18.604 13.851 18.604 13.911C18.604 13.941 18.604 13.986 18.604 14.045C18.604 14.106 18.604 14.15 18.604 14.18C18.604 14.24 18.604 14.284 18.604 14.315C18.604 14.375 18.604 14.435 18.604 14.494C18.604 14.524 18.604 14.568 18.604 14.629C18.604 14.688 18.604 14.733 18.604 14.763C18.604 14.823 18.604 14.883 18.604 14.942C18.604 14.972 18.604 15.002 18.604 15.032C18.604 15.091 18.604 15.136 18.604 15.166L18.648 15.211V15.838C18.587 15.838 18.513 15.838 18.424 15.838V15.973C17.466 15.973 16.48 15.973 15.463 15.973V16.8701C15.434 16.8701 15.403 16.8701 15.374 16.8701V17.139C15.165 17.139 14.955 17.139 14.746 17.139V17.095H14.657V17.139C14.597 17.139 14.523 17.154 14.433 17.184C14.313 17.184 14.193 17.184 14.074 17.184C13.894 17.184 13.7 17.184 13.491 17.184V17.229L13.446 17.2731V17.678C13.417 17.678 13.386 17.678 13.358 17.678V17.946L13.313 17.9921V18.126C13.193 18.126 13.059 18.141 12.91 18.17C12.551 18.17 12.176 18.17 11.789 18.17V18.081C11.789 18.051 11.789 18.0211 11.789 17.9921V17.9021C11.789 17.8721 11.789 17.842 11.789 17.812V17.768C11.789 17.738 11.789 17.707 11.789 17.678H11.743C11.714 17.678 11.699 17.693 11.699 17.722C11.669 17.753 11.639 17.782 11.609 17.812L11.565 17.857C11.534 17.857 11.519 17.8721 11.519 17.9021C11.459 17.9021 11.4 17.9021 11.341 17.9021C11.309 17.9311 11.295 17.9621 11.295 17.9921C11.235 17.9921 11.206 18.006 11.206 18.036C11.146 18.067 11.102 18.081 11.071 18.081C11.042 18.111 11.027 18.141 11.027 18.17C10.997 18.17 10.982 18.186 10.982 18.216C10.923 18.216 10.862 18.216 10.803 18.216C10.773 18.245 10.743 18.275 10.714 18.305C10.684 18.305 10.67 18.32 10.67 18.35C10.639 18.379 10.609 18.394 10.58 18.394C10.58 18.424 10.58 18.454 10.58 18.484C10.52 18.484 10.491 18.499 10.491 18.529C10.43 18.529 10.386 18.544 10.356 18.573C10.326 18.603 10.296 18.618 10.267 18.618C10.267 18.648 10.267 18.678 10.267 18.708C10.206 18.708 10.162 18.724 10.132 18.753L10.088 18.7971C10.028 18.8271 9.99899 18.858 9.99899 18.887C9.96799 18.887 9.95299 18.902 9.95299 18.932C9.89399 18.962 9.86399 18.992 9.86399 19.021C9.80399 19.021 9.75899 19.021 9.72799 19.021C9.69899 19.051 9.68399 19.082 9.68399 19.111L9.63999 19.156C9.57999 19.186 9.53499 19.201 9.50499 19.201C9.47599 19.231 9.46099 19.2601 9.46099 19.2901L9.37199 19.335C9.34199 19.365 9.32699 19.396 9.32699 19.425C9.29599 19.425 9.28199 19.439 9.28199 19.469C9.22299 19.469 9.17799 19.484 9.14799 19.514V19.559C9.11699 19.589 9.08699 19.604 9.05799 19.604C9.02899 19.634 8.99899 19.6631 8.96899 19.6931V19.7381C8.93899 19.7681 8.90899 19.798 8.87999 19.828V19.873L8.74499 20.007C8.74499 20.038 8.74499 20.068 8.74499 20.097C8.32699 20.097 7.90799 20.097 7.48899 20.097C7.48899 20.067 7.48899 20.037 7.48899 20.007V19.1101C7.48899 19.0811 7.48899 19.0501 7.48899 19.0201V18.795C7.48899 18.766 7.48899 18.736 7.48899 18.706C7.48899 18.676 7.48899 18.646 7.48899 18.616V18.571C7.48899 18.512 7.48899 18.467 7.48899 18.438C7.45999 18.438 7.42899 18.438 7.39999 18.438L7.35499 18.482C7.29499 18.512 7.23599 18.5271 7.17599 18.5271C7.17599 18.5571 7.17599 18.586 7.17599 18.616V18.6621C7.11599 18.6911 7.05499 18.706 6.99599 18.706C6.96599 18.706 6.93599 18.722 6.90599 18.751C6.90599 18.781 6.89099 18.795 6.86199 18.795C6.83099 18.825 6.78699 18.84 6.72699 18.84C6.69799 18.87 6.66699 18.885 6.63799 18.885V18.975C6.57699 19.005 6.53299 19.019 6.50299 19.019C6.44299 19.019 6.41299 19.034 6.41299 19.064C6.41299 19.094 6.39799 19.109 6.36799 19.109C6.36799 19.139 6.35299 19.154 6.32399 19.154V19.2001C6.29399 19.2001 6.26399 19.2001 6.23399 19.2001C6.23399 19.2301 6.23399 19.259 6.23399 19.289C6.23399 19.319 6.21899 19.334 6.18999 19.334C6.12899 19.334 6.08599 19.349 6.05499 19.379L6.00999 19.424C5.97999 19.454 5.94999 19.4831 5.91999 19.5131L5.87599 19.5581V19.6031C5.84599 19.6031 5.81599 19.6031 5.78599 19.6031C5.75599 19.6331 5.74199 19.662 5.74199 19.692V19.737H5.68299C5.65399 19.767 5.62399 19.782 5.59399 19.782C5.59399 19.812 5.57999 19.827 5.54899 19.827C5.54899 19.857 5.53399 19.886 5.50499 19.916L5.41499 20.0061C5.38499 20.0371 5.36999 20.0671 5.36999 20.0961C5.30999 20.0961 5.28099 20.11 5.28099 20.14L5.23599 20.185C5.20699 20.215 5.17699 20.23 5.14599 20.23C5.14599 20.26 5.13199 20.29 5.10099 20.32L5.05699 20.364C5.02699 20.394 4.99599 20.4251 4.96699 20.4541V20.4991L4.87699 20.588C4.87699 20.618 4.86199 20.633 4.83299 20.633C4.80299 20.663 4.78799 20.693 4.78799 20.723C4.75899 20.723 4.74299 20.738 4.74299 20.768C4.71299 20.797 4.69799 20.827 4.69799 20.857C4.66799 20.857 4.63799 20.8721 4.60999 20.9021V20.9471C4.57899 20.9761 4.56499 21.006 4.56499 21.036C4.53499 21.036 4.50499 21.036 4.47499 21.036C4.47499 21.066 4.47499 21.096 4.47499 21.126C4.44499 21.126 4.41599 21.141 4.38599 21.17C4.38599 21.2 4.36999 21.231 4.34099 21.26C4.31199 21.26 4.29599 21.275 4.29599 21.305C4.29599 21.335 4.28199 21.35 4.25099 21.35C4.25099 21.381 4.25099 21.4111 4.25099 21.4401H4.20299C4.17299 21.4691 4.12899 21.484 4.06899 21.484V21.529C4.06899 21.559 4.05399 21.59 4.02399 21.619C4.02399 21.649 4.00899 21.6651 3.97999 21.6651C3.97999 21.6941 3.97999 21.724 3.97999 21.754V21.8C3.91999 21.8 3.87499 21.815 3.84699 21.845V21.89C3.81599 21.92 3.78599 21.95 3.75599 21.98V22.024C3.75599 22.056 3.74199 22.069 3.71199 22.069C3.71199 22.099 3.69699 22.129 3.66699 22.159V22.248C3.60799 22.248 3.57699 22.263 3.57699 22.293C3.57699 22.323 3.57699 22.353 3.57699 22.383C3.54799 22.383 3.53299 22.398 3.53299 22.428L3.48899 22.472C3.45899 22.503 3.44399 22.534 3.44399 22.562L3.39999 22.607V22.6521C3.36999 22.6831 3.35399 22.712 3.35399 22.741V22.831C3.35399 22.86 3.32499 22.876 3.26599 22.876C3.26599 22.906 3.26599 22.935 3.26599 22.965V23.01C3.26599 23.04 3.24999 23.07 3.22099 23.1V23.234C3.19099 23.234 3.16099 23.249 3.13099 23.279V23.368C3.13099 23.399 3.13099 23.429 3.13099 23.458V23.548C3.01199 23.548 2.90699 23.548 2.81799 23.548C2.48899 23.518 2.17399 23.503 1.87599 23.503C1.75599 23.503 1.63699 23.503 1.51699 23.503C1.45699 23.503 1.42699 23.488 1.42699 23.458C1.42699 23.428 1.42699 23.398 1.42699 23.368C1.39799 23.339 1.38299 23.308 1.38299 23.279C1.35199 23.279 1.33699 23.264 1.33699 23.234V23.189C1.33699 23.159 1.33699 23.13 1.33699 23.1V23.055C1.33699 23.025 1.33699 22.995 1.33699 22.965V22.83C1.30699 22.8 1.27699 22.785 1.24799 22.785C1.24799 22.755 1.24799 22.726 1.24799 22.695V22.651C1.24799 22.621 1.24799 22.5911 1.24799 22.5611V22.4711L1.20299 22.427V22.382C1.20299 22.352 1.20299 22.322 1.20299 22.292V22.247C1.20299 22.218 1.20299 22.1871 1.20299 22.1581V22.1131L1.11299 22.0681C1.11299 22.0381 1.11299 22.009 1.11299 21.979C1.11299 21.949 1.11299 21.919 1.11299 21.889V21.844C1.11299 21.814 1.11299 21.784 1.11299 21.755V21.71C1.11299 21.68 1.09899 21.666 1.06899 21.666C1.06899 21.636 1.05399 21.606 1.02499 21.576V21.442C1.02499 21.412 1.02499 21.382 1.02499 21.352C0.994992 21.352 0.964992 21.352 0.935992 21.352C0.935992 21.322 0.935992 21.292 0.935992 21.262V21.128C0.935992 21.098 0.935992 21.068 0.935992 21.038V20.9501C0.935992 20.9201 0.935992 20.889 0.935992 20.859V20.814C0.935992 20.784 0.920992 20.754 0.889992 20.725C0.889992 20.695 0.889992 20.665 0.889992 20.635V20.546C0.889992 20.516 0.889992 20.486 0.889992 20.456V20.411C0.889992 20.381 0.874992 20.3521 0.845992 20.3221C0.815992 20.3221 0.801992 20.3071 0.801992 20.2771V20.1411C0.801992 20.1111 0.801992 20.082 0.801992 20.052V20.007C0.801992 19.978 0.801992 19.947 0.801992 19.917L0.749992 19.873V19.828L0.705992 19.7831V19.7381C0.705992 19.7081 0.705992 19.679 0.705992 19.649V19.604C0.705992 19.573 0.705992 19.5431 0.705992 19.5131V19.424C0.705992 19.394 0.705992 19.364 0.705992 19.334C0.705992 19.305 0.705992 19.274 0.705992 19.244V19.2001C0.705992 19.1701 0.705992 19.1391 0.705992 19.1101V19.0201C0.705992 18.9911 0.705992 18.961 0.705992 18.931V18.886C0.705992 18.857 0.674992 18.841 0.615992 18.841V18.796C0.615992 18.767 0.615992 18.7371 0.615992 18.7071V18.6171C0.615992 18.5871 0.615992 18.558 0.615992 18.528V18.483C0.615992 18.453 0.615992 18.423 0.615992 18.393C0.615992 18.363 0.615992 18.3341 0.615992 18.3041C0.585992 18.3041 0.571992 18.2891 0.571992 18.2591V18.215C0.571992 18.185 0.571992 18.154 0.571992 18.125V18.08C0.571992 18.05 0.571992 18.02 0.571992 17.991V17.8111C0.571992 17.7811 0.571992 17.7521 0.571992 17.7211V17.677C0.571992 17.647 0.555992 17.616 0.526992 17.587V17.543L0.481992 17.497V17.453C0.481992 17.423 0.481992 17.3931 0.481992 17.3631V17.2731C0.481992 17.2441 0.481992 17.214 0.481992 17.184V17.095C0.481992 17.065 0.481992 17.034 0.481992 17.005C0.481992 16.975 0.466992 16.96 0.435992 16.96V16.9151L0.391992 16.871C0.391992 16.841 0.391992 16.81 0.391992 16.781V16.691C0.391992 16.661 0.391992 16.632 0.391992 16.601V16.467C0.391992 16.437 0.391992 16.408 0.391992 16.377V16.33C0.391992 16.3 0.391992 16.269 0.391992 16.24V16.15C0.391992 16.121 0.391992 16.091 0.391992 16.061H0.300992C0.300992 16.031 0.300992 16.001 0.300992 15.972V15.926C0.300992 15.897 0.300992 15.867 0.300992 15.837V15.748C0.300992 15.718 0.300992 15.687 0.300992 15.658V15.523C0.300992 15.493 0.300992 15.462 0.300992 15.433V15.343C0.271992 15.313 0.255992 15.284 0.255992 15.253V15.119C0.255992 15.089 0.255992 15.06 0.255992 15.03V14.94C0.255992 14.91 0.255992 14.881 0.255992 14.851V14.806C0.255992 14.776 0.255992 14.746 0.255992 14.716V14.537C0.255992 14.507 0.255992 14.476 0.255992 14.447V14.403C0.255992 14.373 0.255992 14.342 0.255992 14.313V14.133C0.255992 14.103 0.255992 14.073 0.255992 14.043V13.998C0.255992 13.939 0.255992 13.893 0.255992 13.865V13.819C0.255992 13.79 0.255992 13.76 0.255992 13.73C0.226992 13.7 0.210992 13.668 0.210992 13.641L0.166992 13.595C0.166992 13.566 0.166992 13.536 0.166992 13.506C0.166992 13.476 0.166992 13.446 0.166992 13.417C0.166992 13.355 0.166992 13.312 0.166992 13.282C0.166992 13.252 0.166992 13.222 0.166992 13.193C0.166992 13.131 0.166992 13.088 0.166992 13.058C0.166992 13.028 0.166992 12.983 0.166992 12.924C0.166992 12.894 0.166992 12.849 0.166992 12.789V12.7C0.166992 12.67 0.166992 12.64 0.166992 12.61C0.166992 12.55 0.166992 12.506 0.166992 12.476C0.166992 12.416 0.166992 12.371 0.166992 12.341C0.166992 12.31 0.166992 12.265 0.166992 12.206C0.166992 12.146 0.166992 12.102 0.166992 12.072C0.166992 12.01 0.166992 11.967 0.166992 11.937C0.166992 11.908 0.166992 11.876 0.166992 11.848C0.166992 11.817 0.166992 11.773 0.166992 11.713C0.166992 11.684 0.166992 11.637 0.166992 11.578C0.166992 11.548 0.166992 11.518 0.166992 11.488V11.399C0.166992 11.339 0.166992 11.294 0.166992 11.264C0.166992 11.203 0.166992 11.16 0.166992 11.13C0.166992 11.1 0.166992 11.055 0.166992 10.995C0.166992 10.965 0.166992 10.936 0.166992 10.906C0.166992 10.876 0.166992 10.831 0.166992 10.771C0.196992 10.771 0.210992 10.756 0.210992 10.727L0.255992 10.682C0.255992 10.652 0.255992 10.622 0.255992 10.592V10.547C0.255992 10.517 0.255992 10.488 0.255992 10.458C0.255992 10.428 0.255992 10.398 0.255992 10.368V10.279C0.255992 10.249 0.255992 10.219 0.255992 10.189V10.144C0.255992 10.115 0.255992 10.084 0.255992 10.055V9.87005C0.255992 9.84005 0.255992 9.81105 0.255992 9.78105V9.73605C0.255992 9.70605 0.271992 9.67705 0.300992 9.64605V9.51105C0.300992 9.48105 0.300992 9.45205 0.300992 9.42105V9.33205C0.300992 9.30205 0.300992 9.27205 0.300992 9.24205V9.15305C0.300992 9.12305 0.300992 9.09305 0.300992 9.06305V8.92905C0.330992 8.92905 0.360992 8.91405 0.389992 8.88405V8.83805C0.838992 8.83805 1.28699 8.85305 1.73599 8.88305V8.97205C1.76599 8.97205 1.79599 8.97205 1.82699 8.97205V9.01705L1.87099 9.06205V9.73505C8.03199 9.73505 14.205 9.73505 20.395 9.73505C20.426 9.73505 20.441 9.72005 20.441 9.69005L20.485 9.64505H20.53C20.559 9.64505 20.574 9.63005 20.574 9.60105V9.55605H20.664V9.51105L20.709 9.42105H20.754L20.798 9.33205H20.843L20.888 9.28705L20.978 9.24205V9.19705C21.008 9.19705 21.037 9.18305 21.068 9.15305L21.113 9.10805H21.158V9.06305C21.158 9.03305 21.172 9.01805 21.203 9.01805H21.247V8.97305L21.337 8.88405C21.367 8.88405 21.382 8.86905 21.382 8.83905C21.411 8.83905 21.427 8.82405 21.427 8.79405C21.456 8.79405 21.471 8.78005 21.471 8.74905L21.561 8.66005C21.591 8.66005 21.605 8.64505 21.605 8.61505H21.65C21.65 8.58505 21.665 8.57005 21.694 8.57005V8.52405L21.784 8.48005C21.784 8.45005 21.799 8.43505 21.828 8.43505H21.873L22.1 8.21005V8.16605H22.144L22.189 8.12205H22.234C22.234 8.09205 22.25 8.07605 22.278 8.07605V8.03105C22.308 8.00105 22.338 7.98605 22.369 7.98605C22.399 7.95605 22.428 7.94105 22.458 7.94105C22.488 7.94105 22.517 7.92605 22.547 7.89705L22.637 7.80705C22.697 7.80705 22.741 7.80705 22.771 7.80705V7.40205C22.8 7.40205 22.831 7.38805 22.861 7.35805V7.22505C23.07 7.22505 23.28 7.22505 23.489 7.22505V7.31405C25.672 7.31405 27.854 7.31405 30.037 7.31405V6.91005C30.037 6.88005 30.022 6.86505 29.993 6.86505V6.82005L29.95 6.77605V6.10305C29.86 6.10305 29.755 6.10305 29.635 6.10305V6.55205C29.606 6.55205 29.59 6.56605 29.59 6.59605C29.382 6.59605 29.172 6.59605 28.963 6.59605V6.41705L28.918 6.37205V6.10305C28.32 6.10305 27.723 6.10305 27.125 6.10305V6.50705H27.081V6.59605C26.871 6.59605 26.662 6.59605 26.453 6.59605V6.28205C26.423 6.28205 26.393 6.28205 26.364 6.28205V6.23705C26.364 6.14705 26.364 6.07305 26.364 6.01305C26.364 5.95305 26.364 5.89305 26.364 5.83405C26.364 5.74405 26.364 5.66805 26.364 5.60905C26.364 5.54905 26.364 5.47405 26.364 5.38505C26.364 5.32505 26.364 5.26605 26.364 5.20605C26.364 5.14605 26.364 5.07105 26.364 4.98205C26.364 4.92205 26.364 4.86305 26.364 4.80105C26.364 4.71205 26.364 4.63805 26.364 4.57705C26.364 4.51805 26.364 4.45805 26.364 4.39905C26.364 4.30905 26.364 4.23305 26.364 4.17405C26.364 4.11405 26.364 4.03905 26.364 3.95005C26.364 3.88905 26.364 3.82905 26.364 3.77105C26.364 3.71105 26.364 3.63605 26.364 3.54605C26.364 3.48605 26.364 3.42605 26.364 3.36605C26.364 3.30705 26.364 3.23205 26.364 3.14205C26.364 3.08305 26.364 3.02205 26.364 2.96205C26.364 2.87305 26.364 2.79805 26.364 2.73805C26.364 2.67805 26.364 2.61905 26.364 2.55905C26.364 2.49905 26.364 2.43905 26.364 2.38005C26.393 2.38005 26.423 2.38005 26.453 2.38005V2.20005L26.498 2.15505V2.11005H26.496ZM42.06 15.611L42.104 15.566H42.06V15.611ZM33.178 16.419C32.251 16.419 31.31 16.419 30.352 16.419V16.463L30.308 16.553H30.263V16.687C30.233 16.687 30.219 16.702 30.219 16.732V16.9121L30.175 16.9571V17.092H30.129V17.2701C30.129 17.3011 30.115 17.316 30.085 17.316V17.989H30.129V18.078L30.175 18.123V18.213H30.219V18.3911H30.263V18.975C31.13 18.975 31.983 18.975 32.82 18.975V18.705H32.865V18.661C32.895 18.661 32.909 18.645 32.909 18.615H32.953L33.043 18.526H33.088V18.4811L33.177 18.437C33.177 18.407 33.193 18.3911 33.223 18.3911L33.312 18.302H33.446L33.49 18.257C33.49 18.227 33.505 18.213 33.535 18.213L33.624 18.123C33.655 18.123 33.67 18.108 33.67 18.078C33.7 18.078 33.729 18.0631 33.76 18.0331V17.989C33.789 17.989 33.819 17.989 33.849 17.989V17.9431C33.879 17.9431 33.894 17.928 33.894 17.899H33.984C33.984 17.839 33.984 17.794 33.984 17.765C33.984 17.704 33.984 17.66 33.984 17.63C33.984 17.599 33.984 17.554 33.984 17.494C33.984 17.465 33.984 17.4351 33.984 17.4051C33.984 17.3751 33.984 17.3301 33.984 17.2701C33.984 17.2411 33.984 17.211 33.984 17.181C33.984 17.151 33.984 17.12 33.984 17.092L33.939 17.046C33.939 17.017 33.924 17.0021 33.895 17.0021C33.895 16.9721 33.88 16.9571 33.85 16.9571L33.761 16.9121C33.73 16.9121 33.701 16.897 33.671 16.868V16.8221C33.641 16.8221 33.625 16.807 33.625 16.778H33.581C33.552 16.748 33.521 16.733 33.491 16.733V16.644C33.462 16.644 33.432 16.629 33.401 16.598C33.371 16.598 33.357 16.583 33.357 16.554L33.313 16.509H33.268L33.224 16.464C33.224 16.433 33.208 16.419 33.178 16.419ZM28.469 17.092C28.439 17.092 28.425 17.077 28.425 17.046C28.395 17.046 28.381 17.0311 28.381 17.0021V16.9571C28.291 16.9571 28.186 16.9571 28.067 16.9571C28.067 17.0171 28.067 17.061 28.067 17.092C28.067 17.151 28.067 17.2111 28.067 17.2701C28.067 17.3011 28.067 17.3451 28.067 17.4051C28.067 17.4651 28.067 17.5101 28.067 17.5401C28.067 17.5991 28.067 17.644 28.067 17.674C28.067 17.734 28.067 17.7931 28.067 17.8531C28.067 17.8831 28.067 17.9271 28.067 17.9881C28.067 18.0471 28.067 18.092 28.067 18.122C28.067 18.182 28.067 18.241 28.067 18.302L28.111 18.347C28.142 18.347 28.157 18.3611 28.157 18.3911H28.2V18.4811H28.245V18.526L28.29 18.57V18.615H28.38V18.661L28.469 18.705H28.514V18.75C28.543 18.78 28.574 18.7941 28.604 18.7941H28.648V18.8391H28.692L28.781 18.8841V18.9741C28.991 18.9741 29.2 18.9741 29.409 18.9741V18.8841C29.38 18.8841 29.349 18.8841 29.32 18.8841V18.7941C29.291 18.7941 29.276 18.78 29.276 18.75V18.705H29.23V18.661C29.2 18.661 29.186 18.645 29.186 18.615H29.141V18.526L29.097 18.4811V18.3911C29.067 18.3911 29.037 18.376 29.007 18.347V18.213H28.962V18.078L28.917 18.0331V17.9431L28.828 17.854V17.809H28.782V17.765C28.782 17.735 28.768 17.719 28.738 17.719C28.738 17.69 28.722 17.675 28.693 17.675V17.585L28.649 17.541V17.4951H28.605V17.406L28.559 17.361V17.271H28.515V17.227C28.485 17.227 28.47 17.212 28.47 17.182V17.092H28.469Z" fill="white"/>
</g>
<path d="M92.1581 27.823C93.7391 26.3487 94.4941 25.4491 94.9941 24.4683C95.5281 23.4187 95.8751 22.0756 95.9691 20.7199C96.2691 16.2656 96.8431 12.8671 97.6171 10.9305C98.0111 9.9497 98.3581 9.4561 99.2061 8.6565C100.154 7.7694 101.001 7.2259 102.577 6.50744C104.372 5.68281 105.694 5.23301 109.051 4.29592C110.787 3.81488 111.928 3.44629 115.425 2.24058C117.321 1.58462 120.725 0.366406 121.673 0.00406609C121.82 -0.0521639 122 0.485096 122 0.978626C122 1.40345 121.973 1.5034 121.74 1.94071C121.299 2.77784 120.612 3.3276 118.863 4.25844C116.6 5.45791 115.052 6.07638 110.486 7.5695C108.003 8.3879 106.982 8.7564 105.213 9.4874C102.343 10.6744 101.402 11.1804 100.421 12.0612C99.7471 12.6672 99.3391 13.2232 98.9321 14.1166L98.6191 14.7913L98.5391 14.4602C98.4381 14.0916 98.4251 13.3919 98.4981 13.1732C98.5451 13.0483 98.5321 13.0296 98.4251 13.0483C98.3581 13.0608 98.2251 13.217 98.1181 13.4231C97.9441 13.7355 97.9181 13.8917 97.8381 14.835C97.7841 15.416 97.6981 16.1719 97.6371 16.5093C97.5771 16.8529 97.5041 17.6088 97.4711 18.1898C97.3041 20.9198 97.0571 22.188 96.3691 23.7748C95.9151 24.8431 95.3951 25.649 94.7741 26.2737C93.9001 27.1421 92.0041 28.5102 91.0161 28.985C90.9031 29.0412 91.3971 28.5415 92.1581 27.823Z" fill="white"/>
<path d="M102.31 28.6727C101.696 28.6477 100.848 28.5415 100.468 28.4353C99.967 28.2978 99.76 28.1729 99.486 27.823C99.339 27.6481 99.179 27.4607 99.113 27.4107C99.012 27.3357 99.039 27.292 99.386 26.9922C99.713 26.711 99.813 26.661 100.04 26.6548C100.281 26.6548 100.334 26.686 100.674 27.0421C101.522 27.9292 101.869 28.2104 102.43 28.4665C102.73 28.6039 102.93 28.7101 102.877 28.7039C102.824 28.6976 102.57 28.6852 102.31 28.6727Z" fill="white"/>
<path d="M92.738 28.5977C92.585 28.5602 92.591 28.5415 92.938 28.3416C93.559 27.9667 94.607 27.1546 95.275 26.5299C96.496 25.3741 97.277 23.9935 97.731 22.1568C97.804 21.8632 97.991 20.7137 98.138 19.5954C98.292 18.4772 98.445 17.3589 98.485 17.1028L98.559 16.6405L98.745 17.1215C98.846 17.3901 99.206 18.0711 99.546 18.6333C100.468 20.1827 100.681 20.8449 100.681 22.1693C100.674 23.6999 100.254 24.7306 99.099 26.0051C98.565 26.5923 98.258 26.8547 97.671 27.2233C96.423 28.0042 94.827 28.5227 93.366 28.6164C93.112 28.6289 92.825 28.6227 92.738 28.5977Z" fill="white"/>
<path d="M103.711 28.2791C102.737 27.9542 102.21 27.6606 101.549 27.0608C100.881 26.4611 100.594 26.2799 100.314 26.2799C100.154 26.2799 100.16 26.2612 100.521 25.7989C100.721 25.5303 100.941 25.2179 101.001 25.0992L101.108 24.8931L101.502 24.9368C102.049 24.993 102.203 25.0805 102.904 25.7427C103.371 26.1862 103.625 26.3674 104.012 26.5486C104.733 26.8859 105.44 27.0421 106.288 27.0484C107.082 27.0608 107.069 27.0484 106.742 27.5044C106.375 28.0042 105.634 28.3165 104.646 28.3728C104.212 28.404 104.038 28.3853 103.711 28.2791Z" fill="white"/>
<path d="M105.514 25.9988C104.653 25.8239 104.058 25.5366 103.398 24.993C102.79 24.4933 102.39 24.3308 101.816 24.3558L101.362 24.3746L101.442 24.1871C101.515 24.031 101.596 23.7124 101.776 22.8627C101.809 22.7128 102.109 22.5941 102.437 22.5941C102.804 22.5941 103.344 22.9564 104.312 23.856C104.826 24.3308 105.387 24.8119 105.56 24.9306C106.321 25.4366 107.256 25.6802 108.297 25.6428L108.951 25.624L108.597 25.7677C108.41 25.8489 108.07 25.9551 107.85 25.9988C107.349 26.1113 106.054 26.1113 105.514 25.9988Z" fill="white"/>
<path d="M107.349 24.437C106.682 24.2996 106.048 23.9622 105.28 23.3375C103.792 22.1381 102.877 21.7695 102.13 22.0818L101.829 22.2068L101.789 21.4758C101.762 21.076 101.729 20.6762 101.702 20.5887C101.662 20.4326 101.682 20.4201 102.103 20.3139C103.057 20.0702 104.065 20.4013 106.181 21.657C107.316 22.3255 109.125 23.1876 109.946 23.45C110.299 23.5562 110.653 23.6124 111.16 23.6374C111.881 23.6749 111.881 23.6749 111.721 23.7936C111.454 23.9872 110.747 24.2746 110.253 24.3746C109.578 24.5183 107.903 24.5557 107.349 24.437Z" fill="white"/>
<path d="M110.913 22.5317C110.186 22.3943 109.044 21.9382 106.915 20.9324C105.3 20.164 104.766 19.9641 103.945 19.8204C102.997 19.6517 102.477 19.708 101.903 20.0516L101.622 20.214L101.415 19.6705C101.302 19.3706 101.088 18.9458 100.948 18.7209C100.801 18.496 100.694 18.3086 100.701 18.2961C100.714 18.2898 101.015 18.2086 101.375 18.1274C103.177 17.6963 104.539 18.0587 107.783 19.8454C109.885 21.0011 111.154 21.4634 112.789 21.6634C113.376 21.7321 114.845 21.7133 115.125 21.6259C115.405 21.5384 114.851 21.9195 114.391 22.1319C113.236 22.6504 112.182 22.7691 110.913 22.5317Z" fill="white"/>
<path d="M112.789 20.4638C112.222 20.3888 111.14 20.1202 110.626 19.9265C110.386 19.839 109.385 19.3892 108.404 18.9394C105.567 17.615 104.799 17.3839 103.311 17.3776C102.263 17.3776 101.976 17.4401 101.048 17.8399L100.501 18.0773L100.274 17.765L100.047 17.4526L100.341 17.2027C100.968 16.6842 101.876 16.3968 103.264 16.2719C104.279 16.1782 104.733 16.2219 107.783 16.6904C113.143 17.5088 113.83 17.5963 115.125 17.5963C116.547 17.5963 117.581 17.4151 118.536 17.0028C118.81 16.8903 119.03 16.8029 119.03 16.8154C119.03 16.9278 118.569 17.9024 118.349 18.2522C117.495 19.6079 116.734 20.1639 115.345 20.4325C114.785 20.5387 113.476 20.5575 112.789 20.4638Z" fill="white"/>
<path d="M99.773 17.0965C99.72 17.0403 99.673 16.9653 99.673 16.9278C99.673 16.7904 100.835 15.8408 101.522 15.4035C103.144 14.3915 105.02 13.723 107.115 13.4106C108.397 13.2232 109.498 13.1545 113.837 13.0046C117.681 12.8671 118.723 12.7109 119.984 12.08C120.431 11.8613 120.431 11.8613 120.598 12.3736C120.712 12.7297 120.725 13.4356 120.625 13.8479C120.512 14.3102 120.104 15.0099 119.737 15.366C119.13 15.9595 117.922 16.4593 116.76 16.5905C115.445 16.7467 114.438 16.6842 111.02 16.2219C106.101 15.5597 104.639 15.4472 103.351 15.6222C101.903 15.8221 100.875 16.2281 100.247 16.8466C99.907 17.1777 99.873 17.1965 99.773 17.0965Z" fill="white"/>
<path d="M99.373 16.5093C99.259 16.3156 99.259 16.2719 99.339 16.1157C99.473 15.8658 101.335 14.1416 102.009 13.6356C103.464 12.5548 104.98 11.9425 107.863 11.2866C109.578 10.893 110.399 10.7493 112.642 10.437C116.533 9.90589 119.25 9.31249 120.498 8.72519C120.999 8.48779 121.052 8.51279 121.086 9.05629C121.119 9.51859 120.925 10.0559 120.618 10.387C120.278 10.7493 119.317 11.1242 118.162 11.3428C117.214 11.5302 116.62 11.5865 114.024 11.7239C108.824 12.005 107.095 12.2362 105.08 12.9046C102.964 13.6168 100.835 15.0162 99.78 16.3968C99.64 16.5718 99.52 16.7217 99.513 16.7217C99.5 16.7217 99.44 16.6217 99.373 16.5093Z" fill="white"/>
<path d="M98.952 15.6721C98.872 15.4722 98.806 15.2598 98.806 15.1973C98.806 15.1349 98.926 14.86 99.066 14.5914C99.893 13.0545 100.808 12.2174 102.55 11.4303C104.005 10.768 107.136 9.6873 110.373 8.7252C115.566 7.1884 117.154 6.59489 119.644 5.27048L120.291 4.92688L120.678 5.1018C121.346 5.40792 121.633 5.72653 121.633 6.15134C121.633 6.63238 121.339 7.0697 120.732 7.507C120.004 8.0255 119.17 8.3066 116.714 8.8814C115.118 9.25 114.378 9.3937 111.821 9.8185C110.213 10.0809 109.331 10.2745 107.549 10.7556C104.112 11.6801 102.777 12.3736 100.741 14.2915C100.281 14.7226 99.74 15.2911 99.54 15.5534C99.339 15.8158 99.159 16.0282 99.139 16.0282C99.119 16.0345 99.039 15.872 98.952 15.6721Z" fill="white"/>
<defs>
<clipPath id="clip0">
<rect width="89.667" height="32" fill="white"/>
</clipPath>
</defs>
</svg>
