<svg width="138" height="32" viewBox="0 0 138 32" fill="none" xmlns="http://www.w3.org/2000/svg">
<path d="M37.5 4.2C37.5 4.2 37.5 4.1 37.5 4.2C37.6 4.1 37.6 4.1 37.6 4.1V4C37.6 4 37.6 4 37.7 4C37.8 4 37.8 4 37.8 4C38.4 4 39.1 4 39.7 4H39.8C39.9 4 40 4 40.1 4H40.2C40.2 4 40.2 4.1 40.3 4.1C40.3 4.1 40.3 4.1 40.3 4.2C40.3 4.3 40.3 4.3 40.3 4.3C40.3 4.3 40.3 4.3 40.3 4.4V4.5V4.6C40.3 4.6 40.3 4.6 40.3 4.7C40.3 4.8 40.3 4.8 40.3 4.8V4.9V5V5.1V5.2C40.3 5.2 40.3 5.2 40.3 5.3V5.4V5.5C40.3 5.5 40.3 5.5 40.3 5.6C40.3 5.7 40.3 5.7 40.3 5.7V5.8V5.9C40.3 5.9 40.3 5.9 40.3 6C40.3 6 40.3 6 40.3 6.1C40.3 6.2 40.3 6.1 40.3 6.2V6.3C40.3 6.4 40.3 6.4 40.3 6.4V6.5C40.3 6.5 40.3 6.5 40.3 6.6C40.3 6.7 40.3 6.7 40.3 6.7V6.8V6.9V7V7.1C40.3 7.1 40.3 7.1 40.3 7.2C42.8 7.2 45.4 7.2 48 7.2C48 7.2 48 7.2 48.1 7.2C48.2 7.2 48.3 7.2 48.4 7.1C48.4 7.1 48.5 7.1 48.6 7.1C48.7 7.1 48.8 7 48.8 7C48.9 7 48.9 7 49 6.9C49.1 6.9 49.2 6.8 49.3 6.8C49.3 6.8 49.4 6.8 49.5 6.7C49.5 6.7 49.6 6.6 49.7 6.6C49.8 6.6 49.8 6.5 49.9 6.5C50 6.5 50.1 6.5 50.1 6.5V6.4L50.2 6.3H50.3C50.3 6.3 50.3 6.2 50.4 6.2C50.5 6.2 50.5 6.2 50.5 6.2C50.5 6.2 50.6 6.2 50.7 6.2L50.8 6.1C50.8 6.1 50.8 6.1 50.9 6.1C50.9 6.1 50.9 6.1 51 6.1V6C51 6 51 6 51.1 5.9L51.2 5.8H51.3C51.9 5.8 52.4 5.8 52.9 5.8C53.1 5.8 53.3 5.8 53.5 5.8C53.6 5.8 53.7 5.8 53.8 5.8C54 5.8 54.2 5.8 54.3 5.8C54.9 5.8 55.5 5.8 56.2 5.8C56.2 5.8 56.2 5.8 56.3 5.8H56.4V5.9L56.5 6C56.5 6 56.5 6 56.6 6.1C56.6 6.1 56.6 6.1 56.6 6.2C56.6 6.3 56.6 6.2 56.6 6.3V6.4V6.5C56.6 6.5 56.6 6.5 56.5 6.5C56.5 6.6 56.5 6.6 56.5 6.6C56.5 6.6 56.5 6.6 56.5 6.7C56.5 6.8 56.5 6.7 56.5 6.8V6.9V7V7.1C56.5 7.1 56.5 7.1 56.5 7.2V7.3V7.4V7.5V7.6C56.5 7.7 56.5 7.7 56.5 7.7V7.8V7.9V8V8.1V8.2V8.3C56.5 8.4 56.5 8.4 56.5 8.4C56.5 8.4 56.5 8.4 56.5 8.5V8.6V8.7V8.8V8.9V9C56.5 9 56.5 9 56.5 9.1V9.2V9.3V9.4V9.5C56.5 9.6 56.5 9.6 56.5 9.6V9.7V9.8V9.9V10V10.1V10.2V10.3V10.4V10.5C56.5 10.6 56.5 10.6 56.5 10.6C56.5 10.7 56.5 10.7 56.5 10.7V10.8V10.9C68.9 10.9 81.3 10.9 93.6 10.9C95.4 10.9 97.1 10.9 98.9 10.9C99 10.9 99 10.9 99.1 11C99.2 11 99.2 11 99.2 11.1L99.3 11.2L99.4 11.3V11.4C99.4 11.5 99.4 11.5 99.4 11.5C99.4 11.6 99.4 11.6 99.4 11.6C99.4 11.7 99.4 11.7 99.4 11.7V11.8V11.9L99.3 12V12.1V12.2V12.3V12.4V12.5C99.3 12.6 99.3 12.6 99.3 12.6V12.7V12.8C99.3 12.8 99.3 12.8 99.3 12.9V13V13.1V13.2L99.2 13.3C99.1 13.3 99 13.4 99 13.4C98.9 13.4 98.8 13.4 98.7 13.4C98.6 13.4 98.6 13.4 98.5 13.4C98.4 13.4 98.3 13.3 98.2 13.3C90.2 13.3 82.2 13.3 74.2 13.2V13.3V13.4V13.5V13.6C74.2 13.6 74.2 13.6 74.2 13.7C74.2 13.8 74.2 13.8 74.2 13.8V13.9V14V14.1V14.2V14.3V14.4V14.5V14.6V14.7V14.8V14.9V15C74.2 15 74.2 15 74.2 15.1V15.2V15.5C74.2 15.6 74.2 15.6 74.2 15.6V15.7V15.8V15.9V16V16V16.1V16.2C74.2 16.2 74.2 16.2 74.2 16.3V17C74.2 17 74.2 17 74.1 17V17.1V17.2C74.1 17.2 74.1 17.2 74.1 17.3V17.4V17.5V17.6V17.7V17.8C74.1 17.8 74.1 17.8 74.1 17.9C74.1 18 74.1 18 74.1 18V18.1V18.2V18.3L74 18.4C74 18.5 74 18.5 74 18.5C74 18.5 74 18.5 73.9 18.6V18.7V18.8C73.9 18.8 73.9 18.8 73.9 18.9C73.9 18.9 73.9 18.9 73.9 19C73.9 19.1 73.9 19.2 73.9 19.3C73.9 19.4 73.9 19.5 73.9 19.6C73.9 19.7 73.9 19.8 73.9 19.9C73.9 20 73.9 20 73.9 20.1C73.9 20.2 73.9 20.3 73.9 20.4C73.9 20.5 73.9 20.6 73.9 20.7C73.9 20.8 73.9 20.9 73.9 21C73.9 21.1 73.9 21.2 73.9 21.2C73.9 21.3 73.9 21.4 73.9 21.5C73.9 21.6 73.9 21.7 73.9 21.8C73.9 21.9 73.9 22 73.9 22.1C73.9 22.2 73.9 22.3 73.9 22.3C74 22.3 74 22.3 74 22.3L74.1 22.4V22.5C74.1 22.5 74.1 22.5 74.1 22.6C74.1 22.6 74.1 22.7 74.2 22.7V22.8V22.9C74.2 22.9 74.2 23 74.1 23C74.1 23 74.1 23 74.1 23.1V23.2C74.1 23.2 74.1 23.2 74.1 23.3C74.1 23.4 74.1 23.3 74.1 23.4C74.1 23.5 74.1 23.4 74.1 23.5C74.1 23.6 74.1 23.5 74.1 23.6C74.1 23.6 74.1 23.6 74.1 23.7C74.1 23.7 74.2 23.7 74.2 23.8H74.3C74.3 23.8 74.3 23.8 74.3 23.9C74.3 23.9 74.3 23.9 74.3 24C74.3 24 74.3 24 74.3 24.1V24.2C74.3 24.2 74.3 24.2 74.3 24.3C74.3 24.3 74.3 24.3 74.3 24.4V24.5C74.3 24.5 74.3 24.5 74.3 24.6V24.7C74.3 24.7 74.3 24.7 74.3 24.8L74.4 24.9C74.4 24.9 74.4 24.9 74.4 25C74.4 25.1 74.4 25 74.4 25.1C74.4 25.1 74.4 25.1 74.4 25.2V25.3V25.4C74.4 25.4 74.4 25.4 74.4 25.5V25.6C74.4 25.6 74.4 25.6 74.4 25.7V25.8C74.4 25.8 74.4 25.8 74.4 25.9C74.4 25.9 74.4 25.9 74.4 26C74.4 26 74.4 26 74.4 26.1C74.4 26.1 74.4 26.1 74.4 26.2C74.4 26.2 74.4 26.2 74.4 26.3V26.4C74.4 26.4 74.4 26.4 74.4 26.5V26.6C74.4 26.6 74.4 26.6 74.4 26.7C74.4 26.7 74.4 26.7 74.4 26.8C74.4 26.8 74.4 26.8 74.4 26.9V27C74.5 27 74.5 27 74.5 27.1C74.5 27.1 74.5 27.1 74.6 27.1C74.6 27.1 74.6 27.1 74.6 27.2L74.7 27.3V27.4C74.7 27.4 74.8 27.4 74.8 27.5H74.9C74.9 27.5 74.9 27.5 75 27.6C75 27.6 75 27.6 75 27.7C75 27.7 75.1 27.7 75.1 27.8C75.1 27.8 75.1 27.8 75.1 27.9C75.1 28 75.1 27.9 75.1 28C75.1 28 75.1 28 75.1 28.1C75.1 28.2 75.1 28.1 75.1 28.2C75.1 28.2 75.1 28.2 75.1 28.3C75.1 28.4 75.1 28.3 75.1 28.4C75.1 28.4 75.1 28.4 75.1 28.5H75.2V28.6C75.2 28.6 75.2 28.6 75.2 28.7V28.8L75.1 28.9C75.1 28.9 75.1 28.9 75.1 29C75.1 29 75.1 29 75.1 29.1C75.1 29.2 75.1 29.1 75.1 29.2C75.1 29.2 75.1 29.2 75 29.3C75 29.3 75 29.3 75 29.4C75 29.4 75 29.5 74.9 29.5C74.9 29.5 74.9 29.5 74.9 29.6H74.8C74.8 29.6 74.8 29.6 74.8 29.7V29.8C74.8 29.8 74.8 29.8 74.8 29.9C74.8 29.9 74.8 29.9 74.8 30C74.8 30 74.8 30 74.7 30C74.6 30 74.6 30 74.6 30C74.6 30 74.6 30 74.5 30C74.4 30 74.4 30 74.4 30C73.8 30 73.2 30 72.6 30C72.5 30 72.5 30 72.5 30C72.5 30 72.4 30 72.4 29.9C72.4 29.9 72.4 29.9 72.4 29.8V29.7C72.4 29.7 72.4 29.7 72.4 29.6C72.4 29.6 72.4 29.6 72.4 29.5V29.4C72.4 29.4 72.4 29.4 72.4 29.3C72.4 29.3 72.4 29.3 72.4 29.2V29.1C72.4 29.1 72.4 29.1 72.4 29C72.4 29 72.4 29 72.4 28.9C72.4 28.8 72.4 28.8 72.4 28.8V28.7C72.4 28.7 72.4 28.7 72.4 28.6C72.4 28.5 72.4 28.6 72.4 28.5C72.4 28.4 72.4 28.5 72.4 28.4C72.4 28.4 72.4 28.4 72.4 28.3C72.4 28.3 72.4 28.3 72.4 28.2C72.4 28.2 72.4 28.2 72.4 28.1C72.4 28.1 72.4 28.1 72.4 28V27.9C72.4 27.9 72.4 27.9 72.4 27.8V27.7L72.5 27.6C72.5 27.6 72.5 27.6 72.5 27.5C72.5 27.5 72.5 27.5 72.5 27.4C72.5 27.4 72.5 27.4 72.5 27.3H72.6H72.7H72.8V27.2C72.8 27.2 72.8 27.2 72.8 27.1C72.8 27.1 72.8 27.1 72.8 27V26.9V26.8C72.8 26.8 72.8 26.8 72.8 26.7C72.8 26.7 72.8 26.7 72.7 26.6C72.7 26.6 72.7 26.6 72.7 26.5C72.7 26.5 72.7 26.5 72.7 26.4C72.7 26.4 72.7 26.4 72.6 26.4C72.6 26.4 72.6 26.4 72.6 26.3C72.6 26.3 72.6 26.3 72.6 26.2C72.6 26.1 72.6 26.1 72.6 26.1C72.6 26.1 72.6 26.1 72.6 26C72.6 26 72.6 25.9 72.5 25.9C72.5 25.9 72.5 25.9 72.5 25.8C72.5 25.8 72.5 25.8 72.5 25.7V25.6C72.5 25.6 72.5 25.6 72.5 25.5C72.5 25.5 72.5 25.5 72.5 25.4V25.3C72.5 25.3 72.5 25.3 72.5 25.2C72.5 25.2 72.5 25.2 72.5 25.1C72.5 25 72.5 25 72.5 25C72.5 25 72.5 25 72.5 24.9C72.5 24.9 72.5 24.9 72.5 24.8C72.5 24.8 72.5 24.8 72.5 24.7C72.5 24.7 72.5 24.7 72.5 24.6H72.4V24.5C72.4 24.5 72.4 24.5 72.4 24.4C72.4 24.4 72.4 24.4 72.4 24.3C71.8 24.3 71.2 24.3 70.6 24.3C70.6 24.3 70.5 24.3 70.4 24.4C70.3 24.4 70.2 24.4 70.1 24.4H70H69.9C69.8 24.4 69.8 24.4 69.7 24.3C69.7 24.2 69.7 24.2 69.6 24.2V24.1C69.6 24 69.6 24 69.6 24V23.9V23.8V23.7V23.6V23.5V23.4V23.3C69.6 23.3 69.6 23.3 69.6 23.2V23.1V23C69.6 22.9 69.6 22.9 69.6 22.9V22.8V22.7C69.6 22.7 69.7 22.7 69.7 22.6C69.7 22.6 69.7 22.6 69.7 22.5L69.8 22.4C69.9 22.4 69.9 22.4 69.9 22.3C70.1 22.3 70.3 22.3 70.5 22.3V22.2V22.1V22V21.9V21.8V21.7C70.3 21.7 70.1 21.7 69.9 21.7H69.8C69.7 21.7 69.7 21.6 69.7 21.6C69.7 21.6 69.7 21.5 69.6 21.5V21V20.9V20.8V20.7V20.6V20.5V20.4C69.6 20.4 69.7 20.4 69.7 20.3C69.7 20.3 69.7 20.2 69.6 20.2V20.1C69.6 20.1 69.6 20.1 69.6 20V19.9L69.7 19.8C69.7 19.7 69.7 19.7 69.7 19.7C69.8 19.7 69.8 19.7 69.9 19.7C70 19.7 70.1 19.7 70.2 19.7C70.3 19.7 70.4 19.7 70.5 19.7V19.6V19.5C70.5 19.5 70.5 19.5 70.5 19.4V19.3V19.2V19V18.9C70.5 18.8 70.5 18.8 70.5 18.8V18.7V18.6V18.5V18.4V18.3V18.2C70.5 18.1 70.5 18.1 70.5 18.1C70.5 18.1 70.5 18.1 70.5 18V17.9V17.8V17.7V17.6V17.5C70.5 17.5 70.5 17.5 70.5 17.4C70.5 17.3 70.5 17.4 70.5 17.3H70.4C70.3 17.3 70.2 17.3 70.1 17.2L70 17.1C69.9 17.1 69.9 17 69.9 17L69.8 16.9V16.8V16.7V16.6C69.8 16.6 69.8 16.6 69.8 16.5C69.8 16.5 69.8 16.5 69.8 16.4C69.8 16.4 69.8 16.4 69.8 16.3V16.2C69.8 16.2 69.8 16.2 69.8 16.1C69.8 16.1 69.8 16.1 69.8 16C69.8 16 69.8 16 69.8 15.9V15.7L69.7 15.6V15.5C61.9 15.5 54.1 15.5 46.3 15.5H46.2V15.6C46.2 15.6 46.2 15.7 46.1 15.7L46 15.8L45.9 15.9C45.9 15.9 45.9 16 45.8 16C45.8 16 45.8 16.1 45.7 16.1C45.7 16.1 45.7 16.2 45.6 16.2C45.6 16.3 45.6 16.3 45.5 16.3C45.5 16.3 45.5 16.4 45.4 16.4L45.3 16.5L45.2 16.6V16.7V16.8C45.2 16.8 45.2 16.8 45.1 16.9L45 17L44.9 17.1C44.9 17.1 44.9 17.1 44.8 17.2L44.7 17.3C44.7 17.3 44.7 17.4 44.6 17.4V17.5C44.6 17.6 44.5 17.6 44.5 17.7C44.5 17.7 44.5 17.8 44.4 17.8C44.4 17.8 44.4 17.9 44.3 17.9V18L44.2 18.1V18.2C44.2 18.2 44.2 18.2 44.1 18.3V18.4C44.1 18.5 44 18.5 44 18.5C43.9 18.5 43.9 18.6 43.9 18.6C43.9 18.6 43.9 18.7 43.8 18.7V18.8C43.8 18.8 43.8 18.8 43.7 18.9V19L43.6 19.1V19.2L43.5 19.3L43.4 19.4C43.4 19.4 43.4 19.5 43.3 19.5V19.6C43.3 19.6 43.3 19.7 43.2 19.7C43.2 19.7 43.2 19.8 43.1 19.8C43.1 19.8 43.1 19.8 43 19.9C43 19.9 43 19.9 43 20C42.5 20 41.9 20 41.4 20C37.1 20 32.9 20 28.7 20C28.6 20 28.5 20 28.4 19.9V20V20.1V20.2H28.3V20.3V20.4V20.5V20.6V20.7V20.8L27.8 21.8L28.1 24.2C28.1 24.3 28.1 24.4 28 24.5C27.9 24.6 27.9 24.6 27.8 24.6C27.7 24.6 27.7 24.6 27.6 24.6C27.6 24.6 27.6 24.6 27.5 24.7C27.5 24.8 27.4 24.8 27.3 24.8L25.6 25.1C25.5 25.1 25.5 25.1 25.4 25.1L22.9 24.1C22.8 24.1 22.8 24 22.7 23.9C22.7 23.9 22.7 23.9 22.6 23.8C22.5 23.7 22.5 23.6 22.5 23.5L22.6 22.8C22.6 22.7 22.6 22.6 22.7 22.6C22.8 22.6 22.8 22.6 22.8 22.5V21.7V21.2V21.1C22.8 21.1 22.8 21.1 22.9 21.1V21L23 20.9V20.8V20.8V20.7V20.6C23 20.6 23 20.6 23.1 20.6V21H23.2L23.3 20.9V20.8H23.4V20.7L23.5 20.6V20.5V20.4V20.3V20.2C23.5 20.2 23.5 20.2 23.6 20.2V20.1V19.8L23.5 19.7V19.6V19.5V19.4L23.4 19.3V18.9H23.3C22.8 18.9 22.4 18.9 21.9 18.9C21.8 18.9 21.7 18.9 21.6 18.9C21.5 18.9 21.5 18.9 21.4 18.9V18.7V18.4V18.5V18.6V18.7V18.8C21.2 18.8 21 18.8 20.8 18.8C20.8 18.8 20.8 18.8 20.7 18.8V18.9C20.7 18.9 20.7 19 20.6 19C20.6 19 20.6 19 20.5 19V18V18.1V18.2C20.5 18.2 20.5 18.2 20.4 18.2C20.4 18.3 20.4 18.4 20.4 18.5L20 19.1C19.9 19.2 19.9 19.2 19.8 19.2C19.7 19.2 19.6 19.2 19.5 19.2C20 19.2 20 19.1 20 19.1L18.8 19.2C18.7 19.2 18.7 19.2 18.6 19.1C18.5 19.1 18.4 19.2 18.3 19.2C18.3 19.2 18.2 19.2 18.2 19.3C18.2 19.3 18.2 19.3 18.1 19.3V19.4C18.1 19.5 18 19.6 17.9 19.6L8.6 23.5C8.5 23.6 8.4 23.6 8.3 23.5C8.2 23.5 8.2 23.5 8.2 23.4C8.1 23.4 8 23.4 7.9 23.4C7.8 23.4 7.7 23.4 7.6 23.4V23.5V23.6V23.7V23.8V23.9V24V24.1V24.2C7.6 24.3 7.6 24.3 7.6 24.3V24.4V24.5V24.6V24.7C7.7 24.7 7.7 24.7 7.8 24.8C7.9 24.9 7.9 24.9 7.9 25V25.4C7.9 25.5 7.9 25.6 7.8 25.7C7.7 25.7 7.7 25.8 7.6 25.8C7.5 25.9 7.4 25.9 7.3 25.9H5.4C5.3 25.9 5.3 25.9 5.2 25.8H5.1H5C4.9 25.8 4.9 25.8 4.9 25.8C4.8 25.8 4.7 25.8 4.7 25.7L4.6 25.6C4.6 25.6 4.6 25.6 4.6 25.5V25.4V25.3C4.6 25.3 4.6 25.3 4.6 25.2C3.5 25.2 2.3 25.2 1.2 25.3C1.1 25.3 1.1 25.3 1 25.4C0.9 25.4 0.8 25.4 0.7 25.4C0.6 25.4 0.5 25.3 0.4 25.3L0.3 25.2C0.3 25.2 0.3 25.1 0.2 25.1C0.2 25.1 0.2 25.1 0.2 25C0.2 25 0.2 24.9 0.1 24.9C0.1 24.9 0.1 24.9 0 24.8V24.7V24.6C0 24.6 0 24.6 0 24.5V24.4V24.3V24.2V24.1V24C0 24 0 24 0 23.9V23.8V23.7V23.6C0 23.6 0 23.6 0 23.5V23.4V23.3V23.2V23.1V23C0 23 0 23 0 22.9V22.8V22.7V23V22.9V22.8V22.7V22.6V22.5V22.4V22.3V22.2V22.1C0 22.1 0 22.1 0 22V21.9V21.8C0 21.7 0 21.7 0 21.7V21.6V21.5C0 21.5 0 21.5 0 21.4V21.3V21.2V21.1C0 21.1 0 21.1 0 21V20.9V20.8V20.7V20.6V20.5V20.4V20.3C0 20.2 0 20.2 0 20.2C0 20 0 20 0 20C0 20 0 20 0 19.9V19.8V19.7V19.6V19.5V19.4C0 19.4 0 19.4 0 19.3V19.2V19.1V19V18.9C0 18.8 0 18.8 0 18.8V18.7V18.6V18.5V18.4V18.3V18.2C0 18 0 18 0 18C0 18 0 18 0 17.9V17.8V17.7V17.6V17.5V17.4C0 17.4 0 17.4 0 17.3C0 17.2 0 17.2 0 17.2V17.1V17C0 17 0 17 0 16.9V16.8V16.7V16.6V16.5V16.4V16.3V16.2V16V15.9V15.8V15.7C0 15.6 0 15.6 0 15.6V15.5V15.4V15.3V15.2V15.1C0 15 0 15 0 15V14.9C0 14.8 0 14.8 0 14.8V14.7C0 14.6 0 14.6 0 14.6V14.5V14.4V14.3V14.2C0 14.1 0 14.1 0 14.1C0 14.1 0 14 0.1 14L0.2 13.9C0.3 13.9 0.4 13.9 0.5 13.9C0.6 13.9 0.6 13.9 0.7 14H0.8H0.9C2.1 14 3.2 14 4.4 14H4.5C4.5 14 4.5 13.9 4.6 13.9C4.7 13.9 4.8 13.9 4.9 13.9C5 13.9 5 13.9 5.1 14C5.7 14 6.3 14.1 6.9 14.1V14C6.9 14 6.8 14 6.8 13.9L6.7 13.8L6.6 13.7L6.5 13.6V13.5V13.4V13.3V13.2C6.5 13.1 6.5 13.1 6.5 13.1C6.5 13 6.5 13 6.5 13C6.5 13 6.5 12.9 6.6 12.9C6.7 12.9 6.7 12.8 6.7 12.8V12.7V12.6V12.5C6.7 12.4 6.7 12.4 6.7 12.4V12.3V12.2C6.7 12.1 6.8 12.1 6.8 12.1C6.8 12 6.9 12 6.9 12C6.9 11.9 6.9 11.9 7 11.9L7.1 11.8H7.2H7.3C11.1 11.8 14.9 11.8 18.7 11.8C18.8 11.8 18.8 11.9 18.9 11.9C18.9 12 19 12 19 12V12.1C19 12.1 19 12.2 19.1 12.2V12.3C19.1 12.3 19.1 12.4 19.2 12.4V12.5V12.6C19.2 12.7 19.2 12.7 19.1 12.7C19.1 12.7 19.1 12.7 19.1 12.8C19.1 12.9 19.1 12.9 19.1 12.9C19.1 13 19.1 13 19.1 13C19.1 13.1 19.1 13.1 19.1 13.1V13.2C19.1 13.2 19.1 13.2 19.1 13.3C19.1 13.4 19.1 13.3 19.1 13.4V13.5C19.1 13.6 19.1 13.6 19.1 13.6C19.1 13.6 19.1 13.6 19.1 13.7V13.8V13.9V14C19.1 14.1 19.1 14.1 19.1 14.1V14.2L19 14.3C19 14.4 19 14.4 19 14.4L18.9 14.5L18.8 14.6V14.7C19.4 14.7 20 14.7 20.6 14.7C20.6 14.7 20.6 14.7 20.7 14.7C20.8 14.7 20.9 14.7 21 14.6C21.1 14.6 21.1 14.6 21.2 14.7C21.3 14.7 21.4 14.7 21.5 14.7C21.7 14.7 21.9 14.7 22 14.7C22.1 14.7 22.2 14.7 22.3 14.7C22.3 14.7 22.3 14.7 22.4 14.7H22.5C22.5 14.7 22.6 14.7 22.7 14.7H22.8H22.9H23C23 14.7 23 14.7 23.1 14.7C23.1 14.7 23.1 14.7 23.2 14.7C23.2 14.7 23.2 14.7 23.3 14.7C23.4 14.7 23.3 14.7 23.3 14.7H23.4H23.5H23.6H23.7C23.7 14.7 23.7 14.7 23.8 14.7H23.9C23.9 14.7 23.9 14.7 24 14.7C24 14.7 24 14.7 24.1 14.7C24.2 14.7 24.2 14.7 24.2 14.7H24.3H24.4C24.4 14.7 24.4 14.7 24.5 14.7H24.6H24.7H24.8C24.8 14.7 24.8 14.7 24.9 14.7H25C25 14.7 25 14.7 25.1 14.7C25.2 14.7 25.1 14.7 25.1 14.7H25.2L25.3 14.6H25.4C25.4 14.6 25.4 14.6 25.5 14.6C25.5 14.6 25.5 14.6 25.6 14.6H25.7H25.8C25.9 14.6 25.9 14.6 25.9 14.6C25.9 14.6 25.9 14.6 26 14.6C26 14.6 26 14.6 26.1 14.6C26.1 14.6 26.1 14.6 26.2 14.6C26.2 14.6 26.2 14.6 26.3 14.6C26.3 14.6 26.3 14.6 26.4 14.6C26.4 14.6 26.4 14.6 26.5 14.6C26.5 14.6 26.5 14.6 26.6 14.6C26.6 14.6 26.6 14.5 26.7 14.5C26.7 14.5 26.7 14.5 26.8 14.5H26.9C26.9 14.5 26.9 14.4 27 14.4C27 14.4 27 14.4 27 14.3C27 14.3 27 14.3 27.1 14.3C27.1 14.3 27.1 14.3 27.2 14.3C27.2 14.3 27.2 14.3 27.3 14.3C27.3 14.3 27.3 14.3 27.4 14.3H27.5H27.6H27.7C27.8 14.2 27.9 14.2 28 14.2C28 14.2 28.1 14.2 28.1 14.1C28.2 14.1 28.2 14.1 28.2 14.1C28.8 14.1 29.4 14 29.9 14C30 14 30 14 30.1 14C30.1 14 30.1 14 30.1 13.9C30.1 13.8 30.1 13.8 30.1 13.8C28.5 13.8 27 13.8 25.4 13.8H25.3C25.3 13.8 25.3 13.8 25.2 13.8C25 13.8 24.8 13.8 24.6 13.8C24.2 13.8 23.8 13.8 23.4 13.8C23.4 13.8 23.4 13.8 23.3 13.8C23.3 13.8 23.2 13.8 23.1 13.8C23.1 13.8 23.1 13.7 23 13.7V13.6V13.5V13.4V13.3C23 13.3 23 13.3 23 13.2V13.1V13V12.9V12.8C23 12.8 23 12.8 23 12.7V12.6V12.5V12.4C23 12.4 23 12.4 23 12.3V12.2V12.1V12V11.9V11.8V11.7C23 11.7 23 11.7 23 11.6C23 11.6 23 11.6 23 11.5V7.8C23 7.7 23 7.7 23 7.7C23 7.7 23 7.6 23 7.5V7.4V7.3C23.1 7.3 23.1 7.2 23.1 7.2C23.1 7.2 23.2 7.2 23.3 7.2C23.3 7.2 23.3 7.2 23.4 7.2V7.1C23.4 7.1 23.4 7 23.5 7H23.6C24.5 7 25.4 7 26.4 7V6.9V6.8C26.4 6.8 26.4 6.8 26.4 6.7V6.6C26.4 6.6 26.4 6.6 26.4 6.5C26.4 6.5 26.4 6.5 26.4 6.4C26.4 6.3 26.4 6.3 26.4 6.3V6.2V6.1V6V5.9V5.8V5.7C26.4 5.7 26.4 5.7 26.4 5.6C26.4 5.5 26.4 5.5 26.4 5.5V5.4V5.3V5.2V5.1C26.4 5.1 26.4 5.1 26.5 5C26.5 5 26.5 5 26.6 5C26.6 5 26.6 5 26.7 5C27.4 5 28.1 5 28.8 5C28.8 5 28.8 5 28.9 5L29 5.1C29 5.1 29 5.2 29.1 5.2C29.1 5.2 29.1 5.2 29.2 5.2C29.2 5.2 29.2 5.2 29.2 5.3V5.4V5.5C29.2 5.6 29.2 5.6 29.2 5.6C29.2 5.6 29.2 5.6 29.2 5.7C29.2 5.7 29.2 5.7 29.2 5.8C29.2 5.9 29.2 5.9 29.2 5.9V6C29.2 6.1 29.2 6.1 29.2 6.1C31 6 31 6 31 6V6.1V6.2V6.3C31 6.3 31 6.3 31 6.4V6.5C31 6.5 31 6.5 31 6.6C31 6.7 31 6.7 31 6.7V6.8V6.9C31 6.9 31 6.9 31 7C33.1 7 35.3 7 37.3 7V6.9V6.8C37.3 6.8 37.3 6.8 37.3 6.7V6.6C37.3 6.6 37.3 6.6 37.3 6.5C37.3 6.5 37.3 6.5 37.3 6.4C37.3 6.3 37.3 6.3 37.3 6.3V6.2V6.1V6V5.9V5.8V5.7C37.3 5.7 37.3 5.7 37.3 5.6C37.3 5.5 37.3 5.5 37.3 5.5V5.4V5.3V5.2V5.1C37.3 5.1 37.3 5.1 37.3 5C37.3 4.9 37.3 4.9 37.3 4.9C37.3 4.9 37.3 4.9 37.3 4.8V4.7V4.6C37.3 4.6 37.3 4.6 37.3 4.5C37.3 4.4 37.3 4.5 37.3 4.4V4.5V4.4V4.3C37.4 4.3 37.4 4.3 37.5 4.2ZM71.6 18.1C71.6 18.1 71.6 18 71.6 18.1C71.6 18 71.6 18 71.6 17.9C71.6 18 71.6 18 71.6 18.1C71.6 18.1 71.6 18 71.6 18.1ZM31 17.6V17.7V17.8V17.9C31 17.9 31 17.9 31 18C31 18.1 31 18.1 31 18.1C31 18.1 31 18.1 31 18.2C31 18.2 31.1 18.2 31.1 18.3C31.1 18.3 31.1 18.3 31.2 18.4V18.5V18.6C31.3 18.6 31.4 18.6 31.5 18.6C31.6 18.6 31.6 18.6 31.7 18.6C31.7 18.6 31.8 18.6 31.9 18.6C32 18.6 32 18.6 32.1 18.5C32.2 18.5 32.2 18.4 32.3 18.4C32.3 18.4 32.3 18.4 32.4 18.3C32.4 18.3 32.5 18.3 32.5 18.2L32.6 18.1C32.6 18.1 32.6 18 32.7 18L32.8 17.9L32.9 17.8V17.7V17.6V17.5V17.4V17.3V17.2C32.2 17.2 31.4 17.2 30.7 17.2V17.3C30.7 17.3 30.7 17.3 30.7 17.4V17.5C31 17.5 31 17.6 31 17.6ZM29.9 18.6C29.8 18.6 29.8 18.5 29.8 18.5L29.7 18.4C29.7 18.4 29.7 18.4 29.6 18.3V18.2V18.1V18C29.6 18 29.6 18 29.6 17.9V17.8C29.6 17.8 29.6 17.7 29.6 17.6V17.5V17.4V17.3C29.6 17.3 29.6 17.3 29.6 17.2H29.5C29.5 17.2 29.5 17.2 29.5 17.3C29.5 17.3 29.5 17.3 29.5 17.4H29.4L29.3 17.5L29.2 17.6V17.7V17.8V17.9C29.2 17.9 29.2 17.9 29.2 18H29.3C29.3 18 29.4 18 29.4 18.1C29.4 18.1 29.4 18.2 29.5 18.2C29.5 18.3 29.5 18.3 29.5 18.3C29.6 18.6 29.8 18.6 29.9 18.6ZM23.9 16.9C24 16.9 24.1 16.9 24.2 16.9H24.3C24.2 16.9 24.2 16.9 24.1 16.9C24.1 16.9 24 16.9 23.9 16.9ZM25 17.4H24.9H25ZM9.1 19.3C9.1 19.4 9.1 19.4 9.1 19.3C9.1 19.4 9.1 19.4 9.1 19.3L9 19.4C9 19.4 9 19.4 9 19.5V19.6C9 19.6 9 19.6 9 19.7V19.8C9 19.8 9 19.8 9 19.9C9 19.9 9 19.9 9 20V20C9 20 9 20 9 20.1C9 20.1 9 20.1 9 20.2C9 20.2 9 20.2 9 20.3C9 20.3 9 20.3 9 20.4H9.1C9.2 20.4 9.2 20.4 9.2 20.5C9.4 20.5 9.6 20.6 9.8 20.6L9.9 20.7V20.6H10H10.1H10.2C10.2 20.6 10.2 20.6 10.3 20.6H10.4H10.5C10.5 20.6 10.5 20.6 10.6 20.6H10.7H10.8H10.9C10.9 20.6 10.9 20.6 10.9 20.5L11 20.4C11 20.3 11 20.3 11.1 20.3V20.2V20.1C11.1 20.1 11.1 20.1 11.1 20C11 19.3 10.1 19.3 9.1 19.3C9.2 19.3 9.2 19.3 9.1 19.3ZM5.4 25.6H5.3H5.4Z" fill="white"/>
<path d="M107.158 29.823C108.739 28.3487 109.494 27.4491 109.994 26.4683C110.528 25.4187 110.875 24.0756 110.969 22.7199C111.269 18.2656 111.843 14.8671 112.617 12.9305C113.011 11.9497 113.358 11.4561 114.206 10.6565C115.154 9.76938 116.001 9.22587 117.577 8.50744C119.372 7.68281 120.694 7.23301 124.051 6.29592C125.787 5.81488 126.928 5.44629 130.425 4.24058C132.321 3.58462 135.725 2.36641 136.673 2.00407C136.82 1.94784 137 2.4851 137 2.97863C137 3.40345 136.973 3.5034 136.74 3.94071C136.299 4.77784 135.612 5.3276 133.863 6.25844C131.6 7.45791 130.052 8.07638 125.486 9.56947C123.003 10.3879 121.982 10.7564 120.213 11.4874C117.343 12.6744 116.402 13.1804 115.421 14.0612C114.747 14.6672 114.339 15.2232 113.932 16.1166L113.619 16.7913L113.539 16.4602C113.438 16.0916 113.425 15.3919 113.498 15.1732C113.545 15.0483 113.532 15.0296 113.425 15.0483C113.358 15.0608 113.225 15.217 113.118 15.4231C112.944 15.7355 112.918 15.8917 112.838 16.835C112.784 17.416 112.698 18.1719 112.637 18.5093C112.577 18.8529 112.504 19.6088 112.471 20.1898C112.304 22.9198 112.057 24.188 111.369 25.7748C110.915 26.8431 110.395 27.649 109.774 28.2737C108.9 29.1421 107.004 30.5102 106.016 30.985C105.903 31.0412 106.397 30.5415 107.158 29.823Z" fill="white"/>
<path d="M117.31 30.6727C116.696 30.6477 115.848 30.5415 115.468 30.4353C114.967 30.2978 114.76 30.1729 114.486 29.823C114.339 29.6481 114.179 29.4607 114.113 29.4107C114.012 29.3357 114.039 29.292 114.386 28.9922C114.713 28.711 114.813 28.661 115.04 28.6548C115.281 28.6548 115.334 28.686 115.674 29.0421C116.522 29.9292 116.869 30.2104 117.43 30.4665C117.73 30.6039 117.93 30.7101 117.877 30.7039C117.824 30.6976 117.57 30.6852 117.31 30.6727Z" fill="white"/>
<path d="M107.738 30.5977C107.585 30.5602 107.591 30.5415 107.938 30.3416C108.559 29.9667 109.607 29.1546 110.275 28.5299C111.496 27.3741 112.277 25.9935 112.731 24.1568C112.804 23.8632 112.991 22.7137 113.138 21.5954C113.292 20.4772 113.445 19.3589 113.485 19.1028L113.559 18.6405L113.745 19.1215C113.846 19.3901 114.206 20.0711 114.546 20.6333C115.468 22.1827 115.681 22.8449 115.681 24.1693C115.674 25.6999 115.254 26.7306 114.099 28.0051C113.565 28.5923 113.258 28.8547 112.671 29.2233C111.423 30.0042 109.827 30.5227 108.366 30.6164C108.112 30.6289 107.825 30.6227 107.738 30.5977Z" fill="white"/>
<path d="M118.711 30.2791C117.737 29.9542 117.21 29.6606 116.549 29.0608C115.881 28.4611 115.594 28.2799 115.314 28.2799C115.154 28.2799 115.16 28.2612 115.521 27.7989C115.721 27.5303 115.941 27.2179 116.001 27.0992L116.108 26.8931L116.502 26.9368C117.049 26.993 117.203 27.0805 117.904 27.7427C118.371 28.1862 118.625 28.3674 119.012 28.5486C119.733 28.8859 120.44 29.0421 121.288 29.0484C122.082 29.0608 122.069 29.0484 121.742 29.5044C121.375 30.0042 120.634 30.3165 119.646 30.3728C119.212 30.404 119.038 30.3853 118.711 30.2791Z" fill="white"/>
<path d="M120.514 27.9988C119.653 27.8239 119.058 27.5366 118.398 26.993C117.79 26.4933 117.39 26.3308 116.816 26.3558L116.362 26.3746L116.442 26.1871C116.515 26.031 116.596 25.7124 116.776 24.8627C116.809 24.7128 117.109 24.5941 117.437 24.5941C117.804 24.5941 118.344 24.9564 119.312 25.856C119.826 26.3308 120.387 26.8119 120.56 26.9306C121.321 27.4366 122.256 27.6802 123.297 27.6428L123.951 27.624L123.597 27.7677C123.41 27.8489 123.07 27.9551 122.85 27.9988C122.349 28.1113 121.054 28.1113 120.514 27.9988Z" fill="white"/>
<path d="M122.349 26.437C121.682 26.2996 121.048 25.9622 120.28 25.3375C118.792 24.1381 117.877 23.7695 117.13 24.0818L116.829 24.2068L116.789 23.4758C116.762 23.076 116.729 22.6762 116.702 22.5887C116.662 22.4326 116.682 22.4201 117.103 22.3139C118.057 22.0702 119.065 22.4013 121.181 23.657C122.316 24.3255 124.125 25.1876 124.946 25.45C125.299 25.5562 125.653 25.6124 126.16 25.6374C126.881 25.6749 126.881 25.6749 126.721 25.7936C126.454 25.9872 125.747 26.2746 125.253 26.3746C124.578 26.5183 122.903 26.5557 122.349 26.437Z" fill="white"/>
<path d="M125.913 24.5316C125.186 24.3942 124.044 23.9381 121.915 22.9323C120.3 22.1639 119.766 21.964 118.945 21.8203C117.997 21.6516 117.477 21.7079 116.903 22.0515L116.622 22.2139L116.415 21.6704C116.302 21.3705 116.088 20.9457 115.948 20.7208C115.801 20.4959 115.694 20.3085 115.701 20.296C115.714 20.2897 116.015 20.2085 116.375 20.1273C118.177 19.6962 119.539 20.0586 122.783 21.8453C124.885 23.001 126.154 23.4633 127.789 23.6633C128.376 23.732 129.845 23.7132 130.125 23.6258C130.405 23.5383 129.851 23.9194 129.391 24.1318C128.236 24.6503 127.182 24.769 125.913 24.5316Z" fill="white"/>
<path d="M127.789 22.4638C127.222 22.3888 126.14 22.1202 125.626 21.9265C125.386 21.839 124.385 21.3892 123.404 20.9394C120.567 19.615 119.799 19.3839 118.311 19.3776C117.263 19.3776 116.976 19.4401 116.048 19.8399L115.501 20.0773L115.274 19.765L115.047 19.4526L115.341 19.2027C115.968 18.6842 116.876 18.3968 118.264 18.2719C119.279 18.1782 119.733 18.2219 122.783 18.6904C128.143 19.5088 128.83 19.5963 130.125 19.5963C131.547 19.5963 132.581 19.4151 133.536 19.0028C133.81 18.8903 134.03 18.8029 134.03 18.8154C134.03 18.9278 133.569 19.9024 133.349 20.2522C132.495 21.6079 131.734 22.1639 130.345 22.4325C129.785 22.5387 128.476 22.5575 127.789 22.4638Z" fill="white"/>
<path d="M114.773 19.0965C114.72 19.0403 114.673 18.9653 114.673 18.9278C114.673 18.7904 115.835 17.8408 116.522 17.4035C118.144 16.3915 120.02 15.723 122.115 15.4106C123.397 15.2232 124.498 15.1545 128.837 15.0046C132.681 14.8671 133.723 14.7109 134.984 14.08C135.431 13.8613 135.431 13.8613 135.598 14.3736C135.712 14.7297 135.725 15.4356 135.625 15.8479C135.512 16.3102 135.104 17.0099 134.737 17.366C134.13 17.9595 132.922 18.4593 131.76 18.5905C130.445 18.7467 129.438 18.6842 126.02 18.2219C121.101 17.5597 119.639 17.4472 118.351 17.6222C116.903 17.8221 115.875 18.2281 115.247 18.8466C114.907 19.1777 114.873 19.1965 114.773 19.0965Z" fill="white"/>
<path d="M114.373 18.5093C114.259 18.3156 114.259 18.2719 114.339 18.1157C114.473 17.8658 116.335 16.1416 117.009 15.6356C118.464 14.5548 119.98 13.9425 122.863 13.2866C124.578 12.893 125.399 12.7493 127.642 12.437C131.533 11.9059 134.25 11.3125 135.498 10.7252C135.999 10.4878 136.052 10.5128 136.086 11.0563C136.119 11.5186 135.925 12.0559 135.618 12.387C135.278 12.7493 134.317 13.1242 133.162 13.3428C132.214 13.5302 131.62 13.5865 129.024 13.7239C123.824 14.005 122.095 14.2362 120.08 14.9046C117.964 15.6168 115.835 17.0162 114.78 18.3968C114.64 18.5718 114.52 18.7217 114.513 18.7217C114.5 18.7217 114.44 18.6217 114.373 18.5093Z" fill="white"/>
<path d="M113.952 17.6721C113.872 17.4722 113.806 17.2598 113.806 17.1973C113.806 17.1349 113.926 16.86 114.066 16.5914C114.893 15.0545 115.808 14.2174 117.55 13.4303C119.005 12.768 122.136 11.6873 125.373 10.7252C130.566 9.18838 132.154 8.59489 134.644 7.27048L135.291 6.92688L135.678 7.1018C136.346 7.40792 136.633 7.72653 136.633 8.15134C136.633 8.63238 136.339 9.06968 135.732 9.50699C135.004 10.0255 134.17 10.3066 131.714 10.8814C130.118 11.25 129.378 11.3937 126.821 11.8185C125.213 12.0809 124.331 12.2745 122.549 12.7556C119.112 13.6801 117.777 14.3736 115.741 16.2915C115.281 16.7226 114.74 17.2911 114.54 17.5534C114.339 17.8158 114.159 18.0282 114.139 18.0282C114.119 18.0345 114.039 17.872 113.952 17.6721Z" fill="white"/>
</svg>
