<svg width="84" height="30" viewBox="0 0 84 30" fill="none" xmlns="http://www.w3.org/2000/svg">
<path d="M54.158 27.823C55.739 26.3487 56.494 25.4491 56.994 24.4683C57.528 23.4187 57.875 22.0756 57.969 20.7199C58.269 16.2656 58.843 12.8671 59.617 10.9305C60.011 9.9497 60.358 9.4561 61.206 8.6565C62.154 7.76938 63.001 7.22587 64.577 6.50744C66.372 5.68281 67.694 5.23301 71.051 4.29592C72.787 3.81488 73.928 3.44629 77.425 2.24058C79.321 1.58462 82.725 0.366406 83.673 0.00406609C83.82 -0.0521639 84 0.485096 84 0.978626C84 1.40345 83.973 1.5034 83.74 1.94071C83.299 2.77784 82.612 3.3276 80.863 4.25844C78.6 5.45791 77.052 6.07638 72.486 7.56947C70.003 8.3879 68.982 8.7564 67.213 9.4874C64.343 10.6744 63.402 11.1804 62.421 12.0612C61.747 12.6672 61.339 13.2232 60.932 14.1166L60.619 14.7913L60.539 14.4602C60.438 14.0916 60.425 13.3919 60.498 13.1732C60.545 13.0483 60.532 13.0296 60.425 13.0483C60.358 13.0608 60.225 13.217 60.118 13.4231C59.944 13.7355 59.918 13.8917 59.838 14.835C59.784 15.416 59.698 16.1719 59.637 16.5093C59.577 16.8529 59.504 17.6088 59.471 18.1898C59.304 20.9198 59.057 22.188 58.369 23.7748C57.915 24.8431 57.395 25.649 56.774 26.2737C55.9 27.1421 54.004 28.5102 53.016 28.985C52.903 29.0412 53.397 28.5415 54.158 27.823Z" fill="white"/>
<path d="M64.31 28.6727C63.696 28.6477 62.848 28.5415 62.468 28.4353C61.967 28.2978 61.76 28.1729 61.486 27.823C61.339 27.6481 61.179 27.4607 61.113 27.4107C61.012 27.3357 61.039 27.292 61.386 26.9922C61.713 26.711 61.813 26.661 62.04 26.6548C62.281 26.6548 62.334 26.686 62.674 27.0421C63.522 27.9292 63.869 28.2104 64.43 28.4665C64.73 28.6039 64.93 28.7101 64.877 28.7039C64.824 28.6976 64.57 28.6852 64.31 28.6727Z" fill="white"/>
<path d="M54.738 28.5977C54.585 28.5602 54.591 28.5415 54.938 28.3416C55.559 27.9667 56.607 27.1546 57.275 26.5299C58.496 25.3741 59.277 23.9935 59.731 22.1568C59.804 21.8632 59.991 20.7137 60.138 19.5954C60.292 18.4772 60.445 17.3589 60.485 17.1028L60.559 16.6405L60.745 17.1215C60.846 17.3901 61.206 18.0711 61.546 18.6333C62.468 20.1827 62.681 20.8449 62.681 22.1693C62.674 23.6999 62.254 24.7306 61.099 26.0051C60.565 26.5923 60.258 26.8547 59.671 27.2233C58.423 28.0042 56.827 28.5227 55.366 28.6164C55.112 28.6289 54.825 28.6227 54.738 28.5977Z" fill="white"/>
<path d="M65.711 28.2791C64.737 27.9542 64.21 27.6606 63.549 27.0608C62.881 26.4611 62.594 26.2799 62.314 26.2799C62.154 26.2799 62.16 26.2612 62.521 25.7989C62.721 25.5303 62.941 25.2179 63.001 25.0992L63.108 24.8931L63.502 24.9368C64.049 24.993 64.203 25.0805 64.904 25.7427C65.371 26.1862 65.625 26.3674 66.012 26.5486C66.733 26.8859 67.44 27.0421 68.288 27.0484C69.082 27.0608 69.069 27.0484 68.742 27.5044C68.375 28.0042 67.634 28.3165 66.646 28.3728C66.212 28.404 66.038 28.3853 65.711 28.2791Z" fill="white"/>
<path d="M67.514 25.9988C66.653 25.8239 66.058 25.5366 65.398 24.993C64.79 24.4933 64.39 24.3308 63.816 24.3558L63.362 24.3746L63.442 24.1871C63.515 24.031 63.596 23.7124 63.776 22.8627C63.809 22.7128 64.109 22.5941 64.437 22.5941C64.804 22.5941 65.344 22.9564 66.312 23.856C66.826 24.3308 67.387 24.8119 67.56 24.9306C68.321 25.4366 69.256 25.6802 70.297 25.6428L70.951 25.624L70.597 25.7677C70.41 25.8489 70.07 25.9551 69.85 25.9988C69.349 26.1113 68.054 26.1113 67.514 25.9988Z" fill="white"/>
<path d="M69.349 24.437C68.682 24.2996 68.048 23.9622 67.28 23.3375C65.792 22.1381 64.877 21.7695 64.13 22.0818L63.829 22.2068L63.789 21.4758C63.762 21.076 63.729 20.6762 63.702 20.5887C63.662 20.4326 63.682 20.4201 64.103 20.3139C65.057 20.0702 66.065 20.4013 68.181 21.657C69.316 22.3255 71.125 23.1876 71.946 23.45C72.299 23.5562 72.653 23.6124 73.16 23.6374C73.881 23.6749 73.881 23.6749 73.721 23.7936C73.454 23.9872 72.747 24.2746 72.253 24.3746C71.578 24.5183 69.903 24.5557 69.349 24.437Z" fill="white"/>
<path d="M72.913 22.5316C72.186 22.3942 71.044 21.9381 68.915 20.9323C67.3 20.1639 66.766 19.964 65.945 19.8203C64.997 19.6516 64.477 19.7079 63.903 20.0515L63.622 20.2139L63.415 19.6704C63.302 19.3705 63.088 18.9457 62.948 18.7208C62.801 18.4959 62.694 18.3085 62.701 18.296C62.714 18.2897 63.015 18.2085 63.375 18.1273C65.177 17.6962 66.539 18.0586 69.783 19.8453C71.885 21.001 73.154 21.4633 74.789 21.6633C75.376 21.732 76.845 21.7132 77.125 21.6258C77.405 21.5383 76.851 21.9194 76.391 22.1318C75.236 22.6503 74.182 22.769 72.913 22.5316Z" fill="white"/>
<path d="M74.789 20.4638C74.222 20.3888 73.14 20.1202 72.626 19.9265C72.386 19.839 71.385 19.3892 70.404 18.9394C67.567 17.615 66.799 17.3839 65.311 17.3776C64.263 17.3776 63.976 17.4401 63.048 17.8399L62.501 18.0773L62.274 17.765L62.047 17.4526L62.341 17.2027C62.968 16.6842 63.876 16.3968 65.264 16.2719C66.279 16.1782 66.733 16.2219 69.783 16.6904C75.143 17.5088 75.83 17.5963 77.125 17.5963C78.547 17.5963 79.581 17.4151 80.536 17.0028C80.81 16.8903 81.03 16.8029 81.03 16.8154C81.03 16.9278 80.569 17.9024 80.349 18.2522C79.495 19.6079 78.734 20.1639 77.345 20.4325C76.785 20.5387 75.476 20.5575 74.789 20.4638Z" fill="white"/>
<path d="M61.773 17.0965C61.72 17.0403 61.673 16.9653 61.673 16.9278C61.673 16.7904 62.835 15.8408 63.522 15.4035C65.144 14.3915 67.02 13.723 69.115 13.4106C70.397 13.2232 71.498 13.1545 75.837 13.0046C79.681 12.8671 80.723 12.7109 81.984 12.08C82.431 11.8613 82.431 11.8613 82.598 12.3736C82.712 12.7297 82.725 13.4356 82.625 13.8479C82.512 14.3102 82.104 15.0099 81.737 15.366C81.13 15.9595 79.922 16.4593 78.76 16.5905C77.445 16.7467 76.438 16.6842 73.02 16.2219C68.101 15.5597 66.639 15.4472 65.351 15.6222C63.903 15.8221 62.875 16.2281 62.247 16.8466C61.907 17.1777 61.873 17.1965 61.773 17.0965Z" fill="white"/>
<path d="M61.373 16.5093C61.259 16.3156 61.259 16.2719 61.339 16.1157C61.473 15.8658 63.335 14.1416 64.009 13.6356C65.464 12.5548 66.98 11.9425 69.863 11.2866C71.578 10.893 72.399 10.7493 74.642 10.437C78.533 9.90589 81.25 9.31249 82.498 8.72519C82.999 8.48779 83.052 8.51279 83.086 9.05629C83.119 9.51859 82.925 10.0559 82.618 10.387C82.278 10.7493 81.317 11.1242 80.162 11.3428C79.214 11.5302 78.62 11.5865 76.024 11.7239C70.824 12.005 69.095 12.2362 67.08 12.9046C64.964 13.6168 62.835 15.0162 61.78 16.3968C61.64 16.5718 61.52 16.7217 61.513 16.7217C61.5 16.7217 61.44 16.6217 61.373 16.5093Z" fill="white"/>
<path d="M60.952 15.6721C60.872 15.4722 60.806 15.2598 60.806 15.1973C60.806 15.1349 60.926 14.86 61.066 14.5914C61.893 13.0545 62.808 12.2174 64.55 11.4303C66.005 10.768 69.136 9.6873 72.373 8.7252C77.566 7.18838 79.154 6.59489 81.644 5.27048L82.291 4.92688L82.678 5.1018C83.346 5.40792 83.633 5.72653 83.633 6.15134C83.633 6.63238 83.339 7.06968 82.732 7.50699C82.004 8.0255 81.17 8.3066 78.714 8.8814C77.118 9.25 76.378 9.3937 73.821 9.8185C72.213 10.0809 71.331 10.2745 69.549 10.7556C66.112 11.6801 64.777 12.3736 62.741 14.2915C62.281 14.7226 61.74 15.2911 61.54 15.5534C61.339 15.8158 61.159 16.0282 61.139 16.0282C61.119 16.0345 61.039 15.872 60.952 15.6721Z" fill="white"/>
<path d="M23.9 0.3C24 0.2 24.1 0.2 24.1 0.2H24.2H24.3H24.4L24.5 0.0999999C24.6 0.0999999 24.6 0.0999999 24.6 0.0999999H24.7C24.8 0.0999999 24.9 0.0999999 25 0.0999999V0C25.2 0 25.3 0 25.5 0H25.6H25.7H25.8C25.9 0 25.9 0 25.9 0H26H26.1H26.2H26.3V0.0999999H26.4C26.5 0.0999999 26.5 0.0999999 26.5 0.0999999L26.6 0.2V0.3V0.4V0.5C26.6 0.6 26.6 0.6 26.6 0.6V0.8C26.6 0.9 26.6 0.9 26.6 0.9V1V1.1C26.6 1.2 26.6 1.2 26.6 1.2C32.9 1.2 39.1 1.2 45.4 1.2V1.1V1V0.9V0.8V0.7H45.5V0.6V0.5V0.4H45.6V0.3C46 0.3 46.4 0.3 46.9 0.3L47 0.4V0.5L47.1 0.6V0.7H47.2V0.8H47.3C47.3 0.9 47.3 0.9 47.3 0.9V1V1.1V1.2H47.4V1.3C47.5 1.3 47.6 1.3 47.7 1.3C47.7 1.4 47.7 1.4 47.7 1.4V1.5L47.8 1.6H47.9V1.7C47.9 1.7 48 1.7 48.1 1.7V1.8C48.1 1.9 48.1 1.9 48.1 1.9V2.1C48.1 2.2 48.1 2.2 48.1 2.2V2.3V2.4C48.1 2.4 48.1 2.4 48.2 2.4C48.2 2.5 48.2 2.5 48.2 2.5V3.3H48.3V3.4V3.5V3.6V3.7V3.8C48.4 3.8 48.4 3.8 48.5 3.8V3.9V4C49 4 49.4 4 49.9 4V4.1C50 4.1 50.1 4.1 50.2 4.1V4.2V4.3V4.4V4.5V4.6V4.7V4.8V4.9V5V5.1V5.2V5.3V5.4V5.5V5.6V5.7V5.8V5.9V6V6.1V6.2V6.3V6.4V6.5V6.6C50.1 6.6 50.1 6.6 50.1 6.6C49.6 6.6 49 6.6 48.5 6.6C48.4 6.6 48.4 6.6 48.4 6.6C48.4 6.7 48.4 6.7 48.4 6.7V6.8V6.9C48.3 6.9 48.3 6.9 48.3 6.9C48.3 7 48.3 7 48.3 7V7.1V7.2C48.3 7.3 48.2 7.3 48.2 7.3V7.4L48.1 7.5V7.6C48 7.6 48 7.6 47.9 7.6C47.9 7.7 47.9 7.7 47.9 7.7V7.8V7.9C47.9 7.9 47.8 7.9 47.7 7.9C47.7 8 47.7 8 47.7 8V8.1C47.5 8.1 47.3 8.1 47 8.1C42.8 8.1 38.6 8 34.4 8C34.1 8 33.9 8 33.7 8V8.1C33.7 8.2 33.7 8.2 33.7 8.2V8.3V8.4V8.5V8.6V8.7V8.8V8.9V9V9.1V9.2V9.3V9.4V9.5V9.6V9.7V9.8V9.9V10V10.1V10.2V10.3V10.4V10.5V10.6V10.7V10.8V10.9V11C33.6 11 33.6 11 33.5 11V11.3C33.2 11.3 32.9 11.4 32.5 11.4C32.2 11.4 32 11.4 31.7 11.4C31.6 11.4 31.6 11.4 31.6 11.4C31.5 11.4 31.5 11.4 31.4 11.4V11.5H31.3H31.2V11.6H31.1V11.7V11.8V11.9V12V12.1L31.6 12.3V12.4V12.5V12.6H31.5V12.7H31.4V12.8H31.3C31.2 12.8 31.2 12.8 31.1 12.8V12.9L31 13V13.2V13.3V13.4V13.5V13.6V13.7V13.8V14V14.1V14.2V14.5V14.6V14.9V15V15.3V15.4V15.7V15.8V16.3V16.4C31.1 16.4 31.2 16.4 31.4 16.4L31.5 16.5C31.5 16.6 31.5 16.6 31.5 16.6V16.7V16.8V16.9V17V17.1V17.2V17.3V17.7V18V18.3V18.4V18.5C31.4 18.5 31.4 18.5 31.4 18.5H31.3H31.2H31.1H31H30.9V18.6H30.8V18.7V18.8V18.9V19V19.1V19.2V19.3V19.4V19.5V19.6V19.7V19.8V19.9V20V20.1V20.2V20.3V20.4V20.5V20.6V20.7V20.8V20.9V21V21.1V21.2V21.3V21.4V21.5V21.6V21.7V21.8V21.9V22V22.1V22.3C30.8 22.4 30.8 22.4 30.8 22.4V22.6C30.8 22.7 30.8 22.7 30.8 22.7V22.9C30.8 23 30.8 23 30.8 23V23.1V23.2C30.8 23.3 30.8 23.3 30.8 23.3V23.4V23.5C30.8 23.6 30.8 23.6 30.8 23.6V23.7V23.8V23.9V24V24.1V25.6V25.7V26.2V26.3V26.4V26.6V26.7V26.8V26.9V27V27.1V27.3V27.4V28.3V28.4V28.5V28.7V28.8V28.9V29.2V29.3C28.5 29.3 26.1 29.3 23.8 29.3V29.1V29V28.4V28.3V28.2V28V27.9V27.8V27.6V27.5V27.4V27.2V27.1V27V26.8V26.7V26.6V26.4V26.3V26.2V26.3V26.2V24.7V24.6V24.5V24.4V24.3V24.2V24.1V24V23.9V23.8V23.7V23.6V23.3V23.2V23V22.9V22.7C23.8 22.6 23.8 22.6 23.8 22.6V22.3C23.8 22.2 23.8 22.2 23.8 22.2V22.1V22C23.8 21.9 23.8 21.9 23.8 21.9V21.8V21.7V21.6V21.5V21.4V21.3V21.2V21.1V21V20.9V20.8V20.7V20.6V20.5V20.4V20.3V20.2V20.1V20V19.9V19.8V19.7V19.6V19.5V19.4V19.3V19.2V19.1V19V18.9V18.8V18.9L23.7 19V19.1L23.6 19.2V19.3V19.4C23.2 19.4 22.9 19.4 22.5 19.4V19.3C22.4 19.3 22.3 19.3 22.2 19.3V19.2C22.1 19.2 22 19.2 21.9 19.2V19.1H21.8V19V18.9V18.8V18.7V18.6V18.5V18.4V18.3V18.2V18.1V18V17.9V17.8V17.7V17.6V17.5V17.4V17.3V17.2V17.1V17V16.9V16.8V16.7V16.6V16.5C20.1 16.5 18.4 16.5 16.6 16.5V16.6V16.7V17.3V17.4V17.6C16.6 17.7 16.6 17.7 16.6 17.7V17.8C15.6 17.8 14.6 17.8 13.6 17.8V17.9C13.6 18 13.6 18 13.6 18C13.6 18 13.5 18 13.5 18.1C13.5 18.2 13.5 18.2 13.5 18.2C13.5 18.3 13.4 18.3 13.4 18.3V18.4V18.5C13.4 18.6 13.4 18.6 13.4 18.6V18.8C13.3 18.8 13.3 18.8 13.3 18.8V18.9V19L13.2 19.1V19.2V19.3V19.4V19.5V19.6H13.1V19.7V19.8L13 19.9V20V20.1V20.2V20.3L11.3 20.7V20.8H11.2C11.2 20.9 11.2 20.9 11.1 20.9V21V21.1V21.3C11.1 21.4 11.1 21.4 11.1 21.4V21.5C11 21.5 11 21.5 11 21.5V21.6V21.7C10.9 21.7 10.9 21.8 10.9 21.8V21.9V22V22.1V22.2C10.8 22.2 10.8 22.2 10.8 22.2V22.3V22.4C10.8 22.4 10.7 22.4 10.7 22.5V22.6V22.7H10.6V22.8V22.9V23V23.1V23.2C10.5 23.2 10.5 23.2 10.5 23.2V23.3V23.4V23.5C10.4 23.5 10.4 23.5 10.4 23.5V23.6C10.4 23.7 10.3 23.7 10.3 23.7V23.8V23.9V24C10.2 24 10.2 24.1 10.2 24.1V24.2C10.2 24.3 10.2 24.3 10.2 24.3C10.1 24.3 10.1 24.4 10.1 24.4V24.5C10.1 24.6 10.2 24.6 10.2 24.6V24.7H10.3V24.8V24.9V25L10.4 25.1V25.3V25.4V25.6V25.7V25.8C10.4 25.9 10.4 25.9 10.4 25.9V26C10.3 26 10.3 26 10.3 26V26.1V26.2V26.3C10.2 26.3 10.2 26.4 10.1 26.4V26.5C9.8 26.5 9.5 26.5 9.2 26.5V26.4C8.8 26.4 8.4 26.4 8 26.4C7.4 26.4 6.9 26.3 6.3 26.3C5.7 26.3 5.1 26.3 4.5 26.3V26.2C4.3 26.2 4.1 26.2 4 26.2C3.5 26.2 3 26.2 2.5 26.2C2.4 26.2 2.4 26.2 2.4 26.2C2.3 26.2 2.2 26.2 2.1 26.2C2.1 26.2 2.1 26.2 2 26.2C1.6 26.2 1.3 26.1 0.900002 26.1H0.799999C0.799999 26 0.799999 26 0.799999 26V25.9C0.599999 25.9 0.499999 25.9 0.299999 25.9H0.200001C0.200001 25.8 0.200001 25.8 0.200001 25.8C0.200001 25.8 0.0999985 25.8 0.0999985 25.7C0.0999985 25.7 0 25.7 0 25.6C0 25.5 0 25.5 0 25.5V25.4V25.3C0 25.2 0 25.2 0 25.2V25.1V25C0 24.9 0 24.9 0 24.9V24.8V24.7V24.6V24.5V24.4V24.3V24.2V24.1L0.0999985 24L0.200001 23.9V23.8V23.7L0.299999 23.6V23.5V23.4V23.3V23.2V23.1V23V22.9V22.8V22.7V22.6V22.5H0.400002V22.4C0.400002 22.3 0.400002 22.3 0.400002 22.3V22.2H0.5C0.5 22.1 0.5 22.1 0.5 22.1V22V21.9H0.599998C0.599998 21.8 0.599998 21.8 0.599998 21.8V21.7V21.6H0.700001V21.5V21.4C0.800001 21.4 0.800002 21.3 0.900002 21.3V21.2V21.1V21C1 21 1 20.9 1 20.9V20.8V20.7L1.1 20.6L1.2 20.5L1.3 20.4V20.3C1.4 20.3 1.4 20.3 1.4 20.3C1.4 20.2 1.4 20.2 1.4 20.2V20.1L1.5 20C1.5 19.9 1.5 19.9 1.5 19.9V19.8C1.6 19.8 1.6 19.7 1.6 19.7C1.6 19.6 1.6 19.6 1.6 19.6V19.5V19.4C1.7 19.4 1.7 19.4 1.7 19.4C1.7 19.3 1.7 19.3 1.7 19.3C1.7 19.2 1.7 19.2 1.7 19.2V19.1C1.7 19 1.7 19 1.7 19C1.7 18.9 1.7 18.9 1.7 18.9V18.8C1.8 18.8 1.8 18.7 1.8 18.7V18.6C1.8 18.5 1.8 18.5 1.8 18.5C1.8 18.5 1.9 18.5 1.9 18.4V18.3L2 18.2V18.1L2.1 18V17.9V17.8V17.7V17.6L2.2 17.5V17.4L2.3 17.3V17.2L2.4 17.1V17H2.5C2.5 16.9 2.5 16.9 2.5 16.9V16.8C2.5 16.8 2.6 16.8 2.6 16.7C2.7 16.7 2.7 16.7 2.7 16.7C2.7 16.6 2.7 16.6 2.7 16.6V16.5C2.8 16.5 2.8 16.5 2.8 16.5V16.4L2.9 16.3V16.2C3 16.2 3 16.1 3 16.1V16V15.9C3.1 15.9 3.1 15.9 3.1 15.9V15.8L3.2 15.7V15.6C3.3 15.6 3.3 15.5 3.3 15.5V15.4L3.4 15.3V15.2L3.5 15.1V15V14.9C3.6 14.9 3.6 14.8 3.6 14.8V14.7V14.6C3.7 14.6 3.7 14.6 3.7 14.6V14.5V14.4C3.7 14.3 3.7 14.3 3.7 14.3C4.6 14.4 4.6 14.3 4.6 14.3V14.2C4.7 14.1 4.7 14.1 4.7 14.1C4.7 14 4.7 14 4.7 14V13.9V13.8C4.7 13.7 4.7 13.7 4.7 13.7C4.7 13.7 4.8 13.7 4.8 13.6V13.5V13.4H4.9V13.3V13.1C4.8 13.1 4.8 13 4.8 13V12.9C4.7 12.9 4.7 12.8 4.7 12.8V12.7V12.6L4.6 12.5H4.5V12.4V12.3L4.4 12.2V12.1L4.3 12L4.2 11.9H4.1V11.7L4 11.6V11.5C4 11.4 4 11.4 4 11.4V11.2V11.1C3.3 11.1 2.6 11.1 1.9 11.1V11C1.8 11 1.7 11 1.7 11H1.6L1.5 10.9C1.4 10.3 1.4 10.3 1.4 10.3C1.3 10.3 1.3 10.2 1.3 10.2V10.1H1.2V10L1.1 9.9L1 9.8H0.900002V9.7V9.6L0.599998 9.3C0.499998 9.3 0.500002 9.3 0.400002 9.3V9.2L0.299999 9.1V9V8.9V8.8C0.299999 8.7 0.299999 8.7 0.299999 8.7V8.5C0.299999 8.4 0.299999 8.4 0.299999 8.4V8.3V8.2C0.299999 8.1 0.299999 8.1 0.299999 8.1V7.9V7.8V7.7V7.6V7.5V7.4C0.299999 7.4 0.299999 7.4 0.299999 7.3C0.299999 7.2 0.299999 7.3 0.299999 7.2V7.1V7V6.9V6.8V6.7V6.6V6.5V6.4V6.3V6.2C0.299999 6.3 0.299999 6.3 0.299999 6.3V6.2V6.1V6V5.9V5.8V5.7V5.6V5.5V5.4V5.3C0.299999 5.3 0.299999 5.3 0.299999 5.2V5.1V5V4.9V4.7V4.6V4.4V4.3H0.400002V4.2V4.1V4V3.9V3.8V3.7H0.5V3.6C0.6 3.6 0.699999 3.5 0.799999 3.5V3.4V3.3C0.899999 3.3 0.9 3.3 1 3.3V3.2L1.1 3.1C1.2 3.1 1.2 3.1 1.3 3.1L1.4 3V2.9C1.5 2.9 1.5 2.8 1.6 2.8C1.6 2.8 1.6 2.7 1.7 2.7C1.8 2.7 1.8 2.7 1.8 2.7C1.9 2.7 1.9 2.6 2 2.6C2.3 2.3 2.3 2.3 2.4 2.3C2.5 2.3 2.5 2.3 2.6 2.3V2.2C2.7 2.2 2.7 2.1 2.8 2.1L2.9 2V1.9C3 1.9 3.1 1.9 3.2 1.9V1.8C3.3 1.8 3.3 1.7 3.3 1.7C3.4 1.7 3.4 1.6 3.5 1.6C3.6 1.6 3.6 1.6 3.6 1.6V1.5C3.7 1.5 3.7 1.5 3.7 1.5V1.4V1C3.8 1 4 1 4.1 1V0.9V0.8V0.7V0.6H4.2V0.5V0.4V0.3C4.5 0.3 4.8 0.3 5.1 0.3C5.2 0.3 5.3 0.3 5.4 0.3V0.4V0.5V0.6C5.4 0.7 5.4 0.7 5.4 0.7V0.8V0.9C5.4 1 5.4 1 5.4 1V1.1C11.3 1.1 17.3 1.1 23.2 1.1V1V0.9V1V0.9V0.7C23.2 0.6 23.2 0.6 23.2 0.6V0.3H23.9C23.8 0.3 23.8 0.3 23.9 0.3ZM21.2 13.1C21.2 13.1 21.2 13 21.2 13.1C21.1 13 21.1 13 21.1 12.9V12.8L21 12.7V12.6V12.5V12.4L20.9 12.3H20.8V12.2L20.7 12.1L20.6 12C20.4 12 20.2 12 20 12C19.2 12 18.4 12 17.6 12V12.1V12.2V12.3V12.4V12.5L17.7 12.6V12.7H18.3V12.8H18.4V12.9V13H18.5H18.6H18.7H18.8H18.9V13.1H19L19.1 13.2V13.3V13.4V14.3V14.4C19 14.4 18.8 14.4 18.7 14.4C18.6 14.4 18.6 14.4 18.6 14.4C18.5 14.4 18.5 14.4 18.5 14.4H18.4H18.3H18.2H18.1H18H17.9H17.8H17.7H17.6H17.5V14.3V14.2H17.4V14.1V14V13.9V13.8V13.7V13.6H17.3C17.2 13.6 17.2 13.7 17.2 13.7L17.1 13.8V13.9C17.1 14 17 14 17 14C17 14.1 17 14.1 17 14.1V14.2C16.9 14.2 16.9 14.3 16.9 14.3C16.9 14.4 16.9 14.4 16.9 14.4V14.5L16.8 14.6L16.7 14.7C16.7 14.8 16.7 14.8 16.7 14.8C16.7 14.8 16.7 14.9 16.6 14.9V15V15.1V15.2L16.5 15.3V15.4V15.5L16.4 15.6V15.7V15.8C16.4 15.8 16.4 15.8 16.4 15.9L16.3 16V16.1C18.5 16.1 20.6 16.2 22.7 16.2V16.1V16V15.9V15.8C22.8 15.8 22.8 15.7 22.8 15.7L22.9 15.6V15.5H23C23 15.4 23 15.4 23 15.4V15.3C23.1 15.3 23.1 15.3 23.2 15.3V15.2V15.1V15L23.3 14.9V14.8V14.7V14.6V14.5V14.4L23.2 14.3C21.2 13.2 21.2 13.2 21.2 13.1C21.2 13.2 21.2 13.1 21.2 13.1Z" fill="white"/>
</svg>
