<svg width="115" height="30" viewBox="0 0 115 30" fill="none" xmlns="http://www.w3.org/2000/svg">
<path d="M85.158 28.823C86.739 27.3487 87.494 26.4491 87.994 25.4683C88.528 24.4187 88.875 23.0756 88.969 21.7199C89.269 17.2656 89.843 13.8671 90.617 11.9305C91.011 10.9497 91.358 10.4561 92.206 9.6565C93.154 8.76938 94.001 8.22587 95.577 7.50744C97.372 6.68281 98.694 6.23301 102.051 5.29592C103.787 4.81488 104.928 4.44629 108.425 3.24058C110.321 2.58462 113.725 1.36641 114.673 1.00407C114.82 0.947836 115 1.4851 115 1.97863C115 2.40345 114.973 2.5034 114.74 2.94071C114.299 3.77784 113.612 4.3276 111.863 5.25844C109.6 6.45791 108.052 7.07638 103.486 8.56947C101.003 9.3879 99.982 9.7564 98.213 10.4874C95.343 11.6744 94.402 12.1804 93.421 13.0612C92.747 13.6672 92.339 14.2232 91.932 15.1166L91.619 15.7913L91.539 15.4602C91.438 15.0916 91.425 14.3919 91.498 14.1732C91.545 14.0483 91.532 14.0296 91.425 14.0483C91.358 14.0608 91.225 14.217 91.118 14.4231C90.944 14.7355 90.918 14.8917 90.838 15.835C90.784 16.416 90.698 17.1719 90.637 17.5093C90.577 17.8529 90.504 18.6088 90.471 19.1898C90.304 21.9198 90.057 23.188 89.369 24.7748C88.915 25.8431 88.395 26.649 87.774 27.2737C86.9 28.1421 85.004 29.5102 84.016 29.985C83.903 30.0412 84.397 29.5415 85.158 28.823Z" fill="white"/>
<path d="M95.31 29.6727C94.696 29.6477 93.848 29.5415 93.468 29.4353C92.967 29.2978 92.76 29.1729 92.486 28.823C92.339 28.6481 92.179 28.4607 92.113 28.4107C92.012 28.3357 92.039 28.292 92.386 27.9922C92.713 27.711 92.813 27.661 93.04 27.6548C93.281 27.6548 93.334 27.686 93.674 28.0421C94.522 28.9292 94.869 29.2104 95.43 29.4665C95.73 29.6039 95.93 29.7101 95.877 29.7039C95.824 29.6976 95.57 29.6852 95.31 29.6727Z" fill="white"/>
<path d="M85.738 29.5977C85.585 29.5602 85.591 29.5415 85.938 29.3416C86.559 28.9667 87.607 28.1546 88.275 27.5299C89.496 26.3741 90.277 24.9935 90.731 23.1568C90.804 22.8632 90.991 21.7137 91.138 20.5954C91.292 19.4772 91.445 18.3589 91.485 18.1028L91.559 17.6405L91.745 18.1215C91.846 18.3901 92.206 19.0711 92.546 19.6333C93.468 21.1827 93.681 21.8449 93.681 23.1693C93.674 24.6999 93.254 25.7306 92.099 27.0051C91.565 27.5923 91.258 27.8547 90.671 28.2233C89.423 29.0042 87.827 29.5227 86.366 29.6164C86.112 29.6289 85.825 29.6227 85.738 29.5977Z" fill="white"/>
<path d="M96.711 29.2791C95.737 28.9542 95.21 28.6606 94.549 28.0608C93.881 27.4611 93.594 27.2799 93.314 27.2799C93.154 27.2799 93.16 27.2612 93.521 26.7989C93.721 26.5303 93.941 26.2179 94.001 26.0992L94.108 25.8931L94.502 25.9368C95.049 25.993 95.203 26.0805 95.904 26.7427C96.371 27.1862 96.625 27.3674 97.012 27.5486C97.733 27.8859 98.44 28.0421 99.288 28.0484C100.082 28.0608 100.069 28.0484 99.742 28.5044C99.375 29.0042 98.634 29.3165 97.646 29.3728C97.212 29.404 97.038 29.3853 96.711 29.2791Z" fill="white"/>
<path d="M98.514 26.9988C97.653 26.8239 97.058 26.5366 96.398 25.993C95.79 25.4933 95.39 25.3308 94.816 25.3558L94.362 25.3746L94.442 25.1871C94.515 25.031 94.596 24.7124 94.776 23.8627C94.809 23.7128 95.109 23.5941 95.437 23.5941C95.804 23.5941 96.344 23.9564 97.312 24.856C97.826 25.3308 98.387 25.8119 98.56 25.9306C99.321 26.4366 100.256 26.6802 101.297 26.6428L101.951 26.624L101.597 26.7677C101.41 26.8489 101.07 26.9551 100.85 26.9988C100.349 27.1113 99.054 27.1113 98.514 26.9988Z" fill="white"/>
<path d="M100.349 25.437C99.682 25.2996 99.048 24.9622 98.28 24.3375C96.792 23.1381 95.877 22.7695 95.13 23.0818L94.829 23.2068L94.789 22.4758C94.762 22.076 94.729 21.6762 94.702 21.5887C94.662 21.4326 94.682 21.4201 95.103 21.3139C96.057 21.0702 97.065 21.4013 99.181 22.657C100.316 23.3255 102.125 24.1876 102.946 24.45C103.299 24.5562 103.653 24.6124 104.16 24.6374C104.881 24.6749 104.881 24.6749 104.721 24.7936C104.454 24.9872 103.747 25.2746 103.253 25.3746C102.578 25.5183 100.903 25.5557 100.349 25.437Z" fill="white"/>
<path d="M103.913 23.5316C103.186 23.3942 102.044 22.9381 99.915 21.9323C98.3 21.1639 97.766 20.964 96.945 20.8203C95.997 20.6516 95.477 20.7079 94.903 21.0515L94.622 21.2139L94.415 20.6704C94.302 20.3705 94.088 19.9457 93.948 19.7208C93.801 19.4959 93.694 19.3085 93.701 19.296C93.714 19.2897 94.015 19.2085 94.375 19.1273C96.177 18.6962 97.539 19.0586 100.783 20.8453C102.885 22.001 104.154 22.4633 105.789 22.6633C106.376 22.732 107.845 22.7132 108.125 22.6258C108.405 22.5383 107.851 22.9194 107.391 23.1318C106.236 23.6503 105.182 23.769 103.913 23.5316Z" fill="white"/>
<path d="M105.789 21.4638C105.222 21.3888 104.14 21.1202 103.626 20.9265C103.386 20.839 102.385 20.3892 101.404 19.9394C98.567 18.615 97.799 18.3839 96.311 18.3776C95.263 18.3776 94.976 18.4401 94.048 18.8399L93.501 19.0773L93.274 18.765L93.047 18.4526L93.341 18.2027C93.968 17.6842 94.876 17.3968 96.264 17.2719C97.279 17.1782 97.733 17.2219 100.783 17.6904C106.143 18.5088 106.83 18.5963 108.125 18.5963C109.547 18.5963 110.581 18.4151 111.536 18.0028C111.81 17.8903 112.03 17.8029 112.03 17.8154C112.03 17.9278 111.569 18.9024 111.349 19.2522C110.495 20.6079 109.734 21.1639 108.345 21.4325C107.785 21.5387 106.476 21.5575 105.789 21.4638Z" fill="white"/>
<path d="M92.773 18.0965C92.72 18.0403 92.673 17.9653 92.673 17.9278C92.673 17.7904 93.835 16.8408 94.522 16.4035C96.144 15.3915 98.02 14.723 100.115 14.4106C101.397 14.2232 102.498 14.1545 106.837 14.0046C110.681 13.8671 111.723 13.7109 112.984 13.08C113.431 12.8613 113.431 12.8613 113.598 13.3736C113.712 13.7297 113.725 14.4356 113.625 14.8479C113.512 15.3102 113.104 16.0099 112.737 16.366C112.13 16.9595 110.922 17.4593 109.76 17.5905C108.445 17.7467 107.438 17.6842 104.02 17.2219C99.101 16.5597 97.639 16.4472 96.351 16.6222C94.903 16.8221 93.875 17.2281 93.247 17.8466C92.907 18.1777 92.873 18.1965 92.773 18.0965Z" fill="white"/>
<path d="M92.373 17.5093C92.259 17.3156 92.259 17.2719 92.339 17.1157C92.473 16.8658 94.335 15.1416 95.009 14.6356C96.464 13.5548 97.98 12.9425 100.863 12.2866C102.578 11.893 103.399 11.7493 105.642 11.437C109.533 10.9059 112.25 10.3125 113.498 9.72519C113.999 9.48779 114.052 9.51279 114.086 10.0563C114.119 10.5186 113.925 11.0559 113.618 11.387C113.278 11.7493 112.317 12.1242 111.162 12.3428C110.214 12.5302 109.62 12.5865 107.024 12.7239C101.824 13.005 100.095 13.2362 98.08 13.9046C95.964 14.6168 93.835 16.0162 92.78 17.3968C92.64 17.5718 92.52 17.7217 92.513 17.7217C92.5 17.7217 92.44 17.6217 92.373 17.5093Z" fill="white"/>
<path d="M91.952 16.6721C91.872 16.4722 91.806 16.2598 91.806 16.1973C91.806 16.1349 91.926 15.86 92.066 15.5914C92.893 14.0545 93.808 13.2174 95.55 12.4303C97.005 11.768 100.136 10.6873 103.373 9.7252C108.566 8.18838 110.154 7.59489 112.644 6.27048L113.291 5.92688L113.678 6.1018C114.346 6.40792 114.633 6.72653 114.633 7.15134C114.633 7.63238 114.339 8.06968 113.732 8.50699C113.004 9.0255 112.17 9.3066 109.714 9.8814C108.118 10.25 107.378 10.3937 104.821 10.8185C103.213 11.0809 102.331 11.2745 100.549 11.7556C97.112 12.6801 95.777 13.3736 93.741 15.2915C93.281 15.7226 92.74 16.2911 92.54 16.5534C92.339 16.8158 92.159 17.0282 92.139 17.0282C92.119 17.0345 92.039 16.872 91.952 16.6721Z" fill="white"/>
<path d="M78.1 2C78.1 2.1 78.2 2.2 78.3 2.3C78.4 2.6 78.5 3 78.7 3.5C78.8 4 78.9 4.6 79 5.1V6.5C79.1 6.6 79.2 6.7 79.2 6.8C79.2 7 79.3 7.1 79.4 7.3H79.7C79.9 7.3 80 7.3 80.1 7.3C80.2 7.3 80.2 7.3 80.4 7.3H82.8L82.9 7.5C82.9 7.6 82.9 7.8 83 7.9C83.1 8.1 83.2 8.3 83.2 8.5C83.3 8.8 83.3 9 83.2 9.2C83.1 9.4 83 9.6 82.8 9.7C82.5 9.8 82.2 9.9 81.9 9.9C81.6 10 81.3 10 81.2 10C81.2 10 81 10 80.8 10.1C80.6 10.1 80.5 10.2 80.4 10.2H80.1C80 10.2 79.8 10.2 79.6 10.1C79.6 10.4 79.6 10.6 79.5 10.8C79.4 11.1 79.3 11.2 78.9 11.3C78.8 11.3 78.7 11.3 78.6 11.3C78.6 11.4 78.5 11.4 78.5 11.4H78.4V12.1L78.2 12.8H78C77.7 12.8 77.3 12.8 76.7 12.8C76.1 12.8 75.6 12.7 75.4 12.5C75.3 12.5 75.2 12.6 75.1 12.7L75 13H74.9C74.6 13 74.4 13.1 74.1 13.3C73.9 13.5 73.7 13.6 73.7 13.8C73.7 13.9 73.7 14.1 73.7 14.4C73.7 14.7 73.7 15.1 73.8 15.6C73.8 16.1 73.8 16.7 73.8 17.4C73.8 18.1 73.8 18.8 73.8 19.5C73.8 20.2 73.8 20.8 73.8 21.4C73.8 22 73.7 22.5 73.7 22.9C73.6 23.5 73.5 23.9 73.5 24.3C73.4 24.6 73.3 24.9 73.2 25.1C73.1 25.3 73.1 25.4 73.1 25.6L73 25.7H72.8C72.6 25.8 72.2 25.8 71.6 25.8C71.1 25.8 70.7 25.7 70.4 25.5V25.4C70.3 25.3 70.2 25.2 70.1 25C70 24.9 69.9 24.7 69.9 24.4C69.8 24 69.8 23.7 69.8 23.6V23.4L69.6 23.3C69.7 21.5 69.8 20.1 69.9 18.9C70 17.8 70 16.9 70.1 16.2C70.2 15.5 70.2 15 70.3 14.7C70.4 14.4 70.4 14.2 70.4 14.1C70.3 14.1 70.2 14.1 70.1 14C70 13.9 70 13.8 69.8 13.7L69.6 13.4C69.5 13.4 69.5 13.3 69.4 13.3C69.4 13.2 69.3 13.2 69.2 13.2C69.2 13.1 69.1 13 68.9 12.9C68.7 12.8 68.6 12.7 68.5 12.7C68.4 12.7 68.3 12.7 68.2 12.6C68.1 12.6 68.1 12.6 68.1 12.6H68L67.4 12.7C67.4 12.7 67.3 12.7 67.2 12.6C67.1 12.6 67.1 12.6 67 12.6C66.9 12.6 66.8 12.6 66.8 12.6C66.8 12.6 66.7 12.6 66.6 12.6C66.5 12.6 66.4 12.6 66.3 12.6C66.2 12.7 66 12.7 65.9 12.7H63.3C63.3 12.6 63.3 12.5 63.3 12.3C63.3 12.2 63.3 12 63.3 11.9C63.3 11.8 63.3 11.7 63.3 11.6C63 11.7 62.7 11.9 62.1 12.3C61.6 12.6 61.2 12.7 61 12.7H59.2C59.3 12.9 59.3 13.2 59.4 13.6C59.5 14 59.6 14.4 59.7 14.9C59.8 15.4 59.8 16 60 16.6C59.9 16.6 59.8 16.6 59.7 16.6L59.2 16.9C59.2 17 59.3 17.3 59.4 17.9C59.6 18.5 59.8 19.3 60 20.2C60.2 21.1 60.4 22.2 60.6 23.3C60.8 24.5 61.1 25.7 61.4 26.8C61.5 27.4 61.7 28 61.8 28.6C61.8 28.7 61.8 28.8 61.9 28.9C61.8 28.9 61.8 28.9 61.7 28.9C61.6 28.9 61.5 28.9 61.4 28.9C61.3 28.9 61.2 28.9 61.1 28.9C61 28.9 61 29 60.9 29C60.7 29 60.4 29 60.2 29C60.1 29 60 29 59.9 29C59.8 29 59.7 29 59.6 29C59.5 29 59.5 29.1 59.4 29.1C59 29.1 58.5 29.1 58.1 29.1C58 29.1 57.9 29.1 57.8 29.1C57.7 29.1 57.6 29.1 57.5 29.1C57.4 29.1 57.4 29.2 57.3 29.2C57.1 29.2 56.8 29.2 56.6 29.2L56.4 28.3C56.1 26.9 55.8 25.7 55.5 24.4C55.2 23.1 54.9 21.9 54.6 20.9C54.4 19.8 54.2 19 54 18.4C53.8 17.8 53.7 17.4 53.7 17.4H53C52.7 17.4 52.4 17.4 52.1 17.4C51.9 17.4 51.7 17.4 51.5 17.4C51.2 17.4 51.1 17.5 50.9 17.6C50.6 17.7 50.5 17.9 50.3 18C50.2 18.2 50 18.4 50 18.5C49.9 18.6 49.9 18.8 49.7 18.9C49.6 19 49.5 19.1 49.4 19.2C49.3 19.3 48.9 19.4 48.4 19.4C47.8 19.5 47.1 19.5 46.5 19.5C45.8 19.5 45.1 19.5 44.4 19.5C43.8 19.5 43.4 19.4 43.2 19.3C42.9 19.2 42.5 19.1 42 18.9C41.5 18.7 41.2 18.5 41 18.3C40.4 19.1 40.1 19.6 40.1 19.9C40.2 20.2 40.3 20.3 40.4 20.5C40.5 20.6 40.5 20.7 40.5 20.8H40.6L40.1 21.3H40C39.9 21.3 39.8 21.3 39.7 21.3C39.6 21.4 39.5 21.6 39.3 21.9C39.1 22.2 38.9 22.6 38.6 23.1C38.4 23.6 38.2 24 38 24.4C37.8 24.7 37.7 25 37.7 25.1V26.5C37.8 26.6 37.8 26.7 37.6 26.9C37.4 27.1 37 27.1 36.6 27.1C36.4 27 36.1 26.9 35.6 26.6C35.1 26.3 34.6 26 34 25.7C33.4 25.4 32.9 25.1 32.5 24.8C32 24.4 31.7 24.2 31.7 24C31.7 23.9 31.7 23.7 31.8 23.5C31.9 23.4 32 23 32.4 22.5C32.7 22 33.1 21.2 33.6 20.1C34.2 19.1 35 17.7 36 16C36 15.7 35.9 15.3 35.7 14.6C35.6 13.9 35.1 13.5 34.2 13.2L32.4 12.5C32 12.4 31.7 12.4 31.5 12.3C31.3 12.5 31 12.5 30.8 12.5C30.5 12.4 30.2 12.4 29.9 12.4C29.5 12.3 29 12.3 28.6 12.3C28.1 12.3 27.7 12.3 27.3 12.3C26.9 12.3 26.6 12.3 26.4 12.4L4.2 20.2H4.1C4 20.2 3.9 20.2 3.6 20.2C3.3 20.3 2.9 20.3 2.6 20.3C2.3 20.3 1.9 20.3 1.5 20.3C1.1 20.2 0.8 20.2 0.6 20C0.4 19.8 0.3 19.6 0.3 19.4V16.4C0.3 15.7 0.3 14.9 0.3 14.2C0.3 13.5 0.2 12.9 0.1 12.5V10.4C0.1 10.1 0.1 9.8 0.1 9.5C0 9.2 0 8.9 0 8.7C0 8.5 0 8.2 0 7.8C0 7.5 0.2 7.2 0.6 7.1C0.6 7.1 0.9 7 1.5 7C2 7 2.6 7 3.3 7C4 7 4.7 7 5.5 7C6.2 7 6.8 7 7.3 7H22.9C23.1 6.9 23.4 6.8 23.8 6.7C24.2 6.6 24.6 6.5 25 6.4C25.4 6.3 25.8 6.1 26.2 6.1C26.5 6 26.7 5.9 26.8 5.8L27.7 5.2C27.9 5.1 28.1 5 28.2 4.9C28.4 4.9 28.5 4.8 28.6 4.8C28.5 4.5 29.1 4.4 30 4.2C30.3 4.2 30.5 4.2 30.5 4.1C30.6 4.1 30.7 4.1 30.8 4C30.9 3.9 31.3 3.6 31.9 3C32.4 2.4 32.9 1.9 33.4 1.4C33.7 1.2 34.1 1.1 34.7 1.2C35.3 1.3 35.7 1.3 36 1.4C36.1 1.4 36.2 1.4 36.3 1.4C36.4 1.4 36.4 1.4 36.4 1.4C36.5 1.4 36.5 1.4 36.6 1.4C36.7 1.5 36.9 1.6 37 1.6H38L38.3 2.1V3.9H38.5V2.9H40.7V2.3H41.9V2.9H42.7V2.3H43.8V2.9H44.6V2.3H45.8V2.9H46.7V2.3H47.8V2.9H48.7V2.3H49.9V2.9H50.8V2.3H52V2.9H52.7V2.3H54V2.9H54.7V2.3H55.9V2.9H57V4H72.7C73 3.8 73.3 3.5 73.8 3.1C74.3 2.7 74.6 2.4 74.7 2.2C74.7 1.9 74.7 1.7 74.7 1.6C74.7 1.5 74.7 1.4 74.7 1.3C74.8 1 74.9 0.8 75 0.6C75.1 0.4 75.3 0.2 75.6 0.2H75.9C76.2 0.1 76.4 0 76.7 0C76.9 0 77.1 0.2 77.3 0.5C77.6 0.9 77.8 1.3 77.9 1.7C78 1.7 78.1 1.9 78.1 2ZM56.3 3.5H39.1V4H56.3C56.3 3.9 56.3 3.5 56.3 3.5ZM42.6 17.5C42.8 17.7 43.1 17.8 43.4 17.8H47.4C47.7 17.8 47.9 17.7 48.3 17.5C48.5 17.3 48.6 17.1 48.6 16.9C48.6 16.5 48.5 16.1 48.3 15.9C48 15.7 47.7 15.6 47.4 15.6H43.4C43.1 15.6 42.8 15.7 42.6 15.9C42.3 16.1 42.2 16.5 42.2 16.9C42.1 17.1 42.3 17.3 42.6 17.5ZM20.2 11.3C20.2 10.6 19.9 10.2 19.2 10.2H17.3C17 10.2 16.8 10.3 16.7 10.5C16.5 10.7 16.4 11 16.4 11.3C16.4 11.5 16.5 11.7 16.7 11.9C16.9 12.1 17.1 12.2 17.3 12.2H19.2C19.5 12.2 19.8 12.1 20 11.9C20.1 11.7 20.2 11.6 20.2 11.3ZM5.9 9.5C5.4 9.4 5 9.4 4.5 9.3C4 9.3 3.7 9.3 3.5 9.2C3.5 9.6 3.5 10.1 3.5 10.7C3.6 11.4 3.6 12 3.7 12.7C3.7 13.4 3.7 14 3.8 14.7C3.8 15.3 3.8 15.7 3.8 15.9C3.9 16 4.2 16.2 4.7 16.4C5.2 16.6 5.7 16.7 6.2 16.7C6.5 16.7 7 16.6 7.6 16.4C8.1 16.2 8.7 16 9.3 15.8C9.9 15.5 10.4 15.3 11 15C11.5 14.7 11.9 14.5 12.2 14.4C12.4 14.2 12.5 13.9 12.5 13.6C12.5 13.3 12.4 12.8 12.2 12.3C12 11.8 11.9 11.3 11.7 10.9C11.5 10.9 11.1 10.8 10.5 10.7C10 10.6 9.3 10.4 8.6 10.2C8.3 10.1 7.8 10 7.3 9.9C6.9 9.6 6.4 9.5 5.9 9.5Z" fill="white"/>
</svg>
