<svg width="102" height="29" viewBox="0 0 102 29" fill="none" xmlns="http://www.w3.org/2000/svg">
<path d="M72.158 27.823C73.739 26.3487 74.494 25.4491 74.994 24.4683C75.528 23.4187 75.875 22.0756 75.969 20.7199C76.269 16.2656 76.843 12.8671 77.617 10.9305C78.011 9.9497 78.358 9.4561 79.206 8.6565C80.154 7.76938 81.001 7.22587 82.577 6.50744C84.372 5.68281 85.694 5.23301 89.051 4.29592C90.787 3.81488 91.928 3.44629 95.425 2.24058C97.321 1.58462 100.725 0.36641 101.673 0.0040699C101.82 -0.0521601 102 0.4851 102 0.97863C102 1.40345 101.973 1.5034 101.74 1.94071C101.299 2.77784 100.612 3.3276 98.863 4.25844C96.6 5.45791 95.052 6.07638 90.486 7.56947C88.003 8.3879 86.982 8.7564 85.213 9.4874C82.343 10.6744 81.402 11.1804 80.421 12.0612C79.747 12.6672 79.339 13.2232 78.932 14.1166L78.619 14.7913L78.539 14.4602C78.438 14.0916 78.425 13.3919 78.498 13.1732C78.545 13.0483 78.532 13.0296 78.425 13.0483C78.358 13.0608 78.225 13.217 78.118 13.4231C77.944 13.7355 77.918 13.8917 77.838 14.835C77.784 15.416 77.698 16.1719 77.637 16.5093C77.577 16.8529 77.504 17.6088 77.471 18.1898C77.304 20.9198 77.057 22.188 76.369 23.7748C75.915 24.8431 75.395 25.649 74.774 26.2737C73.9 27.1421 72.004 28.5102 71.016 28.985C70.903 29.0412 71.397 28.5415 72.158 27.823Z" fill="white"/>
<path d="M82.31 28.6727C81.696 28.6477 80.848 28.5415 80.468 28.4353C79.967 28.2978 79.76 28.1729 79.486 27.823C79.339 27.6481 79.179 27.4607 79.113 27.4107C79.012 27.3357 79.039 27.292 79.386 26.9922C79.713 26.711 79.813 26.661 80.04 26.6548C80.281 26.6548 80.334 26.686 80.674 27.0421C81.522 27.9292 81.869 28.2104 82.43 28.4665C82.73 28.6039 82.93 28.7101 82.877 28.7039C82.824 28.6976 82.57 28.6852 82.31 28.6727Z" fill="white"/>
<path d="M72.738 28.5977C72.585 28.5602 72.591 28.5415 72.938 28.3416C73.559 27.9667 74.607 27.1546 75.275 26.5299C76.496 25.3741 77.277 23.9935 77.731 22.1568C77.804 21.8632 77.991 20.7137 78.138 19.5954C78.292 18.4772 78.445 17.3589 78.485 17.1028L78.559 16.6405L78.745 17.1215C78.846 17.3901 79.206 18.0711 79.546 18.6333C80.468 20.1827 80.681 20.8449 80.681 22.1693C80.674 23.6999 80.254 24.7306 79.099 26.0051C78.565 26.5923 78.258 26.8547 77.671 27.2233C76.423 28.0042 74.827 28.5227 73.366 28.6164C73.112 28.6289 72.825 28.6227 72.738 28.5977Z" fill="white"/>
<path d="M83.711 28.2791C82.737 27.9542 82.21 27.6606 81.549 27.0608C80.881 26.4611 80.594 26.2799 80.314 26.2799C80.154 26.2799 80.16 26.2612 80.521 25.7989C80.721 25.5303 80.941 25.2179 81.001 25.0992L81.108 24.8931L81.502 24.9368C82.049 24.993 82.203 25.0805 82.904 25.7427C83.371 26.1862 83.625 26.3674 84.012 26.5486C84.733 26.8859 85.44 27.0421 86.288 27.0484C87.082 27.0608 87.069 27.0484 86.742 27.5044C86.375 28.0042 85.634 28.3165 84.646 28.3728C84.212 28.404 84.038 28.3853 83.711 28.2791Z" fill="white"/>
<path d="M85.514 25.9988C84.653 25.8239 84.058 25.5366 83.398 24.993C82.79 24.4933 82.39 24.3308 81.816 24.3558L81.362 24.3746L81.442 24.1871C81.515 24.031 81.596 23.7124 81.776 22.8627C81.809 22.7128 82.109 22.5941 82.437 22.5941C82.804 22.5941 83.344 22.9564 84.312 23.856C84.826 24.3308 85.387 24.8119 85.56 24.9306C86.321 25.4366 87.256 25.6802 88.297 25.6428L88.951 25.624L88.597 25.7677C88.41 25.8489 88.07 25.9551 87.85 25.9988C87.349 26.1113 86.054 26.1113 85.514 25.9988Z" fill="white"/>
<path d="M87.349 24.437C86.682 24.2996 86.048 23.9622 85.28 23.3375C83.792 22.1381 82.877 21.7695 82.13 22.0818L81.829 22.2068L81.789 21.4758C81.762 21.076 81.729 20.6762 81.702 20.5887C81.662 20.4326 81.682 20.4201 82.103 20.3139C83.057 20.0702 84.065 20.4013 86.181 21.657C87.316 22.3255 89.125 23.1876 89.946 23.45C90.299 23.5562 90.653 23.6124 91.16 23.6374C91.881 23.6749 91.881 23.6749 91.721 23.7936C91.454 23.9872 90.747 24.2746 90.253 24.3746C89.578 24.5183 87.903 24.5557 87.349 24.437Z" fill="white"/>
<path d="M90.913 22.5316C90.186 22.3942 89.044 21.9381 86.915 20.9323C85.3 20.1639 84.766 19.964 83.945 19.8203C82.997 19.6516 82.477 19.7079 81.903 20.0515L81.622 20.2139L81.415 19.6704C81.302 19.3705 81.088 18.9457 80.948 18.7208C80.801 18.4959 80.694 18.3085 80.701 18.296C80.714 18.2897 81.015 18.2085 81.375 18.1273C83.177 17.6962 84.539 18.0586 87.783 19.8453C89.885 21.001 91.154 21.4633 92.789 21.6633C93.376 21.732 94.845 21.7132 95.125 21.6258C95.405 21.5383 94.851 21.9194 94.391 22.1318C93.236 22.6503 92.182 22.769 90.913 22.5316Z" fill="white"/>
<path d="M92.789 20.4638C92.222 20.3888 91.14 20.1202 90.626 19.9265C90.386 19.839 89.385 19.3892 88.404 18.9394C85.567 17.615 84.799 17.3839 83.311 17.3776C82.263 17.3776 81.976 17.4401 81.048 17.8399L80.501 18.0773L80.274 17.765L80.047 17.4526L80.341 17.2027C80.968 16.6842 81.876 16.3968 83.264 16.2719C84.279 16.1782 84.733 16.2219 87.783 16.6904C93.143 17.5088 93.83 17.5963 95.125 17.5963C96.547 17.5963 97.581 17.4151 98.536 17.0028C98.81 16.8903 99.03 16.8029 99.03 16.8154C99.03 16.9278 98.569 17.9024 98.349 18.2522C97.495 19.6079 96.734 20.1639 95.345 20.4325C94.785 20.5387 93.476 20.5575 92.789 20.4638Z" fill="white"/>
<path d="M79.773 17.0965C79.72 17.0403 79.673 16.9653 79.673 16.9278C79.673 16.7904 80.835 15.8408 81.522 15.4035C83.144 14.3915 85.02 13.723 87.115 13.4106C88.397 13.2232 89.498 13.1545 93.837 13.0046C97.681 12.8671 98.723 12.7109 99.984 12.08C100.431 11.8613 100.431 11.8613 100.598 12.3736C100.712 12.7297 100.725 13.4356 100.625 13.8479C100.512 14.3102 100.104 15.0099 99.737 15.366C99.13 15.9595 97.922 16.4593 96.76 16.5905C95.445 16.7467 94.438 16.6842 91.02 16.2219C86.101 15.5597 84.639 15.4472 83.351 15.6222C81.903 15.8221 80.875 16.2281 80.247 16.8466C79.907 17.1777 79.873 17.1965 79.773 17.0965Z" fill="white"/>
<path d="M79.373 16.5093C79.259 16.3156 79.259 16.2719 79.339 16.1157C79.473 15.8658 81.335 14.1416 82.009 13.6356C83.464 12.5548 84.98 11.9425 87.863 11.2866C89.578 10.893 90.399 10.7493 92.642 10.437C96.533 9.9059 99.25 9.3125 100.498 8.7252C100.999 8.4878 101.052 8.5128 101.086 9.0563C101.119 9.5186 100.925 10.0559 100.618 10.387C100.278 10.7493 99.317 11.1242 98.162 11.3428C97.214 11.5302 96.62 11.5865 94.024 11.7239C88.824 12.005 87.095 12.2362 85.08 12.9046C82.964 13.6168 80.835 15.0162 79.78 16.3968C79.64 16.5718 79.52 16.7217 79.513 16.7217C79.5 16.7217 79.44 16.6217 79.373 16.5093Z" fill="white"/>
<path d="M78.952 15.6721C78.872 15.4722 78.806 15.2598 78.806 15.1973C78.806 15.1349 78.926 14.86 79.066 14.5914C79.893 13.0545 80.808 12.2174 82.55 11.4303C84.005 10.768 87.136 9.6873 90.373 8.7252C95.566 7.18838 97.154 6.59489 99.644 5.27048L100.291 4.92688L100.678 5.1018C101.346 5.40792 101.633 5.72653 101.633 6.15134C101.633 6.63238 101.339 7.06968 100.732 7.50699C100.004 8.0255 99.17 8.3066 96.714 8.8814C95.118 9.25 94.378 9.3937 91.821 9.8185C90.213 10.0809 89.331 10.2745 87.549 10.7556C84.112 11.6801 82.777 12.3736 80.741 14.2915C80.281 14.7226 79.74 15.2911 79.54 15.5534C79.339 15.8158 79.159 16.0282 79.139 16.0282C79.119 16.0345 79.039 15.872 78.952 15.6721Z" fill="white"/>
<path d="M68.9 4.1C68.9 4.8 68.9 5.4 68.8 5.8C68.8 6.1 68.7 6.4 68.5 6.7C68.4 6.8 68.4 7 68.3 7.1H54.4L54.2 7L53.9 7.1H43.3L43 7.3L42.6 7.2H38.1V6.3H36.6V5.7H35.7V7.3L35.9 7.4V8.2L35.7 8.4L35.6 9.9H25.5C25.4 9.9 25.4 9.9 25.3 10C25.2 10.1 25 10.3 24.9 10.5C24.8 10.8 24.2 12.3 23.1 14.9C22.9 15.2 22.8 15.3 22.7 15.4C22.6 15.5 22.4 15.5 22 15.5L17.4 15.7C17.2 15.6 17 15.5 16.7 15.4C16.2 15.2 15.8 15.1 15.5 15C15.2 14.9 14.9 14.9 14.8 14.9C14.7 14.9 14.5 15 14.1 15C13.8 15.1 13.6 15.1 13.3 15.1L13 15L10.7 24.6L10.6 25.7L11.1 26.4L1.5 26.3C1.5 25.7 1.5 25 1.6 24.1C1.8 22.3 2.1 20.6 2.4 19C2.8 17.4 3.4 15.8 4 14.4C4 14.3 4.2 13.9 4.6 13.1C4.8 12.7 4.9 12.4 4.9 12.3C5 11.9 4.9 11.7 4.7 11.5C4.5 11.3 4.1 11.1 3.5 10.9C2.9 10.7 2.5 10.6 2.3 10.5C2.1 10.4 1.9 10.3 1.9 10.1C1.9 9.9 1.9 9.5 1.9 9.1L2.3 8.5L0.599998 8.3C0.499998 8.3 0.399999 8.3 0.299999 8.2C0.0999992 8.1 0 7.9 0 7.6C0.1 7.3 0.299998 7.2 0.599998 7.2C0.799998 7.2 0.899998 7.2 1.1 7.2L1.3 6L2.6 6.8L3.2 3.9L4.1 2.1V1.5L4.8 1.9H7.7L8 2.1H17.7V2.3H23.1V2.2H32.5V1H34.7L35 1.3V2.1H35.3L35.7 2.5V3.2H36.6V2.6H37.9V1.3H42.5L42.9 1.1L43.3 1.3H54H54.3L54.6 1.2H68.3L68.5 1.5C68.6 1.8 68.7 2.1 68.8 2.4C68.8 2.9 68.8 3.4 68.9 4.1ZM22.9 10H17.8C17.3 10.5 16.9 10.9 16.7 11.1C16.4 11.5 16.2 11.8 16.2 11.8C16 12.1 15.9 12.5 15.8 12.9C15.8 13.1 15.8 13.4 15.9 13.8C16 14 16 14.1 16.1 14.2L15.8 14.5C15.7 14.3 15.5 14 15.4 13.7C15.2 13.2 15.1 12.7 15.1 12.4C15.2 11.8 15.4 11.3 15.8 10.8C15.9 10.6 16.1 10.4 16.3 10.2C16.1 10.2 15.9 10.3 15.6 10.4C15.1 10.6 14.7 10.8 14.4 11C14.1 11.4 13.9 11.7 13.8 12.2C13.7 12.6 13.7 13.1 13.9 13.4C14.1 13.8 14.3 14.1 14.7 14.3C15 14.5 15.4 14.7 15.9 14.8C16.2 14.8 16.6 14.8 17.2 14.8C17.7 14.8 18 14.8 18.2 14.9C18.4 15 19.1 15 20.4 15C21.6 15 22.2 14.9 22.4 14.9C22.5 14.8 22.8 14.1 23.3 12.9L24 11C24 10.9 24 10.8 24 10.7C24 10.5 24 10.4 23.9 10.3C23.8 10.2 23.6 10.1 23.4 10H22.9Z" fill="white"/>
</svg>
