<svg width="130" height="29" viewBox="0 0 130 29" fill="none" xmlns="http://www.w3.org/2000/svg">
<path d="M100.158 27.823C101.739 26.3487 102.494 25.4491 102.994 24.4683C103.528 23.4187 103.875 22.0756 103.969 20.7199C104.269 16.2656 104.843 12.8671 105.617 10.9305C106.011 9.9497 106.358 9.4561 107.206 8.6565C108.154 7.76938 109.001 7.22587 110.577 6.50744C112.372 5.68281 113.694 5.23301 117.051 4.29592C118.787 3.81488 119.928 3.44629 123.425 2.24058C125.321 1.58462 128.725 0.366406 129.673 0.00406609C129.82 -0.0521639 130 0.485096 130 0.978626C130 1.40345 129.973 1.5034 129.74 1.94071C129.299 2.77784 128.612 3.3276 126.863 4.25844C124.6 5.45791 123.052 6.07638 118.486 7.56947C116.003 8.3879 114.982 8.7564 113.213 9.4874C110.343 10.6744 109.402 11.1804 108.421 12.0612C107.747 12.6672 107.339 13.2232 106.932 14.1166L106.619 14.7913L106.539 14.4602C106.438 14.0916 106.425 13.3919 106.498 13.1732C106.545 13.0483 106.532 13.0296 106.425 13.0483C106.358 13.0608 106.225 13.217 106.118 13.4231C105.944 13.7355 105.918 13.8917 105.838 14.835C105.784 15.416 105.698 16.1719 105.637 16.5093C105.577 16.8529 105.504 17.6088 105.471 18.1898C105.304 20.9198 105.057 22.188 104.369 23.7748C103.915 24.8431 103.395 25.649 102.774 26.2737C101.9 27.1421 100.004 28.5102 99.016 28.985C98.903 29.0412 99.397 28.5415 100.158 27.823Z" fill="white"/>
<path d="M110.31 28.6727C109.696 28.6477 108.848 28.5415 108.468 28.4353C107.967 28.2978 107.76 28.1729 107.486 27.823C107.339 27.6481 107.179 27.4607 107.113 27.4107C107.012 27.3357 107.039 27.292 107.386 26.9922C107.713 26.711 107.813 26.661 108.04 26.6548C108.281 26.6548 108.334 26.686 108.674 27.0421C109.522 27.9292 109.869 28.2104 110.43 28.4665C110.73 28.6039 110.93 28.7101 110.877 28.7039C110.824 28.6976 110.57 28.6852 110.31 28.6727Z" fill="white"/>
<path d="M100.738 28.5977C100.585 28.5602 100.591 28.5415 100.938 28.3416C101.559 27.9667 102.607 27.1546 103.275 26.5299C104.496 25.3741 105.277 23.9935 105.731 22.1568C105.804 21.8632 105.991 20.7137 106.138 19.5954C106.292 18.4772 106.445 17.3589 106.485 17.1028L106.559 16.6405L106.745 17.1215C106.846 17.3901 107.206 18.0711 107.546 18.6333C108.468 20.1827 108.681 20.8449 108.681 22.1693C108.674 23.6999 108.254 24.7306 107.099 26.0051C106.565 26.5923 106.258 26.8547 105.671 27.2233C104.423 28.0042 102.827 28.5227 101.366 28.6164C101.112 28.6289 100.825 28.6227 100.738 28.5977Z" fill="white"/>
<path d="M111.711 28.2791C110.737 27.9542 110.21 27.6606 109.549 27.0608C108.881 26.4611 108.594 26.2799 108.314 26.2799C108.154 26.2799 108.16 26.2612 108.521 25.7989C108.721 25.5303 108.941 25.2179 109.001 25.0992L109.108 24.8931L109.502 24.9368C110.049 24.993 110.203 25.0805 110.904 25.7427C111.371 26.1862 111.625 26.3674 112.012 26.5486C112.733 26.8859 113.44 27.0421 114.288 27.0484C115.082 27.0608 115.069 27.0484 114.742 27.5044C114.375 28.0042 113.634 28.3165 112.646 28.3728C112.212 28.404 112.038 28.3853 111.711 28.2791Z" fill="white"/>
<path d="M113.514 25.9988C112.653 25.8239 112.058 25.5366 111.398 24.993C110.79 24.4933 110.39 24.3308 109.816 24.3558L109.362 24.3746L109.442 24.1871C109.515 24.031 109.596 23.7124 109.776 22.8627C109.809 22.7128 110.109 22.5941 110.437 22.5941C110.804 22.5941 111.344 22.9564 112.312 23.856C112.826 24.3308 113.387 24.8119 113.56 24.9306C114.321 25.4366 115.256 25.6802 116.297 25.6428L116.951 25.624L116.597 25.7677C116.41 25.8489 116.07 25.9551 115.85 25.9988C115.349 26.1113 114.054 26.1113 113.514 25.9988Z" fill="white"/>
<path d="M115.349 24.437C114.682 24.2996 114.048 23.9622 113.28 23.3375C111.792 22.1381 110.877 21.7695 110.13 22.0818L109.829 22.2068L109.789 21.4758C109.762 21.076 109.729 20.6762 109.702 20.5887C109.662 20.4326 109.682 20.4201 110.103 20.3139C111.057 20.0702 112.065 20.4013 114.181 21.657C115.316 22.3255 117.125 23.1876 117.946 23.45C118.299 23.5562 118.653 23.6124 119.16 23.6374C119.881 23.6749 119.881 23.6749 119.721 23.7936C119.454 23.9872 118.747 24.2746 118.253 24.3746C117.578 24.5183 115.903 24.5557 115.349 24.437Z" fill="white"/>
<path d="M118.913 22.5316C118.186 22.3942 117.044 21.9381 114.915 20.9323C113.3 20.1639 112.766 19.964 111.945 19.8203C110.997 19.6516 110.477 19.7079 109.903 20.0515L109.622 20.2139L109.415 19.6704C109.302 19.3705 109.088 18.9457 108.948 18.7208C108.801 18.4959 108.694 18.3085 108.701 18.296C108.714 18.2897 109.015 18.2085 109.375 18.1273C111.177 17.6962 112.539 18.0586 115.783 19.8453C117.885 21.001 119.154 21.4633 120.789 21.6633C121.376 21.732 122.845 21.7132 123.125 21.6258C123.405 21.5383 122.851 21.9194 122.391 22.1318C121.236 22.6503 120.182 22.769 118.913 22.5316Z" fill="white"/>
<path d="M120.789 20.4638C120.222 20.3888 119.14 20.1202 118.626 19.9265C118.386 19.839 117.385 19.3892 116.404 18.9394C113.567 17.615 112.799 17.3839 111.311 17.3776C110.263 17.3776 109.976 17.4401 109.048 17.8399L108.501 18.0773L108.274 17.765L108.047 17.4526L108.341 17.2027C108.968 16.6842 109.876 16.3968 111.264 16.2719C112.279 16.1782 112.733 16.2219 115.783 16.6904C121.143 17.5088 121.83 17.5963 123.125 17.5963C124.547 17.5963 125.581 17.4151 126.536 17.0028C126.81 16.8903 127.03 16.8029 127.03 16.8154C127.03 16.9278 126.569 17.9024 126.349 18.2522C125.495 19.6079 124.734 20.1639 123.345 20.4325C122.785 20.5387 121.476 20.5575 120.789 20.4638Z" fill="white"/>
<path d="M107.773 17.0965C107.72 17.0403 107.673 16.9653 107.673 16.9278C107.673 16.7904 108.835 15.8408 109.522 15.4035C111.144 14.3915 113.02 13.723 115.115 13.4106C116.397 13.2232 117.498 13.1545 121.837 13.0046C125.681 12.8671 126.723 12.7109 127.984 12.08C128.431 11.8613 128.431 11.8613 128.598 12.3736C128.712 12.7297 128.725 13.4356 128.625 13.8479C128.512 14.3102 128.104 15.0099 127.737 15.366C127.13 15.9595 125.922 16.4593 124.76 16.5905C123.445 16.7467 122.438 16.6842 119.02 16.2219C114.101 15.5597 112.639 15.4472 111.351 15.6222C109.903 15.8221 108.875 16.2281 108.247 16.8466C107.907 17.1777 107.873 17.1965 107.773 17.0965Z" fill="white"/>
<path d="M107.373 16.5093C107.259 16.3156 107.259 16.2719 107.339 16.1157C107.473 15.8658 109.335 14.1416 110.009 13.6356C111.464 12.5548 112.98 11.9425 115.863 11.2866C117.578 10.893 118.399 10.7493 120.642 10.437C124.533 9.90589 127.25 9.31249 128.498 8.72519C128.999 8.48779 129.052 8.51279 129.086 9.05629C129.119 9.51859 128.925 10.0559 128.618 10.387C128.278 10.7493 127.317 11.1242 126.162 11.3428C125.214 11.5302 124.62 11.5865 122.024 11.7239C116.824 12.005 115.095 12.2362 113.08 12.9046C110.964 13.6168 108.835 15.0162 107.78 16.3968C107.64 16.5718 107.52 16.7217 107.513 16.7217C107.5 16.7217 107.44 16.6217 107.373 16.5093Z" fill="white"/>
<path d="M106.952 15.6721C106.872 15.4722 106.806 15.2598 106.806 15.1973C106.806 15.1349 106.926 14.86 107.066 14.5914C107.893 13.0545 108.808 12.2174 110.55 11.4303C112.005 10.768 115.136 9.6873 118.373 8.7252C123.566 7.18838 125.154 6.59489 127.644 5.27048L128.291 4.92688L128.678 5.1018C129.346 5.40792 129.633 5.72653 129.633 6.15134C129.633 6.63238 129.339 7.06968 128.732 7.50699C128.004 8.0255 127.17 8.3066 124.714 8.8814C123.118 9.25 122.378 9.3937 119.821 9.8185C118.213 10.0809 117.331 10.2745 115.549 10.7556C112.112 11.6801 110.777 12.3736 108.741 14.2915C108.281 14.7226 107.74 15.2911 107.54 15.5534C107.339 15.8158 107.159 16.0282 107.139 16.0282C107.119 16.0345 107.039 15.872 106.952 15.6721Z" fill="white"/>
<path d="M97.6 3.4C97.6 3.7 97.6 3.9 97.6 4.2C97.6 4.6 97.5 4.8 97.4 5C97.2 5.2 96.9 5.3 96.3 5.3C95.7 5.3 95.1 5.3 94.5 5.3V5.7H94.6C94.7 5.7 94.7 5.8 94.7 5.9C94.9 5.9 95.2 5.9 95.6 5.8C96.1 5.8 96.4 5.8 96.7 6C96.9 6.1 97.1 6.3 97.2 6.8C97.3 7.2 97.4 7.6 97.3 8C97.1 8.5 96.7 8.9 96.1 9.1H71.7C71.6 9.1 71.2 9.2 70.5 9.5C69.8 9.7 68.8 9.8 67.4 9.8H67C66.3 9.8 65.3 9.8 64.1 9.8C62.9 9.8 61.5 9.8 60.1 9.8C58.6 9.8 57.1 9.9 55.6 9.9C54.1 9.9 52.7 9.9 51.3 9.9C50 9.9 48.9 9.9 48.1 9.9C47.2 9.9 46.7 9.9 46.6 9.8C46.3 9.7 46.1 9.6 45.8 9.6C45.5 9.6 45.3 9.6 45 9.6H43.8C43.6 9.5 43.4 9.5 43 9.5C42.6 9.5 42.2 9.5 41.7 9.4C41.3 9.4 40.9 9.4 40.6 9.4C40.3 9.4 40.1 9.4 39.9 9.4C39.7 9.4 39.5 9.5 39.3 9.7C38.7 10.1 38.3 10.3 38.1 10.3C38 10.3 37.8 10.2 37.6 10.1C37.4 10 37.1 10 36.7 9.9C36.4 9.8 36 9.7 35.5 9.7C35.1 9.6 34.8 9.6 34.7 9.6C34.5 9.6 34 9.6 33.4 9.6C32.8 9.6 32.4 9.8 32.2 9.9C32.1 9.9 31.9 10.1 31.7 10.5C31.4 10.8 31.2 11.1 30.8 11.4C30.5 11.7 30.1 12 29.8 12H29.2C29 12.1 28.9 12.2 28.8 12.2C28.7 12.2 28.7 12.2 28.6 12.2C28.4 12.2 28.1 12.2 27.6 12.2C27.1 12.2 26.7 12.2 26.2 12.3C25.7 12.3 25.2 12.4 24.8 12.4C24.4 12.5 24.1 12.6 24 12.7C23.9 12.7 23.8 13 23.7 13.4C23.5 13.8 23.3 14.3 23 14.9C22.7 15.5 22.4 16.1 22.1 16.8C21.8 17.4 21.5 18 21.2 18.6C21.2 19.1 21.2 19.4 21.3 19.6C21.3 19.8 21.4 19.9 21.4 20L21.6 20.2C21.6 20.3 21.7 20.4 21.9 20.5C22 20.6 22.1 20.7 22.1 20.9L22 21.1C21.9 21.2 21.7 21.2 21.5 21.2C21.2 21.2 21 21.3 20.8 21.3C20.5 21.3 20.2 21.3 19.9 21.2C19.5 21.1 19 21 18.5 20.9C17.9 20.8 17.4 20.7 16.9 20.6C16.4 20.4 16 20.3 15.6 20.2C15.2 20.1 14.9 20 14.9 19.9L14.8 19.8C14.7 19.7 14.6 19.5 14.6 19.3V19.1C14.6 19 14.8 18.7 15.2 18.1C15.5 17.5 15.9 16.8 16.3 16.1C16.7 15.4 17.1 14.7 17.4 14C17.7 13.4 17.9 13 17.9 12.9C17.9 12.7 17.9 12.5 17.9 12.2C17.9 11.9 17.8 11.7 17.6 11.6C17.3 11.5 16.9 11.4 16.5 11.4C16.1 11.3 15.7 11.3 15.5 11.4C15 11.4 14.8 11.4 14.8 11.3H14.7C14.7 11.2 14.7 11.1 14.7 11C14.7 10.9 14.7 10.8 14.7 10.8L14.8 10.7C14.7 10.7 14.3 10.8 13.5 10.9C12.7 11 11.9 11.2 11.1 11.4C10.3 11.6 9.5 11.8 8.8 12C8.1 12.2 7.7 12.2 7.7 12.2C7.6 12.2 7.5 12.3 7.4 12.5C7.3 12.7 7.1 12.9 6.9 13.2C6.7 13.4 6.6 13.6 6.5 13.9C6 14 5.9 14.3 5.8 14.7C5.7 15 5.5 15.2 5.5 15.5C5.4 15.7 5.3 15.9 5.3 15.9C5.2 15.9 5.1 16 4.8 16.3C4.6 16.4 4.2 16.6 3.6 16.9C3 17.2 2.2 17.5 1.2 17.9H0.9L0.2 17.7L0 4.7L5.3 3.9C5.5 3.9 5.6 3.8 5.7 3.8C5.9 3.7 6 3.6 6 3.5C6.1 3.4 6.2 3.3 6.2 3.2L23.7 1.6V1.8C23.8 2 23.9 2.1 24 2.3C24.1 2.4 24.2 2.5 24.3 2.5C24.3 2.6 24.4 2.6 24.4 2.6C24.5 2.6 24.5 2.6 24.6 2.5L24.8 2.3V1.8H24.9C25.4 1 25.8 0.5 26 0.2H26.1L26.2 0.0999999C26.6 0.0999999 26.9 0.0999999 27.2 0.0999999L27.3 0.2H27.5V0.5C27.9 0.6 28.1 0.7 28.3 0.7L28.6 0.9H29.7C30.1 0.9 30.4 0.9 30.6 1C30.8 1 30.9 1.1 30.9 1.3C31 1.3 31.1 1.5 31.1 1.9V2.2H31.2L31.3 2.3H31.4V1.2H43.6V0.6H44.3V1.3H46.1V1.5C46.1 1.7 46.1 2 46.2 2.2C46.3 2.4 46.4 2.5 46.4 2.5H91.4C91.5 2.4 91.7 2.3 91.9 2.1C92.1 1.9 92.1 1.7 92.1 1.5L92.2 1.1C92.2 0.9 92.2 0.7 92.3 0.4C92.4 0.0999996 92.6 0 92.7 0C92.8 0 93.1 0.0999997 93.5 0.3C94 0.5 94.4 0.7 94.8 0.9C95.2 1.1 95.5 1.4 95.8 1.6C96.1 1.9 96.3 2.1 96.3 2.3C96.4 2.4 96.5 2.5 96.5 2.5C96.6 2.5 96.6 2.5 96.6 2.6C96.7 2.6 96.7 2.6 96.8 2.6H97L97.6 2.8V3.4ZM92 5.4H91L90.8 5.2H71.7C71.4 5.4 71.3 5.6 71.3 5.8V6C71.6 6 72.4 6.1 73.8 6.1C75.2 6.1 77 6.1 79 6.1C81.1 6.1 83.2 6 85.5 6C87.9 6 90 5.9 91.9 5.9H92.4C92.3 5.5 92.2 5.4 92 5.4ZM28.2 0.6C28.3 0.6 28.3 0.6 28.3 0.6H28.2C28.2 0.6 28.2 0.7 28.2 0.6ZM29.5 10.2C29.5 9.8 29.4 9.5 29.3 9.3C29.1 9.1 28.9 9 28.5 9H26C25.7 9 25.4 9.1 25.2 9.3C25 9.5 24.9 9.8 24.9 10.2C24.9 10.5 25 10.7 25.2 10.9C25.4 11.1 25.7 11.2 26 11.2H28.5C28.8 11.2 29.1 11.1 29.3 10.9C29.4 10.6 29.5 10.4 29.5 10.2ZM25.6 0.7H25.7H25.6Z" fill="white"/>
</svg>
